<?xml version="1.0" encoding="UTF-8"?>
<svg width="147px" height="146px" viewBox="0 0 147 146" version="1.1" xmlns="http://www.w3.org/2000/svg" xmlns:xlink="http://www.w3.org/1999/xlink">
    <!-- Generator: Sketch 53.2 (72643) - https://sketchapp.com -->
    <title>aite</title>
    <desc>Created with Sketch.</desc>
    <g id="Page-1" stroke="none" stroke-width="1" fill="none" fill-rule="evenodd">
        <g id="aite" fill="#FFFFFF" fill-rule="nonzero">
            <path d="M91.7375,58.3875 C91.73125,58.6375 91.5625,59.975 89.9125,66.58125 L85.55625,83.0625 C84.1625,87.9375 81.1375,92.375 76.54375,96.25 C71.6625,100.4375 66.7125,102.5625 61.825,102.5625 C57.5375,102.5625 54.2375,101.08125 51.69375,97.98125 C49.2875,95.24375 48.0625,91.25625 48.0625,86.13125 C48.0625,74.19375 51.46875,64.11875 58.175,56.2125 L58.20625,56.175 C64.4125,48.5375 71.43125,44.83125 79.68125,44.83125 C83.5125,44.83125 86.4,46.31875 88.575,49.475 C90.7,52.26875 91.7375,55.19375 91.7375,58.3875 M145.975,106.90625 C145.588567,106.216131 144.859695,105.788367 144.06875,105.7875 L133.61875,105.7875 C132.911376,105.787734 132.247777,106.130011 131.8375,106.70625 C126.49375,114.2375 119.275,120.4 110.41875,125.01875 C100.14375,130.15 88.0125,132.75625 74.35625,132.75625 C56.53125,132.75625 41.95625,127.5875 31.04375,117.4125 C20.03125,106.875 14.44375,92.06875 14.44375,73.4125 C14.44375,55.99375 20.23125,41.4375 31.66875,30.125 C42.9625,18.70625 57.3875,12.925 74.54375,12.925 C90.6,12.925 103.70625,17.7 113.4625,27.09375 C122.6125,36.25 127.25,47.7375 127.25,61.25 C127.25,72.71875 123.7625,82.9375 116.91875,91.5875 C111.04375,98.74375 105.29375,102.36875 99.80625,102.36875 C96.39375,102.36875 96.10625,100.975 96.10625,99.43125 C96.10625,96.6375 96.775,93.225 98.125,89.1625 L111.80625,37.5 C111.978587,36.8445523 111.837386,36.1462418 111.423933,35.6092424 C111.01048,35.072243 110.371475,34.7572087 109.69375,34.75625 L100.19375,34.75625 C99.2139745,34.7558595 98.353439,35.4070066 98.0875,36.35 L96.575,41.68125 C92.75,34.6875 86.6375,31.15 78.35,31.15 C66.45625,31.15 55.9875,36.4625 47.26875,46.9 C38.08125,57.3875 33.43125,70.525 33.43125,85.94375 C33.43125,94.44375 35.9875,101.58125 40.99375,107.1375 C45.975,112.8 52.7875,115.675 61.2625,115.675 C70.15,115.675 78.09375,112.06875 84.925,104.95 C87.2,113.3625 93.54375,115.2875 98.8625,115.2875 C108.88125,115.2875 118.3375,109.9125 127,99.24375 C135.74375,87.8875 140.175,75.10625 140.175,61.25 C140.175,43.89375 134.46875,29.38125 123.20625,18.125 C111.3125,6.0875 95.125,0 75.125,0 C53.46875,0 35.3125,7.25 21.16875,21.51875 C7.125,35.3125 0,52.64375 0,73.03125 C0,94.6875 6.9375,112.40625 20.625,125.70625 C34.28125,138.70625 52.35625,145.3 74.3625,145.3 C89.9625,145.3 104.2875,142.025 116.94375,135.56875 C129.2875,129.33125 139.0375,120.43125 145.93125,109.1125 C146.344188,108.43924 146.360922,107.595351 145.975,106.90625" id="形状"></path>
        </g>
    </g>
</svg>