<?xml version="1.0" encoding="utf-8"?>
<svg width="21px" height="18px" viewBox="0 0 21 18" version="1.1" xmlns:xlink="http://www.w3.org/1999/xlink" xmlns="http://www.w3.org/2000/svg">
  <desc>Created with Lunacy</desc>
  <defs>
    <linearGradient x1="0.09101677" y1="0.118021652" x2="0.8385562" y2="0.769623" id="gradient_1">
      <stop offset="0" stop-color="#00D419" />
      <stop offset="1" stop-color="#8DCA03" />
    </linearGradient>
  </defs>
  <g id="camera_icon">
    <g id="编组">
      <path d="M18.2766 3.42693L15.2212 3.42693L14.239 1.21701C13.9149 0.489124 13.0516 0 12.0916 0L8.46952 0C7.50955 0 6.64624 0.489124 6.32155 1.21761L5.33999 3.42693L2.28452 3.42693C1.02333 3.42813 0.00120797 4.45026 0 5.71145L0 14.8499C0.00120797 16.1111 1.02333 17.1332 2.28452 17.1344L18.2766 17.1344C19.5378 17.1332 20.5599 16.1111 20.5611 14.8499L20.5611 5.71145C20.5599 4.45026 19.5378 3.42813 18.2766 3.42693ZM19.4189 14.8499C19.4181 15.4805 18.9072 15.9914 18.2766 15.9922L2.28452 15.9922C1.65394 15.9914 1.14302 15.4805 1.1422 14.8499L1.1422 5.71145C1.14302 5.08087 1.65394 4.56995 2.28452 4.56912L5.71145 4.56912C5.93724 4.56912 6.14174 4.4363 6.2335 4.2301L7.36436 1.68234C7.50382 1.3694 7.96845 1.1424 8.46873 1.1424L12.0916 1.1424C12.5919 1.1424 13.0565 1.3685 13.1953 1.68175L14.3277 4.2301C14.4194 4.4363 14.6239 4.56912 14.8497 4.56912L18.2766 4.56912C18.9072 4.56995 19.4181 5.08087 19.4189 5.71145L19.4189 14.8499Z" transform="translate(0 0.00843007)" id="Fill-1" fill="#FFFFFF" stroke="none" />
    </g>
    <path d="M3.99788 0C1.79368 0 0 1.79378 0 3.99796C0 6.20206 1.79368 7.99605 3.99788 7.99605C6.20209 7.99605 7.99577 6.20227 7.99577 3.99817C7.99577 1.79396 6.20209 0 3.99788 0ZM3.99788 6.85365C2.42326 6.85365 1.14212 5.57248 1.14212 3.99796C1.14212 2.42336 2.42326 1.1424 3.99788 1.1424C5.57251 1.1424 6.85365 2.42395 6.85365 3.99817C6.85365 5.57228 5.57251 6.85365 3.99788 6.85365Z" transform="translate(6.28269 5.71988)" id="Fill-3" fill="url(#gradient_1)" stroke="none" />
  </g>
</svg>