<?xml version="1.0" encoding="UTF-8"?>
<svg width="11px" height="11px" viewBox="0 0 11 11" version="1.1" xmlns="http://www.w3.org/2000/svg" xmlns:xlink="http://www.w3.org/1999/xlink">
    <!-- Generator: Sketch 53.2 (72643) - https://sketchapp.com -->
    <title>分组 3</title>
    <desc>Created with Sketch.</desc>
    <g id="我的" stroke="none" stroke-width="1" fill="none" fill-rule="evenodd">
        <g id="手机" transform="translate(-244.000000, -202.000000)" fill="#FEFEFE">
            <g id="分组-3" transform="translate(244.388155, 202.384555)">
                <path d="M5.09072727,9.54327273 C2.64109091,9.54327273 0.635727273,7.54036364 0.635727273,5.09072727 C0.635727273,2.63863636 2.64109091,0.635727273 5.09072727,0.635727273 C7.54036364,0.635727273 9.54327273,2.63863636 9.54327273,5.09072727 C9.54327273,7.54036364 7.54036364,9.54327273 5.09072727,9.54327273 M5.09072727,-3.46389584e-14 C2.29009091,-3.46389584e-14 -1.77635684e-15,2.29009091 -1.77635684e-15,5.09072727 C-1.77635684e-15,7.88890909 2.29009091,10.1814545 5.09072727,10.1814545 C7.88890909,10.1814545 10.179,7.88890909 10.179,5.09072727 C10.179,2.29009091 7.88890909,-3.46389584e-14 5.09072727,-3.46389584e-14" id="Fill-10"></path>
                <path d="M5.59906364,6.04480909 L3.40224545,6.77626364 L4.13615455,4.5819 L5.59906364,6.04480909 Z M6.77479091,3.40371818 L6.04579091,5.59808182 L4.58042727,4.13517273 L6.77479091,3.40371818 Z M2.38606364,7.79244545 L6.42624545,6.45717273 L7.76151818,2.41699091 L3.72133636,3.75471818 L2.38606364,7.79244545 Z" id="Fill-11"></path>
            </g>
        </g>
    </g>
</svg>