<?xml version="1.0" encoding="UTF-8"?>
<svg width="28px" height="21px" viewBox="0 0 28 21" version="1.1" xmlns="http://www.w3.org/2000/svg" xmlns:xlink="http://www.w3.org/1999/xlink">
    <!-- Generator: Sketch 54.1 (76490) - https://sketchapp.com -->
    <title>编组 7复制</title>
    <desc>Created with Sketch.</desc>
    <g id="星球日誌" stroke="none" stroke-width="1" fill="none" fill-rule="evenodd">
        <g id="编组-7复制">
            <rect id="矩形" fill="#FFFFFF" x="0" y="0" width="28" height="21" rx="3"></rect>
            <path d="M7.70422535,5.34963327 C7.70422535,6.09587227 7.09826192,6.70422535 6.3519887,6.70422535 C5.60583946,6.70422535 5,6.09587227 5,5.34963327 C5,4.60351824 5.60583946,4 6.3519887,4 C7.09826192,4.00024794 7.70422535,4.60364221 7.70422535,5.34963327 L7.70422535,5.34963327 Z" id="路径复制" fill="#D2D2D2"></path>
            <path d="M10.5,5.35211268 L22.3139857,5.35211268" id="直线" stroke="#D3D3D3" stroke-width="1.5" stroke-linecap="round"></path>
            <path d="M23,10.3496333 C23,11.0958723 22.3940366,11.7042254 21.6477633,11.7042254 C20.9016141,11.7042254 20.2957746,11.0958723 20.2957746,10.3496333 C20.2957746,9.60351824 20.9016141,9 21.6477633,9 C22.3940366,9.00024794 23,9.60364221 23,10.3496333 L23,10.3496333 Z" id="路径复制" fill="#D2D2D2" transform="translate(21.647887, 10.352113) scale(-1, 1) translate(-21.647887, -10.352113) "></path>
            <path d="M5.5,10.3521127 L17.3139857,10.3521127" id="直线" stroke="#D3D3D3" stroke-width="1.5" stroke-linecap="round" transform="translate(11.500000, 10.000000) scale(-1, 1) translate(-11.500000, -10.000000) "></path>
            <path d="M7.70422535,15.3496333 C7.70422535,16.0958723 7.09826192,16.7042254 6.3519887,16.7042254 C5.60583946,16.7042254 5,16.0958723 5,15.3496333 C5,14.6035182 5.60583946,14 6.3519887,14 C7.09826192,14.0002479 7.70422535,14.6036422 7.70422535,15.3496333 L7.70422535,15.3496333 Z" id="路径复制" fill="#D2D2D2"></path>
            <path d="M10.5,15.3521127 L22.3139857,15.3521127" id="直线" stroke="#D3D3D3" stroke-width="1.5" stroke-linecap="round"></path>
        </g>
    </g>
</svg>