<?xml version="1.0" encoding="utf-8"?>
<svg width="14px" height="3px" viewBox="0 0 14 3" version="1.1" xmlns:xlink="http://www.w3.org/1999/xlink" xmlns="http://www.w3.org/2000/svg">
  <desc>Created with Lunacy</desc>
  <g id="编组-9">
    <path d="M1.5 3C2.32843 3 3 2.32843 3 1.5C3 0.671573 2.32843 0 1.5 0C0.671573 0 0 0.671573 0 1.5C0 2.32843 0.671573 3 1.5 3Z" id="椭圆形" fill="#D8D8D8" stroke="none" />
    <path d="M1.5 3C2.32843 3 3 2.32843 3 1.5C3 0.671573 2.32843 0 1.5 0C0.671573 0 0 0.671573 0 1.5C0 2.32843 0.671573 3 1.5 3Z" transform="translate(6 0)" id="椭圆形" fill="#D8D8D8" stroke="none" />
    <path d="M1.5 3C2.32843 3 3 2.32843 3 1.5C3 0.671573 2.32843 0 1.5 0C0.671573 0 0 0.671573 0 1.5C0 2.32843 0.671573 3 1.5 3Z" transform="translate(11 0)" id="椭圆形" fill="#D8D8D8" stroke="none" />
  </g>
</svg>