<?xml version="1.0" encoding="UTF-8"?>
<svg width="200px" height="200px" viewBox="0 0 200 200" version="1.1" xmlns="http://www.w3.org/2000/svg" xmlns:xlink="http://www.w3.org/1999/xlink">
    <!-- Generator: Sketch 54.1 (76490) - https://sketchapp.com -->
    <title>编组 8</title>
    <desc>Created with Sketch.</desc>
    <g id="页面1" stroke="none" stroke-width="1" fill="none" fill-rule="evenodd">
        <g id="编组-8">
            <g id="编组-6">
                <circle id="椭圆形复制-8" fill="#000000" cx="100" cy="100" r="100"></circle>
                <g id="编组-2" transform="translate(37.000000, 37.000000)" fill="#FFFFFF" fill-rule="nonzero">
                    <path d="M126.583809,103.79416 C124.943809,106.71416 122.463809,107.63416 119.223809,107.51416 C115.063809,107.35416 110.903809,107.47416 106.463809,107.47416 L106.463809,120.71416 C106.423809,124.59416 104.503809,126.83416 101.223809,126.75416 C98.1038092,126.67416 96.3438092,124.55416 96.3038092,120.71416 C96.2638092,116.43416 96.3038092,112.11416 96.3038092,107.47416 L29.1038092,107.47416 C22.3038092,107.47416 20.9438092,106.15416 20.9438092,99.4341596 L20.9438092,34.5141596 L20.9438092,30.7941596 C15.8238092,30.7941596 11.0238092,30.8741596 6.26380921,30.7541596 C3.26380921,30.6741596 1.02380921,28.6741596 0.863809209,26.0341596 C0.703809209,23.2741596 2.02380921,21.3541596 4.66380921,20.5941596 C5.86380921,20.2741596 7.14380921,20.2741596 8.38380921,20.2341596 C12.4638092,20.1941596 16.5038092,20.2341596 20.9038092,20.2341596 L20.9038092,7.71415964 C20.9038092,3.23415964 22.6638092,0.954159637 26.1038092,0.994159637 C29.3838092,1.03415964 31.1038092,3.23415964 31.1038092,7.59415964 L31.1038092,96.9141596 L35.0238092,96.9141596 C63.1038092,96.9141596 91.1838092,96.9541596 119.263809,96.8741596 C122.503809,96.8741596 124.983809,97.6741596 126.583809,100.63416 L126.583809,103.79416 L126.583809,103.79416 Z" id="路径"></path>
                    <path d="M96.2638092,30.8341596 L44.1838092,30.8341596 C40.3838092,30.8341596 38.2638092,29.3541596 37.8238092,26.5541596 C37.3038092,23.1941596 39.3038092,20.6341596 42.9038092,20.3541596 C45.5038092,20.1541596 48.1438092,20.2741596 50.7438092,20.2741596 L98.8238092,20.2741596 C104.863809,20.2741596 106.423809,21.8341596 106.423809,27.9141596 L106.423809,84.8741596 C106.423809,88.8741596 103.863809,91.3141596 100.423809,90.7141596 C97.7038092,90.2341596 96.3038092,88.3141596 96.3038092,84.9141596 L96.3038092,34.9141596 C96.2638092,33.7141596 96.2638092,32.4741596 96.2638092,30.8341596 L96.2638092,30.8341596 Z" id="路径"></path>
                </g>
            </g>
        </g>
    </g>
</svg>