<?xml version="1.0" encoding="UTF-8"?>
<svg width="96px" height="24px" viewBox="0 0 96 24" version="1.1" xmlns="http://www.w3.org/2000/svg" xmlns:xlink="http://www.w3.org/1999/xlink">
    <!-- Generator: Sketch 53.2 (72643) - https://sketchapp.com -->
    <title>分组 4</title>
    <desc>Created with Sketch.</desc>
    <defs>
        <linearGradient x1="9.10167701%" y1="47.6126353%" x2="75.5344471%" y2="51.8653816%" id="linearGradient-1">
            <stop stop-color="#03FFEF" offset="0%"></stop>
            <stop stop-color="#C8FB55" offset="100%"></stop>
        </linearGradient>
    </defs>
    <g id="酒吧" stroke="none" stroke-width="1" fill="none" fill-rule="evenodd">
        <g transform="translate(-273.000000, -570.000000)" id="分组-4">
            <g transform="translate(273.000000, 570.000000)">
                <path d="M12,0.5 C5.64872538,0.5 0.5,5.64872538 0.5,12 C0.5,18.3512746 5.64872538,23.5 12,23.5 L84,23.5 C90.3512746,23.5 95.5,18.3512746 95.5,12 C95.5,5.64872538 90.3512746,0.5 84,0.5 L12,0.5 Z" id="矩形" stroke="url(#linearGradient-1)" fill="#131D21"></path>
                <g id="分组-3" transform="translate(73.000000, 9.500000)" fill="#02F52B">
                    <path d="M7.5892499,0.264013234 L7.5892499,0.264013234 C7.81741198,0.268669603 8.00126019,0.452517816 8.00591656,0.6806799 L8.07258323,3.94734657 C8.07700151,4.16384219 7.90507885,4.34292829 7.68858323,4.34734657 C7.68325045,4.3474554 7.67791601,4.3474554 7.67258323,4.34734657 L7.67258323,4.34734657 C7.44442115,4.3426902 7.26057293,4.15884198 7.25591656,3.9306799 L7.1892499,0.664013234 C7.18483162,0.447517612 7.35675427,0.268431512 7.5732499,0.264013234 C7.57858267,0.263904401 7.58391712,0.263904401 7.5892499,0.264013234 Z" id="矩形" transform="translate(7.630917, 2.305680) rotate(135.000000) translate(-7.630917, -2.305680) "></path>
                    <path d="M7.67258323,2.66401323 L7.67258323,2.66401323 C7.88907885,2.65959496 8.06816495,2.83151761 8.07258323,3.04801323 C8.07269206,3.05334601 8.07269206,3.05868046 8.07258323,3.06401323 L8.00591656,6.3306799 C8.00126019,6.55884198 7.81741198,6.7426902 7.5892499,6.74734657 L7.5892499,6.74734657 C7.37275427,6.75176484 7.19366817,6.57984219 7.1892499,6.36334657 C7.18914106,6.35801379 7.18914106,6.35267935 7.1892499,6.34734657 L7.25591656,3.0806799 C7.26057293,2.85251782 7.44442115,2.6686696 7.67258323,2.66401323 Z" id="矩形" transform="translate(7.630917, 4.705680) rotate(45.000000) translate(-7.630917, -4.705680) "></path>
                    <path d="M4.5,-1 L4.5,-1 C4.7209139,-1 4.9,-0.8209139 4.9,-0.6 L4.9,7.6 C4.9,7.8209139 4.7209139,8 4.5,8 L4.5,8 C4.2790861,8 4.1,7.8209139 4.1,7.6 L4.1,-0.6 C4.1,-0.8209139 4.2790861,-1 4.5,-1 Z" id="矩形" transform="translate(4.500000, 3.500000) rotate(90.000000) translate(-4.500000, -3.500000) "></path>
                </g>
                <text id="申請入口" font-family="PingFangSC-Regular, PingFang SC" font-size="12" font-weight="normal" letter-spacing="1.61000001" fill="#FFFFFF">
                    <tspan x="13.585" y="17">申請入</tspan>
                    <tspan x="54.415" y="17">口</tspan>
                </text>
            </g>
        </g>
    </g>
</svg>