<?xml version="1.0" encoding="UTF-8"?>
<svg width="163px" height="200px" viewBox="0 0 163 200" version="1.1" xmlns="http://www.w3.org/2000/svg" xmlns:xlink="http://www.w3.org/1999/xlink">
    <!-- Generator: Sketch 54.1 (76490) - https://sketchapp.com -->
    <title>dingwei-2</title>
    <desc>Created with Sketch.</desc>
    <g id="公益" stroke="none" stroke-width="1" fill="none" fill-rule="evenodd">
        <g id="dingwei-2" fill="#9B9B9B" fill-rule="nonzero">
            <path d="M0.0515625,82.55 C-0.4734375,47.2625 21.1890625,15.75 53.3890625,4.925 C89.5265625,-7.25 125.189062,3.8375 147.576562,34.125 C167.914062,61.675 168.226562,102.1 147.401563,129.7125 C132.064062,150 115.901562,169.675 99.6765625,189.2125 C87.4265625,203.9125 74.1515625,203.4 62.0515625,188.3625 C47.1890625,169.875 32.1390625,151.55 17.7515625,132.7 C6.5765625,118.0375 -0.4609375,101.525 0.0515625,82.55 Z M10.4390625,82.5375 C9.0390625,96.2625 14.4890625,110.1125 23.2265625,121.95 C38.7640625,143.0875 55.5640625,163.3375 72.0765625,183.7625 C78.6140625,191.8875 85.6640625,190.1125 91.5765625,182.8625 C107.539062,163.0875 124.189063,143.8 138.839063,123.15 C158.276563,95.6875 156.901563,63.0375 137.301563,37.775 C118.776563,13.9375 87.0765625,4.45 58.5140625,14.2125 C29.5765625,24.1125 10.4390625,50.6 10.4390625,82.5375 Z" id="形状"></path>
            <path d="M46.2015625,81.4375 C46.2015625,61.55 60.6140625,46.5375 79.8015625,46.4375 C100.901563,46.3375 116.939063,61.2125 117.064063,81 C117.189063,101.1 100.826563,117.4625 80.9390625,117.2 C61.0515625,116.875 46.2390625,101.6375 46.2015625,81.4375 Z M81.5140625,56.775 C67.7140625,56.6125 57.0890625,66.9375 56.7140625,80.8375 C56.3390625,95.1625 67.2015625,106.4875 81.4390625,106.5875 C95.0140625,106.6625 106.076563,95.8625 106.326563,82.2375 C106.614063,67.7 96.1140625,56.9375 81.5140625,56.775 L81.5140625,56.775 Z" id="形状"></path>
        </g>
    </g>
</svg>