<?xml version="1.0" encoding="UTF-8"?>
<svg width="723px" height="2356px" viewBox="0 0 723 2356" version="1.1" xmlns="http://www.w3.org/2000/svg" xmlns:xlink="http://www.w3.org/1999/xlink">
    <!-- Generator: Sketch 56.2 (81672) - https://sketch.com -->
    <title>Group 13</title>
    <desc>Created with Sketch.</desc>
    <defs>
        <linearGradient x1="9.10167701%" y1="49.8157898%" x2="75.5344471%" y2="50.1439338%" id="linearGradient-1">
            <stop stop-color="#03FFEF" offset="0%"></stop>
            <stop stop-color="#7ED321" offset="100%"></stop>
        </linearGradient>
        <path d="M83.5,15 L83.5,40" id="path-2"></path>
        <filter x="-150.0%" y="-7.7%" width="400.0%" height="111.5%" filterUnits="objectBoundingBox" id="filter-3">
            <feGaussianBlur stdDeviation="0" in="SourceGraphic"></feGaussianBlur>
        </filter>
        <filter x="-200.0%" y="-9.6%" width="500.0%" height="115.4%" filterUnits="objectBoundingBox" id="filter-4">
            <feMorphology radius="1" operator="dilate" in="SourceAlpha" result="shadowSpreadOuter1"></feMorphology>
            <feOffset dx="0" dy="0" in="shadowSpreadOuter1" result="shadowOffsetOuter1"></feOffset>
            <feMorphology radius="1" operator="erode" in="SourceAlpha" result="shadowInner"></feMorphology>
            <feOffset dx="0" dy="0" in="shadowInner" result="shadowInner"></feOffset>
            <feComposite in="shadowOffsetOuter1" in2="shadowInner" operator="out" result="shadowOffsetOuter1"></feComposite>
            <feGaussianBlur stdDeviation="0.5" in="shadowOffsetOuter1" result="shadowBlurOuter1"></feGaussianBlur>
            <feColorMatrix values="0 0 0 0 0   0 0 0 0 0   0 0 0 0 0  0 0 0 0.5 0" type="matrix" in="shadowBlurOuter1"></feColorMatrix>
        </filter>
        <path d="M84.5,219 L84.5,244" id="path-5"></path>
        <filter x="-150.0%" y="-7.7%" width="400.0%" height="111.5%" filterUnits="objectBoundingBox" id="filter-6">
            <feGaussianBlur stdDeviation="0" in="SourceGraphic"></feGaussianBlur>
        </filter>
        <filter x="-200.0%" y="-9.6%" width="500.0%" height="115.4%" filterUnits="objectBoundingBox" id="filter-7">
            <feMorphology radius="1" operator="dilate" in="SourceAlpha" result="shadowSpreadOuter1"></feMorphology>
            <feOffset dx="0" dy="0" in="shadowSpreadOuter1" result="shadowOffsetOuter1"></feOffset>
            <feMorphology radius="1" operator="erode" in="SourceAlpha" result="shadowInner"></feMorphology>
            <feOffset dx="0" dy="0" in="shadowInner" result="shadowInner"></feOffset>
            <feComposite in="shadowOffsetOuter1" in2="shadowInner" operator="out" result="shadowOffsetOuter1"></feComposite>
            <feGaussianBlur stdDeviation="0.5" in="shadowOffsetOuter1" result="shadowBlurOuter1"></feGaussianBlur>
            <feColorMatrix values="0 0 0 0 0   0 0 0 0 0   0 0 0 0 0  0 0 0 0.5 0" type="matrix" in="shadowBlurOuter1"></feColorMatrix>
        </filter>
    </defs>
    <g id="新修改的图标等" stroke="none" stroke-width="1" fill="none" fill-rule="evenodd">
        <g id="Group-13">
            <g id="Group-12">
                <rect id="Rectangle" stroke="url(#linearGradient-1)" stroke-width="2" fill="#D3D3D3" x="3" y="1" width="718" height="48" rx="24"></rect>
                <rect id="Rectangle-Copy-8" stroke="url(#linearGradient-1)" stroke-width="2" fill="#E8E8E8" x="4" y="205" width="718" height="48" rx="24"></rect>
                <rect id="Rectangle-Copy-9" stroke="url(#linearGradient-1)" stroke-width="2" fill="#E8E8E8" x="3" y="549" width="718" height="48" rx="24"></rect>
                <rect id="Rectangle-Copy-11" stroke="url(#linearGradient-1)" stroke-width="2" fill="#E8E8E8" x="1" y="1294" width="718" height="48" rx="24"></rect>
                <g id="分组" transform="translate(33.000000, 19.000000)" fill="#0B0D33">
                    <path d="M14.949,17.4749071 C14.5611429,17.4749071 14.1732857,17.3291929 13.8797143,17.0291929 L7.87114286,11.02705 C7.27971429,10.4356214 7.27971429,9.47562143 7.87114286,8.88419286 C8.46257143,8.29276429 9.42257143,8.29276429 10.014,8.88419286 L16.0182857,14.8884786 C16.6075714,15.4799071 16.6075714,16.4399071 16.0182857,17.0291929 C15.7247143,17.3291929 15.3368571,17.4749071 14.949,17.4749071 Z M14.949,15.96205 L8.94471429,9.95990714 L14.949,15.96205 Z M28.3827857,16.6053357 C27.5449286,16.6053357 26.8699286,15.9281929 26.8699286,15.0903357 C26.8699286,8.51605 21.5235,3.16962143 14.9492143,3.16962143 C8.37278571,3.16962143 3.02635714,8.51605 3.02635714,15.0903357 C3.02635714,15.9281929 2.35135714,16.6053357 1.5135,16.6053357 C0.675642857,16.6053357 0.000642857143,15.9281929 0.000642857143,15.0903357 C0.000642857143,11.0981929 1.55635714,7.34176429 4.38064286,4.52176429 C7.20492857,1.70390714 10.9570714,0.141764286 14.9492143,0.141764286 C18.9413571,0.141764286 22.6977857,1.69747857 25.5177857,4.52176429 C28.3356429,7.34819286 29.8977857,11.0981929 29.8977857,15.0903357 C29.8977857,15.9281929 29.2206429,16.6053357 28.3827857,16.6053357 Z" id="Combined-Shape"></path>
                </g>
                <text id="原力有什麼用處？" font-family="PingFangSC-Regular, PingFang SC" font-size="28" font-weight="normal" letter-spacing="1" fill="#0B0D33">
                    <tspan x="108" y="38">原力有什麼用處？</tspan>
                </text>
                <text id="PAN幣有什麼用處？" font-family="PingFangSC-Regular, PingFang SC" font-size="28" font-weight="normal" letter-spacing="1" fill="#0B0D33">
                    <tspan x="109" y="242">PAN幣有什麼用處？</tspan>
                </text>
                <g id="Line-3" stroke-linecap="round" filter="url(#filter-3)">
                    <use fill="black" fill-opacity="1" filter="url(#filter-4)" xlink:href="#path-2"></use>
                    <use stroke="#979797" stroke-width="2" xlink:href="#path-2"></use>
                </g>
                <g id="Line-3-Copy" stroke-linecap="round" filter="url(#filter-6)">
                    <use fill="black" fill-opacity="1" filter="url(#filter-7)" xlink:href="#path-5"></use>
                    <use stroke="#979797" stroke-width="2" xlink:href="#path-5"></use>
                </g>
                <text id="原力是潘多拉星球PAN幣生長的動力因子，" fill="#D8D8D8" font-family="PingFangSC-Light, PingFang SC" font-size="28" font-weight="300" line-spacing="44" letter-spacing="1">
                    <tspan x="29" y="98">原力是潘多拉星球PAN幣生長的動力因子，原力越高</tspan>
                    <tspan x="29" y="142">生成的PAN數量越多 </tspan>
                </text>
                <text id="PAN幣是潘多拉星球唯一權益證明，用於紀" font-family="PingFangSC-Light, PingFang SC" font-size="28" font-weight="300" line-spacing="44" letter-spacing="1" fill="#D3D3D3">
                    <tspan x="29" y="297">PAN幣是潘多拉星球唯一權益證明，用於紀錄每個用</tspan>
                    <tspan x="29" y="341" line-spacing="40">戶價值與貢獻，用戶根據自己持有PAN的數量獲得分</tspan>
                    <tspan x="29" y="381" line-spacing="40">潤</tspan>
                    <tspan x="29" y="421" line-spacing="40"></tspan>
                    <tspan x="29" y="461" line-spacing="40">PAN幣可以用於流通交易，消費，打賞，兌換，公益</tspan>
                    <tspan x="29" y="501" line-spacing="40">捐贈等</tspan>
                </text>
                <g id="token标志" transform="translate(33.000000, 216.000000)" fill="#0B0D33" fill-rule="nonzero">
                    <path d="M19.576369,15.7266232 C19.5648792,15.7507641 19.5467375,15.7724604 19.5231532,15.7889619 L19.5228509,15.7892675 C19.5207343,15.7907953 19.5189202,15.7920177 19.517106,15.79324 C19.3759028,15.888276 19.2198838,15.9778115 19.0511657,16.0615409 C18.8818428,16.1455759 18.6986113,16.2238049 18.5041923,16.2956167 C17.512444,16.6635373 16.2101697,16.875 14.8398638,16.875 L14.8392591,16.875 L14.8392591,16.8743888 C13.8686761,16.8743888 12.9337719,16.7683519 12.120115,16.576752 C11.9855638,16.5452771 11.855548,16.5113575 11.7306724,16.4762156 C11.0763604,16.2907274 10.5163855,16.0450395 10.1012421,15.7513753 C10.0927759,15.7452637 10.0849145,15.7385409 10.0782625,15.7315125 C10.5166878,15.8036298 10.9823257,15.8662741 11.4697338,15.9179174 C12.460575,16.0224264 13.5400083,16.0823205 14.6684244,16.0869042 L14.6684244,16.0881265 L14.956878,16.0881265 L14.956878,16.0869042 C16.0855964,16.0823205 17.1647274,16.0224264 18.1555686,15.9176119 C18.6538617,15.8650518 19.1291752,15.8008796 19.576369,15.7266232 Z M11.3944455,8.14116326 C13.2848145,6.2902536 16.332324,6.28230847 18.2308568,8.14116326 C19.1074051,8.99954287 19.6516572,10.1842839 19.6516572,11.4878964 L19.6522619,11.4878964 L19.6522619,11.488202 L19.6522619,12.2711029 C19.6522619,12.3096062 19.6516572,12.3478039 19.6516572,12.3875296 L19.6522619,12.3875296 L19.6522619,12.3878352 L19.6516572,12.3878352 C19.6516572,12.7698126 19.0795878,13.092507 18.155871,13.3051921 C17.2998834,13.5022924 16.1179492,13.6245252 14.8138606,13.6245252 L14.8138606,13.6251363 L14.8126512,13.6251363 L14.8117441,13.6251363 L14.8117441,13.6245252 C14.4096022,13.6245252 14.0192525,13.6129131 13.6461375,13.5909111 L13.6461375,13.2703557 C14.0186478,13.2926632 14.4089975,13.3045809 14.8117441,13.3045809 L14.8117441,13.3039697 L14.8126512,13.3039697 L14.8138606,13.3039697 L14.8138606,13.3045809 C16.0904342,13.3045809 17.2457605,13.1854039 18.0814899,12.9928873 C18.3004002,12.9424663 19.3245012,12.704418 19.3245012,12.3878352 L19.3251059,12.3875296 C19.3241988,11.1215037 10.3008012,11.3733032 10.3008012,12.3878352 L10.2998941,12.3878352 C10.3001964,12.6005202 10.7752076,12.8159554 11.5432078,12.9928873 C12.0932048,13.1193982 12.8760207,13.2202403 13.6461375,13.2703557 L13.6461375,13.5909111 C12.8475987,13.5401845 12.0387796,13.4362867 11.469129,13.3051921 C10.5451099,13.092507 9.97364516,12.7698126 9.9733428,12.3878352 L9.97243571,12.3878352 L9.97243571,12.3875296 L9.9733428,12.3875296 L9.97364516,12.3750007 C9.97304044,12.3695002 9.97243571,12.3636942 9.97243571,12.3581937 L9.97243571,11.488202 L9.9733428,11.488202 C9.9733428,10.1842839 10.5175949,8.99954287 11.3944455,8.14116326 Z M17.1308628,8.55858817 C17.146888,8.57081145 17.1656345,8.58547939 17.1871022,8.60259195 C17.2131054,8.62337152 17.2315495,8.63803946 17.2433416,8.64751249 C17.3358645,8.72421356 17.4265731,8.8064151 17.5142582,8.89442269 C17.5771495,8.95767814 17.6808598,8.95920604 17.7455653,8.89747852 C17.8102709,8.83575097 17.8117827,8.73429776 17.7488913,8.67104231 C17.6563685,8.57845099 17.5577984,8.4889155 17.4534834,8.4027414 C17.4265731,8.38073947 17.4063149,8.36423805 17.3933133,8.35415385 C17.3724503,8.33704129 17.3509826,8.32084545 17.3295148,8.30464957 C17.254529,8.25422857 17.1571683,8.26247929 17.1006266,8.33643011 C17.0471085,8.40640837 17.0607148,8.50511134 17.1308628,8.55858817 Z M16.8523872,7.99020581 C15.5092939,7.23358496 13.8323926,7.28950646 12.5361655,8.13780187 C12.4103828,8.22000341 12.2885308,8.30984449 12.1709119,8.40671396 C12.0551072,8.50236109 11.9459544,8.60259195 11.8437559,8.70679537 C11.8407323,8.70954562 11.8377087,8.71260146 11.8349874,8.71565726 L11.834685,8.71596285 C11.7742126,8.78166296 11.7796551,8.88311617 11.8470819,8.94239906 C11.9142063,9.00168195 12.0179166,8.99618145 12.0780867,8.93048134 L12.078389,8.93017579 L12.0802032,8.9283423 C12.1766568,8.82933375 12.277041,8.73704801 12.381356,8.65148505 C12.4874852,8.56378305 12.599964,8.48127592 12.7178853,8.40365812 C13.9088903,7.62411866 15.4548687,7.57155859 16.6897163,8.26767416 C16.7680281,8.31167797 16.8678076,8.28539794 16.9128596,8.20869686 C16.9576092,8.13230137 16.930699,8.03420959 16.8523872,7.99020581 Z M9.89533331,14.319724 C8.8790937,14.1455423 8.01524464,13.9175782 7.38240037,13.6468326 C7.29955309,13.6116907 7.20309952,13.6486661 7.16711842,13.7296453 C7.13083496,13.8109301 7.1689326,13.9053549 7.25147749,13.9404969 C7.91002256,14.2222434 8.79927004,14.457847 9.83879156,14.6360013 C13.1520775,15.2034669 17.6206897,15.1451008 20.6715252,14.4618196 C20.9784229,14.3930637 21.2686907,14.3178905 21.5399097,14.2369113 C21.8126404,14.1553209 22.0611823,14.0688412 22.2825114,13.978389 L22.2825114,13.9780834 L22.2852327,13.9771667 L22.2858374,13.9771667 C22.3683824,13.9417192 22.4061776,13.8472944 22.3701965,13.7663152 C22.3345177,13.6856415 22.239576,13.6486661 22.1573335,13.6825857 L22.1570311,13.6822801 C21.9405397,13.7705933 21.7022782,13.8537116 21.4449679,13.9307182 C21.1861458,14.008336 20.9028323,14.0810646 20.5983535,14.1495149 C17.2001038,14.9107194 12.6743451,14.7961262 9.89533331,14.319724 Z M13.6461375,13.735757 C13.9760147,13.7550086 14.3179865,13.7666208 14.6684244,13.7687598 L14.6684244,13.7699821 L14.9571804,13.7699821 L14.9571804,13.7687598 C15.5461821,13.7647873 16.1119019,13.7354514 16.6340816,13.6856415 C17.2191526,13.62972 17.7458677,13.5478241 18.1870143,13.4463709 C18.6723058,13.3345279 19.0662838,13.1915156 19.3387122,13.0246678 C19.5721359,12.8813499 19.7502273,12.7530055 19.7853014,12.532681 L19.795884,11.6092124 C20.0347502,11.6519939 20.2648479,11.6975256 20.4858747,11.7461131 C20.8006339,11.8151746 21.0921111,11.8888199 21.359097,11.9664377 C22.8007604,12.3856961 23.625,12.9553008 23.625,13.5756321 L23.625,13.5759376 L23.6243953,13.5759376 C23.6243953,14.2674695 22.6090627,14.8722161 20.9687473,15.2908633 C19.3916256,15.6933147 17.2152219,15.942364 14.8135582,15.942364 L14.8135582,15.9429751 L14.8126512,15.9429751 L14.8120465,15.9429751 L14.8120465,15.942364 C12.4100805,15.942364 10.2333744,15.6933147 8.65625269,15.2908633 C7.01593729,14.8722161 6.00090709,14.2674695 6.00060473,13.5759376 L6,13.5759376 L6,13.5756321 L6.00060473,13.5756321 C6.00060473,13.441176 6.03779528,13.3097758 6.11005988,13.1820426 C6.17688195,13.0646991 6.27273079,12.9510226 6.39639698,12.8422355 C6.96241916,12.3441369 8.16309979,11.9065436 9.829116,11.6092124 L9.8505837,12.532681 C9.90228765,12.7163357 10.0528641,12.8813499 10.2862878,13.0246678 C10.5587162,13.1915156 10.9523919,13.3345279 11.4376833,13.4463709 C11.8791323,13.5478241 12.4061498,13.62972 12.9912208,13.6856415 C13.1729405,13.7030597 13.3601028,13.7177277 13.5511957,13.7299509 L13.6461375,13.735757 Z M13.5110294,17.25 C13.7242276,17.25 13.8970588,17.4228312 13.8970588,17.6360294 L13.8970588,21.3704361 C13.8970588,21.5836342 13.7242276,21.7564655 13.5110294,21.7564655 C13.2978312,21.7564655 13.125,21.5836342 13.125,21.3704361 L13.125,17.6360294 C13.125,17.4228312 13.2978312,17.25 13.5110294,17.25 Z M16.4889706,17.25 C16.7021688,17.25 16.875,17.4228312 16.875,17.6360294 L16.875,21.3704361 C16.875,21.5836342 16.7021688,21.7564655 16.4889706,21.7564655 C16.2757724,21.7564655 16.1029412,21.5836342 16.1029412,21.3704361 L16.1029412,17.6360294 C16.1029412,17.4228312 16.2757724,17.25 16.4889706,17.25 Z M15.0551471,17.25 C15.2683452,17.25 15.4411765,17.4228312 15.4411765,17.6360294 L15.4411765,23.2389706 C15.4411765,23.4521688 15.2683452,23.625 15.0551471,23.625 C14.8419489,23.625 14.6691177,23.4521688 14.6691177,23.2389706 L14.6691177,17.6360294 C14.6691177,17.4228312 14.8419489,17.25 15.0551471,17.25 Z" id="合并形状-copy-2"></path>
                    <path d="M15,30.3125 C6.71572875,30.3125 0,23.5268157 0,15.15625 C0,6.78568425 6.71572875,-1.49213975e-13 15,-1.49213975e-13 C23.2842712,-1.49213975e-13 30,6.78568425 30,15.15625 C30,23.5268157 23.2842712,30.3125 15,30.3125 Z M15,28.3984375 C22.2487373,28.3984375 28.125,22.4609638 28.125,15.1367187 C28.125,7.81247374 22.2487373,1.875 15,1.875 C7.75126267,1.875 1.875,7.81247374 1.875,15.1367187 C1.875,22.4609638 7.75126267,28.3984375 15,28.3984375 Z" id="Combined-Shape"></path>
                </g>
                <text id="如何獲取原力？" font-family="PingFangSC-Regular, PingFang SC" font-size="28" font-weight="normal" letter-spacing="1" fill="#0B0D33">
                    <tspan x="33" y="583">如何獲取原力？</tspan>
                </text>
                <text id="如何獲得PAN幣" font-family="PingFangSC-Regular, PingFang SC" font-size="28" font-weight="normal" letter-spacing="1" fill="#0B0D33">
                    <tspan x="31" y="1328">如何獲得PAN幣</tspan>
                </text>
                <path d="M28.875,791.5 L691,791.5" id="Line-4" stroke="#979797" stroke-linecap="square"></path>
                <path d="M28.875,714.5 L691,714.5" id="Line-4-Copy-13" stroke="#979797" stroke-linecap="square"></path>
                <path d="M29.875,1535.5 L692,1535.5" id="Line-4-Copy-3" stroke="#979797" stroke-linecap="square"></path>
                <path d="M29.875,1458.5 L692,1458.5" id="Line-4-Copy-12" stroke="#979797" stroke-linecap="square"></path>
                <path d="M28.875,868.5 L691,868.5" id="Line-4-Copy" stroke="#979797" stroke-linecap="square"></path>
                <path d="M29.875,1612.5 L692,1612.5" id="Line-4-Copy-4" stroke="#979797" stroke-linecap="square"></path>
                <path d="M28.875,945.5 L691,945.5" id="Line-4-Copy-2" stroke="#979797" stroke-linecap="square"></path>
                <path d="M29.875,1689.5 L692,1689.5" id="Line-4-Copy-5" stroke="#979797" stroke-linecap="square"></path>
                <path d="M28.875,1022.5 L691,1022.5" id="Line-4-Copy-2" stroke="#979797" stroke-linecap="square"></path>
                <path d="M29.875,1766.5 L692,1766.5" id="Line-4-Copy-6" stroke="#979797" stroke-linecap="square"></path>
                <path d="M28.875,1099.5 L691,1099.5" id="Line-4-Copy-2" stroke="#979797" stroke-linecap="square"></path>
                <path d="M29.875,1843.5 L692,1843.5" id="Line-4-Copy-7" stroke="#979797" stroke-linecap="square"></path>
                <path d="M28.875,1176.5 L691,1176.5" id="Line-4-Copy-2" stroke="#979797" stroke-linecap="square"></path>
                <path d="M29.875,1920.5 L692,1920.5" id="Line-4-Copy-8" stroke="#979797" stroke-linecap="square"></path>
                <path d="M27.875,2074.5 L690,2074.5" id="Line-4-Copy-10" stroke="#979797" stroke-linecap="square"></path>
                <path d="M28.875,1253.5 L691,1253.5" id="Line-4-Copy-2" stroke="#979797" stroke-linecap="square"></path>
                <path d="M29.875,1997.5 L692,1997.5" id="Line-4-Copy-9" stroke="#979797" stroke-linecap="square"></path>
                <path d="M27.875,2151.5 L690,2151.5" id="Line-4-Copy-11" stroke="#979797" stroke-linecap="square"></path>
                <text id="前5萬名內測用戶-贈送1000魔法原力-copy" font-family="PingFangSC-Light, PingFang SC" font-size="28" font-weight="300" letter-spacing="1" fill="#D3D3D3">
                    <tspan x="38" y="694">前5萬名內測用戶                  贈送1000魔法原力</tspan>
                </text>
                <text id="完成星球註冊-獲得50個永久原力" font-family="PingFangSC-Light, PingFang SC" font-size="28" font-weight="300" letter-spacing="1" fill="#D3D3D3">
                    <tspan x="39" y="771">完成星球註冊                   </tspan>
                    <tspan x="409.156" y="771" letter-spacing="4">  </tspan>
                    <tspan x="435.804" y="771"> 獲得50個永久原力</tspan>
                </text>
                <text id="首次公益捐贈10個PAN幣-獲得50個永" font-family="PingFangSC-Light, PingFang SC" font-size="28" font-weight="300" letter-spacing="1" fill="#D3D3D3">
                    <tspan x="39" y="848">首次公益捐贈10個PAN幣      </tspan>
                    <tspan x="421.552" y="848" letter-spacing="4"> </tspan>
                    <tspan x="434.876" y="848"> 獲得50個永久原力</tspan>
                </text>
                <text id="首次公益捐贈10個PAN弊-獲得10個P" font-family="PingFangSC-Light, PingFang SC" font-size="28" font-weight="300" letter-spacing="1" fill="#D3D3D3">
                    <tspan x="41" y="1592">首次公益捐贈10個PAN弊         </tspan>
                    <tspan x="454.524" y="1592" letter-spacing="5"> </tspan>
                    <tspan x="468.848" y="1592"> 獲得10個PAN幣</tspan>
                </text>
                <text id="完成星球註冊-獲得10個PAN幣" font-family="PingFangSC-Light, PingFang SC" font-size="28" font-weight="300" letter-spacing="1" fill="#D3D3D3">
                    <tspan x="41" y="1438">完成星球註冊                       </tspan>
                    <tspan x="452.452" y="1438" letter-spacing="5"> </tspan>
                    <tspan x="466.776" y="1438"> 獲得10個PAN幣</tspan>
                </text>
                <text id="跳轉IXX交易所完成註冊-獲得50個永久" font-family="PingFangSC-Light, PingFang SC" font-size="28" font-weight="300" letter-spacing="1" fill="#D3D3D3">
                    <tspan x="38" y="925">跳轉IXX交易所完成註冊         </tspan>
                    <tspan x="435.992" y="925" letter-spacing="0.3"> </tspan>
                    <tspan x="445.616" y="925">獲得50個永久原力</tspan>
                </text>
                <text id="跳轉IXX交易所完成註冊-獲得10個PA" font-family="PingFangSC-Light, PingFang SC" font-size="28" font-weight="300" letter-spacing="1" fill="#D3D3D3">
                    <tspan x="42" y="1515">跳轉IXX交易所完成註冊          </tspan>
                    <tspan x="450.316" y="1515" letter-spacing="4.2">  </tspan>
                    <tspan x="477.364" y="1515">獲得10個PAN幣</tspan>
                </text>
                <text id="發日誌10條-獲得50個永久原力" font-family="PingFangSC-Light, PingFang SC" font-size="28" font-weight="300" letter-spacing="1" fill="#D3D3D3">
                    <tspan x="39" y="1002">發日誌10條                      </tspan>
                    <tspan x="412.016" y="1002" letter-spacing="2.1">  </tspan>
                    <tspan x="434.864" y="1002"> 獲得50個永久原力</tspan>
                </text>
                <text id="發日誌3條-獲得10個PAN幣" font-family="PingFangSC-Light, PingFang SC" font-size="28" font-weight="300" letter-spacing="1" fill="#D3D3D3">
                    <tspan x="43" y="1669">發日誌3條                             獲得10個PAN幣</tspan>
                </text>
                <text id="關注100位好友-獲得50個永久原力" font-family="PingFangSC-Light, PingFang SC" font-size="28" font-weight="300" letter-spacing="1" fill="#D3D3D3">
                    <tspan x="39" y="1079">關注100位好友                   </tspan>
                    <tspan x="427.844" y="1079" letter-spacing="-0.2">  </tspan>
                    <tspan x="446.092" y="1079">獲得50個永久原力</tspan>
                </text>
                <text id="發布的日誌每被點1個讚-獲得0.1個PA" font-family="PingFangSC-Light, PingFang SC" font-size="28" font-weight="300" letter-spacing="1" fill="#D3D3D3">
                    <tspan x="42" y="1823">發布的日誌每被點1個讚            獲得0.1個PAN幣</tspan>
                </text>
                <text id="在星球日誌點100個讚-獲得5個PAN幣" font-family="PingFangSC-Light, PingFang SC" font-size="28" font-weight="300" letter-spacing="1" fill="#D3D3D3">
                    <tspan x="42" y="1746">在星球日誌點100個讚              </tspan>
                    <tspan x="466.224" y="1746" letter-spacing="2"> </tspan>
                    <tspan x="477.548" y="1746"> 獲得5個PAN幣</tspan>
                </text>
                <text id="每邀請1位有效用戶-獲得20個永久原力" font-family="PingFangSC-Light, PingFang SC" font-size="28" font-weight="300" letter-spacing="1" fill="#D3D3D3">
                    <tspan x="38" y="1156">每邀請1位有效用戶              </tspan>
                    <tspan x="426.624" y="1156" letter-spacing="0.300000012">  </tspan>
                    <tspan x="445.872" y="1156">獲得20個永久原力</tspan>
                </text>
                <text id="邀請5位有效用戶-獲得50個PAN幣" font-family="PingFangSC-Light, PingFang SC" font-size="28" font-weight="300" letter-spacing="1" fill="#D3D3D3">
                    <tspan x="42" y="1900">邀請5位有效用戶                </tspan>
                    <tspan x="427.984" y="1900" letter-spacing="2">  </tspan>
                    <tspan x="450.632" y="1900">  獲得50個PAN幣</tspan>
                </text>
                <text id="邀請第6-10位有效用戶-獲得100個P" font-family="PingFangSC-Light, PingFang SC" font-size="28" font-weight="300" letter-spacing="1" fill="#D3D3D3">
                    <tspan x="42" y="1977">邀請第6-10位有效用戶         </tspan>
                    <tspan x="432.544" y="1977" letter-spacing="4">  </tspan>
                    <tspan x="459.192" y="1977">獲得100個PAN幣</tspan>
                </text>
                <text id="邀請第11-20位有效用戶-獲得300個" font-family="PingFangSC-Light, PingFang SC" font-size="28" font-weight="300" letter-spacing="1" fill="#D3D3D3">
                    <tspan x="42" y="2054">邀請第11-20位有效用戶         </tspan>
                    <tspan x="444.632" y="2054" letter-spacing="-0.3"> </tspan>
                    <tspan x="453.656" y="2054">獲得300個PAN幣</tspan>
                </text>
                <text id="邀請第21-100位有效用戶-獲得400" font-family="PingFangSC-Light, PingFang SC" font-size="28" font-weight="300" letter-spacing="1" fill="#D3D3D3">
                    <tspan x="42" y="2131">邀請第21-100位有效用戶     </tspan>
                    <tspan x="421.136" y="2131" letter-spacing="5"> </tspan>
                    <tspan x="435.46" y="2131">獲得4000個PAN幣</tspan>
                </text>
                <text id="連續7天簽到-獲得36個魔法原力" font-family="PingFangSC-Light, PingFang SC" font-size="28" font-weight="300" letter-spacing="1" fill="#D3D3D3">
                    <tspan x="38" y="1233">連續7天簽到                      </tspan>
                    <tspan x="426.332" y="1233" letter-spacing="-0.1"> </tspan>
                    <tspan x="435.556" y="1233"> 獲得36個魔法原力</tspan>
                </text>
                <text id="備註：為防止惡意註冊盜取平台資產，用戶需" font-family="PingFangSC-Semibold, PingFang SC" font-size="28" font-weight="500" line-spacing="48" letter-spacing="1" fill="#D3D3D3">
                    <tspan x="31" y="2252">備註：為防止惡意註冊盜取平台資產，用戶需要完成</tspan>
                    <tspan x="31" y="2300">公益捐贈、星球日誌點讚數量滿100、關注10位好友</tspan>
                    <tspan x="31" y="2348">系統才會評判為真實用戶</tspan>
                </text>
            </g>
        </g>
    </g>
</svg>