<?xml version="1.0" encoding="UTF-8"?>
<svg width="84px" height="84px" viewBox="0 0 84 84" version="1.1" xmlns="http://www.w3.org/2000/svg" xmlns:xlink="http://www.w3.org/1999/xlink">
    <!-- Generator: Sketch 54.1 (76490) - https://sketchapp.com -->
    <title>编组 3</title>
    <desc>Created with Sketch.</desc>
    <g id="页面1" stroke="none" stroke-width="1" fill="none" fill-rule="evenodd">
        <g id="编组-3">
            <rect id="矩形" fill="#D8D8D8" x="0" y="0" width="84" height="84"></rect>
            <path d="M57.8560506,61.9987996 C56.7726133,61.9987996 55.7338183,61.5670754 54.9694275,60.7991163 L41.9758758,47.8053404 L28.9824917,60.7991163 C27.3876525,62.397789 24.7990391,62.4006576 23.2006619,60.8055237 C21.6022846,59.2103897 21.5994164,56.6212978 23.1942556,55.0226251 L36.1876397,42.0267552 L23.1942556,29.0329793 C21.5994164,27.4343066 21.6022846,24.8452147 23.2006618,23.2500807 C24.7990391,21.6549467 27.3876525,21.6578154 28.9824917,23.2564881 L41.9758758,36.2524417 L54.9694275,23.2564881 C55.9936892,22.1890057 57.515021,21.7589526 58.9464187,22.1322643 C60.3778164,22.5055759 61.4954812,23.6238851 61.8681633,25.0556935 C62.2408454,26.4875019 61.8102761,28.0089464 60.7425901,29.0329793 L47.7492059,42.0267552 L60.7425901,55.0226251 C62.3349841,56.6187713 62.3349841,59.2029701 60.7425901,60.7991163 C59.978283,61.5670754 58.939488,61.9987996 57.8560506,61.9987996 Z" id="路径" fill="#4A4A4A" fill-rule="nonzero"></path>
        </g>
    </g>
</svg>