<?xml version="1.0" encoding="UTF-8"?>
<svg width="191px" height="192px" viewBox="0 0 191 192" version="1.1" xmlns="http://www.w3.org/2000/svg" xmlns:xlink="http://www.w3.org/1999/xlink">
    <!-- Generator: Sketch 53.2 (72643) - https://sketchapp.com -->
    <title>Shape</title>
    <desc>Created with Sketch.</desc>
    <g id="Page-2" stroke="none" stroke-width="1" fill="none" fill-rule="evenodd">
        <path d="M162.86352,28.1345664 C125.516581,-9.21237246 65.1084184,-9.21237246 27.9655611,28.1345664 C-9.17729609,65.4815053 -9.38137773,125.889668 27.9655611,163.032526 C65.3125,200.379464 125.720663,200.379464 162.86352,163.032526 C200.006378,125.889668 200.006378,65.2774234 162.86352,28.1345664 C162.86352,28.1345664 162.86352,28.1345664 162.86352,28.1345664 Z M156.741071,156.910077 C122.863521,190.787628 67.9655613,190.787628 34.0880104,156.910077 C0.210459375,123.032526 0.210459375,68.1345664 34.0880104,34.2570154 C67.9655613,0.379464453 122.863521,0.379464453 156.741071,34.2570154 C156.741071,34.2570154 156.741071,34.2570154 156.741071,34.2570154 C190.618622,68.1345664 190.618622,123.032526 156.741071,156.910077 Z M48.7818877,142.624362 L112.047194,113.032526 L141.63903,49.7672195 L78.3737244,79.3590562 L48.7818877,142.624362 Z M105.924745,106.910077 L61.2308674,130.379464 L84.4961734,85.6855867 L105.924745,106.910077 L105.924745,106.910077 Z" id="Shape" fill="#FFFFFF" fill-rule="nonzero"></path>
    </g>
</svg>