<?xml version="1.0" encoding="UTF-8"?>
<svg width="17px" height="25px" viewBox="0 0 17 25" version="1.1" xmlns="http://www.w3.org/2000/svg" xmlns:xlink="http://www.w3.org/1999/xlink">
    <!-- Generator: Sketch 54.1 (76490) - https://sketchapp.com -->
    <title>shouji</title>
    <desc>Created with Sketch.</desc>
    <g id="注册页面" stroke="none" stroke-width="1" fill="none" fill-rule="evenodd">
        <g id="6" transform="translate(-42.000000, -193.000000)" fill="#FFFFFF" fill-rule="nonzero">
            <g id="shouji" transform="translate(42.000000, 193.000000)">
                <path d="M13.835985,24.8756219 L2.78015304,24.8756219 C1.2536612,24.8756219 0.0161950744,23.6381557 0.0161950744,22.1116639 L0.0161950744,2.76395799 C0.0161950744,1.23746615 1.2536612,1.34164189e-08 2.78015304,-1.26318709e-14 L13.835985,-1.26318709e-14 C15.3624769,1.34164185e-08 16.599943,1.23746615 16.599943,2.76395799 L16.599943,22.1116639 C16.599943,23.6381557 15.3624769,24.8756219 13.835985,24.8756219 L13.835985,24.8756219 Z M15.217964,2.76395799 C15.217964,2.00071208 14.5992309,1.38197901 13.835985,1.381979 L2.78015304,1.381979 C2.01690713,1.38197901 1.39817407,2.00071208 1.39817407,2.76395799 L1.39817407,22.1116639 C1.39817407,22.8749098 2.01690713,23.4936429 2.78015304,23.4936429 L13.835985,23.4936429 C14.5992309,23.4936429 15.217964,22.8749098 15.217964,22.1116639 L15.217964,2.76395799 L15.217964,2.76395799 Z M8.30806903,22.1116639 C7.7491107,22.1116639 7.24519101,21.7749555 7.03128692,21.2585454 C6.81738283,20.7421352 6.93561909,20.1477214 7.33086231,19.7524782 C7.72610553,19.357235 8.32051934,19.2389987 8.8369295,19.4529028 C9.35333965,19.6668069 9.69004803,20.1707266 9.69004803,20.7296849 C9.69004803,21.4929308 9.07131495,22.1116639 8.30806903,22.1116639 L8.30806903,22.1116639 Z M8.99905852,4.14593699 L7.61707954,4.14593699 C7.23545658,4.14593699 6.92609005,3.83657045 6.92609005,3.45494749 C6.92609005,3.07332453 7.23545658,2.76395799 7.61707954,2.76395799 L8.99905852,2.76395799 C9.38068148,2.76395799 9.69004801,3.07332453 9.69004801,3.45494749 C9.69004801,3.83657045 9.38068148,4.14593699 8.99905852,4.14593699 Z" id="形状"></path>
            </g>
        </g>
    </g>
</svg>