<?xml version="1.0" encoding="UTF-8"?>
<svg width="20px" height="23px" viewBox="0 0 20 23" version="1.1" xmlns="http://www.w3.org/2000/svg" xmlns:xlink="http://www.w3.org/1999/xlink">
    <!-- Generator: Sketch 54.1 (76490) - https://sketchapp.com -->
    <title>anquan</title>
    <desc>Created with Sketch.</desc>
    <g id="注册页面" stroke="none" stroke-width="1" fill="none" fill-rule="evenodd">
        <g id="6" transform="translate(-40.000000, -253.000000)" fill="#FFFFFF" fill-rule="nonzero">
            <g id="anquan" transform="translate(40.000000, 253.000000)">
                <path d="M11.0836334,20.8500384 C10.6364438,21.0926153 10.3115288,21.2005917 10.0304945,21.2005917 C9.74748813,21.2005917 9.43194093,21.0936014 8.97735573,20.8421497 C1.39288268,16.6517814 1.41802786,14.3566685 1.51121289,5.81667909 C1.52058071,4.96765987 1.53044155,4.06144771 1.5333998,3.090647 C2.70832011,2.74255898 3.96459245,2.41419267 5.27509947,2.11343672 C6.7064019,1.78457736 8.29843619,1.57207606 10.0058424,1.48086319 C13.2544995,1.84127725 15.7463364,2.31657025 18.4452511,3.09508439 C18.4501816,4.19210396 18.4644798,5.20530636 18.4768059,6.14405931 C18.594643,14.7279295 18.6232395,16.7676464 11.0836334,20.8500384 M19.9559334,6.12384456 C19.9411421,5.03422062 19.9248717,3.84549508 19.9224065,2.53991852 C19.9219135,2.21401741 19.70744,1.92657362 19.394851,1.83338857 C16.3813752,0.929148616 13.6913352,0.399127907 10.1083953,0.00420084164 C10.0689518,-0.000236522702 10.0290154,-0.000729568106 9.989572,0.000749545958 C8.17320339,0.0944276412 6.47565801,0.320241107 4.94377488,0.671780421 C3.40252399,1.02578494 1.93276425,1.41726071 0.57689732,1.83486771 C0.267266622,1.93002492 0.0552583389,2.21697566 0.0552583389,2.54139763 C0.0552583389,3.71631794 0.0429322924,4.79805322 0.0325783832,5.80040868 C-0.0610996899,14.328072 -0.0961057143,17.5190432 8.26195103,22.1368794 C8.95122447,22.5175082 9.48025909,22.6797192 10.0304945,22.6797192 C10.5708691,22.6797192 11.1132159,22.5165221 11.7881911,22.1511776 C20.1142001,17.6418108 20.0777149,14.9714925 19.9559334,6.12384456 M15.2157241,6.45309836 L8.54683101,13.1471366 L5.2730287,9.86199431 C4.88894855,9.47692811 4.2642637,9.47544897 3.87821141,9.8595291 C3.49265216,10.2441023 3.49166607,10.8682941 3.87574618,11.2543464 L7.84818977,15.2405951 C8.03357373,15.4259791 8.28453238,15.5305041 8.54683101,15.5305041 C8.80912961,15.5305041 9.06058131,15.4259791 9.24547225,15.2401021 L16.6130066,7.84446434 C16.9970867,7.45890509 16.9961006,6.83422022 16.6100483,6.45014011 C16.2249821,6.06605998 15.5998042,6.06655302 15.2157241,6.45309836" id="Shape"></path>
            </g>
        </g>
    </g>
</svg>