<?xml version="1.0" encoding="UTF-8"?>
<svg width="261px" height="239px" viewBox="0 0 261 239" version="1.1" xmlns="http://www.w3.org/2000/svg" xmlns:xlink="http://www.w3.org/1999/xlink">
    <!-- Generator: Sketch 53.2 (72643) - https://sketchapp.com -->
    <title>分组 3</title>
    <desc>Created with Sketch.</desc>
    <defs>
        <polygon id="path-1" points="0.388637437 0.910862858 180.497027 0.910862858 180.497027 181.642229 0.388637437 181.642229"></polygon>
        <polygon id="path-3" points="0 0 36 0 36 36 0 36"></polygon>
    </defs>
    <g id="首頁玩轉PAN" stroke="none" stroke-width="1" fill="none" fill-rule="evenodd">
        <g id="手机" transform="translate(-73.000000, -122.000000)">
            <g id="分组-3" transform="translate(73.000000, 122.000000)">
                <g id="分组" transform="translate(0.000000, 57.000000)">
                    <path d="M233.28963,65 C231.211408,65 229.310308,63.6185132 228.747456,61.5234106 C227.932699,58.4951182 223.756575,55.8380106 216.990547,54.0369805 C215.96718,53.7664338 214.891333,53.5141851 213.764317,53.2854621 C211.219021,52.7665876 209.576386,50.2898444 210.095941,47.7516728 C210.618121,45.2161151 213.096505,43.5706166 215.650986,44.0986399 C216.962994,44.3665725 218.219899,44.659338 219.417763,44.9782432 C229.869223,47.7582077 236.06584,52.5078039 237.838364,59.0976399 C238.511424,61.5979089 237.020982,64.1687553 234.51111,64.8379334 C234.103075,64.9490274 233.693728,65 233.28963,65" id="Fill-1" fill="#2F2725"></path>
                    <path d="M9.75947709,121.025933 C9.64849807,120.614593 9.59234001,120.195316 9.59234001,119.73107 C9.58699162,118.545987 9.99079483,116.968079 11.0952367,115.019833 C12.9992624,111.615363 17.0332832,107.331337 22.8911039,102.893886 C26.584165,100.079312 30.9858873,97.1867026 36,94.2782213 L34.7511517,84 C25.3914747,89.1344814 16.3954881,95.0823853 9.62576742,101.725997 C6.74298692,104.563056 4.41109026,107.414664 2.72634841,110.381341 C1.05096623,113.33876 0.00401950943,116.470767 8.21930464e-06,119.73107 C-0.0013288774,120.990222 0.160459824,122.253341 0.493396905,123.48075 C1.18066461,126.012279 3.81073384,127.514796 6.36859984,126.837605 C8.92780294,126.159092 10.4454077,123.557463 9.75947709,121.025933" id="Fill-3" fill="#2F2725"></path>
                    <g transform="translate(29.000000, 0.000000)">
                        <mask id="mask-2" fill="white">
                            <use xlink:href="#path-1"></use>
                        </mask>
                        <g id="Clip-6"></g>
                        <path d="M90.4384336,10.4218886 L90.4384336,10.4218886 C83.4468131,10.4218886 76.4393387,11.3340774 69.5917255,13.1743651 C26.6815139,24.7132871 1.12484234,69.1347561 12.6216453,112.197223 C17.5945212,130.825495 29.0609372,147.081812 44.9070248,157.969739 C64.3519737,171.330387 88.5491635,175.484293 111.29439,169.369446 C154.205923,157.830524 179.761273,113.409055 168.26447,70.3452624 C162.168601,47.518005 146.485018,28.5662238 125.232711,18.347854 C114.302689,13.0934879 102.398966,10.4218886 90.4384336,10.4218886 M90.4239007,181.642892 C72.4507328,181.642892 54.7100905,176.232075 39.5510102,165.818805 C21.8407547,153.648775 9.02542628,135.479249 3.46727299,114.659337 C-9.38372701,66.5294497 19.1786015,16.8827834 67.1383168,3.98618513 C87.8859372,-1.5903639 109.973222,0.462060708 129.328331,9.76956765 C153.077645,21.1891627 170.608222,42.3710332 177.418842,67.8844742 C190.268521,116.01171 161.707514,165.659702 113.747799,178.5563 C106.05728,180.624635 98.2187912,181.642892 90.4239007,181.642892" id="Fill-5" fill="#2F2725" mask="url(#mask-2)"></path>
                    </g>
                    <path d="M46.4496374,140.289928 C21.6780716,140.289928 3.39936807,135.276396 0.163520284,123.222276 C-0.516457542,120.697695 0.986372829,118.101849 3.51843034,117.426164 C6.04784202,116.738601 8.65001397,118.245696 9.32866889,120.772917 C12.4084128,132.227894 58.5490094,137.021036 126.70951,118.803928 C194.866043,100.584181 232.426219,73.4195216 229.350444,61.9619055 C228.671789,59.4360039 230.174619,56.8414781 232.705354,56.1644731 C235.236088,55.4821894 237.839583,56.9853252 238.516915,59.5125464 C244.899975,83.2723852 186.937819,112.50633 129.164839,127.946794 C100.698374,135.557492 70.5107983,140.289928 46.4496374,140.289928 L224.0625,157" id="Fill-7" fill="#2F2725"></path>
                </g>
                <g id="分组" transform="translate(225.000000, 0.000000)">
                    <mask id="mask-4" fill="white">
                        <use xlink:href="#path-3"></use>
                    </mask>
                    <g id="Clip-2"></g>
                    <path d="M18.0006475,8.12978417 L18.0006475,8.12978417 C12.5577179,8.12978417 8.12878161,12.5572662 8.12878161,18 C8.12878161,23.4427338 12.5577179,27.8715108 18.0006475,27.8715108 C23.4435771,27.8715108 27.8712184,23.4427338 27.8712184,18 C27.8712184,12.5572662 23.4435771,8.12978417 18.0006475,8.12978417 M18.0006475,36 C8.07439117,36 0,27.9258993 0,18 C0,8.07410072 8.07439117,0 18.0006475,0 C27.9256088,0 36,8.07410072 36,18 C36,27.9258993 27.9256088,36 18.0006475,36" id="Fill-1" fill="#2F2725" mask="url(#mask-4)"></path>
                </g>
            </g>
        </g>
    </g>
</svg>