<?xml version="1.0" encoding="UTF-8"?>
<svg width="172px" height="131px" viewBox="0 0 172 131" version="1.1" xmlns="http://www.w3.org/2000/svg" xmlns:xlink="http://www.w3.org/1999/xlink">
    <!-- Generator: Sketch 54.1 (76490) - https://sketchapp.com -->
    <title>shixiao</title>
    <desc>Created with Sketch.</desc>
    <g id="公益" stroke="none" stroke-width="1" fill="none" fill-rule="evenodd">
        <g id="shixiao" fill="#999999" fill-rule="nonzero">
            <path d="M37.0853875,53.634375 L59.1695875,59.623775 L63.6177875,42.822575 L35.0619875,35.078175 L33.7427875,40.061975 L56.8117875,46.318975 L55.0023875,53.152975 L38.4045875,48.650575 L39.2705875,45.376575 L33.7851875,43.888375 L29.3749875,60.546975 C28.2249875,64.507575 29.7747875,67.012175 34.0191875,68.063375 L51.3219875,72.755375 C55.1405875,73.891375 57.7089875,73.114175 59.0255875,70.419375 C59.9017875,68.623375 60.7845875,66.623775 61.6687875,64.421375 C60.1729875,63.611175 58.5185875,62.651575 56.6999875,61.548575 C56.4551875,62.092375 56.1343875,62.920975 55.7405875,64.034375 C55.2997875,64.933775 55.0313875,65.573975 54.9309875,65.952375 C54.2145875,67.893575 52.7579875,68.466975 50.5573875,67.664775 L37.1949875,64.040975 C35.2921875,63.627175 34.6405875,62.484575 35.2379875,60.610975 L37.0853875,53.634375 Z M101.465588,63.007575 L102.784788,58.024775 L91.3905875,54.933775 C91.9101875,53.346375 92.4855875,51.365575 93.1143875,48.991775 L87.7687875,47.542375 C87.6181875,48.112175 87.3795875,49.015375 87.0523875,50.247375 C86.5815875,51.645575 86.2465875,52.725175 86.0451875,53.484575 L80.9809875,52.110375 C81.5385875,51.143975 82.1219875,50.080375 82.7303875,48.922575 L77.9671875,46.409775 C76.0681875,50.167375 73.5953875,53.617175 70.5541875,56.759975 C71.9969875,57.761775 73.3887875,58.955375 74.7337875,60.335575 C75.8597875,59.115175 76.8947875,57.869375 77.8333875,56.598375 L84.5859875,58.429175 C84.4351875,58.999175 84.1605875,59.840175 83.7665875,60.953975 C83.5147875,61.904175 83.3391875,62.569575 83.2391875,62.947175 L68.7507875,59.018175 L67.4313875,64.001375 L81.0757875,67.701575 C78.9451875,71.193775 73.4861875,73.020975 64.6995875,73.179575 C65.1793875,74.019775 65.8975875,75.487975 66.8525875,77.578175 C67.0075875,78.128175 67.1529875,78.523175 67.2913875,78.765575 C75.4023875,78.115975 80.8185875,76.077575 83.5369875,72.641975 C84.3563875,77.137575 88.0287875,81.490175 94.5535875,85.701775 C95.3931875,84.808975 96.8629875,83.428775 98.9671875,81.557575 C92.1047875,77.865375 88.3903875,73.857975 87.8275875,69.532375 L100.909788,73.080775 L102.228988,68.097575 L88.5835875,64.397375 L89.9303875,59.878575 L101.465588,63.007575 Z M127.704387,63.257175 L122.499188,61.845175 L122.580588,56.983775 L117.084388,56.104175 C117.126188,56.320375 117.132987,56.677575 117.101988,57.176575 C117.123387,58.608975 117.140988,59.681375 117.154588,60.395975 L110.824988,58.679175 L109.618188,63.235375 L126.497788,67.813375 L127.704387,63.257175 Z M110.376388,72.901975 C113.160188,71.114975 115.317388,69.613575 116.845188,68.399575 L113.968988,65.025775 C111.653188,66.940775 109.245788,68.627375 106.748988,70.087375 L108.695988,74.124975 C109.077388,73.823575 109.637588,73.415375 110.376388,72.901975 Z M136.842788,61.767775 L132.248388,59.758575 C129.691188,64.864175 127.046588,68.776975 124.317387,71.494775 L121.602587,66.943775 L117.829988,68.666775 C118.653588,70.110775 119.760188,72.192975 121.152188,74.909575 C121.399588,75.486575 121.593588,75.894175 121.732188,76.134575 L124.229788,74.675175 L124.639188,77.685975 L126.432988,76.035775 C126.333588,79.061175 126.572988,81.772375 127.145788,84.164975 C125.403788,85.423175 123.362588,86.496375 121.016588,87.385775 C120.053788,85.700375 118.943988,83.823775 117.683788,81.750575 C119.072388,80.295975 120.138788,79.111975 120.886388,78.193775 C121.318188,77.700375 121.677188,77.290375 121.966388,76.960975 L118.452788,73.718575 C117.343588,75.249575 116.250188,76.531375 115.173988,77.560575 L112.280788,73.113575 L108.394588,75.263775 L111.343588,80.641375 C109.295388,81.917175 106.604588,82.968375 103.271588,83.793975 C103.583788,84.894375 103.977388,86.629175 104.456788,88.998375 C108.247588,87.584775 111.331788,86.182975 113.711588,84.793775 L116.800588,90.209975 L118.481588,88.987775 L120.352588,93.309775 C123.811188,92.008575 126.683788,90.651575 128.968788,89.237175 C130.179988,91.496975 131.845588,93.932575 133.969388,96.545175 C135.477388,95.020575 136.818188,93.755975 137.988588,92.751575 C135.789588,90.426375 134.085588,88.133175 132.875388,85.870575 C135.704388,82.773575 138.201188,78.464775 140.366388,72.947175 L142.617588,73.557575 L143.898788,68.716375 L134.473988,66.160575 C135.369388,64.675775 136.159188,63.211175 136.842788,61.767775 Z M136.006187,71.764775 C134.624787,75.460575 132.997787,78.377175 131.126787,80.514175 C130.696787,77.955375 130.704788,74.702775 131.148188,70.752375 L131.363587,70.506375 L136.006187,71.764775 Z M90.3381875,11.244575 L88.2643875,8.505575 L86.6339875,11.642175 L83.2557875,12.820575 L85.7491875,15.198775 L85.7349875,18.665775 L88.9055875,16.998175 L92.2749875,17.962775 L91.7419875,14.554375 L93.8387875,11.683375 L90.3381875,11.244575 Z M85.7417875,25.783375 C98.5837875,25.783375 109.973587,32.070375 117.073588,41.768175 L122.041388,43.115175 C114.625588,30.672975 101.144588,22.352575 85.7417875,22.352575 C78.3011875,22.352575 71.3091875,24.297575 65.2323875,27.707575 L70.1903875,29.051975 C74.9543875,26.950775 80.2139875,25.783375 85.7417875,25.783375 Z M85.7417875,126.983775 C57.5099875,126.983775 33.7613875,107.569775 26.8039875,81.213375 L23.0537875,80.195575 C29.7333875,108.982375 55.2647875,130.414575 85.7417875,130.414575 C104.221988,130.414575 120.882788,122.534975 132.625188,109.913975 L128.879188,108.897975 C117.839787,120.072375 102.587988,126.983775 85.7417875,126.983775 Z M64.1409875,16.066575 L61.3427875,14.094775 L60.7319875,17.585175 L57.8671875,19.747175 L60.9561875,21.245775 L61.9837875,24.552975 L64.5037875,21.988975 L68.0033875,21.871375 L66.4719875,18.787775 L67.6067875,15.407775 L64.1409875,16.066575 Z M85.7417875,3.484375 C113.974988,3.484375 137.723387,22.898175 144.679788,49.255775 L148.430388,50.272375 C141.750388,21.486375 116.219788,0.054175 85.7427875,0.054175 C67.2627875,0.054175 50.6029875,7.933775 38.8595875,20.554775 L42.6053875,21.570775 C53.6449875,10.396575 68.8961875,3.484375 85.7417875,3.484375 Z M128.255988,32.782775 L125.318787,30.723975 L124.900188,34.165775 L122.132188,36.206575 L125.336388,37.805575 L126.563388,41.125575 L128.960788,38.673775 L132.487988,38.684375 L130.766187,35.568375 L131.718387,32.255775 L128.255988,32.782775 Z M111.335387,23.551375 L114.055388,25.783375 L114.893587,22.438775 L117.938987,20.637575 L114.893587,18.836175 L114.055387,15.491375 L111.335387,17.723375 L107.771988,17.456975 L109.135587,20.637575 L107.771988,23.818175 L111.335387,23.551375 Z M64.9317875,108.539175 L62.2337875,106.312575 L61.4019875,109.649575 L58.3821875,111.446175 L61.4019875,113.242775 L62.2337875,116.580575 L64.9317875,114.353975 L68.4667875,114.619375 L67.1135875,111.446175 L68.4667875,108.273375 L64.9317875,108.539175 Z M42.8891875,97.542375 L45.6529875,99.799375 L46.3055875,96.404375 L49.1873875,94.570175 L46.1283875,92.750775 L45.1459875,89.360175 L42.6021875,91.630975 L39.1133875,91.369575 L40.6003875,94.592375 L39.4263875,97.821575 L42.8891875,97.542375 Z M166.417588,58.702975 L19.1021875,18.747175 C15.4863875,17.767375 11.7695875,19.938975 10.8003875,23.598575 L0.2741875,63.362575 C-0.6938125,67.022175 1.4515875,70.784375 5.0675875,71.765375 L152.382188,111.720175 C155.998787,112.701375 159.715588,110.529375 160.684588,106.869375 L171.209788,67.105575 C172.178787,63.445375 170.033388,59.683175 166.417588,58.702975 Z M167.497587,67.874975 L157.848987,104.324775 C157.121987,107.069775 154.334587,108.698975 151.622987,107.963975 L7.5819875,68.896575 C4.8697875,68.160775 3.2603875,65.338975 3.9867875,62.594375 L13.6357875,26.143575 C14.3619875,23.398775 17.1503875,21.770175 19.8617875,22.504975 L163.902987,61.572375 C166.615187,62.307375 168.224388,65.129975 167.497587,67.874975 Z M110.242387,114.396175 L113.022787,116.365975 L113.621988,112.886375 L116.461187,110.735375 L113.392387,109.236775 L112.366587,105.937375 L109.870587,108.490975 L106.397587,108.602975 L107.922987,111.679575 L106.802987,115.048775 L110.242387,114.396175 Z M85.7311875,119.104975 L87.7883875,121.838575 L89.4055875,118.708175 L92.7561875,117.533575 L90.2831875,115.160575 L90.2973875,111.701975 L87.1523875,113.365575 L83.8105875,112.402775 L84.3391875,115.803375 L82.2597875,118.667775 L85.7311875,119.104975 Z M101.294387,101.415975 C96.5295875,103.517775 91.2709875,104.685175 85.7417875,104.685175 C72.9007875,104.685175 61.5111875,98.398775 54.4099875,88.699775 L49.4423875,87.352775 C56.8579875,99.794975 70.3391875,108.115375 85.7417875,108.115375 C93.1833875,108.115375 100.175387,106.171575 106.252387,102.761175 L101.294387,101.415975 Z" id="形状"></path>
        </g>
    </g>
</svg>