<?xml version="1.0" encoding="utf-8"?>
<svg width="350px" height="418px" viewBox="0 0 350 418" version="1.1" xmlns:xlink="http://www.w3.org/1999/xlink" xmlns="http://www.w3.org/2000/svg">
  <desc>Created with Lunacy</desc>
  <defs>
    <path d="M5 0L345 0Q345.128 0 345.255 0.00582875Q345.383 0.0116575 345.509 0.0233031Q345.635 0.0349487 345.759 0.0523874Q345.884 0.0698261 346.007 0.0930224Q346.13 0.116219 346.251 0.145125Q346.373 0.174032 346.492 0.208589Q346.611 0.243147 346.728 0.283285Q346.844 0.323424 346.958 0.369061Q347.072 0.414698 347.184 0.465741Q347.295 0.516784 347.403 0.573129Q347.511 0.629473 347.616 0.691005Q347.721 0.752536 347.822 0.819128Q347.924 0.885721 348.022 0.957238Q348.119 1.02876 348.213 1.10505Q348.307 1.18135 348.396 1.26227Q348.486 1.34319 348.571 1.42857Q348.657 1.51395 348.738 1.60362Q348.819 1.69328 348.895 1.78704Q348.971 1.88081 349.043 1.97849Q349.114 2.07616 349.181 2.17755Q349.247 2.27894 349.309 2.38383Q349.371 2.48872 349.427 2.5969Q349.483 2.70508 349.534 2.81633Q349.585 2.92758 349.631 3.04167Q349.677 3.15577 349.717 3.27247Q349.757 3.38917 349.791 3.50825Q349.826 3.62732 349.855 3.74853Q349.884 3.86973 349.907 3.99281Q349.93 4.1159 349.948 4.24061Q349.965 4.36533 349.977 4.49142Q349.988 4.61751 349.994 4.74472Q350 4.87193 350 5L350 413Q350 413.128 349.994 413.255Q349.988 413.383 349.977 413.509Q349.965 413.635 349.948 413.759Q349.93 413.884 349.907 414.007Q349.884 414.13 349.855 414.252Q349.826 414.373 349.791 414.492Q349.757 414.611 349.717 414.728Q349.677 414.844 349.631 414.958Q349.585 415.073 349.534 415.184Q349.483 415.295 349.427 415.403Q349.371 415.511 349.309 415.616Q349.247 415.721 349.181 415.823Q349.114 415.924 349.043 416.022Q348.971 416.119 348.895 416.213Q348.819 416.307 348.738 416.396Q348.657 416.486 348.571 416.571Q348.486 416.657 348.396 416.738Q348.307 416.819 348.213 416.895Q348.119 416.971 348.022 417.043Q347.924 417.114 347.822 417.181Q347.721 417.248 347.616 417.309Q347.511 417.371 347.403 417.427Q347.295 417.483 347.184 417.534Q347.072 417.585 346.958 417.631Q346.844 417.677 346.728 417.717Q346.611 417.757 346.492 417.791Q346.373 417.826 346.251 417.855Q346.13 417.884 346.007 417.907Q345.884 417.93 345.759 417.948Q345.635 417.965 345.509 417.977Q345.383 417.988 345.255 417.994Q345.128 418 345 418L5 418Q4.87193 418 4.74472 417.994Q4.61751 417.988 4.49142 417.977Q4.36533 417.965 4.24061 417.948Q4.1159 417.93 3.99281 417.907Q3.86973 417.884 3.74853 417.855Q3.62732 417.826 3.50825 417.791Q3.38917 417.757 3.27247 417.717Q3.15577 417.677 3.04167 417.631Q2.92758 417.585 2.81633 417.534Q2.70508 417.483 2.5969 417.427Q2.48872 417.371 2.38383 417.309Q2.27894 417.247 2.17755 417.181Q2.07616 417.114 1.97849 417.043Q1.88081 416.971 1.78704 416.895Q1.69328 416.819 1.60362 416.738Q1.51395 416.657 1.42857 416.571Q1.34319 416.486 1.26227 416.396Q1.18135 416.307 1.10505 416.213Q1.02876 416.119 0.957239 416.022Q0.885721 415.924 0.819128 415.823Q0.752536 415.721 0.691005 415.616Q0.629473 415.511 0.573129 415.403Q0.516784 415.295 0.465741 415.184Q0.414698 415.073 0.369061 414.958Q0.323424 414.844 0.283285 414.728Q0.243147 414.611 0.208589 414.492Q0.174031 414.373 0.145125 414.252Q0.116219 414.13 0.0930224 414.007Q0.0698261 413.884 0.0523874 413.759Q0.0349487 413.635 0.0233031 413.509Q0.0116575 413.383 0.00582875 413.255Q0 413.128 0 413L0 5Q0 4.87193 0.00582875 4.74472Q0.0116575 4.61751 0.0233031 4.49142Q0.0349487 4.36533 0.0523874 4.24061Q0.0698261 4.1159 0.0930224 3.99281Q0.116219 3.86973 0.145125 3.74853Q0.174032 3.62732 0.208589 3.50825Q0.243147 3.38917 0.283285 3.27247Q0.323424 3.15577 0.369061 3.04167Q0.414698 2.92758 0.465741 2.81633Q0.516784 2.70508 0.573129 2.5969Q0.629473 2.48872 0.691005 2.38383Q0.752536 2.27894 0.819128 2.17755Q0.885721 2.07616 0.957238 1.97849Q1.02876 1.88081 1.10505 1.78704Q1.18135 1.69328 1.26227 1.60362Q1.34319 1.51395 1.42857 1.42857Q1.51395 1.34319 1.60362 1.26227Q1.69328 1.18135 1.78704 1.10505Q1.88081 1.02876 1.97849 0.957239Q2.07616 0.885721 2.17755 0.819128Q2.27894 0.752536 2.38383 0.691005Q2.48872 0.629473 2.5969 0.573129Q2.70508 0.516784 2.81633 0.465741Q2.92758 0.414698 3.04167 0.369061Q3.15577 0.323424 3.27247 0.283285Q3.38917 0.243147 3.50825 0.208589Q3.62732 0.174031 3.74853 0.145125Q3.86973 0.116219 3.99281 0.0930224Q4.1159 0.0698261 4.24061 0.0523874Q4.36533 0.0349487 4.49142 0.0233031Q4.61751 0.0116575 4.74472 0.00582875Q4.87193 0 5 0Z" transform="matrix(-1 0 0 1 350 0)" id="path_1" />
    <clipPath id="clip_1">
      <use xlink:href="#path_1" />
    </clipPath>
  </defs>
  <g id="Group">
    <g id="Group">
      <g id="暫未開啟，請耐心等待" fill="#EFEFF4" transform="translate(101.0682 55)">
        <path d="M113.785 6.75708Q112.818 4.89673 111.426 2.58228L110.401 3.10962Q111.587 5.11646 112.613 7.38696Q113.096 7.10864 113.785 6.75708ZM122.123 2.64087L123.383 2.64087Q123.046 3.35864 122.636 4.01782L126.884 4.01782L126.884 4.92603L122.006 4.92603Q121.142 6.08325 119.999 7.0647Q119.706 6.71313 119.267 6.27368Q121.098 4.79419 122.123 2.64087ZM128.393 2.64087L129.652 2.64087Q129.323 3.36597 128.964 4.01782L133.681 4.01782L133.681 4.92603L128.429 4.92603Q127.931 5.70972 127.382 6.36157Q126.767 5.92212 126.4 5.77563Q127.675 4.39868 128.393 2.64087ZM48.6142 4.39868L45.787 4.39868L45.787 9.78931Q45.787 14.5061 44.8056 16.2932Q45.2011 16.6301 45.6552 17.1135Q46.8417 15.0188 46.8417 9.8772L46.8417 8.85181L51.1337 8.85181L51.1337 9.29126L52.1591 9.29126L52.1591 8.11938Q52.5839 8.60278 52.8183 8.99829Q53.1991 8.36841 53.5507 7.73853Q53.9315 11.1956 55.206 13.4075Q54.0194 14.9895 52.0273 16.3079Q52.4814 16.8059 52.8476 17.2307Q54.6786 15.9709 55.8651 14.4475Q57.0224 16.0295 58.7362 17.1428Q59.0439 16.6301 59.5126 15.9856Q57.7108 15.0481 56.5536 13.4368Q57.9452 10.9758 58.3554 6.37622L59.3075 6.37622L59.3075 5.35083L54.6493 5.35083Q55.1327 4.14966 55.4696 2.90454L54.3857 2.69946Q53.7851 5.52661 52.1591 8.04614L52.1591 4.39868L49.786 4.39868Q49.4345 3.54907 48.995 2.65552L47.9403 3.02173Q48.2919 3.71021 48.6142 4.39868ZM137.727 2.65552Q136.262 5.1604 134.197 6.78638Q134.534 7.31372 134.798 7.82642Q136.907 6.02466 138.767 3.2561L137.727 2.65552ZM74.6808 5.76099L80.0568 5.76099L80.0568 4.76489L77.5226 4.76489L78.299 4.28149Q77.7863 3.3147 77.2883 2.67017L76.424 3.13892Q76.9074 3.82739 77.4054 4.76489L74.6808 4.76489L74.6808 5.76099ZM84.0558 7.84106L79.9982 7.84106L79.9982 8.76392L89.1681 8.76392L89.1681 7.84106L85.1105 7.84106L85.1105 6.83032L88.5236 6.83032L88.5236 5.90747L85.1105 5.90747L85.1105 4.92603L88.9631 4.92603L88.9631 4.00317L85.1105 4.00317L85.1105 2.68481L84.0558 2.68481L84.0558 4.00317L80.2033 4.00317L80.2033 4.92603L84.0558 4.92603L84.0558 5.90747L80.6428 5.90747L80.6428 6.83032L84.0558 6.83032L84.0558 7.84106ZM3.57422 10.7708L3.57422 11.4885L4.54102 11.4885L4.54102 10.7708L7.36816 10.7708L7.36816 10.009L4.54102 10.009L4.54102 9.08618L6.25488 9.08618L6.25488 9.43774L7.19238 9.43774L7.19238 5.07251L4.54102 5.07251L4.54102 4.26685L7.73438 4.26685L7.73438 3.50513L4.54102 3.50513L4.54102 2.69946L3.57422 2.69946L3.57422 3.50513L0.395508 3.50513L0.395508 4.26685L3.57422 4.26685L3.57422 5.07251L0.9375 5.07251L0.9375 9.43774L1.875 9.43774L1.875 9.08618L3.57422 9.08618L3.57422 10.009L0.307617 10.009L0.307617 10.7708L3.57422 10.7708ZM28.8903 15.9563Q29.3004 15.3704 29.7106 14.8723Q25.7262 13.2756 23.3678 10.1262L29.4616 10.1262L29.4616 9.04224L22.9577 9.04224L22.9577 6.28833L28.6559 6.28833L28.6559 5.20435L22.9577 5.20435L22.9577 2.69946L21.8151 2.69946L21.8151 5.20435L16.1754 5.20435L16.1754 6.28833L21.8151 6.28833L21.8151 9.04224L15.3112 9.04224L15.3112 10.1262L21.361 10.1262Q19.0538 13.0632 15.0768 15.1506Q15.5895 15.7366 15.8678 16.1321Q19.5885 13.9421 21.8151 10.9905L21.8151 17.0989L22.9577 17.0989L22.9577 10.9758Q25.0304 14.03 28.8903 15.9563ZM143.074 7.87036L138.694 7.87036L138.694 8.89575L148.596 8.89575L148.596 7.87036L144.246 7.87036L144.246 5.76099L148.01 5.76099L148.01 4.75024L144.246 4.75024L144.246 2.69946L143.074 2.69946L143.074 4.75024L139.339 4.75024L139.339 5.76099L143.074 5.76099L143.074 7.87036ZM98.327 5.79028L101.623 5.79028L101.623 2.78735L102.707 2.78735L102.707 5.79028L104.128 5.79028L104.128 6.80103L102.707 6.80103L102.707 15.0481Q102.707 16.8792 100.744 16.8792Q100.217 16.8792 99.1766 16.8645Q99.1033 16.3518 98.9568 15.6633Q99.9822 15.7659 100.524 15.7659Q101.623 15.7659 101.623 14.7844L101.623 6.80103L98.327 6.80103L98.327 5.79028ZM14.0479 3.13892Q11.1621 3.65161 8.51074 3.66626L8.51074 6.37622Q8.51074 9.17407 7.39746 10.4924Q7.96875 10.9026 8.32031 11.1956Q9.31641 9.92114 9.50684 7.5188L11.8945 7.5188L11.8945 11.342L12.9346 11.342L12.9346 7.5188L14.6484 7.5188L14.6484 6.552L9.55078 6.552L9.55078 4.63306Q11.9385 4.50122 14.4434 4.17896L14.0479 3.13892ZM30.7835 3.3147L36.4817 3.3147L36.4817 8.17798L31.8235 8.17798L31.8235 17.0989L30.7835 17.0989L30.7835 3.3147ZM38.1077 3.3147L43.8059 3.3147L43.8059 14.9749Q43.8059 16.9817 41.7698 16.9817Q41.3596 16.9817 40.2317 16.9524Q40.1438 16.3958 39.9973 15.8538Q40.9348 15.927 41.6819 15.9417Q42.7659 15.9417 42.7659 14.8577L42.7659 8.17798L38.1077 8.17798L38.1077 3.3147ZM96.8914 8.09009L95.617 8.09009L95.617 15.429L94.6356 15.429L94.6356 8.09009L93.3758 8.09009L93.3758 15.6194L92.3943 15.6194L92.3943 8.09009L91.1346 8.09009L91.1346 16.718L90.1092 16.718L90.1092 7.10864L92.8045 7.10864L93.2806 4.7356L89.7283 4.7356L89.7283 3.72485L98.3416 3.72485L98.3416 4.7356L94.4744 4.7356L93.9324 7.10864L97.9168 7.10864L97.9168 15.3411Q97.9168 16.762 96.6424 16.762Q95.9246 16.762 95.1483 16.718Q95.075 16.1467 94.9578 15.6926Q95.5877 15.7659 96.2322 15.7659Q96.8914 15.7659 96.8914 15.1799L96.8914 8.09009ZM35.4856 4.16431L31.8235 4.16431L31.8235 5.33618L35.4856 5.33618L35.4856 4.16431ZM39.0891 4.16431L39.0891 5.33618L42.7659 5.33618L42.7659 4.16431L39.0891 4.16431ZM123.822 7.10864Q123.266 6.37622 122.607 5.6145L123.368 5.07251Q124.071 5.74634 124.687 6.44946L123.822 7.10864ZM130.209 7.10864Q129.931 6.66919 129.023 5.6145L129.784 5.07251Q130.575 5.83423 131.073 6.44946L130.209 7.10864ZM46.8417 5.39478L51.1337 5.39478L51.1337 7.85571L46.8417 7.85571L46.8417 5.39478ZM109.419 5.52661L108.204 5.52661L108.204 14.3889Q108.204 16.5862 110.313 16.5862L113.99 16.5862Q115.909 16.5862 116.304 14.9456Q116.495 14.1838 116.714 12.6458Q116.07 12.426 115.455 12.177Q115.337 13.4661 115.176 14.3889Q115.015 15.4436 113.755 15.4436L110.606 15.4436Q109.419 15.4436 109.419 14.1106L109.419 5.52661ZM3.57422 6.72778L1.875 6.72778L1.875 5.79028L3.57422 5.79028L3.57422 6.72778ZM4.54102 5.79028L6.25488 5.79028L6.25488 6.72778L4.54102 6.72778L4.54102 5.79028ZM35.4856 7.32837L35.4856 6.15649L31.8235 6.15649L31.8235 7.32837L35.4856 7.32837ZM39.0891 7.32837L42.7659 7.32837L42.7659 6.15649L39.0891 6.15649L39.0891 7.32837ZM119.384 9.77466L125.917 9.77466L125.917 8.32446L120.409 8.32446L120.409 7.37231L125.917 7.37231L125.917 6.21509L127.06 6.21509L127.06 7.37231L132.802 7.37231L132.802 8.32446L127.06 8.32446L127.06 9.77466L133.827 9.77466L133.827 10.7561L119.384 10.7561L119.384 9.77466ZM54.4003 6.37622L57.2274 6.37622Q56.9931 10.1555 55.8798 12.3381Q54.664 10.0237 54.4003 6.37622ZM137.742 6.56665Q136.072 9.56958 134.168 11.3713Q134.461 11.9719 134.68 12.5432Q135.508 11.7156 136.321 10.6902L136.321 17.1575L137.42 17.1575L137.42 9.20337Q138.093 8.22192 138.767 7.09399L137.742 6.56665ZM119.058 12.0012Q117.71 8.99829 116.465 6.63989L115.367 7.15259Q116.714 9.76001 117.842 12.6018L119.058 12.0012ZM75.2082 8.03149L79.5295 8.03149L79.5295 7.0354L75.2082 7.0354L75.2082 8.03149ZM107.222 7.41626L106.05 7.09399Q105.406 10.2727 104.439 13.0266L105.611 13.4807Q106.548 10.5364 107.222 7.41626ZM3.57422 8.36841L1.875 8.36841L1.875 7.40161L3.57422 7.40161L3.57422 8.36841ZM6.25488 8.36841L4.54102 8.36841L4.54102 7.40161L6.25488 7.40161L6.25488 8.36841ZM99.5281 8.28052Q100.158 9.97974 100.656 11.635L99.6014 12.0159Q99.1473 10.2727 98.5467 8.61743L99.5281 8.28052ZM32.4827 11.8694L34.7971 11.8694Q34.8411 11.137 34.8557 10.1116L33.3176 10.1116L33.3176 9.20337L41.2571 9.20337L41.2571 10.1116L39.5872 10.1116L39.5872 11.8694L42.1067 11.8694L42.1067 12.7776L39.5872 12.7776L39.5872 16.22L38.5618 16.22L38.5618 12.7776L35.72 12.7776Q35.4856 14.9309 33.2444 16.3665Q32.8782 15.8831 32.4241 15.5022Q34.4895 14.4329 34.7093 12.7776L32.4827 12.7776L32.4827 11.8694ZM75.2082 10.2581L79.5295 10.2581L79.5295 9.29126L75.2082 9.29126L75.2082 10.2581ZM145.257 10.7415L138.723 10.7415L138.723 11.7668L145.257 11.7668L145.257 14.7844Q145.257 15.7805 144.348 15.7805Q143.338 15.7805 142.063 15.678Q142.21 16.3811 142.298 16.9084Q143.748 16.9231 144.597 16.9231Q146.428 16.9231 146.428 15.1946L146.428 11.7668L148.714 11.7668L148.714 10.7415L146.428 10.7415L146.428 9.34985L145.257 9.34985L145.257 10.7415ZM80.8625 17.0842L81.9172 17.0842L81.9172 14.4622L87.2492 14.4622L87.2492 15.1799Q87.2492 15.4694 87.1087 15.6489Q86.8724 15.9508 86.2385 15.9417Q85.4181 15.9417 84.3195 15.8538Q84.466 16.5129 84.5392 16.9817Q85.8576 16.9963 86.6193 16.967Q87.5396 16.9823 87.9583 16.5315Q88.3461 16.1141 88.3039 15.2971L88.3039 9.65747L80.8625 9.65747L80.8625 17.0842ZM35.8079 11.8694L38.5618 11.8694L38.5618 10.1116L35.8811 10.1116Q35.8665 10.9905 35.8079 11.8694ZM81.9172 10.595L87.2492 10.595L87.2492 11.6204L81.9172 11.6204L81.9172 10.595ZM52.3642 10.6975L47.3251 10.6975L47.3251 16.3811L48.3505 16.3811L48.3505 15.385L52.3642 15.385L52.3642 10.6975ZM119.882 12.1917L129.052 12.1917L129.052 11.0344L130.194 11.0344L130.194 12.1917L133.329 12.1917L133.329 13.1731L130.194 13.1731L130.194 15.1213Q130.194 16.967 128.29 16.967Q127.177 16.967 126.049 16.9524Q125.976 16.425 125.829 15.7073Q127.001 15.8245 127.982 15.8245Q129.052 15.8245 129.052 14.9602L129.052 13.1731L119.882 13.1731L119.882 12.1917ZM75.2082 11.5325L75.2082 16.967L76.2189 16.967L76.2189 16.0881L78.5187 16.0881L78.5187 16.967L79.5295 16.967L79.5295 11.5325L75.2082 11.5325ZM51.3388 11.6643L51.3388 14.4182L48.3505 14.4182L48.3505 11.6643L51.3388 11.6643ZM12.4951 11.8108L2.49023 11.8108L2.49023 17.1575L3.54492 17.1575L3.54492 16.6155L11.4404 16.6155L11.4404 17.1575L12.4951 17.1575L12.4951 11.8108ZM140.628 12.2356L139.778 12.8948Q140.73 13.9788 141.551 15.1067L142.488 14.3889Q141.682 13.3782 140.628 12.2356ZM76.2189 12.5286L78.5187 12.5286L78.5187 15.092L76.2189 15.092L76.2189 12.5286ZM87.2492 13.554L81.9172 13.554L81.9172 12.5286L87.2492 12.5286L87.2492 13.554ZM3.54492 12.6604L11.4404 12.6604L11.4404 13.7883L3.54492 13.7883L3.54492 12.6604ZM122.607 14.0227L123.383 13.2756Q124.379 14.1252 125.419 15.1067L124.569 15.9124Q123.778 15.0774 122.607 14.0227ZM64.0718 13.3562L62.834 17.26L61.8086 17.26L62.7095 13.3562L64.0718 13.3562ZM11.4404 15.7659L3.54492 15.7659L3.54492 14.6379L11.4404 14.6379L11.4404 15.7659Z" />
      </g>
      <g id="矩形">
        <use stroke="none" fill="#D8D8D8" fill-opacity="0.101960786" xlink:href="#path_1" />
        <g clip-path="url(#clip_1)">
          <use xlink:href="#path_1" fill="none" stroke="#979797" stroke-width="2" />
        </g>
      </g>
      <g id="您對這個模塊有什麼建議件請通過郵件告訴我們" fill="#EFEFF4" transform="translate(20.19318 104)">
        <path d="M3.45703 2.58228L4.52637 3.08032Q3.93311 4.08374 3.3252 5.00659L3.3252 11.5471L2.21191 11.5471L2.21191 6.59595Q1.604 7.40894 0.981445 8.14868Q0.629883 7.73853 0.161133 7.26978Q2.09473 5.1897 3.45703 2.58228ZM92.5115 17.0842L93.6688 17.0842L93.6688 13.7737L101.052 13.7737L101.052 14.8137Q101.052 15.8098 100.041 15.8098Q99.2205 15.8098 97.8729 15.7073Q98.0193 16.4104 98.0926 16.9084Q99.6746 16.9084 100.451 16.8938Q102.223 16.8938 102.223 15.0774L102.223 7.25513L94.1961 7.25513Q94.7381 6.43482 95.1922 5.57056L103.996 5.57056L103.996 4.48657L95.7195 4.48657Q96.0711 3.70288 96.3641 2.88989L95.1483 2.61157Q94.848 3.57105 94.4305 4.48657L89.8748 4.48657L89.8748 5.57056L93.8812 5.57056Q92.2918 8.44898 89.4647 10.8147Q89.8602 11.3713 90.1678 11.884Q91.4495 10.7415 92.5115 9.50366L92.5115 17.0842ZM151.647 2.61157L150.665 3.02173Q151.237 3.98853 151.618 4.91138L152.643 4.50122Q152.16 3.47583 151.647 2.61157ZM38.7669 4.2522L34.1526 4.2522L34.1526 5.1897L44.0696 5.1897L44.0696 4.2522L39.5725 4.2522L39.9094 4.09106Q39.3528 3.22681 38.9134 2.64087L37.9905 3.08032Q38.3714 3.62232 38.7669 4.2522ZM127.177 2.65552L126.342 3.18286Q126.928 3.87134 127.235 4.32544L120.614 4.32544L120.614 9.29126Q120.614 14.1692 119.281 16.0442Q119.735 16.4983 120.028 17.011Q121.64 14.55 121.64 8.8811L121.64 5.29224L133.622 5.29224L133.622 4.32544L127.47 4.32544L128.158 3.88599Q127.763 3.32935 127.177 2.65552ZM159.982 14.6965Q158.912 15.385 157.609 15.9709Q158.063 16.5569 158.209 16.8206Q159.381 16.176 160.333 15.5461Q160.509 15.8977 160.729 16.176Q161.373 17.0549 162.252 17.0842Q162.97 16.9963 163.278 16.2639Q163.527 15.5754 163.688 14.6526Q163.058 14.4329 162.75 14.2424Q162.619 15.1213 162.428 15.7366Q162.336 15.9603 162.186 16.0111Q161.953 16.0898 161.578 15.7512Q161.315 15.4583 161.11 15.0188Q162.296 14.1545 163.058 13.3049L162.296 12.7336Q161.622 13.4807 160.787 14.1252Q160.597 13.3928 160.48 12.4407L163.571 12.4407L163.571 11.5911L160.392 11.5911Q160.304 10.4631 160.319 9.07153L163.468 9.07153L163.468 8.20728L159.235 8.20728L159.235 7.18188L162.809 7.18188L162.809 6.31763L159.235 6.31763L159.235 5.29224L163.322 5.29224L163.322 4.42798L160.421 4.42798Q161.227 3.7981 161.754 3.3147L161.066 2.65552Q160.333 3.35864 159.645 3.87134L160.099 4.42798L157.272 4.42798L157.799 3.88599Q157.243 3.30005 156.378 2.65552L155.734 3.30005Q156.349 3.7981 156.964 4.42798L154.327 4.42798L154.327 5.29224L158.224 5.29224L158.224 6.31763L154.84 6.31763L154.84 7.18188L158.224 7.18188L158.224 8.20728L154.152 8.20728L154.152 9.07153L159.323 9.07153Q159.323 10.4485 159.425 11.5911L157.316 11.5911L157.316 10.5364Q158.034 10.4631 158.737 10.3752L158.4 9.49634Q156.701 9.8186 154.313 9.8772Q154.474 10.2874 154.591 10.7415Q155.485 10.6829 156.349 10.6243L156.349 11.5911L153.991 11.5911L153.991 12.4407L156.349 12.4407L156.349 13.7151Q155.294 13.8323 154.108 13.9348L154.152 14.8577Q155.075 14.7405 156.349 14.594L156.349 15.3264Q156.349 15.7593 156.143 15.9081Q156.029 15.9908 155.851 15.9856Q155.338 15.9856 154.635 15.8977Q154.767 16.4836 154.84 16.967Q155.953 17.011 156.452 16.9084Q157.316 16.8206 157.316 15.5901L157.316 14.4768Q158.019 14.4036 158.825 14.3157Q158.766 13.803 158.781 13.4075Q158.077 13.51 157.316 13.6125L157.316 12.4407L159.513 12.4407Q159.674 13.7444 159.982 14.6965ZM79.7785 4.36938L82.5178 4.36938Q82.884 3.47583 83.1183 2.67017L84.2609 3.00708Q83.9533 3.69556 83.6164 4.36938L88.2013 4.36938L88.2013 11.3127L87.176 11.3127L87.176 10.844L83.9387 10.844Q83.8215 11.2688 83.6896 11.5764L84.5539 11.5764L84.5539 14.9456Q84.5539 15.8684 85.4328 15.8684L87.0295 15.8684Q87.9963 15.8684 88.1428 15.0334Q88.2599 14.1106 88.3185 13.3049Q88.758 13.5247 89.2707 13.7151Q89.1242 15.1799 88.9631 15.7659Q88.6994 16.8499 87.176 16.8499L85.301 16.8499Q83.6017 16.8499 83.6017 15.136L83.6017 11.7961Q82.4445 14.7112 79.0021 17.2454Q78.6213 16.7327 78.1818 16.2932Q81.9025 13.803 82.84 10.844L80.8039 10.844L80.8039 11.3567L79.7785 11.3567L79.7785 4.36938ZM178.885 5.76099L184.261 5.76099L184.261 4.76489L181.727 4.76489L182.504 4.28149Q181.991 3.3147 181.493 2.67017L180.629 3.13892Q181.112 3.82739 181.61 4.76489L178.885 4.76489L178.885 5.76099ZM253.478 8.47095L260.422 8.47095L260.422 6.05396L256.467 6.05396Q255.859 7.21851 255.163 8.19263Q254.68 7.85571 254.079 7.50415Q255.69 5.39478 256.467 2.93384L257.682 3.2854Q257.353 4.16431 256.994 4.96997L260.422 4.96997L260.422 2.67017L261.623 2.67017L261.623 4.96997L266.691 4.96997L266.691 6.05396L261.623 6.05396L261.623 8.47095L267.79 8.47095L267.79 9.55493L253.478 9.55493L253.478 8.47095ZM268.262 4.88208L268.262 5.84888L273.741 5.84888L273.741 4.88208L271.119 4.88208L271.998 4.35474Q271.163 3.00708 270.87 2.67017L269.976 3.16821Q270.401 3.75415 271.001 4.88208L268.262 4.88208ZM4.21875 6.94751Q5.94727 5.10181 7.0459 2.68481L8.18848 2.94849Q7.86621 3.63696 7.51465 4.26685L14.1797 4.26685L14.1797 5.21899L13.1689 7.32837Q12.627 7.05005 12.1289 6.81567L12.8906 5.26294L6.92871 5.26294Q6.1084 6.5813 5.15625 7.63599Q4.74609 7.32837 4.21875 6.94751ZM188.26 7.84106L184.203 7.84106L184.203 8.76392L193.373 8.76392L193.373 7.84106L189.315 7.84106L189.315 6.83032L192.728 6.83032L192.728 5.90747L189.315 5.90747L189.315 4.92603L193.168 4.92603L193.168 4.00317L189.315 4.00317L189.315 2.68481L188.26 2.68481L188.26 4.00317L184.408 4.00317L184.408 4.92603L188.26 4.92603L188.26 5.90747L184.847 5.90747L184.847 6.83032L188.26 6.83032L188.26 7.84106ZM61.7061 6.94751Q60.959 9.74536 59.6919 11.8694Q59.9849 12.5286 60.19 13.1584Q61.1202 11.8035 61.9039 9.1228L61.9039 17.0989L62.9292 17.0989L62.9292 9.16675Q63.5738 9.91382 64.2476 10.8879L65.0533 10.2141Q64.3355 9.30591 63.5005 8.41235L62.9292 8.8811L62.9292 6.94751L64.8335 6.94751L64.8335 5.98071L62.9292 5.98071L62.9292 2.72876L61.9039 2.72876L61.9039 5.98071L59.8677 5.98071L59.8677 6.94751L61.7061 6.94751ZM71.6158 2.74341L70.5904 2.74341L70.5904 4.14966L67.983 4.14966L67.983 2.72876L66.9576 2.72876L66.9576 4.14966L64.6431 4.14966L64.6431 5.08716L66.9576 5.08716L66.9576 6.27368L67.983 6.27368L67.983 5.08716L70.5904 5.08716L70.5904 6.27368L71.6158 6.27368L71.6158 5.08716L74.1353 5.08716L74.1353 4.14966L71.6158 4.14966L71.6158 2.74341ZM138.841 12.8069L142.591 12.8069L142.591 11.5325L139.339 11.5325L139.339 10.6536L142.591 10.6536L142.591 9.37915L139.544 9.37915L139.544 8.50024L142.591 8.50024L142.591 7.22583L138.782 7.22583L138.782 6.31763L142.591 6.31763L142.591 5.04321L139.544 5.04321L139.544 4.16431L142.591 4.16431L142.591 2.72876L143.675 2.72876L143.675 4.16431L147.073 4.16431L147.073 6.31763L148.611 6.31763L148.611 7.22583L147.073 7.22583L147.073 9.77466L146.018 9.77466L146.018 9.37915L143.675 9.37915L143.675 10.6536L147.366 10.6536L147.366 11.5325L143.675 11.5325L143.675 12.8069L148.04 12.8069L148.04 13.6858L143.675 13.6858L143.675 15.1946L142.591 15.1946L142.591 13.6858L138.841 13.6858L138.841 12.8069ZM44.8349 9.8479Q46.6952 6.69849 47.5302 2.75806L48.6435 2.96313Q48.1601 4.85278 47.5448 6.52271L47.5448 17.1575L46.5048 17.1575L46.5048 8.9397Q45.9482 10.0676 45.3183 11.0637Q45.1132 10.4631 44.8349 9.8479ZM288.202 15.1946Q290.297 14.1985 291.989 12.8948Q291.381 10.9539 291.198 8.19263L287.382 8.19263L287.382 10.6169Q288.832 10.3606 290.385 10.0676Q290.414 10.7268 290.429 11.2249Q288.891 11.5178 287.382 11.8108L287.382 15.2532Q287.382 16.9231 285.785 16.9377Q284.804 16.9524 283.822 16.8938Q283.749 16.2346 283.573 15.6487Q284.643 15.7952 285.492 15.7952Q285.823 15.8022 285.994 15.6407Q286.181 15.4655 286.181 15.092L286.181 12.0452Q284.731 12.3308 283.31 12.6165L283.017 11.3567Q284.533 11.115 286.181 10.8293L286.181 8.19263L283.031 8.19263L283.031 7.10864L286.181 7.10864L286.181 4.89673Q285.024 5.05054 283.691 5.20435Q283.588 4.64771 283.368 4.03247Q286.972 3.69556 289.565 3.15356L289.916 4.32544Q288.81 4.52319 287.382 4.7356L287.382 7.10864L291.132 7.10864Q291.029 5.31421 290.912 2.77271L292.143 2.77271Q292.194 5.11646 292.296 7.10864L297.65 7.10864L297.65 8.19263L292.362 8.19263Q292.531 10.4558 292.963 12.0891Q294.582 10.6536 295.761 8.89575L296.816 9.59888Q295.285 11.6716 293.358 13.283Q293.769 14.323 294.34 14.9895Q295.087 15.8684 295.644 15.8684Q295.951 15.8684 296.083 15.385Q296.288 14.6233 296.508 12.9094Q297.123 13.1877 297.636 13.3342Q297.372 14.9749 297.108 15.8831Q296.772 17.0549 295.673 17.0696Q294.413 17.0549 293.285 15.5608Q292.787 14.9089 292.406 14.03Q290.802 15.2166 288.949 16.1174Q288.568 15.5461 288.202 15.1946ZM168.32 10.9172L173.403 10.9172L173.403 7.21118L170.613 7.21118Q170.02 8.78589 169.316 10.0237Q168.892 9.61353 168.35 9.24731Q169.741 6.80103 170.4 3.78345L171.587 4.12036Q171.301 5.21167 170.972 6.18579L173.403 6.18579L173.403 2.78735L174.575 2.78735L174.575 6.18579L178.076 6.18579L178.076 7.21118L174.575 7.21118L174.575 10.9172L178.56 10.9172L178.56 11.9426L174.575 11.9426L174.575 17.0696L173.403 17.0696L173.403 11.9426L168.32 11.9426L168.32 10.9172ZM247.835 10.9172L242.752 10.9172L242.752 11.9426L247.835 11.9426L247.835 17.0696L249.007 17.0696L249.007 11.9426L252.991 11.9426L252.991 10.9172L249.007 10.9172L249.007 7.21118L252.508 7.21118L252.508 6.18579L249.007 6.18579L249.007 2.78735L247.835 2.78735L247.835 6.18579L245.404 6.18579Q245.733 5.21167 246.019 4.12036L244.832 3.78345Q244.173 6.80103 242.781 9.24731Q243.323 9.61353 243.748 10.0237Q244.451 8.78589 245.045 7.21118L247.835 7.21118L247.835 10.9172ZM163.911 10.0383Q165.933 7.05005 167.163 2.802L168.364 3.15356Q167.822 4.86011 167.192 6.35425L167.192 17.0842L166.035 17.0842L166.035 8.77124Q165.288 10.1555 164.438 11.3127Q164.219 10.6829 163.911 10.0383ZM241.595 2.802Q240.364 7.05005 238.343 10.0383Q238.651 10.6829 238.87 11.3127Q239.72 10.1555 240.467 8.77124L240.467 17.0842L241.624 17.0842L241.624 6.35425Q242.254 4.86011 242.796 3.15356L241.595 2.802ZM20.233 2.81665L21.2291 2.81665L21.2291 6.80103L23.6022 6.80103L23.6022 7.76782L15.15 7.76782L15.15 6.80103L17.7868 6.80103L17.7868 2.81665L18.7828 2.81665L18.7828 6.80103L20.233 6.80103L20.233 2.81665ZM74.6808 13.51Q75.5744 13.3489 76.5705 13.1438L76.5705 7.56274L74.8127 7.56274L74.8127 6.52271L76.5705 6.52271L76.5705 2.8313L77.6398 2.8313L77.6398 6.52271L79.2512 6.52271L79.2512 7.56274L77.6398 7.56274L77.6398 12.9241Q78.6213 12.719 79.7053 12.47Q79.676 13.0706 79.676 13.5979Q77.1711 14.1252 74.842 14.7405L74.6808 13.51ZM104.41 10.0383Q106.592 7.02075 107.837 2.8313L109.082 3.18286Q108.497 4.88208 107.837 6.35425L107.837 17.0549L106.636 17.0549L106.636 8.74927Q105.831 10.1702 104.937 11.3127Q104.703 10.6829 104.41 10.0383ZM108.936 8.10474L113.36 8.10474L113.36 2.8606L114.605 2.8606L114.605 8.10474L118.985 8.10474L118.985 9.27661L114.605 9.27661L114.605 17.0403L113.36 17.0403L113.36 9.27661L108.936 9.27661L108.936 8.10474ZM33.6399 5.6731Q32.4827 4.07642 31.4866 2.87524L30.5784 3.53442Q31.3841 4.50122 32.5852 6.37622L33.6399 5.6731ZM300.979 2.87524Q300.056 6.44946 297.918 9.89185Q298.196 10.6389 298.372 11.2395Q299.148 10.0383 299.837 8.71997L299.837 17.0989L300.862 17.0989L300.862 6.50806Q301.521 4.91138 302.049 3.18286L300.979 2.87524ZM23.9098 6.31763L27.1325 6.31763L27.1325 2.94849L28.2311 2.94849L28.2311 6.31763L29.5641 6.31763L29.5641 7.32837L28.2311 7.32837L28.2311 14.9456Q28.2311 16.8938 26.5319 16.8938Q25.7555 16.8938 24.7887 16.8792Q24.7008 16.3079 24.569 15.7366Q25.4332 15.8245 26.3854 15.8245Q27.1325 15.8245 27.1325 14.9163L27.1325 7.32837L23.9098 7.32837L23.9098 6.31763ZM195.53 2.97778Q196.277 3.88599 197.58 5.74634L196.54 6.47876Q195.354 4.61841 194.592 3.60767L195.53 2.97778ZM212.174 6.02466Q211.119 4.13501 210.533 3.19751L209.552 3.7395Q210.226 4.89673 211.075 6.63989L212.174 6.02466ZM281.856 3.2854Q278.34 3.84204 274.678 3.91528L274.678 10.1702Q274.678 14.2278 273.052 16.3079Q273.448 16.6594 273.916 17.1721Q275.733 14.6086 275.733 10.2727L275.733 8.77856L278.956 8.77856L278.956 11.5764Q277.901 11.0637 276.949 10.6389L276.377 11.5325Q277.535 12.0452 278.956 12.8069L278.956 17.1428L280.01 17.1428L280.01 13.3928Q280.918 13.8909 281.915 14.4915L282.588 13.4514Q281.226 12.719 280.01 12.1038L280.01 8.77856L282.53 8.77856L282.53 7.75317L275.733 7.75317L275.733 4.92603Q279.19 4.76489 282.237 4.31079L281.856 3.2854ZM293.315 4.07642L294.076 3.30005Q295.365 4.28149 296.713 5.48267L295.819 6.39087Q294.618 5.17505 293.315 4.07642ZM223.837 15.2239Q225.756 15.136 227.646 15.0481L227.646 13.2024L223.837 13.2024L223.837 12.2942L225.112 12.2942L225.112 10.1409L223.632 10.1409L223.632 9.20337L225.112 9.20337L225.112 7.0647L223.867 7.0647L223.867 6.15649L227.646 6.15649L227.646 4.57446Q226.123 4.63306 224.35 4.69165Q224.277 4.2522 224.145 3.71021Q228.584 3.65161 231.792 3.35864L231.982 4.34009Q230.503 4.44263 228.584 4.53052L228.584 6.15649L232.363 6.15649L232.363 7.0647L231.132 7.0647L231.132 9.20337L232.67 9.20337L232.67 10.1409L231.132 10.1409L231.132 12.2942L232.378 12.2942L232.378 13.2024L228.584 13.2024L228.584 14.9895Q230.356 14.887 232.114 14.7698Q232.041 15.2678 231.997 15.7805Q227.558 16.0442 224.057 16.2932L223.837 15.2239ZM199.602 14.8284L198.562 14.8284L198.562 6.5813L202.092 6.5813Q200.993 6.01733 199.822 5.45337L200.422 4.75024Q201.572 5.30689 202.583 5.81226L205.198 4.44263L198.327 4.44263L198.327 3.50513L207.131 3.50513L207.131 4.48657L203.594 6.32495Q203.85 6.45679 204.092 6.5813L207.234 6.5813L207.234 13.2024Q207.234 14.8723 205.696 14.8723Q204.934 14.8723 204.04 14.8284Q203.967 14.2717 203.821 13.7004Q204.743 13.803 205.403 13.803Q206.194 13.803 206.194 13.0413L206.194 12.3235L203.396 12.3235L203.396 14.6086L202.356 14.6086L202.356 12.3235L199.602 12.3235L199.602 14.8284ZM302.444 17.0549L303.469 17.0549L303.469 9.8186L306.604 9.8186L306.604 3.53442L302.444 3.53442L302.444 17.0549ZM311.951 3.53442L307.776 3.53442L307.776 9.8186L310.926 9.8186L310.926 14.8284Q310.926 15.9417 309.754 15.9417Q308.714 15.9417 307.41 15.8831Q307.556 16.4104 307.644 17.0403Q308.904 17.0696 309.929 17.0549Q311.951 17.0256 311.951 15.0042L311.951 3.53442ZM213.111 14.9016L214.195 14.9016L214.195 8.79321L221.314 8.79321L221.314 13.1145Q221.314 13.8176 220.582 13.8176Q219.762 13.8176 218.941 13.7297Q219.059 14.3889 219.146 14.7991Q219.923 14.8284 220.846 14.8284Q222.398 14.8284 222.398 13.3489L222.398 7.85571L221.446 7.85571L221.446 3.54907L214.093 3.54907L214.093 7.85571L213.111 7.85571L213.111 14.9016ZM15.3405 4.16431L16.1168 3.65161Q16.82 4.57446 17.4791 5.52661L16.6442 6.11255Q15.9703 5.02856 15.3405 4.16431ZM49.1122 3.66626L58.8241 3.66626L58.8241 17.1135L57.7694 17.1135L57.7694 16.3518L50.1669 16.3518L50.1669 17.1135L49.1122 17.1135L49.1122 3.66626ZM21.6539 5.6145Q22.3131 4.76489 23.0162 3.68091L23.8659 4.23755Q23.1188 5.26294 22.4157 6.14185L21.6539 5.6145ZM237.915 12.3821Q237.915 14.8284 236.098 15.1213Q235.395 15.2092 234.443 15.0627Q234.384 14.5354 234.238 13.7737Q235.161 13.9934 235.835 13.9934Q236.904 13.8616 236.904 12.4114Q236.904 10.6682 235 8.98364Q235.835 6.88892 236.626 4.69165L234.062 4.69165L234.062 17.0989L233.066 17.0989L233.066 3.69556L237.651 3.69556L237.651 4.79419Q236.948 6.75708 236.142 8.73462Q237.915 10.4485 237.915 12.3821ZM135.384 10.3313Q135.823 12.1184 136.614 13.2683Q137.398 11.657 137.595 9.55493L134.666 9.55493L134.666 8.4856L137.361 5.1604L134.373 5.1604L134.373 4.16431L138.709 4.16431L138.709 5.1604L135.955 8.55884L138.694 8.55884L138.694 9.4231Q138.423 12.1404 137.368 14.1326Q138.965 15.5168 142.327 15.5315Q145.11 15.5901 148.787 15.4583Q148.538 16.0588 148.303 16.6155Q144.949 16.6008 141.814 16.5862Q138.548 16.5862 136.804 15.0627Q135.977 16.2639 134.798 17.1575Q134.563 16.7327 134.197 16.2053Q135.296 15.3704 136.043 14.2571Q135.061 13.012 134.417 10.6975L135.384 10.3313ZM308.743 6.22974L308.743 4.47192L310.926 4.47192L310.926 6.22974L308.743 6.22974ZM215.147 4.48657L220.392 4.48657L220.392 7.85571L218.751 7.85571L218.751 5.6438L215.147 5.6438L215.147 4.48657ZM303.469 4.53052L305.608 4.53052L305.608 6.22974L303.469 6.22974L303.469 4.53052ZM57.7694 4.63306L50.1669 4.63306L50.1669 15.385L57.7694 15.385L57.7694 4.63306ZM153.932 5.90747L153.932 4.96997L149.303 4.96997L149.303 5.90747L153.932 5.90747ZM146.018 5.04321L143.675 5.04321L143.675 6.31763L146.018 6.31763L146.018 5.04321ZM51.6024 9.54028L53.4335 9.54028L53.4335 7.76782L50.8554 7.76782L50.8554 6.83032L53.4335 6.83032L53.4335 5.1604L54.4589 5.1604L54.4589 6.83032L57.0956 6.83032L57.0956 7.76782L54.4589 7.76782L54.4589 9.54028L56.3339 9.54028L56.3339 14.2131L55.3378 14.2131L55.3378 13.5833L52.5985 13.5833L52.5985 14.3157L51.6024 14.3157L51.6024 9.54028ZM80.8039 7.13794L83.382 7.13794Q83.4113 6.31763 83.426 5.30688L80.8039 5.30688L80.8039 7.13794ZM87.176 5.30688L84.4953 5.30688Q84.4806 6.30298 84.4367 7.13794L87.176 7.13794L87.176 5.30688ZM133.124 10.8879Q133.417 10.4192 133.769 10.053Q132.421 9.33521 131.278 7.84106L133.139 7.84106L133.139 6.93286L130.854 6.93286L130.854 5.62915L129.916 5.62915L129.916 6.93286L127.821 6.93286L127.821 7.84106L129.389 7.84106Q128.334 9.23267 127.03 10.0823Q127.426 10.4192 127.748 10.844Q128.92 9.86255 129.916 8.19263L129.916 11.0784L130.854 11.0784L130.854 8.32446Q131.791 9.86255 133.124 10.8879ZM124.159 7.85571Q123.178 9.17407 121.918 9.99438Q122.299 10.3606 122.592 10.7561Q123.676 9.83325 124.555 8.47095L124.555 11.0784L125.492 11.0784L125.492 8.99829Q126.21 9.55493 126.723 9.99438L127.294 9.34985Q126.752 8.92505 125.873 8.33911L125.492 8.70532L125.492 7.85571L127.411 7.85571L127.411 6.94751L125.492 6.94751L125.492 5.6438L124.555 5.6438L124.555 6.94751L122.27 6.94751L122.27 7.85571L124.159 7.85571ZM9.15527 6.1272L10.2686 6.1272L10.2686 9.65747Q10.2686 11.386 8.55469 11.386Q8.0127 11.386 7.08984 11.3713Q7.0166 10.8733 6.87012 10.1848Q7.66113 10.2874 8.24707 10.2874Q9.15527 10.2874 9.15527 9.30591L9.15527 6.1272ZM43.2493 6.34692L34.9729 6.34692L34.9729 7.25513L43.2493 7.25513L43.2493 6.34692ZM215.147 6.552L217.726 6.552L217.726 7.85571L215.147 7.85571L215.147 6.552ZM68.5909 12.8655L64.3501 12.8655L64.3501 13.803L68.2466 13.803Q67.2872 15.4216 63.8374 16.1467Q64.1597 16.6448 64.4087 17.1575Q68.1734 16.1833 69.2207 14.0813Q70.8028 16.2419 73.6373 17.0696Q73.9449 16.5129 74.355 15.9709Q71.7403 15.5828 70.1509 13.803L74.1939 13.803L74.1939 12.8655L69.5943 12.8655Q69.6822 12.3528 69.7261 11.5471L72.1871 11.5471L72.1871 11.9573L73.2417 11.9573L73.2417 6.65454L65.4048 6.65454L65.4048 11.9573L66.4595 11.9573L66.4595 11.5471L68.7154 11.5471Q68.6861 12.3308 68.5909 12.8655ZM179.413 8.03149L183.734 8.03149L183.734 7.0354L179.413 7.0354L179.413 8.03149ZM226.02 9.20337L227.646 9.20337L227.646 7.0647L226.02 7.0647L226.02 9.20337ZM228.584 9.20337L230.224 9.20337L230.224 7.0647L228.584 7.0647L228.584 9.20337ZM268.716 8.06079L273.228 8.06079L273.228 7.07935L268.716 7.07935L268.716 8.06079ZM305.608 7.10864L305.608 8.8811L303.469 8.8811L303.469 7.10864L305.608 7.10864ZM310.926 8.8811L308.743 8.8811L308.743 7.10864L310.926 7.10864L310.926 8.8811ZM153.58 7.15259L149.684 7.15259L149.684 8.09009L153.58 8.09009L153.58 7.15259ZM143.675 8.50024L146.018 8.50024L146.018 7.22583L143.675 7.22583L143.675 8.50024ZM6.95801 7.29907L7.83691 7.95825Q6.5918 9.3938 4.96582 10.9319Q4.62891 10.5803 4.14551 10.1555Q5.61035 8.8811 6.95801 7.29907ZM199.602 8.98364L202.356 8.98364L202.356 7.5188L199.602 7.5188L199.602 8.98364ZM206.194 7.5188L203.396 7.5188L203.396 8.98364L206.194 8.98364L206.194 7.5188ZM10.957 8.32446L11.7041 7.5481Q13.1689 8.67603 14.6777 10.053L13.8574 10.9612Q12.3779 9.48169 10.957 8.32446ZM66.4595 7.56274L72.1871 7.56274L72.1871 8.66138L66.4595 8.66138L66.4595 7.56274ZM199.763 15.634L203.41 15.6926L208.288 15.5754Q208.127 16.0588 207.878 16.7327L203.03 16.762L199.543 16.6741Q197.053 16.6448 196.057 14.9602Q195.456 15.5168 194.299 16.9231L193.699 15.7073Q194.995 14.4548 195.574 13.9128L195.574 8.98364L193.83 8.98364L193.83 7.89966L196.701 7.89966L196.701 14.1619Q197.602 15.6194 199.763 15.634ZM44.5823 15.6633Q39.3089 15.8098 35.9837 15.7219Q33.9915 15.6633 32.9368 14.3596L32.9368 7.95825L30.1243 7.95825L30.1243 9.02759L31.7942 9.02759L31.7942 14.1399Q30.9007 14.9016 29.9778 15.7366L30.6077 16.9817Q31.8967 15.4436 32.3216 15.1067Q33.4934 16.7473 35.8518 16.7766Q39.0452 16.8792 44.0989 16.7913Q44.3333 16.2493 44.5823 15.6633ZM223.219 15.6633Q217.945 15.8098 214.62 15.7219Q212.628 15.6633 211.573 14.3596L211.573 7.95825L208.878 7.95825L208.878 9.02759L210.431 9.02759L210.431 14.1399Q209.537 14.9016 208.614 15.7366L209.244 16.9817Q210.533 15.4436 210.958 15.1067Q212.13 16.7473 214.488 16.7766Q217.682 16.8792 222.735 16.7913Q222.97 16.2493 223.219 15.6633ZM22.4303 8.57349Q21.8297 9.29126 21.2584 9.93579L23.3239 9.93579L23.3239 10.9026L20.028 10.9026L20.028 12.5139L22.7379 12.5139L22.7379 13.4807L20.028 13.4807L20.028 15.1067Q21.7418 15.0042 23.5143 14.887Q23.4703 15.3118 23.4703 15.8538Q19.3981 16.1321 15.3698 16.3665L15.2233 15.2971Q17.0397 15.2385 18.944 15.1506L18.944 13.4807L15.7946 13.4807L15.7946 12.5139L18.944 12.5139L18.944 10.9026L15.4137 10.9026L15.4137 9.93579L17.611 9.93579Q16.9957 9.14478 16.483 8.54419L17.2594 8.01685Q18.0211 8.8811 18.651 9.62817L18.1969 9.93579L20.57 9.93579L20.1891 9.64282Q20.9362 8.86646 21.5807 8.0022L22.4303 8.57349ZM83.3234 8.04614L80.8039 8.04614L80.8039 9.90649L83.089 9.90649Q83.2355 9.20337 83.3234 8.04614ZM84.1437 9.90649L87.176 9.90649L87.176 8.04614L84.3781 8.04614Q84.3049 9.15942 84.1437 9.90649ZM93.6688 8.28052L101.052 8.28052L101.052 10.0237L93.6688 10.0237L93.6688 8.28052ZM43.2493 8.41235L34.9729 8.41235L34.9729 9.32056L43.2493 9.32056L43.2493 8.41235ZM24.9645 8.82251Q25.4479 9.97974 26.2096 12.0452L25.1989 12.4993Q24.6276 10.7708 24.0123 9.18872L24.9645 8.82251ZM268.716 10.2434L273.228 10.2434L273.228 9.27661L268.716 9.27661L268.716 10.2434ZM179.413 10.2581L183.734 10.2581L183.734 9.29126L179.413 9.29126L179.413 10.2581ZM153.58 9.34985L149.684 9.34985L149.684 10.302L153.58 10.302L153.58 9.34985ZM72.1871 10.6389L66.4595 10.6389L66.4595 9.54028L72.1871 9.54028L72.1871 10.6389ZM161.681 9.56958L160.993 10.1262Q161.681 10.7708 162.399 11.5764L163.102 10.9612Q162.34 10.1702 161.681 9.56958ZM185.067 17.0842L186.122 17.0842L186.122 14.4622L191.454 14.4622L191.454 15.1799Q191.454 15.4694 191.313 15.6489Q191.077 15.9508 190.443 15.9417Q189.623 15.9417 188.524 15.8538Q188.671 16.5129 188.744 16.9817Q190.062 16.9963 190.824 16.967Q191.744 16.9823 192.163 16.5315Q192.551 16.1141 192.508 15.2971L192.508 9.65747L185.067 9.65747L185.067 17.0842ZM220.011 9.68677L215.484 9.68677L215.484 13.4075L216.51 13.4075L216.51 12.8655L220.011 12.8655L220.011 9.68677ZM199.602 11.386L202.356 11.386L202.356 9.92114L199.602 9.92114L199.602 11.386ZM203.396 11.386L206.194 11.386L206.194 9.92114L203.396 9.92114L203.396 11.386ZM226.02 12.2942L227.646 12.2942L227.646 10.1409L226.02 10.1409L226.02 12.2942ZM228.584 12.2942L230.224 12.2942L230.224 10.1409L228.584 10.1409L228.584 12.2942ZM55.3378 10.4485L52.5985 10.4485L52.5985 12.675L55.3378 12.675L55.3378 10.4485ZM43.1028 10.4924L35.1194 10.4924L35.1194 15.0481L36.218 15.0481L36.218 14.2571L42.0042 14.2571L42.0042 15.0481L43.1028 15.0481L43.1028 10.4924ZM218.985 10.5657L218.985 11.9866L216.51 11.9866L216.51 10.5657L218.985 10.5657ZM186.122 10.595L191.454 10.595L191.454 11.6204L186.122 11.6204L186.122 10.595ZM133.417 16.6008Q132.011 15.092 130.605 13.7444L129.814 14.3157Q130.326 14.8284 130.81 15.3264Q127.543 15.4729 124.32 15.634Q127.587 14.4622 131.527 12.426L130.722 11.7083Q129.74 12.2795 128.7 12.8069Q126.254 12.8948 124.423 12.9534Q126.166 12.2209 127.997 11.342L127.162 10.6682Q125.478 11.6497 123.793 12.4407Q123.266 12.6897 122.665 12.8215L123.061 13.9495Q123.412 13.8909 123.983 13.8469Q125.404 13.7737 126.913 13.6858Q125.346 14.4329 123.647 15.1067Q122.973 15.3704 122.167 15.5315L122.533 16.7473Q123.266 16.6155 123.998 16.5715Q127.646 16.3518 131.615 16.1907Q132.084 16.7327 132.538 17.2747L133.417 16.6008ZM101.052 12.7776L93.6688 12.7776L93.6688 11.0198L101.052 11.0198L101.052 12.7776ZM255.441 11.1223L265.856 11.1223L265.856 16.9963L264.684 16.9963L264.684 16.2346L256.613 16.2346L256.613 16.9963L255.441 16.9963L255.441 11.1223ZM36.218 11.4006L42.0042 11.4006L42.0042 13.3489L36.218 13.3489L36.218 11.4006ZM268.775 11.4739L268.775 16.7473L269.786 16.7473L269.786 15.6047L273.14 15.6047L273.14 11.4739L268.775 11.4739ZM179.413 11.5325L179.413 16.967L180.423 16.967L180.423 16.0881L182.723 16.0881L182.723 16.967L183.734 16.967L183.734 11.5325L179.413 11.5325ZM88.0988 14.6526L87.3517 14.9456L87.1467 14.3303Q85.6086 14.4475 84.9494 14.5793L84.7297 13.8176Q85.1984 13.2756 85.8137 11.5618L86.634 11.8694Q86.1652 12.8362 85.6818 13.7297Q86.2824 13.7004 86.9269 13.6565Q86.7658 13.1584 86.59 12.6311L87.2638 12.3674Q87.7326 13.51 88.0988 14.6526ZM6.1084 12.2942L6.85547 11.5911Q8.07129 12.5432 9.12598 13.5833L8.27637 14.3889Q7.26563 13.2756 6.1084 12.2942ZM153.58 11.6936L149.684 11.6936L149.684 16.9231L150.636 16.9231L150.636 16.0295L152.628 16.0295L152.628 16.9231L153.58 16.9231L153.58 11.6936ZM11.5283 12.3528L12.4072 11.7229Q13.7842 13.2756 14.8682 14.7258L13.9307 15.4583Q12.7441 13.7883 11.5283 12.3528ZM264.684 12.177L256.613 12.177L256.613 15.1946L264.684 15.1946L264.684 12.177ZM1.8457 12.2209L2.91504 12.5872Q2.21191 14.5354 1.47949 16.0442Q1.01074 15.8391 0.395508 15.6194Q1.31836 13.9348 1.8457 12.2209ZM3.76465 12.3381L4.87793 12.3381L4.87793 14.7551Q4.87793 15.678 5.87402 15.678L9.03809 15.678Q10.1221 15.678 10.3125 14.8284Q10.5029 14.1106 10.6201 13.1438Q11.1475 13.3635 11.748 13.5686Q11.5576 14.6233 11.3965 15.2385Q11.0449 16.718 9.28711 16.718L5.6543 16.718Q3.76465 16.718 3.76465 14.9016L3.76465 12.3381ZM272.129 12.4407L272.129 14.6379L269.786 14.6379L269.786 12.4407L272.129 12.4407ZM180.423 12.5286L182.723 12.5286L182.723 15.092L180.423 15.092L180.423 12.5286ZM191.454 13.554L186.122 13.554L186.122 12.5286L191.454 12.5286L191.454 13.554ZM150.636 12.6311L152.628 12.6311L152.628 15.092L150.636 15.092L150.636 12.6311Z" />
      </g>
    </g>
    <g id="编组" transform="translate(0 207)">
      <path d="M0 1L350 1" id="直线" fill="none" stroke="#979797" stroke-width="1" stroke-linecap="square" stroke-dasharray="2 0" />
      <path d="M0 1L350 1" transform="translate(0 3)" id="直线" fill="none" stroke="#979797" stroke-width="1" stroke-linecap="square" stroke-dasharray="2 0" />
      <path d="M0 0L350 0L350 3L0 3L0 0Z" transform="translate(0 1)" id="矩形" fill="#8E8E93" stroke="none" />
    </g>
  </g>
</svg>