<?xml version="1.0" encoding="UTF-8"?>
<svg width="47px" height="45px" viewBox="0 0 47 45" version="1.1" xmlns="http://www.w3.org/2000/svg" xmlns:xlink="http://www.w3.org/1999/xlink">
    <!-- Generator: Sketch 53.2 (72643) - https://sketchapp.com -->
    <title>合并形状 copy 2</title>
    <desc>Created with Sketch.</desc>
    <g id="Page-1" stroke="none" stroke-width="1" fill="none" fill-rule="evenodd">
        <path d="M36.2036506,23.9376618 C36.1730113,24.0020377 36.1246333,24.0598945 36.0617419,24.1038983 L36.0609357,24.1047132 C36.0552916,24.1087876 36.0504538,24.1120472 36.045616,24.1153067 C35.6690741,24.368736 35.2530236,24.6074973 34.8031085,24.8307758 C34.3515809,25.0548692 33.8629634,25.2634798 33.3445129,25.4549778 C30.6998507,26.4360995 27.2271191,27 23.5729701,27 L23.5713575,27 L23.5713575,26.9983702 C20.9831363,26.9983702 18.4900585,26.7156051 16.3203067,26.2046721 C15.9615035,26.120739 15.6147947,26.0302867 15.2817931,25.9365749 C13.5369611,25.4419397 12.0436946,24.786772 10.9366455,24.0036675 C10.9140691,23.9873698 10.8931053,23.9694423 10.8753667,23.9506999 C12.0445009,24.1430128 13.286202,24.3100643 14.5859567,24.4477798 C17.2281999,24.7264705 20.1066889,24.886188 23.1157983,24.8984113 L23.1157983,24.9016708 L23.885008,24.9016708 L23.885008,24.8984113 C26.8949237,24.886188 29.7726064,24.7264705 32.4148496,24.446965 C33.7436311,24.3068047 35.0111338,24.1356788 36.2036506,23.9376618 Z M14.3851881,3.70976871 C19.4261721,-1.22599039 27.5528641,-1.2471774 32.6156182,3.70976871 C34.9530802,5.99878098 36.4044192,9.15809055 36.4044192,12.6343904 L36.4060318,12.6343904 L36.4060318,12.6352053 L36.4060318,14.722941 C36.4060318,14.8256165 36.4044192,14.9274771 36.4044192,15.0334122 L36.4060318,15.0334122 L36.4060318,15.0342271 L36.4044192,15.0342271 C36.4044192,16.0528335 34.8789007,16.9133521 32.4156559,17.4805122 C30.1330223,18.0061131 26.9811978,18.3320671 23.5036283,18.3320671 L23.5036283,18.3336969 L23.5004031,18.3336969 L23.4979843,18.3336969 L23.4979843,18.3320671 C22.425606,18.3320671 21.3846734,18.3011015 20.3897,18.2424297 L20.3897,17.3876153 C21.3830608,17.4471019 22.4239934,17.4788824 23.4979843,17.4788824 L23.4979843,17.4772526 L23.5004031,17.4772526 L23.5036283,17.4772526 L23.5036283,17.4788824 C26.9078245,17.4788824 29.9886947,17.1610772 32.2173063,16.6476996 C32.8010671,16.5132435 35.5320032,15.878448 35.5320032,15.0342271 L35.5336158,15.0334122 C35.5311969,11.6573432 11.4688031,12.3288085 11.4688031,15.0342271 L11.4663842,15.0342271 C11.4671905,15.6013871 12.7338869,16.1758811 14.7818874,16.6476996 C16.2485461,16.985062 18.3360553,17.2539741 20.3897,17.3876153 L20.3897,18.2424297 C18.2602632,18.1071588 16.1034122,17.8300979 14.5843441,17.4805122 C12.120293,16.9133521 10.5963871,16.0528335 10.5955808,15.0342271 L10.5931619,15.0342271 L10.5931619,15.0334122 L10.5955808,15.0334122 L10.5963871,15.0000019 C10.5947745,14.985334 10.5931619,14.9698511 10.5931619,14.9551832 L10.5931619,12.6352053 L10.5955808,12.6352053 C10.5955808,9.15809055 12.0469198,5.99878098 14.3851881,3.70976871 Z M29.6823009,4.82290177 C29.7250347,4.85549717 29.7750253,4.89461166 29.8322726,4.94024522 C29.9016143,4.99565741 29.9507986,5.0347719 29.9822443,5.06003334 C30.2289719,5.2645695 30.4708617,5.48377359 30.7046885,5.7184605 C30.8723988,5.88714172 31.1489595,5.89121615 31.3215076,5.72660935 C31.4940557,5.56200256 31.4980872,5.29146071 31.3303769,5.12277949 C31.0836493,4.8758693 30.8207957,4.63710796 30.5426224,4.40731036 C30.4708617,4.34863864 30.4168396,4.30463484 30.3821688,4.27774363 C30.3265341,4.23211007 30.2692869,4.18892115 30.2120396,4.14573224 C30.0120773,4.0112762 29.7524489,4.0332781 29.6016709,4.2304803 C29.4589559,4.41708899 29.4952394,4.68029688 29.6823009,4.82290177 Z M28.9396991,3.30721547 C25.358117,1.28955994 20.8863804,1.43868391 17.4297748,3.70080497 C17.0943542,3.92000907 16.7694155,4.15958529 16.455765,4.41790387 C16.1469524,4.67296291 15.8558783,4.94024522 15.5833491,5.21812105 C15.5752861,5.22545501 15.5672231,5.23360386 15.5599664,5.24175272 L15.5591601,5.2425676 C15.3979002,5.4177679 15.4124136,5.68830975 15.5922184,5.84639747 C15.7712168,6.00448518 16.0477775,5.98981724 16.2082311,5.81461695 L16.2090374,5.81380206 L16.2138752,5.80891275 C16.4710847,5.54488998 16.7387761,5.29879467 17.0169494,5.07062684 C17.2999605,4.83675482 17.5999039,4.61673584 17.9143607,4.40975502 C21.0903742,2.33098311 25.2129831,2.19082287 28.50591,4.04713115 C28.7147416,4.1644746 28.9808204,4.09439448 29.100959,3.88985832 C29.2202913,3.68613704 29.1485306,3.42455892 28.9396991,3.30721547 Z M10.3875555,20.1859307 C7.67758316,19.7214462 5.37398569,19.1135419 3.68640099,18.3915537 C3.46547494,18.2978419 3.20826543,18.396443 3.11231579,18.6123876 C3.01555986,18.829147 3.11715359,19.0809465 3.33727334,19.1746583 C5.09339349,19.9259824 7.46472011,20.5542588 10.2367775,21.0293368 C19.0722067,22.5425785 30.9885059,22.3869354 39.1240672,20.5648523 C39.9424611,20.3815031 40.7165086,20.1810414 41.4397591,19.9650969 C42.1670412,19.7475225 42.8298194,19.51691 43.4200305,19.2757041 L43.4200305,19.2748892 L43.4272872,19.2724445 L43.4288998,19.2724445 C43.6490196,19.1779178 43.749807,18.9261183 43.6538574,18.7101738 C43.558714,18.4950441 43.305536,18.396443 43.0862226,18.4868953 L43.0854163,18.4860804 C42.5081059,18.7215822 41.8727419,18.9432309 41.1865811,19.148582 C40.4963888,19.3555628 39.7408862,19.5495055 38.9289427,19.7320397 C29.8669434,21.7619185 17.7982536,21.4563366 10.3875555,20.1859307 Z M20.3897,18.6286853 C21.2693726,18.680023 22.1812973,18.7109887 23.1157983,18.7166929 L23.1157983,18.7199524 L23.8858143,18.7199524 L23.8858143,18.7166929 C25.4564856,18.7060994 26.9650718,18.6278704 28.3575509,18.4950441 C29.9177403,18.3459201 31.3223139,18.1275309 32.4987048,17.8569891 C33.7928154,17.5587411 34.8434235,17.1773749 35.5698993,16.7324476 C36.1923625,16.3502665 36.6672728,16.0080148 36.7608036,15.4204826 L36.789024,12.9578998 C37.4260006,13.0719837 38.0395944,13.1934016 38.6289993,13.3229683 C39.468357,13.5071324 40.2456297,13.7035197 40.9575921,13.9105005 C44.8020278,15.0285229 47,16.5474687 47,18.2016855 L47,18.2025004 L46.9983874,18.2025004 C46.9983874,20.0465854 44.2908339,21.659243 39.9166595,22.7756356 C35.7110017,23.8488393 29.9072584,24.5129706 23.502822,24.5129706 L23.502822,24.5146004 L23.5004031,24.5146004 L23.4987906,24.5146004 L23.4987906,24.5129706 C17.0935479,24.5129706 11.2889983,23.8488393 7.08334048,22.7756356 C2.70916608,21.659243 0.00241889829,20.0465854 0.00161259886,18.2025004 L0,18.2025004 L0,18.2016855 L0.00161259886,18.2016855 C0.00161259886,17.843136 0.100787429,17.4927354 0.293492992,17.1521135 C0.471685166,16.8391976 0.727282085,16.5360603 1.05705855,16.2459612 C2.56645108,14.9176985 5.76826611,13.750783 10.210976,12.9578998 L10.2682232,15.4204826 C10.4061004,15.9102286 10.8076375,16.3502665 11.4301007,16.7324476 C12.1565765,17.1773749 13.2063783,17.5587411 14.5004889,17.8569891 C15.6776861,18.1275309 17.083066,18.3459201 18.6432554,18.4950441 C19.1278413,18.5414926 19.6269407,18.5806071 20.1365219,18.6132025 L20.3897,18.6286853 Z M20.0294118,28 C20.5979402,28 21.0588235,28.4608833 21.0588235,29.0294118 L21.0588235,38.9878296 C21.0588235,39.556358 20.5979402,40.0172414 20.0294118,40.0172414 C19.4608833,40.0172414 19,39.556358 19,38.9878296 L19,29.0294118 C19,28.4608833 19.4608833,28 20.0294118,28 Z M27.9705882,28 C28.5391167,28 29,28.4608833 29,29.0294118 L29,38.9878296 C29,39.556358 28.5391167,40.0172414 27.9705882,40.0172414 C27.4020598,40.0172414 26.9411765,39.556358 26.9411765,38.9878296 L26.9411765,29.0294118 C26.9411765,28.4608833 27.4020598,28 27.9705882,28 Z M24.1470588,28 C24.7155872,28 25.1764706,28.4608833 25.1764706,29.0294118 L25.1764706,43.9705882 C25.1764706,44.5391167 24.7155872,45 24.1470588,45 C23.5785304,45 23.1176471,44.5391167 23.1176471,43.9705882 L23.1176471,29.0294118 C23.1176471,28.4608833 23.5785304,28 24.1470588,28 Z" id="合并形状-copy-2" fill="#FFFFFF"></path>
    </g>
</svg>