<?xml version="1.0" encoding="UTF-8"?>
<svg width="22px" height="22px" viewBox="0 0 22 22" version="1.1" xmlns="http://www.w3.org/2000/svg" xmlns:xlink="http://www.w3.org/1999/xlink">
    <!-- Generator: Sketch 54.1 (76490) - https://sketchapp.com -->
    <title>形状结合</title>
    <desc>Created with Sketch.</desc>
    <defs>
        <linearGradient x1="34.5525587%" y1="27.4852528%" x2="74.6200964%" y2="81.8021479%" id="linearGradient-1">
            <stop stop-color="#FFEE50" offset="0%"></stop>
            <stop stop-color="#BA9F00" offset="46.1386191%"></stop>
            <stop stop-color="#FFE55C" offset="100%"></stop>
        </linearGradient>
    </defs>
    <g id="主頁" stroke="none" stroke-width="1" fill="none" fill-rule="evenodd">
        <g transform="translate(-20.000000, -296.000000)" fill="url(#linearGradient-1)" id="形状结合">
            <path d="M31,316 C26.0294373,316 22,311.970563 22,307 C22,302.029437 26.0294373,298 31,298 C35.9705627,298 40,302.029437 40,307 C40,311.970563 35.9705627,316 31,316 Z M34.7840662,307.240404 C34.4288484,307.300298 34.0512944,307.352058 33.6554871,307.394452 C32.868436,307.478994 32.0112539,307.527304 31.1146832,307.531001 L31.1146832,307.531987 L30.8855569,307.531987 L30.8855569,307.531001 C29.9892265,307.527304 29.1318042,307.478994 28.344753,307.394699 C27.9575921,307.353044 27.5877237,307.302516 27.2394709,307.244348 C27.2447548,307.250016 27.2509993,307.255439 27.2577242,307.260369 C27.5874835,307.497234 28.0322863,307.695402 28.5520235,307.845013 C28.6512155,307.873358 28.7544904,307.900717 28.861368,307.926105 C29.507677,308.080646 30.2502959,308.166174 31.0212554,308.166174 L31.0212554,308.166667 L31.0217358,308.166667 C32.1102057,308.166667 33.1446364,307.996104 33.9324081,307.699345 C34.0868402,307.641423 34.2323858,307.578325 34.3668834,307.510543 C34.5009007,307.443008 34.6248306,307.370791 34.736992,307.294136 C34.738433,307.29315 34.7398741,307.292164 34.7415553,307.290932 L34.7417955,307.290685 C34.7605291,307.277376 34.7749395,307.259876 34.7840662,307.240404 Z M28.2849496,301.122091 C27.5884442,301.814446 27.1561304,302.77004 27.1561304,303.82176 L27.1554099,303.82176 L27.1554099,304.523481 C27.1554099,304.527918 27.1558903,304.532601 27.1563706,304.537038 L27.1561304,304.547143 L27.1554099,304.547143 L27.1554099,304.54739 L27.1561304,304.54739 C27.1563706,304.855487 27.6103,305.115767 28.3442727,305.287315 C28.7967611,305.393054 29.4392273,305.476857 30.0735276,305.517772 L30.0735276,305.259217 C29.4618037,305.218795 28.8399925,305.137457 28.4031154,305.035415 C27.7930727,304.892705 27.4157589,304.718938 27.4155187,304.54739 L27.4162392,304.54739 C27.4162392,303.729084 34.5837608,303.525987 34.5844813,304.547143 L34.584001,304.54739 C34.584001,304.80274 33.7705306,304.994747 33.5966444,305.035415 C32.9328027,305.190696 32.0150967,305.286822 31.0010808,305.286822 L31.0010808,305.286329 L31.0001201,305.286329 L30.9993996,305.286329 L30.9993996,305.286822 C30.6794874,305.286822 30.3694224,305.27721 30.0735276,305.259217 L30.0735276,305.517772 C30.3699027,305.535518 30.6799677,305.544884 30.9993996,305.544884 L30.9993996,305.545377 L31.0001201,305.545377 L31.0010808,305.545377 L31.0010808,305.544884 C32.0369525,305.544884 32.9757939,305.446293 33.6557273,305.287315 C34.3894598,305.115767 34.8438696,304.855487 34.8438696,304.54739 L34.8443499,304.54739 L34.8443499,304.547143 L34.8438696,304.547143 C34.8438696,304.515101 34.8443499,304.484291 34.8443499,304.453235 L34.8443499,303.82176 L34.8443499,303.821513 L34.8438696,303.821513 C34.8438696,302.77004 34.4115558,301.814446 33.7152905,301.122091 C32.2072361,299.622767 29.7865194,299.629176 28.2849496,301.122091 Z M32.8415364,301.458779 C32.785816,301.415645 32.7750081,301.336033 32.817519,301.27959 C32.8624316,301.219942 32.9397677,301.213287 32.9993309,301.253956 C33.0163833,301.267019 33.0334357,301.280083 33.0500077,301.293885 C33.0603352,301.302019 33.0764269,301.315329 33.0978024,301.333075 C33.1806625,301.402582 33.2589594,301.4748 33.3324527,301.549483 C33.3824089,301.600504 33.3812081,301.682334 33.3298108,301.732123 C33.2784135,301.781911 33.1960337,301.780679 33.1460774,301.729658 C33.0764269,301.658672 33.0043746,301.59237 32.9308813,301.530504 C32.9215145,301.522863 32.9068638,301.511032 32.8862088,301.494272 C32.8691565,301.480469 32.8542657,301.468638 32.8415364,301.458779 Z M32.6203359,301.000331 C32.682541,301.035823 32.7039166,301.114943 32.6683708,301.176562 C32.6325848,301.238428 32.5533273,301.259625 32.4911221,301.224132 C31.5102503,300.662656 30.2822391,300.70505 29.3361926,301.333815 C29.2425246,301.39642 29.1531797,301.462969 29.0688786,301.533708 C28.9860184,301.602722 28.9062806,301.677158 28.829665,301.757017 L28.8282239,301.758496 L28.8279837,301.758742 C28.7801891,301.811735 28.6978093,301.816171 28.6444906,301.768355 C28.5909317,301.720538 28.5866086,301.638708 28.6346434,301.585715 L28.6348836,301.585468 C28.6370452,301.583004 28.6394469,301.580539 28.6418487,301.578321 C28.7230276,301.494272 28.8097305,301.413427 28.9017172,301.33628 C28.995145,301.258146 29.0919353,301.185682 29.1918478,301.119379 C30.221475,300.435157 31.5534817,300.390052 32.6203359,301.000331 Z M27.0941655,306.105621 C29.3016075,306.48988 32.8965363,306.582309 35.5958553,305.968333 C35.8377108,305.913122 36.0627541,305.85446 36.2683433,305.791855 C36.4727316,305.729743 36.661989,305.662701 36.8339538,305.591469 L36.834194,305.591715 C36.8995214,305.564356 36.9749361,305.59418 37.0032767,305.65925 C37.0318574,305.724567 37.0018356,305.800728 36.936268,305.82932 L36.9357877,305.82932 L36.9336261,305.830059 L36.9336261,305.830306 C36.7578185,305.903263 36.5603953,305.973016 36.343758,306.038826 C36.1283217,306.104142 35.8977544,306.164776 35.6539775,306.220233 C33.2306188,306.771357 29.6810828,306.818434 27.0492529,306.360725 C26.2235337,306.217029 25.517181,306.026995 24.9940814,305.799742 C24.9285138,305.771397 24.8982519,305.695236 24.9270728,305.629673 C24.9556535,305.564356 25.0322691,305.534532 25.0980769,305.562877 C25.6007617,305.781257 26.2869397,305.965129 27.0941655,306.105621 Z M30.0735276,305.634602 L29.9981129,305.629919 C29.8463228,305.62006 29.6976549,305.608229 29.5533101,305.59418 C29.0885729,305.549075 28.669949,305.483019 28.3192946,305.401188 C27.9338148,305.310977 27.6211079,305.195626 27.4047108,305.061049 C27.2192963,304.945451 27.0996895,304.812353 27.0586197,304.66422 L27.0415673,303.919365 C25.7182069,304.159187 24.7644748,304.512143 24.3148685,304.913902 C24.2166372,305.001648 24.140502,305.093338 24.0874234,305.187985 C24.0300218,305.291013 24.0004803,305.396998 24.0004803,305.505448 L24,305.505448 L24,305.505695 L24.0004803,305.505695 C24.0007205,306.063473 24.8069856,306.551253 26.1099312,306.888927 C27.3626803,307.213538 29.0916951,307.414417 30.9996397,307.414417 L30.9996397,307.41491 L31.0001201,307.41491 L31.0008406,307.41491 L31.0008406,307.414417 C32.9085451,307.414417 34.6373197,307.213538 35.8900688,306.888927 C37.1930144,306.551253 37.9995197,306.063473 37.9995197,305.505695 L38,305.505695 L38,305.505448 C38,305.005099 37.3452849,304.545664 36.2001338,304.207497 C35.9880599,304.144892 35.7565319,304.085491 35.5065104,304.029787 C35.330943,303.990597 35.1481704,303.953872 34.9584327,303.919365 L34.9500266,304.66422 C34.9221664,304.84193 34.7807037,304.945451 34.5952892,305.061049 C34.3788921,305.195626 34.065945,305.310977 33.6804653,305.401188 C33.330051,305.483019 32.9116673,305.549075 32.4469301,305.59418 C32.032149,305.634356 31.5827829,305.658018 31.1149234,305.661222 L31.1149234,305.662208 L30.8855569,305.662208 L30.8855569,305.661222 C30.6071949,305.659497 30.3355578,305.65013 30.0735276,305.634602 Z M30.1535948,308.944444 C29.9767193,308.944444 29.8333333,309.08783 29.8333333,309.264706 L29.8333333,312.197938 C29.8333333,312.374813 29.9767193,312.518199 30.1535948,312.518199 C30.3304703,312.518199 30.4738562,312.374813 30.4738562,312.197938 L30.4738562,309.264706 C30.4738562,309.08783 30.3304703,308.944444 30.1535948,308.944444 Z M32.624183,308.944444 C32.4473075,308.944444 32.3039216,309.08783 32.3039216,309.264706 L32.3039216,312.197938 C32.3039216,312.374813 32.4473075,312.518199 32.624183,312.518199 C32.8010585,312.518199 32.9444444,312.374813 32.9444444,312.197938 L32.9444444,309.264706 C32.9444444,309.08783 32.8010585,308.944444 32.624183,308.944444 Z M31.4346405,308.944444 C31.257765,308.944444 31.1143791,309.08783 31.1143791,309.264706 L31.1143791,313.679739 C31.1143791,313.856614 31.257765,314 31.4346405,314 C31.611516,314 31.754902,313.856614 31.754902,313.679739 L31.754902,309.264706 C31.754902,309.08783 31.611516,308.944444 31.4346405,308.944444 Z M31,318 C24.9248678,318 20,313.075132 20,307 C20,300.924868 24.9248678,296 31,296 C37.0751322,296 42,300.924868 42,307 C42,313.075132 37.0751322,318 31,318 Z M31,317 C36.5228475,317 41,312.522847 41,307 C41,301.477153 36.5228475,297 31,297 C25.4771525,297 21,301.477153 21,307 C21,312.522847 25.4771525,317 31,317 Z"></path>
        </g>
    </g>
</svg>