<?xml version="1.0" encoding="UTF-8"?>
<svg width="82px" height="83px" viewBox="0 0 82 83" version="1.1" xmlns="http://www.w3.org/2000/svg" xmlns:xlink="http://www.w3.org/1999/xlink">
    <!-- Generator: Sketch 53.2 (72643) - https://sketchapp.com -->
    <title>Group 21</title>
    <desc>Created with Sketch.</desc>
    <g id="Page-1" stroke="none" stroke-width="1" fill="none" fill-rule="evenodd">
        <g id="Group-21" transform="translate(1.000000, 1.000000)" fill="#FFFFFF">
            <path d="M52.2036506,41.9376618 C52.1730113,42.0020377 52.1246333,42.0598945 52.0617419,42.1038983 L52.0609357,42.1047132 C52.0552916,42.1087876 52.0504538,42.1120472 52.045616,42.1153067 C51.6690741,42.368736 51.2530236,42.6074973 50.8031085,42.8307758 C50.3515809,43.0548692 49.8629634,43.2634798 49.3445129,43.4549778 C46.6998507,44.4360995 43.2271191,45 39.5729701,45 L39.5713575,45 L39.5713575,44.9983702 C36.9831363,44.9983702 34.4900585,44.7156051 32.3203067,44.2046721 C31.9615035,44.120739 31.6147947,44.0302867 31.2817931,43.9365749 C29.5369611,43.4419397 28.0436946,42.786772 26.9366455,42.0036675 C26.9140691,41.9873698 26.8931053,41.9694423 26.8753667,41.9506999 C28.0445009,42.1430128 29.286202,42.3100643 30.5859567,42.4477798 C33.2281999,42.7264705 36.1066889,42.886188 39.1157983,42.8984113 L39.1157983,42.9016708 L39.885008,42.9016708 L39.885008,42.8984113 C42.8949237,42.886188 45.7726064,42.7264705 48.4148496,42.446965 C49.7436311,42.3068047 51.0111338,42.1356788 52.2036506,41.9376618 Z M30.3851881,21.7097687 C35.4261721,16.7740096 43.5528641,16.7528226 48.6156182,21.7097687 C50.9530802,23.998781 52.4044192,27.1580905 52.4044192,30.6343904 L52.4060318,30.6343904 L52.4060318,30.6352053 L52.4060318,32.722941 C52.4060318,32.8256165 52.4044192,32.9274771 52.4044192,33.0334122 L52.4060318,33.0334122 L52.4060318,33.0342271 L52.4044192,33.0342271 C52.4044192,34.0528335 50.8789007,34.9133521 48.4156559,35.4805122 C46.1330223,36.0061131 42.9811978,36.3320671 39.5036283,36.3320671 L39.5036283,36.3336969 L39.5004031,36.3336969 L39.4979843,36.3336969 L39.4979843,36.3320671 C38.425606,36.3320671 37.3846734,36.3011015 36.3897,36.2424297 L36.3897,35.3876153 C37.3830608,35.4471019 38.4239934,35.4788824 39.4979843,35.4788824 L39.4979843,35.4772526 L39.5004031,35.4772526 L39.5036283,35.4772526 L39.5036283,35.4788824 C42.9078245,35.4788824 45.9886947,35.1610772 48.2173063,34.6476996 C48.8010671,34.5132435 51.5320032,33.878448 51.5320032,33.0342271 L51.5336158,33.0334122 C51.5311969,29.6573432 27.4688031,30.3288085 27.4688031,33.0342271 L27.4663842,33.0342271 C27.4671905,33.6013871 28.7338869,34.1758811 30.7818874,34.6476996 C32.2485461,34.985062 34.3360553,35.2539741 36.3897,35.3876153 L36.3897,36.2424297 C34.2602632,36.1071588 32.1034122,35.8300979 30.5843441,35.4805122 C28.120293,34.9133521 26.5963871,34.0528335 26.5955808,33.0342271 L26.5931619,33.0342271 L26.5931619,33.0334122 L26.5955808,33.0334122 L26.5963871,33.0000019 C26.5947745,32.985334 26.5931619,32.9698511 26.5931619,32.9551832 L26.5931619,30.6352053 L26.5955808,30.6352053 C26.5955808,27.1580905 28.0469198,23.998781 30.3851881,21.7097687 Z M45.6823009,22.8229018 C45.7250347,22.8554972 45.7750253,22.8946117 45.8322726,22.9402452 C45.9016143,22.9956574 45.9507986,23.0347719 45.9822443,23.0600333 C46.2289719,23.2645695 46.4708617,23.4837736 46.7046885,23.7184605 C46.8723988,23.8871417 47.1489595,23.8912161 47.3215076,23.7266094 C47.4940557,23.5620026 47.4980872,23.2914607 47.3303769,23.1227795 C47.0836493,22.8758693 46.8207957,22.637108 46.5426224,22.4073104 C46.4708617,22.3486386 46.4168396,22.3046348 46.3821688,22.2777436 C46.3265341,22.2321101 46.2692869,22.1889212 46.2120396,22.1457322 C46.0120773,22.0112762 45.7524489,22.0332781 45.6016709,22.2304803 C45.4589559,22.417089 45.4952394,22.6802969 45.6823009,22.8229018 Z M44.9396991,21.3072155 C41.358117,19.2895599 36.8863804,19.4386839 33.4297748,21.700805 C33.0943542,21.9200091 32.7694155,22.1595853 32.455765,22.4179039 C32.1469524,22.6729629 31.8558783,22.9402452 31.5833491,23.218121 C31.5752861,23.225455 31.5672231,23.2336039 31.5599664,23.2417527 L31.5591601,23.2425676 C31.3979002,23.4177679 31.4124136,23.6883098 31.5922184,23.8463975 C31.7712168,24.0044852 32.0477775,23.9898172 32.2082311,23.8146169 L32.2090374,23.8138021 L32.2138752,23.8089128 C32.4710847,23.54489 32.7387761,23.2987947 33.0169494,23.0706268 C33.2999605,22.8367548 33.5999039,22.6167358 33.9143607,22.409755 C37.0903742,20.3309831 41.2129831,20.1908229 44.50591,22.0471311 C44.7147416,22.1644746 44.9808204,22.0943945 45.100959,21.8898583 C45.2202913,21.686137 45.1485306,21.4245589 44.9396991,21.3072155 Z M26.3875555,38.1859307 C23.6775832,37.7214462 21.3739857,37.1135419 19.686401,36.3915537 C19.4654749,36.2978419 19.2082654,36.396443 19.1123158,36.6123876 C19.0155599,36.829147 19.1171536,37.0809465 19.3372733,37.1746583 C21.0933935,37.9259824 23.4647201,38.5542588 26.2367775,39.0293368 C35.0722067,40.5425785 46.9885059,40.3869354 55.1240672,38.5648523 C55.9424611,38.3815031 56.7165086,38.1810414 57.4397591,37.9650969 C58.1670412,37.7475225 58.8298194,37.51691 59.4200305,37.2757041 L59.4200305,37.2748892 L59.4272872,37.2724445 L59.4288998,37.2724445 C59.6490196,37.1779178 59.749807,36.9261183 59.6538574,36.7101738 C59.558714,36.4950441 59.305536,36.396443 59.0862226,36.4868953 L59.0854163,36.4860804 C58.5081059,36.7215822 57.8727419,36.9432309 57.1865811,37.148582 C56.4963888,37.3555628 55.7408862,37.5495055 54.9289427,37.7320397 C45.8669434,39.7619185 33.7982536,39.4563366 26.3875555,38.1859307 Z M36.3897,36.6286853 C37.2693726,36.680023 38.1812973,36.7109887 39.1157983,36.7166929 L39.1157983,36.7199524 L39.8858143,36.7199524 L39.8858143,36.7166929 C41.4564856,36.7060994 42.9650718,36.6278704 44.3575509,36.4950441 C45.9177403,36.3459201 47.3223139,36.1275309 48.4987048,35.8569891 C49.7928154,35.5587411 50.8434235,35.1773749 51.5698993,34.7324476 C52.1923625,34.3502665 52.6672728,34.0080148 52.7608036,33.4204826 L52.789024,30.9578998 C53.4260006,31.0719837 54.0395944,31.1934016 54.6289993,31.3229683 C55.468357,31.5071324 56.2456297,31.7035197 56.9575921,31.9105005 C60.8020278,33.0285229 63,34.5474687 63,36.2016855 L63,36.2025004 L62.9983874,36.2025004 C62.9983874,38.0465854 60.2908339,39.659243 55.9166595,40.7756356 C51.7110017,41.8488393 45.9072584,42.5129706 39.502822,42.5129706 L39.502822,42.5146004 L39.5004031,42.5146004 L39.4987906,42.5146004 L39.4987906,42.5129706 C33.0935479,42.5129706 27.2889983,41.8488393 23.0833405,40.7756356 C18.7091661,39.659243 16.0024189,38.0465854 16.0016126,36.2025004 L16,36.2025004 L16,36.2016855 L16.0016126,36.2016855 C16.0016126,35.843136 16.1007874,35.4927354 16.293493,35.1521135 C16.4716852,34.8391976 16.7272821,34.5360603 17.0570586,34.2459612 C18.5664511,32.9176985 21.7682661,31.750783 26.210976,30.9578998 L26.2682232,33.4204826 C26.4061004,33.9102286 26.8076375,34.3502665 27.4301007,34.7324476 C28.1565765,35.1773749 29.2063783,35.5587411 30.5004889,35.8569891 C31.6776861,36.1275309 33.083066,36.3459201 34.6432554,36.4950441 C35.1278413,36.5414926 35.6269407,36.5806071 36.1365219,36.6132025 L36.3897,36.6286853 Z M36.0294118,46 C36.5979402,46 37.0588235,46.4608833 37.0588235,47.0294118 L37.0588235,56.9878296 C37.0588235,57.556358 36.5979402,58.0172414 36.0294118,58.0172414 C35.4608833,58.0172414 35,57.556358 35,56.9878296 L35,47.0294118 C35,46.4608833 35.4608833,46 36.0294118,46 Z M43.9705882,46 C44.5391167,46 45,46.4608833 45,47.0294118 L45,56.9878296 C45,57.556358 44.5391167,58.0172414 43.9705882,58.0172414 C43.4020598,58.0172414 42.9411765,57.556358 42.9411765,56.9878296 L42.9411765,47.0294118 C42.9411765,46.4608833 43.4020598,46 43.9705882,46 Z M40.1470588,46 C40.7155872,46 41.1764706,46.4608833 41.1764706,47.0294118 L41.1764706,61.9705882 C41.1764706,62.5391167 40.7155872,63 40.1470588,63 C39.5785304,63 39.1176471,62.5391167 39.1176471,61.9705882 L39.1176471,47.0294118 C39.1176471,46.4608833 39.5785304,46 40.1470588,46 Z" id="合并形状-copy-2"></path>
            <path d="M40,80.8333333 C17.90861,80.8333333 0,62.7381753 0,40.4166667 C0,18.095158 17.90861,-1.49213975e-13 40,-1.49213975e-13 C62.09139,-1.49213975e-13 80,18.095158 80,40.4166667 C80,62.7381753 62.09139,80.8333333 40,80.8333333 Z M40,75.7291667 C59.3299662,75.7291667 75,59.8959034 75,40.3645833 C75,20.8332633 59.3299662,5 40,5 C20.6700338,5 5,20.8332633 5,40.3645833 C5,59.8959034 20.6700338,75.7291667 40,75.7291667 Z" id="Combined-Shape" stroke="#979797"></path>
        </g>
    </g>
</svg>