<?xml version="1.0" encoding="UTF-8"?>
<svg width="44px" height="39px" viewBox="0 0 44 39" version="1.1" xmlns="http://www.w3.org/2000/svg" xmlns:xlink="http://www.w3.org/1999/xlink">
    <!-- Generator: Sketch 54.1 (76490) - https://sketchapp.com -->
    <title>编组 5</title>
    <desc>Created with Sketch.</desc>
    <g id="我的" stroke="none" stroke-width="1" fill="none" fill-rule="evenodd">
        <g id="手机" transform="translate(-295.000000, -130.000000)">
            <g id="编组-5" transform="translate(295.000000, 130.000000)">
                <text id="星球公益" font-family="PingFangSC-Semibold, PingFang SC" font-size="11" font-weight="500" letter-spacing="-0.05866668" fill="#FFFFFF">
                    <tspan x="0" y="37">星球公益</tspan>
                </text>
                <path d="M19.0612564,7.34629099 C19.0786436,7.32890373 19.0933559,7.31151647 19.1094057,7.29279173 C19.3501524,7.52150105 19.6082863,7.75689777 19.8757825,7.98293213 C19.8423455,8.00834427 19.810246,8.03776886 19.7794839,8.06719346 L15.1544732,12.6935416 C14.8909894,12.4260453 14.6542552,12.1866361 14.4375832,11.9646142 L19.0612564,7.34629099 Z M18.0273833,6.15058262 C17.9966212,6.1733198 17.9685341,6.19873195 17.940447,6.2241441 L13.3448609,10.8170552 C13.1656384,10.619108 12.9944408,10.4171483 12.8326055,10.2071637 L12.8259181,10.1991388 C11.6823715,8.60619846 10.7581719,6.15058262 12.7991685,3.47160739 L12.8071934,3.46090754 C13.6190446,2.31468599 14.9271014,1.62320811 16.3314569,1.59645848 L16.3368068,1.59645848 C17.0724215,1.57907122 17.8040239,1.71950677 18.4807894,2.00706527 C19.268566,2.5514202 20.0135431,3.15729927 20.7063585,3.81801507 L20.7183958,3.82871493 C21.6359081,4.61916643 22.4624716,5.50859155 23.1873865,6.47692808 C23.3478842,6.77919888 23.29171,7.1510187 23.0509634,7.39310283 L23.0295637,7.41584002 L23.0121764,7.44125216 C22.8490037,7.6833363 22.5507453,7.79702221 22.2671993,7.72479822 C21.1316776,7.21388033 19.3421275,5.28121972 19.3247402,5.26383246 C19.0612564,4.96691159 18.6158751,4.91341233 18.2868546,5.13810921 C17.9591717,5.3614686 17.8481608,5.79615005 18.0287207,6.15058262 L18.0273833,6.15058262 Z M21.138365,18.1477907 C20.8173694,18.0528295 20.5204486,17.8990192 20.2583022,17.693047 C20.2088154,17.6489101 20.1606661,17.6020983 20.1111793,17.553949 L24.7495647,12.9182385 L24.7535772,12.914226 C25.0451481,12.6025929 25.0371232,12.1157496 24.7348524,11.8134788 C24.4339191,11.511208 23.9457384,11.5018457 23.6341053,11.7934166 L18.9703076,16.4545393 C18.7335734,16.2271674 18.510214,16.0104954 18.2948795,15.7978359 L22.9453023,11.1514255 C23.1699992,10.9253912 23.2382108,10.5856709 23.1151625,10.28875 C22.9921142,9.99450414 22.7045557,9.80190682 22.3835602,9.80190682 L22.3822227,9.80190682 C22.1735756,9.80190682 21.9729534,9.88616815 21.8244929,10.0346286 L17.1620328,14.6917388 C16.893199,14.4269175 16.5829034,14.1206342 16.2726077,13.814351 L20.9002933,9.18800286 C20.9858921,9.10374153 21.0527662,9.00075547 21.0942281,8.88573207 C21.2734506,8.9980805 21.4620355,9.09972909 21.6546328,9.1853279 L21.674695,9.19335279 C22.6042446,9.5303981 23.6461426,9.22277738 24.2439968,8.43633832 C24.9541994,7.66594904 25.0678853,6.51839 24.5235304,5.62361495 L24.5088181,5.60221525 C23.9497509,4.83316345 23.3251471,4.11359846 22.6403566,3.45555762 L24.2720839,2.15953815 C24.658616,1.89070439 25.1013223,1.70880692 25.5667659,1.63257048 C26.0602965,1.54830915 26.564527,1.57238382 27.0486952,1.70211951 C27.7709352,1.91076661 28.4410134,2.26921162 29.0121179,2.75739233 L29.0268302,2.76809218 C30.1396147,3.61873035 30.8538298,4.89067515 30.9996153,6.28433076 C31.054452,6.89020983 31.0063027,7.50277631 30.8591797,8.09394308 L30.8565048,8.09394308 L30.7909682,8.33870218 C30.6826322,8.75198393 30.5007347,9.14119101 30.2519632,9.48759869 L30.2426008,9.49829854 C29.656784,10.1951263 24.4620062,16.3528907 22.824929,17.7719584 L22.8182416,17.7799833 C22.3688479,18.19594 21.7281943,18.3390505 21.1450524,18.1491282 L21.138365,18.1477907 Z M32.5751684,6.13453284 L32.5497562,5.83359953 L32.5403938,5.83359953 C32.4400827,5.11804699 32.2193983,4.42523163 31.885028,3.78457804 L31.8836905,3.78190308 C31.4235969,2.91387765 30.7896307,2.1488383 30.0192414,1.53627182 C29.2756018,0.904980603 28.4008889,0.439537079 27.4606395,0.174715763 L27.4579646,0.174715763 C26.7544493,-0.0165440759 26.0161596,-0.051318592 25.2979321,0.0730671774 C24.5743547,0.192103021 23.8895642,0.478324039 23.2957225,0.908993047 L23.2890351,0.91166801 L21.4647104,2.36551028 C20.777245,1.73689403 20.0443052,1.15776459 19.271241,0.636146843 L19.2498412,0.621434548 L19.2244291,0.610734697 C18.3069169,0.189428058 17.3064808,-0.0138691131 16.2980198,0.0142179961 C15.4687814,0.0249178473 14.6529177,0.212165242 13.9012532,0.561247885 L13.8972407,0.562585367 C12.9623412,1.01197911 12.153165,1.68205729 11.5379235,2.51397072 C10.2753411,4.17378512 9.78582292,5.94327301 10.0854188,7.77428503 L10.0854188,7.77963496 C10.3074407,8.99941799 10.8103337,10.1523269 11.5539733,11.1460756 C12.3992616,12.3150344 17.5726396,17.3132023 19.1401678,18.8192064 L19.1816297,18.8606683 L19.2190792,18.8927678 C19.6417233,19.2365006 20.1245541,19.4946345 20.6448343,19.6564697 C20.9805422,19.7594558 21.3282873,19.812955 21.6800449,19.81563 L21.6853949,19.81563 C22.4905587,19.8089426 23.2676354,19.5066718 23.8641521,18.9663293 C25.5908405,17.4696876 30.4993972,11.658331 31.4650588,10.5067595 L31.487796,10.4826848 C31.8676407,9.97042948 32.1485118,9.38996255 32.315697,8.77472111 C32.5698184,7.9200705 32.6567547,7.02262049 32.5751684,6.13453284 L32.5751684,6.13453284 Z" id="Fill-1" fill="#02F52B"></path>
            </g>
        </g>
    </g>
</svg>