<?xml version="1.0" encoding="UTF-8"?>
<svg width="200px" height="200px" viewBox="0 0 200 200" version="1.1" xmlns="http://www.w3.org/2000/svg" xmlns:xlink="http://www.w3.org/1999/xlink">
    <!-- Generator: Sketch 54.1 (76490) - https://sketchapp.com -->
    <title>形状结合</title>
    <desc>Created with Sketch.</desc>
    <g id="IOS版本排版" stroke="none" stroke-width="1" fill="none" fill-rule="evenodd">
        <path d="M200,99.9994859 C200,155.263557 155.263557,200 100.000514,200 C44.7364432,200 2.7393171e-15,155.263557 6.12326547e-15,99.9994859 C9.5071509e-15,44.7364432 44.7364432,0 100.000514,0 C155.263557,0 200,44.7364432 200,99.9994859 Z M86.8428424,67.1930695 C35.0882377,63.157543 24.5616379,98.9473656 24.5616379,98.9473656 C24.7374195,99.1221193 24.9121732,99.4734258 24.9121732,99.6489504 C24.9121732,99.824732 25.087698,99.824732 25.087698,99.9992289 L24.7374195,99.9992289 C24.5616379,100.174754 24.5616379,100.526317 24.3861131,100.700814 C24.3861131,100.700814 34.9127129,136.666675 86.6670605,132.630892 C90.8773406,132.280613 94.7373424,131.929307 98.4215623,131.579028 L119.473734,147.367772 C119.473734,147.367772 152.632228,141.57854 152.281179,134.911685 C152.281179,134.911685 136.49115,134.73616 127.369005,126.140075 C136.140872,123.15744 134.912199,120.526368 134.912199,120.526368 L134.912199,99.8244752 L134.912199,79.4731174 C134.912199,79.4731174 135.965347,76.8420457 127.369005,73.8594105 C136.316654,65.2622977 152.281179,65.0875438 152.281179,65.0875438 C152.632228,58.4209457 119.473734,52.6304291 119.473734,52.6304291 L98.4215623,68.2446756 C94.9128672,67.8946543 91.0531227,67.5433479 86.8428424,67.1930695 Z M149.123276,109.648719 C149.123276,111.052146 150.351692,112.280819 151.755119,112.280819 L174.562024,112.280819 C175.96545,112.280819 177.193095,111.052146 177.193095,109.648719 L177.193095,107.895014 C177.193095,106.49056 175.96545,105.262658 174.562024,105.262658 L151.755119,105.262658 C150.351692,105.262658 149.123276,106.49056 149.123276,107.895014 L149.123276,109.648719 Z M149.123276,92.1049859 C149.123276,93.5084125 150.351692,94.7360576 151.755119,94.7360576 L174.562024,94.7360576 C175.96545,94.7360576 177.193095,93.5084127 177.193095,92.1049859 L177.193095,90.3502527 C177.193095,88.946826 175.96545,87.7191811 174.562024,87.7191811 L151.755119,87.7191811 C150.351692,87.7191811 149.123276,88.946826 149.123276,90.3502527 L149.123276,92.1049859 Z" id="形状结合" fill="#FFFFFF" fill-rule="nonzero" transform="translate(100.000000, 100.000000) rotate(90.000000) translate(-100.000000, -100.000000) "></path>
    </g>
</svg>