<?xml version="1.0" encoding="UTF-8"?>
<svg width="112px" height="40px" viewBox="0 0 112 40" version="1.1" xmlns="http://www.w3.org/2000/svg" xmlns:xlink="http://www.w3.org/1999/xlink">
    <!-- Generator: Sketch 54.1 (76490) - https://sketchapp.com -->
    <title>编组 2</title>
    <desc>Created with Sketch.</desc>
    <g id="定位社交" stroke="none" stroke-width="1" fill="none" fill-rule="evenodd">
        <g id="點擊查看居民資料" transform="translate(-226.000000, -561.000000)">
            <g id="编组-2" transform="translate(226.000000, 561.000000)">
                <path d="M20,0.75 C9.36851857,0.75 0.75,9.36851857 0.75,20 C0.75,30.6314814 9.36851857,39.25 20,39.25 L92,39.25 C102.631481,39.25 111.25,30.6314814 111.25,20 C111.25,9.36851857 102.631481,0.75 92,0.75 L20,0.75 Z" id="矩形" stroke="#4A90E2" stroke-width="1.5" fill="#FFFFFF" transform="translate(56.000000, 20.000000) scale(-1, 1) translate(-56.000000, -20.000000) "></path>
                <path d="M38.658055,15.8420626 L40.828606,18.0379931 L38.4257379,20.5782175 L37.5051039,21.5486712 C37.198256,21.8601795 36.4255094,22.6422289 36.18006,22.9017138 C35.9345745,23.1612709 35.7311773,23.3749282 35.5700492,23.5426857 C35.4090114,23.7103891 35.3131113,23.8063072 35.2824211,23.8301874 C35.2057046,23.9021351 35.1174996,23.9779845 35.0177519,24.057826 C34.9180042,24.1377037 34.8144451,24.201613 34.7070023,24.2494456 C34.5995775,24.3054611 34.4424053,24.3733084 34.2352329,24.4532582 C34.0280424,24.5330637 33.8112781,24.6109182 33.5849762,24.6868037 C33.3586562,24.7626712 33.143897,24.8285675 32.9405902,24.8844386 C32.7372833,24.9403818 32.585729,24.9763285 32.4859452,24.9922787 C32.278863,25.0162855 32.1407481,24.9842946 32.0716906,24.8965412 C32.002615,24.8086252 31.9834856,24.6608101 32.0141758,24.4532582 C32.0295299,24.3412995 32.0659102,24.1795753 32.1234972,23.9680315 C32.180994,23.7563611 32.2424105,23.5367067 32.3075482,23.3090681 C32.3728484,23.0814113 32.4361074,22.8718003 32.4975421,22.6801987 C32.5589225,22.4883804 32.6087241,22.35666 32.6471094,22.2847304 C32.6930454,22.1728981 32.7449604,22.0711995 32.8024752,21.9792553 C32.85999,21.8874015 32.9424869,21.7855584 33.0499116,21.6737441 C33.0958657,21.6258212 33.2032904,21.5120199 33.3720956,21.3323043 C33.5409188,21.1526428 34.2483832,20.4345208 34.5014917,20.1709355 L35.3416158,19.2963458 L36.2737203,18.3260005 L38.658055,15.8420626 Z M37.1068899,21.118936 L39.8446046,18.3671677 L38.4839753,17.0235363 C38.4839753,17.0235363 34.0532412,21.4618932 33.9476951,21.5691734 C33.8422031,21.6764718 33.7750243,21.7443912 33.746303,21.7730222 C33.6791603,21.8397675 33.6275704,21.900606 33.5916236,21.9554113 C33.5556949,22.0103068 33.5232164,22.071055 33.4945132,22.1377642 C33.4705427,22.1807197 33.4394009,22.2594051 33.4010156,22.3738747 C33.3626302,22.4882359 33.3230888,22.6133992 33.2822287,22.7492924 C33.2415132,22.8852036 33.2031278,23.0163278 33.1671992,23.1426834 C33.1311982,23.2690389 33.108438,23.3655532 33.0988462,23.432443 C33.0796625,23.5563419 33.0916387,23.644583 33.1347929,23.697058 C33.1779651,23.7494066 33.2643096,23.7685541 33.393754,23.7541934 C33.4561098,23.74471 33.55089,23.7232143 33.6779681,23.6898145 C33.8050642,23.6564508 33.9393496,23.6171262 34.0808064,23.5718224 C34.2222993,23.5265368 34.357777,23.4800589 34.4872936,23.432443 C34.6168283,23.3846646 34.7150767,23.34422 34.7822375,23.310748 C34.8493983,23.2821531 34.9141386,23.2440388 34.9764583,23.1962964 C35.0388322,23.1486625 35.0939626,23.1033407 35.1419398,23.0604394 C35.1611415,23.046151 35.2210407,22.9889252 35.3217277,22.8887802 C35.4224328,22.788599 35.5496192,22.6610693 35.7030522,22.5060828 C35.8565213,22.3511686 36.3395443,21.8843126 36.5313807,21.6983108 L37.1068899,21.118936 Z M41.2472501,14.0259753 C41.1653494,14.0094714 41.0846228,14.0018347 41.0062986,14.0030065 C41.0179496,14.0030065 41.029691,14.0030065 41.0414686,14.0034167 C41.1112306,14.0061315 41.1797823,14.0136706 41.2472501,14.0259753 Z M42.6183564,15.6412485 C42.6195487,15.6691208 42.6203254,15.6971556 42.6203254,15.7255156 C42.6203254,15.8548697 42.596409,15.9842057 42.5486667,16.1135598 C42.5008521,16.2428236 42.4244066,16.3673005 42.319294,16.4866653 C42.2045534,16.6060663 42.1018072,16.7105106 42.0111274,16.8000162 C41.9202309,16.8895759 41.8414191,16.9692368 41.7745473,17.038782 C41.6980114,17.1184067 41.6263527,17.1880603 41.5594811,17.2477428 L39.4000391,15.0526974 C39.5147074,14.9432856 39.6509618,14.8115471 39.8086037,14.6572471 C39.9662816,14.5030916 40.097695,14.3811255 40.2028618,14.2916019 C40.3366956,14.1822082 40.4752441,14.1051665 40.6186337,14.0603144 C40.7497761,14.019364 40.8790037,13.9994217 41.0062986,14.0001262 C41.01804,14.0002346 41.0297994,14.0001262 41.0414686,14.0006139 C41.1112306,14.0031067 41.1798907,14.0100793 41.2472501,14.0214594 C41.5381839,14.0755602 41.8425932,14.2313053 42.100922,14.4806565 C42.2452329,14.6199456 42.3606418,14.7747514 42.4458482,14.9344886 C42.5714992,15.1701836 42.6309107,15.4167349 42.6183564,15.6412485 Z M42.0713156,15.9506434 C42.1039568,15.8621855 42.1203224,15.7736915 42.1203405,15.6852155 C42.1203405,15.6658693 42.1197986,15.6466857 42.1189857,15.6276285 C42.1275841,15.4740329 42.0869408,15.3053723 42.0009937,15.1441538 C41.9426661,15.0348505 41.8637277,14.928943 41.7650277,14.8336752 C41.5883288,14.6630997 41.3800543,14.5565601 41.1810467,14.5195476 C41.1349482,14.5117441 41.0880006,14.5069933 41.0402945,14.5052773 C41.0322922,14.504916 41.0242539,14.5049883 41.0162155,14.504916 C40.9291666,14.5044463 40.8407448,14.5180844 40.7509864,14.5461012 C40.6528644,14.5767914 40.5581384,14.6294651 40.4665736,14.7043211 C40.394662,14.7655389 40.3047591,14.8489751 40.1969188,14.954449 C40.0890425,15.0599771 40.1295051,15.0215917 40.0510365,15.0964476 L41.5417425,16.5835951 C41.4893939,16.6380571 41.5874978,16.5427892 41.5417425,16.5835951 C41.5874978,16.5360153 41.6414359,16.4815352 41.7035932,16.4202632 C41.7656599,16.3590454 41.8358916,16.2875673 41.9143783,16.2059014 C41.986326,16.1242355 42.0386023,16.0390832 42.0713156,15.9506434 Z" id="Combined-Shape" fill="#4A90E2" fill-rule="nonzero"></path>
                <text id="對話" font-family="PingFangSC-Regular, PingFang SC" font-size="14" font-weight="normal" letter-spacing="0.875" fill="#4A90E2">
                    <tspan x="51" y="25">對話</tspan>
                </text>
            </g>
        </g>
    </g>
</svg>