<?xml version="1.0" encoding="UTF-8"?>
<svg width="24px" height="24px" viewBox="0 0 24 24" version="1.1" xmlns="http://www.w3.org/2000/svg" xmlns:xlink="http://www.w3.org/1999/xlink">
    <!-- Generator: Sketch 54.1 (76490) - https://sketchapp.com -->
    <title>编组 15</title>
    <desc>Created with Sketch.</desc>
    <defs>
        <linearGradient x1="34.5525587%" y1="27.4852528%" x2="74.6200964%" y2="81.8021479%" id="linearGradient-1">
            <stop stop-color="#FFEE50" offset="0%"></stop>
            <stop stop-color="#BA9F00" offset="46.1386191%"></stop>
            <stop stop-color="#FFE55C" offset="100%"></stop>
        </linearGradient>
    </defs>
    <g id="星球日誌" stroke="none" stroke-width="1" fill="none" fill-rule="evenodd">
        <g id="日誌复制-5" transform="translate(-333.000000, -451.000000)">
            <g id="编组-15" transform="translate(333.000000, 451.000000)">
                <g id="编组-14">
                    <circle id="椭圆形" fill="#504A00" cx="12" cy="12" r="12"></circle>
                    <path d="M12,21.8181818 C6.57756791,21.8181818 2.18181818,17.4224321 2.18181818,12 C2.18181818,6.57756791 6.57756791,2.18181818 12,2.18181818 C17.4224321,2.18181818 21.8181818,6.57756791 21.8181818,12 C21.8181818,17.4224321 17.4224321,21.8181818 12,21.8181818 Z M16.1280722,12.2622588 C15.7405619,12.3275977 15.3286848,12.3840635 14.896895,12.4303117 C14.0382938,12.5225391 13.1031861,12.5752405 12.125109,12.5792738 L12.125109,12.5803493 L11.875153,12.5803493 L11.875153,12.5792738 C10.897338,12.5752405 9.96196824,12.5225391 9.10336696,12.4305806 C8.68100954,12.385139 8.27751672,12.3300177 7.89760465,12.2665609 C7.90336883,12.2727453 7.91018105,12.2786607 7.91751728,12.2840384 C8.27725471,12.5424366 8.76249413,12.7586198 9.32948015,12.9218328 C9.43768959,12.9527545 9.55035317,12.9826007 9.66694687,13.0102959 C10.3720113,13.1788865 11.182141,13.2721895 12.0231877,13.2721895 L12.0231877,13.2727273 L12.0237118,13.2727273 C13.2111335,13.2727273 14.3396033,13.0866591 15.1989906,12.762922 C15.367462,12.6997341 15.526239,12.6308996 15.6729637,12.5569563 C15.8191643,12.4832819 15.9543606,12.4044987 16.0767185,12.3208756 C16.0782906,12.3198001 16.0798626,12.3187245 16.0816967,12.3173801 L16.0819587,12.3171112 C16.1023953,12.3025915 16.1181158,12.2835007 16.1280722,12.2622588 Z M9.03812689,5.58773513 C8.27830275,6.34303211 7.80668776,7.38549789 7.80668776,8.53282869 L7.80590174,8.53282869 L7.80590174,9.29834328 C7.80590174,9.3031832 7.80642575,9.30829201 7.80694977,9.31313194 L7.80668776,9.32415621 L7.80590174,9.32415621 L7.80590174,9.32442509 L7.80668776,9.32442509 C7.80694977,9.6605309 8.30214551,9.94447309 9.10284295,10.1316168 C9.59646663,10.2469683 10.2973389,10.3383891 10.9893029,10.383024 L10.9893029,10.100964 C10.3219677,10.0568669 9.64362813,9.96813494 9.16703499,9.8568167 C8.50153384,9.70113248 8.08991876,9.51156881 8.08965675,9.32442509 L8.09044278,9.32442509 C8.09044278,8.43172806 15.9095572,8.21016711 15.9103432,9.32415621 L15.9098192,9.32442509 C15.9098192,9.60298959 15.022397,9.81245073 14.832703,9.8568167 C14.108512,10.026214 13.1073782,10.131079 12.001179,10.131079 L12.001179,10.1305413 L12.000131,10.1305413 L11.999345,10.1305413 L11.999345,10.131079 C11.6503499,10.131079 11.3120971,10.1205925 10.9893029,10.100964 L10.9893029,10.383024 C11.3126212,10.4023836 11.6508739,10.4126013 11.999345,10.4126013 L11.999345,10.413139 L12.000131,10.413139 L12.001179,10.413139 L12.001179,10.4126013 C13.1312209,10.4126013 14.1554115,10.3050474 14.8971571,10.1316168 C15.6975925,9.94447309 16.1933122,9.6605309 16.1933122,9.32442509 L16.1938363,9.32442509 L16.1938363,9.32415621 L16.1933122,9.32415621 C16.1933122,9.2892012 16.1938363,9.25559062 16.1938363,9.22171116 L16.1938363,8.53282869 L16.1938363,8.5325598 L16.1933122,8.5325598 C16.1933122,7.38549789 15.7216973,6.34303211 14.9621351,5.58773513 C13.3169848,3.95210981 10.6762029,3.95910081 9.03812689,5.58773513 Z M14.0089488,5.95503156 C13.9481629,5.90797675 13.9363725,5.82112701 13.982748,5.75955242 C14.0317436,5.69448234 14.1161102,5.68722245 14.1810883,5.73158842 C14.1996909,5.7458393 14.2182935,5.76009019 14.2363721,5.77514773 C14.2476384,5.78402092 14.265193,5.79854069 14.2885117,5.81790039 C14.3789046,5.89372586 14.4643193,5.97250906 14.5444938,6.05398111 C14.5989916,6.10964023 14.5976815,6.19890994 14.5416118,6.25322464 C14.485542,6.30753933 14.3956731,6.30619491 14.3411754,6.25053579 C14.265193,6.17309701 14.1865905,6.10076704 14.1064159,6.03327699 C14.0961976,6.02494157 14.0802151,6.01203511 14.0576824,5.99375095 C14.0390798,5.97869341 14.0228353,5.96578695 14.0089488,5.95503156 Z M13.7676392,5.45490611 C13.8354993,5.4936255 13.8588181,5.57993748 13.8200408,5.64715864 C13.7810016,5.71464868 13.6945388,5.73777276 13.6266787,5.69905337 C12.5566367,5.08653415 11.2169881,5.1327823 10.1849373,5.81870704 C10.0827541,5.88700374 9.98528698,5.9596026 9.89332206,6.03677249 C9.80292919,6.1120602 9.71594243,6.19326336 9.63236177,6.28038199 L9.63078972,6.28199529 L9.63052771,6.28226418 C9.57838806,6.34007438 9.4885192,6.3449143 9.43035335,6.29275068 C9.3719255,6.24058706 9.36720935,6.15131735 9.41961101,6.09350715 L9.41987302,6.09323827 C9.42223109,6.09054942 9.42485118,6.08786058 9.42747126,6.08544061 C9.51603007,5.99375095 9.61061508,5.90555678 9.71096427,5.82139589 C9.81288551,5.73615946 9.91847486,5.65710737 10.0274703,5.5847774 C11.1507,4.83835361 12.6037982,4.78914772 13.7676392,5.45490611 Z M7.73908961,11.0243138 C10.1472081,11.443505 14.0689487,11.5443368 17.0136603,10.8745451 C17.2775027,10.8143149 17.5230045,10.7503204 17.7472836,10.6820237 C17.9702527,10.6142648 18.1767153,10.5411281 18.3643132,10.4634205 L18.3645752,10.4636893 C18.4358415,10.4338432 18.5181121,10.4663782 18.5490291,10.5373637 C18.5802081,10.6086182 18.547457,10.6917035 18.4759288,10.7228941 L18.4754047,10.7228941 L18.4730467,10.7237008 L18.4730467,10.7239697 C18.2812566,10.8035595 18.0658857,10.8796539 17.8295542,10.9514461 C17.5945328,11.0227005 17.3430048,11.0888462 17.0770663,11.1493452 C14.4334023,11.7505713 10.5611813,11.8019282 7.69009406,11.3026095 C6.78930944,11.1458497 6.01874295,10.9385396 5.44808882,10.690628 C5.37656055,10.6597063 5.3435475,10.5766209 5.3749885,10.5050976 C5.40616749,10.4338432 5.48974814,10.4013081 5.56153843,10.4322298 C6.10992185,10.6704616 6.85847963,10.8710496 7.73908961,11.0243138 Z M10.9893029,10.5104753 L10.9070323,10.5053665 C10.741443,10.4946111 10.5792599,10.4817046 10.4217929,10.4663782 C9.91480675,10.4171723 9.45812623,10.3451112 9.07559408,10.2558415 C8.65507072,10.1574297 8.31393588,10.0315917 8.07786638,9.8847807 C7.87559595,9.7586738 7.74511581,9.61347609 7.70031238,9.45187642 L7.68170979,8.63930701 C6.23804392,8.90093177 5.19760886,9.28597459 4.70712928,9.72425656 C4.59996787,9.8199795 4.51691123,9.92000459 4.45900739,10.0232563 C4.3963874,10.1356501 4.36416038,10.2512705 4.36416038,10.3695797 L4.36363636,10.3695797 L4.36363636,10.3698486 L4.36416038,10.3698486 C4.36442239,10.9783346 5.24398434,11.5104573 6.6653795,11.8788293 C8.03201492,12.2329503 9.91821285,12.4520913 11.999607,12.4520913 L11.999607,12.4526291 L12.000131,12.4526291 L12.000917,12.4526291 L12.000917,12.4520913 C14.0820492,12.4520913 15.9679851,12.2329503 17.3346205,11.8788293 C18.7560157,11.5104573 19.6358396,10.9783346 19.6358396,10.3698486 L19.6363636,10.3698486 L19.6363636,10.3695797 C19.6363636,9.82374388 18.9221289,9.3225429 17.6728732,8.95363316 C17.4415199,8.88533646 17.1889439,8.82053526 16.9161932,8.75976733 C16.7246651,8.71701467 16.5252768,8.67695086 16.3182902,8.63930701 L16.3091199,9.45187642 C16.278727,9.64574225 16.124404,9.7586738 15.9221336,9.8847807 C15.6860641,10.0315917 15.3446673,10.1574297 14.9241439,10.2558415 C14.5418738,10.3451112 14.0854553,10.4171723 13.5784692,10.4663782 C13.1259808,10.5102064 12.6357632,10.5360193 12.125371,10.5395148 L12.125371,10.5405904 L11.875153,10.5405904 L11.875153,10.5395148 C11.5714854,10.5376326 11.275154,10.527415 10.9893029,10.5104753 Z M11.0766488,14.1212121 C10.8836937,14.1212121 10.7272727,14.2776331 10.7272727,14.4705882 L10.7272727,17.6704776 C10.7272727,17.8634327 10.8836937,18.0198537 11.0766488,18.0198537 C11.2696039,18.0198537 11.426025,17.8634327 11.426025,17.6704776 L11.426025,14.4705882 C11.426025,14.2776331 11.2696039,14.1212121 11.0766488,14.1212121 Z M13.771836,14.1212121 C13.5788809,14.1212121 13.4224599,14.2776331 13.4224599,14.4705882 L13.4224599,17.6704776 C13.4224599,17.8634327 13.5788809,18.0198537 13.771836,18.0198537 C13.9647911,18.0198537 14.1212121,17.8634327 14.1212121,17.6704776 L14.1212121,14.4705882 C14.1212121,14.2776331 13.9647911,14.1212121 13.771836,14.1212121 Z M12.4741533,14.1212121 C12.2811982,14.1212121 12.1247772,14.2776331 12.1247772,14.4705882 L12.1247772,19.2869875 C12.1247772,19.4799426 12.2811982,19.6363636 12.4741533,19.6363636 C12.6671084,19.6363636 12.8235294,19.4799426 12.8235294,19.2869875 L12.8235294,14.4705882 C12.8235294,14.2776331 12.6671084,14.1212121 12.4741533,14.1212121 Z M12,24 C5.372583,24 0,18.627417 0,12 C0,5.372583 5.372583,0 12,0 C18.627417,0 24,5.372583 24,12 C24,18.627417 18.627417,24 12,24 Z M12,22.9090909 C18.0249245,22.9090909 22.9090909,18.0249245 22.9090909,12 C22.9090909,5.97507546 18.0249245,1.09090909 12,1.09090909 C5.97507546,1.09090909 1.09090909,5.97507546 1.09090909,12 C1.09090909,18.0249245 5.97507546,22.9090909 12,22.9090909 Z" id="形状结合" fill="url(#linearGradient-1)"></path>
                </g>
            </g>
        </g>
    </g>
</svg>