<?xml version="1.0" encoding="UTF-8"?>
<svg width="24px" height="22px" viewBox="0 0 24 22" version="1.1" xmlns="http://www.w3.org/2000/svg" xmlns:xlink="http://www.w3.org/1999/xlink">
    <!-- Generator: Sketch 54.1 (76490) - https://sketchapp.com -->
    <title>aixin copy复制</title>
    <desc>Created with Sketch.</desc>
    <g id="星球日誌" stroke="none" stroke-width="1" fill="none" fill-rule="evenodd">
        <g id="日誌复制-5" transform="translate(-333.000000, -260.000000)" fill="#FFFFFF">
            <g id="aixin-copy复制" transform="translate(333.000000, 260.000000)">
                <path d="M17.0005322,0 C15.1182245,0.00367817439 13.3178444,0.777657206 12.0100293,2.14538473 C10.6849782,0.756662317 8.85251004,-0.0190744265 6.94352662,0.00039060259 C5.03457541,0.0198230814 3.21795799,0.832960023 1.92096783,2.24837361 C-0.76624835,5.13300629 -0.586284442,9.84185071 2.16095193,12.6780487 L10.2105513,21.0472625 C10.6726391,21.5394543 11.3145941,21.8181818 11.9859955,21.8181818 C12.6573968,21.8181818 13.2993519,21.5394543 13.7614396,21.0472625 L21.8470254,12.6780487 C24.5762847,9.84185071 24.7682011,5.13300629 22.0929374,2.24837361 C20.7790978,0.815545658 18.9336462,0.000748654964 17.0005322,0 Z" id="Fill-1"></path>
            </g>
        </g>
    </g>
</svg>