<?xml version="1.0" encoding="UTF-8"?>
<svg width="268px" height="352px" viewBox="0 0 268 352" version="1.1" xmlns="http://www.w3.org/2000/svg" xmlns:xlink="http://www.w3.org/1999/xlink">
    <!-- Generator: Sketch 53.2 (72643) - https://sketchapp.com -->
    <title>分组 10</title>
    <desc>Created with Sketch.</desc>
    <defs>
        <linearGradient x1="2.61151607%" y1="50%" x2="100%" y2="50%" id="linearGradient-1">
            <stop stop-color="#03FFEF" offset="0%"></stop>
            <stop stop-color="#C8FB55" offset="100%"></stop>
        </linearGradient>
    </defs>
    <g id="公益" stroke="none" stroke-width="1" fill="none" fill-rule="evenodd">
        <g id="分组-10" transform="translate(1.000000, 1.000000)">
            <g id="分组-6-copy" transform="translate(83.000000, 125.000000)" fill="url(#linearGradient-1)" fill-opacity="0.4">
                <path d="M50,100 C77.5372581,100 100,77.5406298 100,50 C100,22.4593702 77.5372581,5.68434189e-14 50,5.68434189e-14 C22.4627419,5.68434189e-14 0,22.4593702 0,50 C0,77.5406298 22.4627419,100 50,100" id="Fill-1"></path>
            </g>
            <path d="M6.415349,5.68434189e-14 L259.581456,5.68434189e-14 C263.111815,5.68434189e-14 266,2.90389787 266,6.45346329 L266,343.546537 C266,347.099314 263.111815,350 259.581456,350 L6.415349,350 C2.88499011,350 0,347.099314 0,343.546537 L0,6.45346329 C0,2.90389787 2.88499011,5.68434189e-14 6.415349,5.68434189e-14 Z" id="Stroke-3-Copy" stroke="#FFFFFF" stroke-width="2"></path>
            <text id="星球特供" font-family="PingFangSC-Thin, PingFang SC" font-size="25" font-weight="300" letter-spacing="2" fill="#FFFFFF">
                <tspan x="79" y="61">星球特供</tspan>
            </text>
            <text id="PAN币消费商城" font-family="PingFangSC-Semibold, PingFang SC" font-size="25" font-weight="500" letter-spacing="2" fill="#FFFFFF">
                <tspan x="36.675" y="281">PAN币消费商城</tspan>
            </text>
            <text id="星球PAN币兑换商城" font-family="PingFangSC-Light, PingFang SC" font-size="18" font-weight="300" line-spacing="24" letter-spacing="1.44" fill="#02F52B">
                <tspan x="44.5" y="313">星球PAN币兑换商城</tspan>
            </text>
            <g id="分组" transform="translate(108.000000, 153.000000)" fill="#02F52B">
                <path d="M18.821088,10.7142 C18.212688,9.87516 17.693088,8.98404 17.185488,8.11428 C16.843968,7.52892 16.490448,6.92412 16.119648,6.3522 C15.581328,5.50404 14.912928,4.5498 14.011008,3.86676 C13.350288,3.32292 12.489888,3.03084 11.571408,3.03084 C11.481168,3.03084 11.391648,3.03372 11.302368,3.03948 C10.410528,3.07524 9.774768,3.31068 9.401808,3.73812 C8.736048,4.53276 8.848608,5.69724 8.975328,6.3198 C9.202848,7.43868 9.981648,8.51244 11.111808,9.26556 C12.504768,10.19892 14.315088,10.71276 16.210608,10.71276 L18.634368,10.7142 L18.821088,10.7142 Z M30.373488,10.71564 C30.945888,10.71564 31.517808,10.71348 32.090688,10.7022 C33.527808,10.64628 34.926528,10.2762 36.122688,9.63348 C37.500048,8.89404 38.478288,7.77228 38.805648,6.5562 C38.962368,5.94492 39.139728,4.779 38.555808,3.90276 C38.237808,3.39012 37.598688,3.19332 37.244448,3.12036 C36.933888,3.06228 36.613008,3.03228 36.299328,3.03228 C35.588688,3.03228 34.926048,3.19188 34.383408,3.49404 C33.480048,4.01004 32.691888,4.83828 31.832208,6.17676 C31.419888,6.801 31.035648,7.46028 30.664128,8.09724 C30.152928,8.97204 29.629728,9.86892 29.017488,10.71348 L30.373488,10.71564 Z M17.534208,20.4354 L17.533488,14.71692 L3.027888,14.71908 L3.027888,20.43684 L5.544528,20.43684 L17.534208,20.4354 Z M44.811168,20.43756 L44.811168,14.71836 L30.305568,14.71692 L30.304848,20.43684 L37.537728,20.43684 L44.811168,20.43756 Z M27.275568,44.78964 C27.276768,34.77372 27.276768,24.75756 27.275568,14.74044 L20.563488,14.74044 C20.561808,24.75756 20.561808,34.77348 20.563488,44.78964 L27.275568,44.78964 Z M17.532768,44.80908 L17.532768,43.63668 C17.534928,36.9246 17.536848,30.21324 17.532048,23.50116 L4.975488,23.50332 L4.975488,44.80764 L14.983008,44.80836 L17.532768,44.80908 Z M30.304608,31.01796 C30.304128,35.6154 30.303168,40.21308 30.306768,44.8098 L42.863328,44.80788 L42.863328,23.50332 L30.304848,23.50188 L30.304848,31.01796 L30.304608,31.01796 Z M22.851168,47.85348 L21.441648,47.85564 C17.434608,47.83908 13.431168,47.83716 9.427008,47.83716 L1.946208,47.8362 L1.946208,23.48412 L0.000768,23.4834 L4.8e-05,11.6898 L9.287328,11.6898 C7.992528,10.7814 7.008288,9.61764 6.439968,8.29548 C5.674128,6.47892 5.646768,4.52268 6.363408,2.92476 C6.908928,1.68588 8.029728,0.70884 9.361008,0.315 C10.067568,0.10596 10.799808,0.00012 11.537088,0.00012 C12.689568,0.00012 13.809888,0.26484 14.778288,0.76596 C15.449808,1.09092 16.005168,1.57188 16.543488,2.03724 C17.879808,3.32124 18.798288,4.88388 19.687248,6.39492 L20.098128,7.08996 C20.702208,8.12364 21.324288,9.18876 22.208208,9.99132 C22.681488,10.45212 23.287008,10.70844 23.883168,10.70844 L23.989968,10.70556 C24.611328,10.69764 25.227408,10.41276 25.702128,9.92316 C26.577408,9.09132 27.173088,8.067 27.803088,6.98268 C27.992688,6.65556 28.182288,6.32916 28.379088,6.00924 C29.451408,4.17948 30.659568,2.28132 32.527728,1.06932 C33.619488,0.36948 34.926528,0.00084 36.310848,0.00084 C36.943008,0.00084 37.575168,0.07884 38.189088,0.23268 C39.424608,0.54972 40.438848,1.24116 41.047248,2.181 C41.910528,3.40572 42.200448,5.13804 41.831808,6.91596 C41.487408,8.64828 40.399488,10.30908 38.847648,11.46924 C38.751888,11.54292 38.653008,11.61612 38.550768,11.68836 C39.233568,11.68908 47.838768,11.69028 47.838768,11.69028 L47.838768,23.48604 C47.838768,23.48604 45.995808,23.4846 45.900528,23.48412 C45.886848,28.05444 45.889008,32.62476 45.891168,37.19508 C45.892608,40.563 45.894048,43.93068 45.889728,47.29884 L45.889008,47.8386 L30.674208,47.83716 C29.291808,47.85252 27.902448,47.85636 26.513808,47.85636 L22.851168,47.85348 Z" id="Fill-1"></path>
            </g>
        </g>
    </g>
</svg>