<?xml version="1.0" encoding="UTF-8"?>
<svg width="124px" height="40px" viewBox="0 0 124 40" version="1.1" xmlns="http://www.w3.org/2000/svg" xmlns:xlink="http://www.w3.org/1999/xlink">
    <!-- Generator: Sketch 54.1 (76490) - https://sketchapp.com -->
    <title>编组 7</title>
    <desc>Created with Sketch.</desc>
    <g id="公益" stroke="none" stroke-width="1" fill="none" fill-rule="evenodd">
        <g id="酒吧复制" transform="translate(-245.000000, -562.000000)">
            <g id="编组-7" transform="translate(245.000000, 562.000000)">
                <g id="编组-3">
                    <path d="M20,0.5 C9.23044738,0.5 0.5,9.23044738 0.5,20 C0.5,30.7695526 9.23044738,39.5 20,39.5 L104,39.5 C114.769553,39.5 123.5,30.7695526 123.5,20 C123.5,9.23044738 114.769553,0.5 104,0.5 L20,0.5 Z" id="矩形" stroke="#02F52B" fill="#131D21"></path>
                    <g id="分组-3" transform="translate(94.000000, 17.000000)" fill="#02F52B">
                        <path d="M10.2786082,-0.103472316 L10.2786082,-0.103472316 C10.546344,-0.134915965 10.7888769,0.0566366536 10.8203205,0.324372432 C10.8247598,0.362172309 10.8247629,0.400361695 10.8203296,0.438162283 L10.2474483,5.32287722 C10.2052526,5.68266151 9.92155234,5.96640725 9.56177482,6.00866055 L9.56177482,6.00866055 C9.29403904,6.04010419 9.05150619,5.84855158 9.02006255,5.5808158 C9.01562322,5.54301592 9.01562016,5.50482653 9.02005343,5.46702595 L9.59293478,0.582311012 C9.63513043,0.222526721 9.91883072,-0.0612190243 10.2786082,-0.103472316 Z" id="矩形" transform="translate(9.920192, 2.952594) rotate(135.000000) translate(-9.920192, -2.952594) "></path>
                        <path d="M9.56177448,4.0108109 L9.56177448,4.0108109 C9.921552,4.05306419 10.2052523,4.33680993 10.2474479,4.69659422 L10.82033,9.58131415 C10.8517307,9.84905496 10.6601393,10.0915571 10.3923984,10.1229579 C10.3545979,10.1273911 10.3164085,10.1273881 10.2786086,10.1229488 L10.2786086,10.1229488 C9.91883106,10.0806955 9.63513077,9.79694973 9.59293512,9.43716544 L9.0200531,4.55244551 C8.98865234,4.2847047 9.18024381,4.04220254 9.44798462,4.01080179 C9.48578521,4.00636852 9.5239746,4.00637158 9.56177448,4.0108109 Z" id="矩形" transform="translate(9.920192, 7.066880) rotate(45.000000) translate(-9.920192, -7.066880) "></path>
                        <path d="M5.85,-0.85 L5.85,-0.85 C6.22870954,-0.85 6.53571429,-0.542995257 6.53571429,-0.164285714 L6.53571429,10.1642857 C6.53571429,10.5429953 6.22870954,10.85 5.85,10.85 L5.85,10.85 C5.47129046,10.85 5.16428571,10.5429953 5.16428571,10.1642857 L5.16428571,-0.164285714 C5.16428571,-0.542995257 5.47129046,-0.85 5.85,-0.85 Z" id="矩形" transform="translate(5.850000, 5.000000) rotate(90.000000) translate(-5.850000, -5.000000) "></path>
                    </g>
                    <text id="申請入口" font-family="PingFangSC-Regular, PingFang SC" font-size="12" font-weight="normal" letter-spacing="1.61000001" fill="#FFFFFF">
                        <tspan x="25.585" y="25">申請入</tspan>
                        <tspan x="66.415" y="25">口</tspan>
                    </text>
                </g>
            </g>
        </g>
    </g>
</svg>