<?xml version="1.0" encoding="UTF-8"?>
<svg width="303px" height="60px" viewBox="0 0 303 60" version="1.1" xmlns="http://www.w3.org/2000/svg" xmlns:xlink="http://www.w3.org/1999/xlink">
    <!-- Generator: Sketch 54.1 (76490) - https://sketchapp.com -->
    <title>编组</title>
    <desc>Created with Sketch.</desc>
    <defs>
        <polygon id="path-1" points="0 0.103715789 8.574 0.103715789 8.574 58.4353389 0 58.4353389"></polygon>
        <polygon id="path-3" points="0.439158824 0.17575 10.6102765 0.17575 10.6102765 10 0.439158824 10"></polygon>
        <polygon id="path-5" points="0.334625 0.103902105 64.964375 0.103902105 64.964375 58.4356495 0.334625 58.4356495"></polygon>
    </defs>
    <g id="页面1" stroke="none" stroke-width="1" fill="none" fill-rule="evenodd">
        <g id="iPhone-SE" transform="translate(-9.000000, -195.000000)">
            <g id="编组" transform="translate(9.000000, 195.000000)">
                <g transform="translate(0.000000, 1.000000)">
                    <mask id="mask-2" fill="white">
                        <use xlink:href="#path-1"></use>
                    </mask>
                    <g id="Clip-2"></g>
                    <path d="M8.574,58.4353389 C7.3782,58.4353389 6.2616,58.2061705 5.2224,57.7496968 C4.1826,57.2932232 3.2736,56.6609916 2.4942,55.8536232 C1.7148,55.0468758 1.104,54.1190232 0.6624,53.0700653 C0.2208,52.0211074 0,50.8789916 0,49.6412337 L0,0.103591579 C1.1946,0.103591579 2.3112,0.33276 3.3522,0.789233684 C4.3908,1.24694947 5.3004,1.86551789 6.0798,2.64493895 C6.8598,3.42560211 7.4694,4.35283368 7.9116,5.42787579 C8.3526,6.50478105 8.574,7.66056 8.574,8.89769684 L8.574,58.4353389 Z" id="Fill-1" fill="#62CBCE" mask="url(#mask-2)"></path>
                </g>
                <path d="M67,57.4476052 C65.9726726,58.1512064 64.8916696,58.6113254 63.7569909,58.8267135 C62.6216881,59.0433502 61.4863853,59.0570851 60.3517066,58.8666695 C59.2157796,58.6787512 58.1622386,58.2729475 57.189211,57.6505071 C56.2161835,57.0299396 55.3773451,56.2045973 54.6758166,55.1769775 L41.5408809,36.036154 L28.3241834,55.1769775 C27.6214066,56.2045973 26.7838165,57.0299396 25.810789,57.6505071 C24.8377614,58.2729475 23.7842204,58.6787512 22.6482934,58.8666695 C21.5136147,59.0570851 20.378936,59.0433502 19.2430091,58.8267135 C18.1083304,58.6113254 17.0267032,58.1512064 16,57.4476052 L36.1084038,28.1698056 L18.5133944,2.54049323 C19.5400977,1.83876501 20.6342075,1.37802174 21.7975965,1.16200932 C22.959113,0.945996894 24.0800607,0.945996894 25.162312,1.16200932 C26.2426909,1.37802174 27.2831251,1.79756033 28.2842387,2.41875213 C29.28348,3.04119255 30.1348011,3.83844072 30.838202,4.81112095 L41.5408809,20.3833693 L52.1624221,4.81112095 C52.8645748,3.83844072 53.7152717,3.04119255 54.7157613,2.41875213 C55.7156266,1.79756033 56.7697918,1.37802174 57.878881,1.16200932 C58.9854735,0.945996894 60.1214005,0.945996894 61.2841653,1.16200932 C62.4456818,1.37802174 63.513578,1.83876501 64.4866056,2.54049323 L46.8915962,28.1698056 L67,57.4476052 Z" id="Fill-3" fill="#62CBCE"></path>
                <path d="M119,57.4476052 C117.972673,58.1512064 116.89167,58.6113254 115.756991,58.8267135 C114.621688,59.0433502 113.486385,59.0570851 112.351707,58.8666695 C111.21578,58.6787512 110.162239,58.2729475 109.189211,57.6505071 C108.216183,57.0299396 107.377345,56.2045973 106.675817,55.1769775 L93.5408809,36.036154 L80.3241834,55.1769775 C79.6214066,56.2045973 78.7838165,57.0299396 77.810789,57.6505071 C76.8377614,58.2729475 75.7842204,58.6787512 74.6482934,58.8666695 C73.5136147,59.0570851 72.378936,59.0433502 71.2430091,58.8267135 C70.1083304,58.6113254 69.0267032,58.1512064 68,57.4476052 L88.1084038,28.1698056 L70.5133944,2.54049323 C71.5400977,1.83876501 72.6342075,1.37802174 73.7975965,1.16200932 C74.959113,0.945996894 76.0800607,0.945996894 77.162312,1.16200932 C78.2426909,1.37802174 79.2831251,1.79756033 80.2842387,2.41875213 C81.28348,3.04119255 82.1348011,3.83844072 82.838202,4.81112095 L93.5408809,20.3833693 L104.162422,4.81112095 C104.864575,3.83844072 105.715272,3.04119255 106.715761,2.41875213 C107.715627,1.79756033 108.769792,1.37802174 109.878881,1.16200932 C110.985474,0.945996894 112.121401,0.945996894 113.284165,1.16200932 C114.445682,1.37802174 115.513578,1.83876501 116.486606,2.54049323 L98.8915962,28.1698056 L119,57.4476052 Z" id="Fill-5" fill="#62CBCE"></path>
                <g transform="translate(122.000000, 50.000000)">
                    <mask id="mask-4" fill="white">
                        <use xlink:href="#path-3"></use>
                    </mask>
                    <g id="Clip-8"></g>
                    <path d="M5.48233529,0.17575 C6.88257059,0.17575 8.08804118,0.650125 9.09745294,1.596375 C10.1062176,2.5445 10.6102765,3.722 10.6102765,5.128875 C10.6102765,6.482 10.1062176,7.63325 9.09745294,8.578875 C8.08804118,9.52575 6.88257059,10.000125 5.48233529,10.000125 C4.08145294,10.000125 2.88957059,9.52575 1.90992353,8.578875 C0.928982353,7.63325 0.439158824,6.482 0.439158824,5.128875 C0.439158824,3.722 0.928982353,2.5445 1.90992353,1.596375 C2.88957059,0.650125 4.08145294,0.17575 5.48233529,0.17575" id="Fill-7" fill="#62CBCE" mask="url(#mask-4)"></path>
                </g>
                <path d="M180,51.0168874 C180,53.298135 179.263799,55.2000108 177.793248,56.7193794 C176.321463,58.2406292 174.463666,59 172.216769,59 L163.551579,59 C159.806956,59 156.423024,58.3077247 153.402251,56.9231742 C150.379625,55.5379966 147.797978,53.5702795 145.659165,51.0168874 C143.519734,48.4653765 141.875015,45.3839991 140.725009,41.7715012 C139.574385,38.1602573 139,34.1276285 139,29.6742419 C139,26.0899616 139.494095,22.5871993 140.484755,19.1659549 C141.473563,15.7447105 143.011433,12.6896697 145.097749,10.0014595 C147.184065,7.31324936 149.818209,5.14173739 153.000798,3.48441537 C156.18277,1.82897454 159.993477,1 164.434156,1 L180,1 C180,3.28124764 179.263799,5.18249635 177.793248,6.70249203 C176.321463,8.22374182 174.463666,8.9831126 172.216769,8.9831126 L165.397023,8.9831126 C159.94098,8.9831126 155.715233,10.7896751 152.719782,14.4002919 C149.723714,18.0127899 148.227223,23.1038975 148.227223,29.6742419 C148.227223,30.5439754 148.279721,31.6576355 148.387187,33.0139683 C148.494035,34.3721823 148.734906,35.8526731 149.109183,37.4535597 C149.48346,39.0563274 150.032523,40.658468 150.753902,42.2599816 C151.475898,43.8627493 152.451735,45.3150224 153.683267,46.618055 C154.912946,47.9210876 156.450816,48.9808206 158.296261,49.7953727 C160.141706,50.6099249 162.348457,51.0168874 164.915898,51.0168874 L180,51.0168874 Z" id="Fill-9" fill="#62CBCE"></path>
                <path d="M210.458989,51.002715 C213.441236,51.002715 215.962027,50.3783099 218.023867,49.1263588 C220.083827,47.8750359 221.751206,46.2285915 223.026003,44.1889101 C224.299547,42.1486004 225.22246,39.8375478 225.79161,37.251983 C226.36076,34.6689309 226.646275,32.0701745 226.646275,29.4588546 C226.646275,26.8475347 226.36076,24.2644826 225.79161,21.7065575 C225.22246,19.1498887 224.299547,16.8513996 223.026003,14.8110899 C221.751206,12.7707803 220.083827,11.1117724 218.023867,9.83280985 C215.962027,8.55573182 213.441236,7.9149942 210.458989,7.9149942 C207.476115,7.9149942 204.968473,8.55573182 202.934809,9.83280985 C200.901772,11.1117724 199.246915,12.7707803 197.973997,14.8110899 C196.698575,16.8513996 195.77754,19.1498887 195.20839,21.7065575 C194.638614,24.2644826 194.353725,26.8475347 194.353725,29.4588546 C194.353725,32.0701745 194.638614,34.6689309 195.20839,37.251983 C195.77754,39.8375478 196.698575,42.1486004 197.973997,44.1889101 C199.246915,46.2285915 200.901772,47.8750359 202.934809,49.1263588 C204.968473,50.3783099 207.476115,51.002715 210.458989,51.002715 M210.458989,0 C214.63401,0 218.321277,0.843637874 221.521417,2.5290291 C224.720305,4.21630485 227.390741,6.44632305 229.533351,9.22096824 C231.674708,11.9956134 233.287614,15.1515603 234.372693,18.6875526 C235.457147,22.224173 236,25.8148164 236,29.4588546 C236,33.1594285 235.457147,36.7770834 234.372693,40.3124474 C233.287614,43.849696 231.674708,47.0043866 229.533351,49.7790318 C227.390741,52.5536769 224.720305,54.7849515 221.521417,56.4703427 C218.321277,58.1576185 214.63401,59 210.458989,59 C206.282715,59 202.609849,58.1576185 199.437258,56.4703427 C196.265294,54.7849515 193.608007,52.5536769 191.466649,49.7790318 C189.323414,47.0043866 187.710508,43.849696 186.62668,40.3124474 C185.540975,36.7770834 185,33.1594285 185,29.4588546 C185,25.8148164 185.540975,22.224173 186.62668,18.6875526 C187.710508,15.1515603 189.323414,11.9956134 191.466649,9.22096824 C193.608007,6.44632305 196.265294,4.21630485 199.437258,2.5290291 C202.609849,0.843637874 206.282715,0 210.458989,0" id="Fill-11" fill="#62CBCE"></path>
                <g transform="translate(238.000000, 1.000000)">
                    <mask id="mask-6" fill="white">
                        <use xlink:href="#path-5"></use>
                    </mask>
                    <g id="Clip-14"></g>
                    <path d="M64.964625,58.1127021 C63.719,58.3269653 62.514625,58.3008811 61.3515,58.0319653 C60.1865,57.7636705 59.1315,57.2792495 58.184625,56.5793232 C57.23775,55.88126 56.439,55.0341442 55.789625,54.0379758 C55.14025,53.0436705 54.734625,51.92826 54.572125,50.6905021 L49.294625,14.0608179 L37.11525,54.9664495 C36.410875,57.2792495 34.923375,58.4356495 32.649625,58.4356495 C30.375875,58.4356495 28.8865,57.2792495 28.184,54.9664495 L16.00525,14.0608179 L10.6465,50.5284074 C10.484,51.7667863 10.090875,52.8964811 9.469,53.9174916 C8.845875,54.9397442 8.060875,55.8005232 7.114,56.4985863 C6.167125,57.1985126 5.110875,57.6965968 3.94775,57.9915968 C2.783375,58.2865968 1.579625,58.3269653 0.334625,58.1127021 L9.265875,6.07408105 C9.482125,4.78291263 9.847125,3.73395474 10.362125,2.92782842 C10.875875,2.12046 11.43025,1.51555474 12.0265,1.11187053 C12.6215,0.708186316 13.244625,0.440512632 13.894,0.305123158 C14.543375,0.171596842 15.1115,0.103902105 15.599625,0.103902105 C17.22275,0.103902105 18.508375,0.440512632 19.455875,1.11187053 C20.402125,1.78509158 21.09275,2.84709158 21.5265,4.29911263 L32.649625,41.9771337 L43.692125,4.37922842 C44.612125,1.52921789 46.587125,0.103902105 49.619,0.103902105 C50.159625,0.103902105 50.7415,0.171596842 51.364625,0.305123158 C51.985875,0.440512632 52.59525,0.708186316 53.1915,1.11187053 C53.7865,1.51555474 54.340875,2.12046 54.855875,2.92782842 C55.369625,3.73395474 55.7615,4.78291263 56.033375,6.07408105 L64.964625,58.1127021 Z" id="Fill-13" fill="#62CBCE" mask="url(#mask-6)"></path>
                </g>
            </g>
        </g>
    </g>
</svg>