<?xml version="1.0" encoding="UTF-8"?>
<svg width="25px" height="25px" viewBox="0 0 25 25" version="1.1" xmlns="http://www.w3.org/2000/svg" xmlns:xlink="http://www.w3.org/1999/xlink">
    <!-- Generator: Sketch 53.2 (72643) - https://sketchapp.com -->
    <title>分组 3</title>
    <desc>Created with Sketch.</desc>
    <g id="酒吧" stroke="none" stroke-width="1" fill="none" fill-rule="evenodd">
        <g id="進入酒吧頁面" transform="translate(-317.000000, -118.000000)">
            <g id="分组-3" transform="translate(317.000000, 118.000000)">
                <g id="分组-2">
                    <rect id="矩形" fill="#0E0E0E" x="0" y="0" width="25" height="25" rx="12.5"></rect>
                    <path d="M5.09279705,13.7799605 L17.5392759,13.7799605 L12.6385068,18.2835546 C12.3911342,18.5058414 12.2827159,18.8433478 12.3548621,19.1673552 C12.4270083,19.4911976 12.6685456,19.7516379 12.987136,19.8489689 C13.3057596,19.9462998 13.6524659,19.8657353 13.8947657,19.6379036 L20.5362276,13.5353954 C20.7257108,13.3607014 20.8333333,13.1153443 20.8333333,12.8582704 C20.8333333,12.6011966 20.7257108,12.3557405 20.5362276,12.1810464 L13.8947657,6.07863727 C13.7144997,5.91232644 13.4751507,5.82426983 13.2296016,5.83407224 C12.9840194,5.84374262 12.7525946,5.95024888 12.5860549,6.13022366 C12.4194821,6.30980238 12.3314213,6.54806351 12.3411358,6.79236451 C12.350983,7.03669851 12.4579423,7.26707151 12.6385068,7.43288726 L17.5392759,11.9364814 L5.09279705,11.9364814 C4.76187279,11.9364814 4.45608034,12.1120665 4.2907011,12.3973594 C4.12532186,12.6825533 4.12532186,13.0338886 4.2907011,13.3191815 C4.45608034,13.6043753 4.76187279,13.7799605 5.09279705,13.7799605" id="Fill-1" fill="#FFFFFF" transform="translate(12.500000, 12.861446) scale(1, -1) translate(-12.500000, -12.861446) "></path>
                </g>
            </g>
        </g>
    </g>
</svg>