<?xml version="1.0" encoding="utf-8"?>
<svg width="22px" height="22px" viewBox="0 0 22 22" version="1.1" xmlns:xlink="http://www.w3.org/1999/xlink" xmlns="http://www.w3.org/2000/svg">
  <desc>Created with Lunacy</desc>
  <path d="M7.43662 10.2264C7.43662 10.9112 6.88169 11.4648 6.19686 11.4648C5.51302 11.4648 4.95775 10.9112 4.95775 10.2264C4.95775 9.54184 5.5129 8.98592 6.19686 8.98592C6.88169 8.9858 7.43662 9.54173 7.43662 10.2264L7.43662 10.2264ZM11.0001 0C4.93386 0 0 4.30207 0 9.58928C0 12.7302 1.76784 15.672 4.73274 17.4646L4.73274 20.4874C4.73274 20.7027 4.85068 20.8991 5.03905 20.9985C5.12572 21.047 5.21684 21.0704 5.31511 21.0704C5.42836 21.0704 5.53926 21.038 5.63639 20.9732L7.0299 20.0527C7.05648 20.0364 7.08193 20.0156 7.09682 20.0016L8.67288 18.9516C9.45871 19.0997 10.242 19.1761 11.0023 19.1761C17.0662 19.1739 22 14.8741 22 9.58928C22 4.30207 17.0662 0 11.0001 0ZM12.3944 9.91322C12.3944 10.5973 11.8396 11.1549 11.1537 11.1549C10.4704 11.1549 9.91549 10.5973 9.91549 9.91322C9.91549 9.22928 10.4704 8.67606 11.1537 8.67606C11.8395 8.67628 12.3944 9.22939 12.3944 9.91322L12.3944 9.91322ZM17.3521 9.91322C17.3521 10.5973 16.7966 11.1549 16.1126 11.1549C15.4286 11.1549 14.8732 10.5973 14.8732 9.91322C14.8732 9.22928 15.4286 8.67606 16.1126 8.67606C16.7966 8.67628 17.3521 9.22939 17.3521 9.91322L17.3521 9.91322Z" id="liuyan" fill="#4CD964" stroke="none" />
</svg>