<?xml version="1.0" encoding="UTF-8"?>
<svg width="21px" height="16px" viewBox="0 0 21 16" version="1.1" xmlns="http://www.w3.org/2000/svg" xmlns:xlink="http://www.w3.org/1999/xlink">
    <!-- Generator: Sketch 54.1 (76490) - https://sketchapp.com -->
    <title>youjian-2</title>
    <desc>Created with Sketch.</desc>
    <g id="注册页面" stroke="none" stroke-width="1" fill="none" fill-rule="evenodd">
        <g id="7" transform="translate(-38.000000, -203.000000)" fill="#FFFFFF" fill-rule="nonzero">
            <g id="youjian-2" transform="translate(38.000000, 203.000000)">
                <path d="M18.3910222,0.1171875 L1.6678584,0.1171875 C0.763903602,0.1171875 0.0859375,0.908147952 0.0859375,1.81210275 L0.0859375,14.1284869 C0.0859375,15.0324417 0.763903602,15.8234022 1.6678584,15.8234022 L18.5040166,15.8234022 C19.4079714,15.8234022 20.0859375,15.0324417 20.0859375,14.1284869 L20.0859375,1.81210275 C19.9729431,0.908147952 19.294977,0.1171875 18.3910222,0.1171875 Z M1.215881,2.15108581 L6.86559852,7.57481462 L1.215881,13.7895039 L1.215881,2.15108581 Z M10.4814177,8.81775247 C10.255429,9.04374117 9.80345162,9.04374117 9.57746292,8.81775247 L2.00684145,1.247131 L18.1650335,1.247131 L10.4814177,8.81775247 L10.4814177,8.81775247 Z M7.65655897,8.36577507 L8.89949682,9.60871292 C9.23847987,9.94769597 9.57746292,10.0606903 10.0294403,10.0606903 C10.4814177,10.0606903 10.8204008,9.94769597 11.1593838,9.60871292 L12.4023217,8.36577507 L18.1650335,14.806453 L1.8938471,14.806453 L7.65655897,8.36577507 Z M13.1932821,7.57481462 L18.7300053,2.15108581 L18.7300053,13.9024982 L13.1932821,7.57481462 Z" id="形状"></path>
            </g>
        </g>
    </g>
</svg>