<?xml version="1.0" encoding="UTF-8"?>
<svg width="15px" height="18px" viewBox="0 0 15 18" version="1.1" xmlns="http://www.w3.org/2000/svg" xmlns:xlink="http://www.w3.org/1999/xlink">
    <!-- Generator: Sketch 53.2 (72643) - https://sketchapp.com -->
    <title>icon-test 2</title>
    <desc>Created with Sketch.</desc>
    <g id="酒吧" stroke="none" stroke-width="1" fill="none" fill-rule="evenodd">
        <g id="進入酒吧頁面" transform="translate(-30.000000, -154.000000)" fill="#FFFFFF">
            <g id="icon-test-2" transform="translate(30.000000, 154.000000)">
                <g id="icon-test">
                    <path d="M7.50005048,17.7272727 C7.26380676,17.7272727 7.02743682,17.6501042 6.83567022,17.4958661 C5.38776551,16.3327009 0,10.8356864 0,7.34648747 C0,3.29544932 3.36433382,0 7.50005048,0 C11.6357672,0 15,3.29544932 15,7.34648747 C15,10.8356864 9.61026558,16.3327009 8.16443075,17.4958661 C7.97059427,17.6501042 7.73629421,17.7272727 7.50005048,17.7272727 Z M7.50005048,1.10773047 C3.98830098,1.10773047 1.13088527,3.90664079 1.13088527,7.34648747 C1.13088527,10.198805 5.89460788,15.2784765 7.50005048,16.595781 C9.10541736,15.276449 13.8692157,10.198805 13.8692157,7.34648747 C13.8692157,3.90664079 11.011699,1.10773047 7.50005048,1.10773047 Z" id="Fill-1"></path>
                    <path d="M7.50005728,4.09090909 C5.61679666,4.09090909 4.09090909,5.61679366 4.09090909,7.5 C4.09090909,9.38329226 5.61679666,10.9090909 7.50005728,10.9090909 C9.38323198,10.9090909 10.9090909,9.38329226 10.9090909,7.5 C10.9090909,5.61902745 9.38323198,4.09090909 7.50005728,4.09090909 Z M7.50005728,9.86209829 C6.19648616,9.86209829 5.14023243,8.80594137 5.14023243,7.50234835 C5.14023243,6.19861214 6.19648616,5.14245522 7.50005728,5.14245522 C8.80365703,5.14245522 9.8597962,6.19861214 9.8597962,7.50234835 C9.8597962,8.80359302 8.80365703,9.86209829 7.50005728,9.86209829 Z" id="Fill-2"></path>
                </g>
            </g>
        </g>
    </g>
</svg>