<?xml version="1.0" encoding="UTF-8"?>
<svg width="317px" height="317px" viewBox="0 0 317 317" version="1.1" xmlns="http://www.w3.org/2000/svg" xmlns:xlink="http://www.w3.org/1999/xlink">
    <!-- Generator: Sketch 54.1 (76490) - https://sketchapp.com -->
    <title>编组 2</title>
    <desc>Created with Sketch.</desc>
    <g id="页面1" stroke="none" stroke-width="1" fill="none" fill-rule="evenodd">
        <g id="编组-2">
            <rect id="矩形" fill="#D8D8D8" x="0" y="0" width="317" height="317"></rect>
            <g id="quxiao" transform="translate(100.000000, 100.000000)" fill="#A6A6A6" fill-rule="nonzero">
                <path d="M59,118 C26.4151998,118 3.99048713e-15,91.5848002 0,59 C-3.99048713e-15,26.4151998 26.4151998,5.9857307e-15 59,0 C91.5848002,-5.9857307e-15 118,26.4151998 118,59 C118,91.5848002 91.5848002,118 59,118 Z M59.5,9 C33.1585528,9 9,33.1556761 9,59.5 C9,85.8443239 33.1556761,110 59.5,110 C85.8443239,110 110,85.8443239 110,59.5 C110,33.1556761 85.8443239,9 59.5,9 Z M85.2711765,85.3487849 C84.2201391,86.4047287 82.791796,86.9983494 81.3020696,86.9983494 C79.8123433,86.9983494 78.3840001,86.4047287 77.3329628,85.3487849 L59.4668293,67.482343 L41.600926,85.3487849 C39.4080221,87.5469598 35.8486788,87.5509043 33.6509101,85.357595 C31.4531414,83.1642858 31.4491976,79.6042845 33.6421014,77.4061095 L51.5080046,59.5367884 L33.6421014,41.6703466 C31.4491975,39.4721716 31.4531413,35.9121702 33.65091,33.7188609 C35.8486787,31.5255517 39.4080222,31.5294961 41.600926,33.7276711 L59.4668293,51.5971073 L77.3329628,33.7276711 C78.7413226,32.2598829 80.8331538,31.6685598 82.8013257,32.1818633 C84.7694976,32.6951669 86.3062866,34.232842 86.8187245,36.2015785 C87.3311625,38.1703151 86.7391297,40.2623012 85.2710613,41.6703466 L67.4051581,59.5367884 L85.2710613,77.4061095 C87.4606031,79.6008105 87.4606031,83.1540838 85.2710613,85.3487849 L85.2711765,85.3487849 Z" id="形状"></path>
            </g>
            <text id="图片已删除" font-family="PingFangSC-Regular, PingFang SC" font-size="24" font-weight="normal" letter-spacing="1" fill="#4A4A4A">
                <tspan x="97" y="277">图片已删除</tspan>
            </text>
        </g>
    </g>
</svg>