<?xml version="1.0" encoding="UTF-8"?>
<svg width="34px" height="33px" viewBox="0 0 34 33" version="1.1" xmlns="http://www.w3.org/2000/svg" xmlns:xlink="http://www.w3.org/1999/xlink">
    <!-- Generator: Sketch 56.3 (81716) - https://sketch.com -->
    <title>编组 5</title>
    <desc>Created with Sketch.</desc>
    <g id="新修改的图标等" stroke="none" stroke-width="1" fill="none" fill-rule="evenodd">
        <g id="通讯-copy" transform="translate(-282.000000, -90.000000)">
            <g id="编组-5" transform="translate(282.833333, 90.000000)">
                <rect id="Rectangle-Copy-2" fill="#131D21" x="0" y="0" width="33" height="33" rx="3"></rect>
                <g id="pinglun1" transform="translate(6.666667, 7.000000)" fill="#FFFFFF" fill-rule="nonzero">
                    <path d="M16.9909023,16.2874864 L13.6594022,16.2874864 C13.5484208,16.2874864 13.4745095,16.3245565 13.4003694,16.3986966 L11.5493834,18.2494537 C10.698145,19.100921 9.29154213,19.100921 8.4030048,18.2494537 L6.55201886,16.3986966 C6.48616167,16.3252984 6.39132828,16.2846196 6.29275725,16.2874864 L2.96148598,16.2874864 C1.33269158,16.2874864 0,14.9550237 0,13.3262292 L0,2.96034184 C0,1.33269158 1.33269158,0 2.96148598,0 L17.0279723,0 C18.6567667,0 19.9894583,1.33269158 19.9894583,2.96125715 L19.9894583,13.3271446 C19.9523882,14.955939 18.6196966,16.2884017 16.9918176,16.2884017 L16.9909023,16.2874864 Z M16.9909023,14.8069722 C17.8077029,14.8045845 18.4692575,14.1430299 18.4716452,13.3262292 L18.4716452,2.96034184 C18.4692569,2.14357854 17.8076659,1.48208984 16.9909023,1.47982767 L2.92441593,1.47982767 C2.10768963,1.48209043 1.44616451,2.14361554 1.44390176,2.96034184 L1.44390176,13.3262292 C1.44591261,14.1431716 2.10747457,14.8050403 2.92441593,14.8074299 L6.25591603,14.8074299 C6.73645386,14.8074299 7.21859349,14.9923225 7.55153754,15.3625655 L9.40252347,17.2135514 C9.69862631,17.5096543 10.1427806,17.5096543 10.4388834,17.2135514 L12.2898693,15.3625655 C12.6230422,15.028935 13.1042665,14.8074299 13.5854909,14.8074299 L16.9909023,14.8069722 Z M5.51474364,7.03324316 C6.14401936,7.03324316 6.62524366,7.51378099 6.62524366,8.14397204 L6.62524366,8.8842291 C6.62524366,9.51350482 6.14470583,9.99472914 5.51474364,9.99472914 C4.88478145,9.99472914 4.4042436,9.51419131 4.4042436,8.8842291 L4.4042436,8.14397204 C4.4042436,7.51446749 4.88478143,7.03324316 5.51474364,7.03324316 L5.51474364,7.03324316 Z M9.95674376,7.03324316 C10.5860195,7.03324316 11.0672438,7.51378099 11.0672438,8.14397204 L11.0672438,8.8842291 C11.0672438,9.51350482 10.586706,9.99472914 9.95674376,9.99472914 C9.32678155,9.99472914 8.84624374,9.51419131 8.84624374,8.8842291 L8.84624374,8.14397204 C8.84624374,7.51446749 9.32678157,7.03324316 9.95674376,7.03324316 L9.95674376,7.03324316 Z M14.3989727,7.03324316 C15.0282485,7.03324316 15.5094728,7.51378099 15.5094728,8.14397204 L15.5094728,8.8842291 C15.5094728,9.51350482 15.028935,9.99472914 14.3989727,9.99472914 C13.7690105,9.99472914 13.2884727,9.51419131 13.2884727,8.8842291 L13.2884727,8.14397204 C13.2884727,7.51446749 13.7690105,7.03324316 14.3989727,7.03324316 L14.3989727,7.03324316 Z" id="Shape"></path>
                </g>
            </g>
        </g>
    </g>
</svg>