<?xml version="1.0" encoding="UTF-8"?>
<svg width="33px" height="33px" viewBox="0 0 33 33" version="1.1" xmlns="http://www.w3.org/2000/svg" xmlns:xlink="http://www.w3.org/1999/xlink">
    <!-- Generator: Sketch 56.3 (81716) - https://sketch.com -->
    <title>编组 4</title>
    <desc>Created with Sketch.</desc>
    <g id="新修改的图标等" stroke="none" stroke-width="1" fill="none" fill-rule="evenodd">
        <g id="通讯-copy" transform="translate(-204.000000, -90.000000)">
            <g id="编组-4" transform="translate(204.000000, 90.000000)">
                <rect id="Rectangle-Copy-5" fill="#131D21" x="0" y="0" width="33" height="33" rx="3"></rect>
                <g id="yaoqing-2" transform="translate(5.888889, 6.000000)" fill="#FFFFFF" fill-rule="nonzero">
                    <path d="M19.0778976,15.7334232 L17.2614555,15.7396226 L17.254717,13.9692722 C17.254717,13.4892183 16.8773585,13.1 16.3738544,13.1 C15.8703504,13.1 15.4644205,13.4889488 15.4644205,13.9692722 L15.4614555,15.7460916 L13.6215633,15.7522911 C13.1191375,15.7522911 12.7121294,16.1145553 12.7121294,16.5946092 C12.7121294,17.0746631 13.119407,17.4638814 13.6215633,17.4638814 L15.4587601,17.4665768 L15.4557951,19.2654987 C15.4557951,19.7455526 15.8630728,20.1347709 16.3654987,20.1347709 C16.8679245,20.1347709 17.2749326,19.7455526 17.2749326,19.2654987 L17.2681941,17.4692722 L19.0781671,17.4716981 C19.5803235,17.4716981 19.9876011,17.0824798 19.9876011,16.6024259 C19.9876011,16.122372 19.5803235,15.7334232 19.0778976,15.7334232 Z M13.5792453,13.6849057 L13.5932615,13.6951482 L13.5932615,13.690027 C13.6990583,13.7294881 13.8110726,13.7496634 13.9239892,13.7495957 C14.4264151,13.7495957 14.8334232,13.3603774 14.8334232,12.8800539 L14.8250674,12.7991914 C14.8249529,12.6114879 14.7620457,12.4292181 14.6463612,12.2814016 L14.6560647,12.2703504 L14.6067385,12.2345013 C14.5131152,12.1302474 14.3967123,12.0489867 14.2665768,11.997035 C13.7638987,11.6633028 13.2297186,11.3796466 12.6716981,11.1501348 C14.3501348,10.0522911 15.4506739,8.20808625 15.4506739,6.11859838 C15.4506739,2.75175202 12.593531,0.0223719677 9.07169811,0.0223719677 C5.54986523,0.0223719677 2.69245283,2.75148248 2.69245283,6.11859838 C2.69245283,8.20916442 3.79407008,10.0539084 5.47250674,11.1522911 C2.60188679,12.3339623 0.494339623,14.8851752 0.0501347709,17.9447439 C0.016672635,18.0367386 -0.000299003014,18.1339149 -3.8829389e-06,18.2318059 L0.00673854447,18.2994609 L0.00673854447,18.312938 C0.00673854447,18.7927224 0.414016173,19.1822102 0.916172507,19.1822102 C1.41832884,19.1822102 1.82587601,18.7929919 1.82587601,18.312938 L1.82587601,18.3021563 L1.84231806,18.3021563 C2.26603774,14.9827493 5.13477089,12.3849057 8.67520216,12.2026954 C8.806469,12.2102426 8.93881402,12.2148248 9.0722372,12.2148248 C9.20566038,12.2148248 9.33827493,12.2102426 9.46981132,12.2026954 C10.8078657,12.2683191 12.1036314,12.6926689 13.2212938,13.4312668 C13.3184057,13.5439898 13.4416838,13.631173 13.5803235,13.6851752 L13.5792453,13.6849057 Z M9.05660377,10.6199461 C6.42830189,10.6199461 4.29757412,8.58355795 4.29757412,6.07169811 C4.29757412,3.55983827 6.42857143,1.52291105 9.05660377,1.52291105 C11.6846361,1.52291105 13.815903,3.55795148 13.815903,6.07088949 C13.815903,8.58382749 11.6854447,10.6199461 9.05660377,10.6199461 Z" id="Shape"></path>
                </g>
            </g>
        </g>
    </g>
</svg>