<?xml version="1.0" encoding="UTF-8"?>
<svg width="33px" height="33px" viewBox="0 0 33 33" version="1.1" xmlns="http://www.w3.org/2000/svg" xmlns:xlink="http://www.w3.org/1999/xlink">
    <!-- Generator: Sketch 56.3 (81716) - https://sketch.com -->
    <title>编组 3</title>
    <desc>Created with Sketch.</desc>
    <defs>
        <polygon id="path-1" points="0 0.105668999 20 0.105668999 20 18.1198534 0 18.1198534"></polygon>
    </defs>
    <g id="新修改的图标等" stroke="none" stroke-width="1" fill="none" fill-rule="evenodd">
        <g id="通讯-copy" transform="translate(-125.000000, -90.000000)">
            <g id="编组-3" transform="translate(125.000000, 90.000000)">
                <rect id="Rectangle-Copy-4" fill="#131D21" x="0" y="0" width="33" height="33" rx="3"></rect>
                <g id="aixin" transform="translate(5.944444, 7.000000)">
                    <mask id="mask-2" fill="white">
                        <use xlink:href="#path-1"></use>
                    </mask>
                    <g id="Clip-2"></g>
                    <path d="M5.83956439,1.60677713 C7.00638195,1.605944 8.12253834,2.08329934 8.92868708,2.9277684 L10.0083578,4.02849144 L11.0829811,2.9277684 C11.9000568,2.07332868 13.0336372,1.59514021 14.2150329,1.6064815 C15.3965092,1.61793029 16.5206661,2.11783383 17.3211501,2.98780735 C18.9563216,4.88639805 18.8761014,7.71973124 17.1361442,9.522566 L10.4082507,16.4326084 C10.3066331,16.5504019 10.1588646,16.6181003 10.0033373,16.6181003 C9.84780995,16.6181003 9.70004152,16.5504019 9.59842387,16.4326084 L2.87544349,9.522566 C1.13548631,7.71973124 1.05537349,4.88639805 2.69054501,2.98780735 C3.50184847,2.10797067 4.64337572,1.60731463 5.83956439,1.60677713 L5.83956439,1.60677713 Z M14.1671102,0.105668999 C12.5985204,0.108705884 11.0982037,0.747741763 10.0083578,1.87700615 C8.9041485,0.730407331 7.3770917,0.0899201965 5.78627218,0.1059915 C4.19547951,0.122035929 2.68163166,0.79340254 1.60080653,1.96203893 C-0.638540292,4.34373624 -0.488570368,8.2315942 1.80079327,10.5733014 L8.50879278,17.4833438 C8.89386592,17.889722 9.42882846,18.1198534 9.98832957,18.1198534 C10.5478307,18.1198534 11.0827932,17.889722 11.4678664,17.4833438 L18.2058545,10.5733014 C20.4802372,8.2315942 20.6401676,4.34373624 18.4107812,1.96203893 C17.3159148,0.779024368 15.7780385,0.106287126 14.1671102,0.105668999 Z" id="Fill-1" fill="#FFFFFF" mask="url(#mask-2)"></path>
                </g>
            </g>
        </g>
    </g>
</svg>