<?xml version="1.0" standalone="no"?><!DOCTYPE svg PUBLIC "-//W3C//DTD SVG 1.1//EN" "http://www.w3.org/Graphics/SVG/1.1/DTD/svg11.dtd"><svg t="1565009431437" class="icon" viewBox="0 0 1024 1024" version="1.1" xmlns="http://www.w3.org/2000/svg" p-id="2033" xmlns:xlink="http://www.w3.org/1999/xlink" width="200" height="200"><defs><style type="text/css"></style></defs><path d="M927.143 924.263c9.828 9.83 9.828 25.7 0 35.529-8.529 8.559-21.41 9.208-31.154 2.968l-0.224 0.223-1.216-1.16c-0.96-0.76-2.09-1.097-2.99-2.031-0.88-0.875-1.272-2.03-1.981-2.966l-190.95-190.979c-152.909 114.64-370.526 102.836-509.595-36.235-152.426-152.46-152.426-399.671 0-552.13 152.46-152.458 399.645-152.458 552.13 0 152.456 152.459 152.456 399.67 0 552.13-1.779 1.774-3.727 3.244-5.507 5.025l186.01 186.008c1.861 1.02 3.87 1.98 5.477 3.618zM713.68 205.243c-136.925-136.894-358.86-136.894-495.753 0-136.898 136.898-136.898 358.834 0 495.728 136.894 136.868 358.828 136.868 495.753 0 136.868-136.925 136.868-358.86 0-495.729z m0 0" p-id="2034" fill="#2c2c2c"></path></svg>