<?xml version="1.0" encoding="UTF-8"?>
<svg width="60px" height="61px" viewBox="0 0 60 61" version="1.1" xmlns="http://www.w3.org/2000/svg" xmlns:xlink="http://www.w3.org/1999/xlink">
    <!-- Generator: Sketch 54.1 (76490) - https://sketchapp.com -->
    <title>编组 8</title>
    <desc>Created with Sketch.</desc>
    <g id="通訊" stroke="none" stroke-width="1" fill="none" fill-rule="evenodd">
        <g id="通讯-copy复制" transform="translate(-15.000000, -220.000000)">
            <g id="编组-8" transform="translate(15.000000, 220.000000)">
                <g id="编组-7" transform="translate(-0.000000, 0.000000)">
                    <circle id="椭圆形" fill="#131D21" cx="30" cy="30" r="30"></circle>
                    <path d="M40.2413271,30.556855 C40.215903,30.6099875 40.1757596,30.6577394 40.1235731,30.6940577 L40.1229041,30.6947303 C40.1182207,30.6980931 40.1142063,30.7007834 40.110192,30.7034736 C39.7977424,30.9126405 39.452509,31.1097012 39.0791752,31.2939832 C38.7045033,31.4789378 38.2990547,31.6511138 37.8688511,31.8091659 C35.6743442,32.6189308 32.7927159,33.0843439 29.7605497,33.0843439 L29.7592115,33.0843439 L29.7592115,33.0829987 C27.6115387,33.0829987 25.5428145,32.8496197 23.7423822,32.4279231 C23.4446518,32.3586492 23.1569573,32.2839948 22.8806368,32.2066502 C21.4327975,31.7984049 20.193704,31.2576649 19.2750888,30.6113326 C19.2563552,30.5978813 19.2389597,30.583085 19.2242404,30.567616 C20.1943731,30.7263407 21.2247208,30.864216 22.3032406,30.977879 C24.4957403,31.2078953 26.8842737,31.3397175 29.3811944,31.3498059 L29.3811944,31.3524961 L30.0194747,31.3524961 L30.0194747,31.3498059 C32.5170644,31.3397175 34.9049287,31.2078953 37.0974284,30.9772064 C38.2000343,30.8615257 39.2517919,30.7202877 40.2413271,30.556855 Z M22.1366455,13.861843 C26.3195896,9.78813365 33.0630149,9.77064703 37.2640236,13.861843 C39.2036198,15.7510703 40.4079223,18.358594 40.4079223,21.2277445 L40.4092604,21.2277445 L40.4092604,21.228417 L40.4092604,22.9515214 C40.4092604,23.0362643 40.4079223,23.1203346 40.4079223,23.2077676 L40.4092604,23.2077676 L40.4092604,23.2084402 L40.4079223,23.2084402 C40.4079223,24.049143 39.1420665,24.7593687 37.0980975,25.227472 C35.2039972,25.6612746 32.5886535,25.9302995 29.7030108,25.9302995 L29.7030108,25.9316446 L29.7003345,25.9316446 L29.6983274,25.9316446 L29.6983274,25.9302995 C28.8084816,25.9302995 27.944729,25.9047422 27.1191127,25.8563177 L27.1191127,25.1507999 C27.9433909,25.1998969 28.8071435,25.2261269 29.6983274,25.2261269 L29.6983274,25.2247818 L29.7003345,25.2247818 L29.7030108,25.2247818 L29.7030108,25.2261269 C32.5277693,25.2261269 35.084236,24.9638276 36.9335095,24.5401134 C37.4179067,24.4291406 39.6840027,23.9052147 39.6840027,23.2084402 L39.6853408,23.2077676 C39.6833336,20.4213424 19.7166664,20.9755336 19.7166664,23.2084402 L19.7146592,23.2084402 C19.7153283,23.6765435 20.7664168,24.1506999 22.4658215,24.5401134 C23.6828361,24.8185542 25.4150246,25.0404997 27.1191127,25.1507999 L27.1191127,25.8563177 C25.3521333,25.7446723 23.5624059,25.5160012 22.3019025,25.227472 C20.2572644,24.7593687 18.9927467,24.049143 18.9920777,23.2084402 L18.9900705,23.2084402 L18.9900705,23.2077676 L18.9920777,23.2077676 L18.9927467,23.1801926 C18.9914086,23.1680865 18.9900705,23.1553078 18.9900705,23.1432017 L18.9900705,21.228417 L18.9920777,21.228417 C18.9920777,18.358594 20.1963802,15.7510703 22.1366455,13.861843 Z M34.8299943,14.780563 C34.8654544,14.8074655 34.9069359,14.8397485 34.9544389,14.877412 C35.0119778,14.9231462 35.0527903,14.9554292 35.0788835,14.9762786 C35.283615,15.1450917 35.4843321,15.326011 35.6783586,15.5197089 C35.8175224,15.6589293 36.047009,15.6622921 36.1901872,15.5264345 C36.3333654,15.390577 36.3367106,15.1672863 36.1975468,15.0280659 C35.9928154,14.8242796 35.7747028,14.6272188 35.5438781,14.4375563 C35.4843321,14.3891318 35.4395052,14.3528134 35.4107358,14.3306189 C35.3645709,14.2929554 35.3170678,14.2573096 35.2695648,14.2216638 C35.1036386,14.110691 34.8882023,14.1288502 34.7630886,14.2916103 C34.6446656,14.445627 34.6747731,14.6628646 34.8299943,14.780563 Z M34.2137929,13.5295973 C31.2418418,11.8643332 27.5312518,11.9874121 24.6630046,13.8544448 C24.3846769,14.0353641 24.1150469,14.2330974 23.8547838,14.4462996 C23.5985349,14.6568116 23.3570054,14.877412 23.1308641,15.1067557 C23.1241735,15.1128088 23.117483,15.1195344 23.1114615,15.12626 L23.1107924,15.1269326 C22.976981,15.2715334 22.989024,15.4948241 23.1382237,15.6253012 C23.2867544,15.7557782 23.5162409,15.7436721 23.6493833,15.5990712 L23.6500523,15.5983987 L23.6540667,15.5943633 C23.8674958,15.3764531 24.0896228,15.1733394 24.3204474,14.9850219 C24.5552864,14.7919966 24.8041756,14.6104048 25.0651078,14.439574 C27.7005232,12.7238677 31.1214115,12.608187 33.8538402,14.1402838 C34.027126,14.2371327 34.2479148,14.1792924 34.3476043,14.0104793 C34.4466247,13.8423387 34.3870786,13.6264462 34.2137929,13.5295973 Z M18.819461,27.4603786 C16.5707605,27.0770181 14.6592647,26.5752867 13.2589285,25.9793966 C13.0756069,25.9020519 12.8621777,25.9834319 12.7825599,26.1616609 C12.7022731,26.3405625 12.7865743,26.5483842 12.9692268,26.6257289 C14.4264329,27.2458312 16.3941295,27.7643767 18.6943473,28.1564805 C26.0258736,29.4054285 35.9138666,29.2769691 42.6646515,27.77312 C43.3437443,27.6217935 43.986039,27.4563432 44.5861831,27.2781142 C45.1896725,27.0985401 45.7396373,26.908205 46.229387,26.7091266 L46.229387,26.708454 L46.2354086,26.7064363 L46.2367467,26.7064363 C46.4193992,26.6284191 46.5030313,26.4205974 46.4234136,26.2423684 C46.3444648,26.064812 46.134381,25.9834319 45.9523975,26.0580863 L45.9517284,26.0574138 C45.4726836,26.2517843 44.9454667,26.4347212 44.3760992,26.6042069 C43.8033865,26.7750377 43.1764801,26.9351075 42.5027397,27.0857614 C34.9832084,28.7611139 24.9687636,28.5089031 18.819461,27.4603786 Z M27.1191127,26.1751122 C27.8490539,26.2174836 28.6057573,26.243041 29.3811944,26.2477489 L29.3811944,26.2504391 L30.0201438,26.2504391 L30.0201438,26.2477489 C31.3234667,26.2390056 32.5752723,26.1744396 33.7307337,26.064812 C35.025359,25.9417331 36.1908562,25.7614864 37.1670103,25.5381957 C38.2408468,25.292038 39.112628,24.9772789 39.7154484,24.6100599 C40.2319603,24.2946282 40.6260349,24.0121521 40.7036455,23.5272347 L40.7270625,21.4947517 C41.2556175,21.5889104 41.7647699,21.6891222 42.2538505,21.7960595 C42.9503388,21.9480586 43.5953097,22.1101461 44.186087,22.2809769 C47.3761507,23.2037323 49.2,24.4573883 49.2,25.8226896 L49.2,25.8233621 L49.1986619,25.8233621 C49.1986619,27.3453704 46.9519686,28.6763711 43.3223345,29.5977813 C39.8325333,30.4835458 35.0166612,31.031684 29.7023417,31.031684 L29.7023417,31.0330291 L29.7003345,31.0330291 L29.6989964,31.0330291 L29.6989964,31.031684 C24.3840078,31.031684 19.5674667,30.4835458 16.0776655,29.5977813 C12.4480314,28.6763711 10.2020072,27.3453704 10.2013381,25.8233621 L10.2,25.8233621 L10.2,25.8226896 L10.2013381,25.8226896 C10.2013381,25.5267622 10.2836321,25.2375604 10.4435367,24.9564294 C10.5913983,24.6981655 10.8034894,24.4479724 11.0771337,24.2085402 C12.3296083,23.1122638 14.9864336,22.1491547 18.6729375,21.4947517 L18.7204405,23.5272347 C18.8348493,23.9314446 19.1680397,24.2946282 19.6845516,24.6100599 C20.287372,24.9772789 21.1584842,25.292038 22.2323206,25.5381957 C23.2091438,25.7614864 24.3753101,25.9417331 25.6699353,26.064812 C26.0720386,26.103148 26.4861848,26.135431 26.9090288,26.1623335 L27.1191127,26.1751122 Z M27.4645388,34.8494404 C27.9432655,34.8494404 28.3313503,35.2375251 28.3313503,35.7162519 L28.3313503,43.9645542 C28.3313503,44.443281 27.9432655,44.8313657 27.4645388,44.8313657 C26.985812,44.8313657 26.5977273,44.443281 26.5977273,43.9645542 L26.5977273,35.7162519 C26.5977273,35.2375251 26.985812,34.8494404 27.4645388,34.8494404 Z M34.1513703,34.8494404 C34.6300971,34.8494404 35.0181818,35.2375251 35.0181818,35.7162519 L35.0181818,43.9645542 C35.0181818,44.443281 34.6300971,44.8313657 34.1513703,44.8313657 C33.6726435,44.8313657 33.2845588,44.443281 33.2845588,43.9645542 L33.2845588,35.7162519 C33.2845588,35.2375251 33.6726435,34.8494404 34.1513703,34.8494404 Z M30.9317848,34.8494404 C31.4105115,34.8494404 31.7985963,35.2375251 31.7985963,35.7162519 L31.7985963,48.1034013 C31.7985963,48.582128 31.4105115,48.9702128 30.9317848,48.9702128 C30.453058,48.9702128 30.0649733,48.582128 30.0649733,48.1034013 L30.0649733,35.7162519 C30.0649733,35.2375251 30.453058,34.8494404 30.9317848,34.8494404 Z" id="合并形状" fill="#FBFBFB"></path>
                    <g id="编组" transform="translate(34.000000, 48.000000)">
                        <rect id="矩形" fill="#D0021B" x="-2.48689958e-14" y="-4.61852778e-14" width="25.8" height="12.6" rx="6.3"></rect>
                        <text id="星球" font-family="PingFangSC-Regular, PingFang SC" font-size="8" font-weight="normal" letter-spacing="0.2857144" fill="#FFFFFF">
                            <tspan x="4" y="9">星球</tspan>
                        </text>
                    </g>
                    <path d="M10.0047727,23.5047727 C6.5253788,23.5047727 3.70477272,26.3253788 3.70477272,29.8047727" id="椭圆形" stroke="#D0021B" stroke-width="2" stroke-linecap="round" stroke-linejoin="round" transform="translate(6.854773, 26.654773) rotate(-45.000000) translate(-6.854773, -26.654773) "></path>
                    <path d="M56.8047727,23.5047727 C53.3253788,23.5047727 50.5047727,26.3253788 50.5047727,29.8047727" id="椭圆形" stroke="#D0021B" stroke-width="2" stroke-linecap="round" stroke-linejoin="round" transform="translate(53.654773, 26.654773) scale(-1, 1) rotate(-45.000000) translate(-53.654773, -26.654773) "></path>
                </g>
            </g>
        </g>
    </g>
</svg>