<?xml version="1.0" encoding="UTF-8"?>
<svg width="17px" height="17px" viewBox="0 0 17 17" version="1.1" xmlns="http://www.w3.org/2000/svg" xmlns:xlink="http://www.w3.org/1999/xlink">
    <!-- Generator: Sketch 54.1 (76490) - https://sketchapp.com -->
    
    <desc>Created with Sketch.</desc>
    <g id="星球日誌" stroke="none" stroke-width="1" fill="none" fill-rule="evenodd">
        <g id="日誌复制-6" transform="translate(-9.000000, -500.000000)">
            <g id="编组-12" transform="translate(9.000000, 500.000000)">
                <rect id="矩形" fill="#11B12C" x="0" y="0" width="17" height="17" rx="2"></rect>
                <g id="编组-9" transform="translate(3.000000, 2.000000)" fill="#FFFFFF" fill-rule="nonzero" stroke="#FFFFFF" stroke-width="0.3">
                    <path d="M0.001770987,5.7771919 C-0.0336802738,3.30551462 1.42910627,1.09825341 3.60345027,0.340027223 C6.04367872,-0.512758348 8.45183221,0.263854384 9.96357526,2.38531171 C11.3368896,4.31502362 11.3579915,7.14655189 9.95175818,9.08064154 C8.91607492,10.501659 7.82468253,11.8797745 6.72906976,13.2482589 C5.90187367,14.2779056 5.00546322,14.242008 4.18839607,13.1887215 C3.18478776,11.8937833 2.16851828,10.6102272 1.19698492,9.28989796 C0.442379514,8.26287797 -0.0328361961,7.10627659 0.001770987,5.7771919 Z M0.703199504,5.77631635 C0.608662808,6.7376701 0.976680658,7.70777935 1.56669093,8.53692508 C2.61587943,10.0174799 3.75031977,11.4358707 4.86534633,12.8665192 C5.30679894,13.4356266 5.78285873,13.3112985 6.18210745,12.8034796 C7.25999459,11.4183597 8.384306,10.0673862 9.37356499,8.62097786 C10.6861057,6.69739481 10.5932572,4.41045855 9.26974345,2.64097227 C8.01882039,0.971298677 5.8782395,0.306756328 3.9495221,0.990560774 C1.99548237,1.68399627 0.703199504,3.53928644 0.703199504,5.77631635 Z" id="形状"></path>
                    <path d="M3,5.47297034 C3,4.06781339 4.01692399,3.00710094 5.3707647,3.00003541 C6.85954848,2.99296988 7.99112999,4.04396723 7.9999498,5.44205865 C8.00876961,6.86222985 6.85425659,8.01832693 5.45102496,7.99977991 C4.04779333,7.97681695 3.00264594,6.90020706 3,5.47297034 Z M5.49159608,3.73043441 C4.51788915,3.71895292 3.76820538,4.44846873 3.74174595,5.43057717 C3.71528652,6.4427141 4.48172793,7.24288519 5.4863042,7.24995072 C6.44413547,7.25524986 7.22468858,6.4921728 7.24232819,5.52949456 C7.26261376,4.50234338 6.52174979,3.74191589 5.49159608,3.73043441 L5.49159608,3.73043441 Z" id="形状"></path>
                </g>
            </g>
        </g>
    </g>
</svg>