<?xml version="1.0" encoding="UTF-8"?>
<svg width="22px" height="22px" viewBox="0 0 22 22" version="1.1" xmlns="http://www.w3.org/2000/svg" xmlns:xlink="http://www.w3.org/1999/xlink">
    <!-- Generator: Sketch 54.1 (76490) - https://sketchapp.com -->
    <title>icon--复制</title>
    <desc>Created with Sketch.</desc>
    <g id="IOS版本排版" stroke="none" stroke-width="1" fill="none" fill-rule="evenodd">
        <g id="我的" transform="translate(-46.000000, -494.000000)" fill="#008C18" fill-rule="nonzero" stroke="#008F00">
            <g id="icon--复制" transform="translate(47.000000, 495.000000)">
                <path d="M19.7777416,1.28567717 C19.9258174,1.1429249 20,1 20,0.714284467 C20,0.428605559 19.7777416,0.142926648 19.5555194,0.0713935697 C19.4072989,0 19.333261,0 19.1852213,0 L0.814742475,0 C0.592520253,0 0.370261863,0.0713935697 0.222222222,0.214320218 C-0.0740740744,0.49999913 -0.0740740744,0.928604685 0.222222222,1.2142836 L9.62952111,12.142836 L9.62952111,18.5713962 L6.66663049,18.5713962 C6.22214987,18.5713962 5.92588978,18.85711 5.92588978,19.2857155 C5.92588978,19.7141816 6.22214987,20 6.66663049,20 L14.0740741,20 C14.51841,20 14.814851,19.7141816 14.814851,19.2857155 C14.814851,18.85711 14.51841,18.5713962 14.0740741,18.5713962 L11.1110388,18.5713962 L11.1110388,12.142836 L19.7777416,1.28567717 Z M10.370298,10.7142321 L2.29626013,1.42860381 L17.7777416,1.42860381 L10.370298,10.7142321 Z" id="Fill-1"></path>
            </g>
        </g>
    </g>
</svg>