<?xml version="1.0" encoding="UTF-8"?>
<svg width="141px" height="138px" viewBox="0 0 141 138" version="1.1" xmlns="http://www.w3.org/2000/svg" xmlns:xlink="http://www.w3.org/1999/xlink">
    <!-- Generator: Sketch 53.2 (72643) - https://sketchapp.com -->
    <title>合并形状 copy 2</title>
    <desc>Created with Sketch.</desc>
    <defs>
        <linearGradient x1="82.4908308%" y1="83.3112781%" x2="35.8611742%" y2="20.68982%" id="linearGradient-1">
            <stop stop-color="#03FFEF" offset="0%"></stop>
            <stop stop-color="#26DE00" offset="100%"></stop>
        </linearGradient>
    </defs>
    <g id="我的" stroke="none" stroke-width="1" fill="none" fill-rule="evenodd">
        <path d="M108.610952,71.4286298 C108.519034,71.6207239 108.3739,71.7933654 108.185226,71.9246703 L108.182807,71.9271018 C108.165875,71.9392597 108.151361,71.948986 108.136848,71.9587123 C107.007222,72.7149309 105.759071,73.4273812 104.409326,74.0936317 C103.054743,74.7623138 101.58889,75.384796 100.033539,75.9562152 C92.0995522,78.8838268 81.6813573,80.566474 70.7189103,80.566474 L70.7140725,80.566474 L70.7140725,80.5616108 C62.949409,80.5616108 55.4701755,79.7178557 48.9609202,78.1932606 C47.8845105,77.9428088 46.8443842,77.6729044 45.8453792,77.3932737 C40.6108833,75.91731 36.1310837,73.9623269 32.8099364,71.625587 C32.7422072,71.5769556 32.6793158,71.523461 32.6261001,71.4675349 C36.1335026,72.0413857 39.858606,72.5398578 43.75787,72.9507933 C51.6845997,73.7823906 60.3200666,74.2589785 69.347395,74.2954521 L69.347395,74.3051784 L71.6550239,74.3051784 L71.6550239,74.2954521 C80.6847712,74.2589785 89.3178192,73.7823906 97.2445489,72.9483617 C101.230893,72.5301315 105.033401,72.0195015 108.610952,71.4286298 Z M43.1555643,11.0697402 C58.2785164,-3.65828604 82.6585922,-3.72150689 97.8468546,11.0697402 C104.859241,17.9000234 109.213258,27.3272246 109.213258,37.7003069 L109.218095,37.7003069 L109.218095,37.7027385 L109.218095,43.9324237 C109.218095,44.2388016 109.213258,44.542748 109.213258,44.8588523 L109.218095,44.8588523 L109.218095,44.8612838 L109.213258,44.8612838 C109.213258,47.9007477 104.636702,50.4684868 97.2469678,52.1608603 C90.3990668,53.7292237 80.9435934,54.7018521 70.510885,54.7018521 L70.510885,54.7067153 L70.5012094,54.7067153 L70.4939528,54.7067153 L70.4939528,54.7018521 C67.276818,54.7018521 64.1540203,54.6094524 61.1690999,54.4343793 L61.1690999,51.8836612 C64.1491825,52.0611659 67.2719802,52.1559972 70.4939528,52.1559972 L70.4939528,52.151134 L70.5012094,52.151134 L70.510885,52.151134 L70.510885,52.1559972 C80.7234736,52.1559972 89.966084,51.2076844 96.6519188,49.6757946 C98.4032012,49.2745854 106.59601,47.3803915 106.59601,44.8612838 L106.600847,44.8588523 C106.593591,34.7848532 34.4064092,36.7884678 34.4064092,44.8612838 L34.3991525,44.8612838 C34.4015714,46.5536573 38.2016606,48.267915 44.3456623,49.6757946 C48.7456383,50.6824651 55.0081659,51.4848835 61.1690999,51.8836612 L61.1690999,54.4343793 C54.7807895,54.0307385 48.3102366,53.2040043 43.7530322,52.1608603 C36.360879,50.4684868 31.7891613,47.9007477 31.7867424,44.8612838 L31.7794857,44.8612838 L31.7794857,44.8588523 L31.7867424,44.8588523 L31.7891613,44.7591579 C31.7843235,44.7153896 31.7794857,44.6691897 31.7794857,44.6254214 L31.7794857,37.7027385 L31.7867424,37.7027385 C31.7867424,27.3272246 36.1407593,17.9000234 43.1555643,11.0697402 Z M89.0469026,14.3912663 C89.1751042,14.4885291 89.3250759,14.6052446 89.4968177,14.7414125 C89.7048429,14.9067594 89.8523957,15.0234748 89.9467328,15.0988535 C90.6869156,15.7091778 91.4125851,16.3632705 92.1140656,17.0635629 C92.6171965,17.5668982 93.4468786,17.579056 93.9645228,17.0878787 C94.4821671,16.5967013 94.4942615,15.7894197 93.9911307,15.2860845 C93.2509478,14.5493184 92.462387,13.8368681 91.6278671,13.151165 C91.4125851,12.9760919 91.2505189,12.8447871 91.1465063,12.7645452 C90.9796023,12.6283772 90.8078606,12.499504 90.6361188,12.3706307 C90.036232,11.9694215 89.2573468,12.0350739 88.8050128,12.6235141 C88.3768678,13.1803439 88.4857182,13.9657414 89.0469026,14.3912663 Z M86.8190973,9.86854403 C76.0743511,3.84797397 62.6591412,4.29295148 52.2893243,11.0429929 C51.2830626,11.6970855 50.3082466,12.4119674 49.3672951,13.1827755 C48.4408571,13.9438572 47.5676348,14.7414125 46.7500472,15.5705783 C46.7258582,15.5924624 46.7016692,15.6167781 46.6798991,15.6410938 L46.6774802,15.6435254 C46.1937006,16.1663132 46.2372407,16.9735948 46.7766551,17.4453196 C47.3136505,17.9170444 48.1433326,17.8732761 48.6246933,17.3504883 L48.6271122,17.3480568 L48.6416256,17.3334673 C49.4132542,16.5456383 50.2163284,15.8113038 51.0508483,15.1304639 C51.8998816,14.432603 52.7997118,13.7760788 53.7430821,13.1584597 C63.2711225,6.95552185 75.6389494,6.53729162 85.51773,12.0764106 C86.1442247,12.4265568 86.9424611,12.2174417 87.3028769,11.6071174 C87.6608739,10.9992246 87.4455919,10.2186903 86.8190973,9.86854403 Z M31.1626666,60.2336764 C23.0327495,58.8476809 16.1219571,57.0337288 11.059203,54.8793568 C10.3964248,54.5997261 9.62479628,54.8939462 9.33694738,55.5383126 C9.04667959,56.1851105 9.35146077,56.936466 10.01182,57.2160966 C15.2801805,59.4580052 22.3941603,61.3327465 30.7103326,62.7503525 C57.2166201,67.26578 92.9655178,66.8013499 117.372202,61.364357 C119.827383,60.8172535 122.149526,60.219087 124.319277,59.5747206 C126.501124,58.9254911 128.489458,58.2373565 130.260092,57.5176115 L130.260092,57.5151799 L130.281862,57.5078852 L130.286699,57.5078852 C130.947059,57.2258229 131.249421,56.4744675 130.961572,55.8301011 C130.676142,55.1881663 129.916608,54.8939462 129.258668,55.1638506 L129.256249,55.1614191 C127.524318,55.8641431 125.618226,56.5255304 123.559743,57.1382864 C121.489166,57.7559054 119.222659,58.3346194 116.786828,58.8792913 C89.6008303,64.9363349 53.3947608,64.0244957 31.1626666,60.2336764 Z M61.1690999,55.586944 C63.8081179,55.740133 66.5438919,55.8325327 69.347395,55.8495537 L69.347395,55.85928 L71.6574428,55.85928 L71.6574428,55.8495537 C76.3694567,55.8179433 80.8952154,55.5845124 85.0726527,55.1881663 C89.7532209,54.7431888 93.9669417,54.0915278 97.4961143,53.2842462 C101.378446,52.3942911 104.530271,51.2563159 106.709698,49.928678 C108.577087,48.7882712 110.001818,47.7670113 110.282411,46.0138485 L110.367072,38.6656407 C112.278002,39.0060606 114.118783,39.3683647 115.886998,39.7549845 C118.405071,40.3045196 120.736889,40.8905282 122.872776,41.5081473 C134.406083,44.8442628 141,49.3767114 141,54.3128007 L141,54.3152323 L140.995162,54.3152323 C140.995162,59.8178777 132.872502,64.6299569 119.749979,67.9612094 C107.133005,71.1635885 89.7217752,73.145319 70.5084661,73.145319 L70.5084661,73.1501821 L70.5012094,73.1501821 L70.4963717,73.1501821 L70.4963717,73.145319 C51.2806437,73.145319 33.8669949,71.1635885 21.2500214,67.9612094 C8.12749824,64.6299569 0.00725669486,59.8178777 0.00483779657,54.3152323 L0,54.3152323 L0,54.3128007 L0.00483779657,54.3128007 C0.00483779657,53.2429095 0.302362286,52.1973339 0.880478976,51.1809372 C1.4150555,50.2472138 2.18184625,49.3426694 3.17117565,48.4770301 C7.69935324,44.5135692 17.3047983,41.0315593 30.6329279,38.6656407 L30.8046697,46.0138485 C31.2183013,47.4752228 32.4229126,48.7882712 34.2903021,49.928678 C36.4697295,51.2563159 39.619135,52.3942911 43.5014668,53.2842462 C47.0330583,54.0915278 51.249198,54.7431888 55.9297662,55.1881663 C57.383524,55.3267659 58.8808221,55.4434813 60.4095658,55.5407441 L61.1690999,55.586944 Z M62.4179479,86.9479769 C64.1487293,86.9479769 65.5518048,88.3510524 65.5518048,90.0818338 L65.5518048,119.902619 C65.5518048,121.6334 64.1487293,123.036476 62.4179479,123.036476 C60.6871665,123.036476 59.2840909,121.6334 59.2840909,119.902619 L59.2840909,90.0818338 C59.2840909,88.3510524 60.6871665,86.9479769 62.4179479,86.9479769 Z M86.5934158,86.9479769 C88.3241972,86.9479769 89.7272727,88.3510524 89.7272727,90.0818338 L89.7272727,119.902619 C89.7272727,121.6334 88.3241972,123.036476 86.5934158,123.036476 C84.8626344,123.036476 83.4595588,121.6334 83.4595588,119.902619 L83.4595588,90.0818338 C83.4595588,88.3510524 84.8626344,86.9479769 86.5934158,86.9479769 Z M74.9533757,86.9479769 C76.6841571,86.9479769 78.0872326,88.3510524 78.0872326,90.0818338 L78.0872326,134.866143 C78.0872326,136.596924 76.6841571,138 74.9533757,138 C73.2225943,138 71.8195187,136.596924 71.8195187,134.866143 L71.8195187,90.0818338 C71.8195187,88.3510524 73.2225943,86.9479769 74.9533757,86.9479769 Z" id="合并形状-copy-2" fill="url(#linearGradient-1)"></path>
    </g>
</svg>