<?xml version="1.0" encoding="UTF-8"?>
<svg width="375px" height="358px" viewBox="0 0 375 358" version="1.1" xmlns="http://www.w3.org/2000/svg" xmlns:xlink="http://www.w3.org/1999/xlink">
    <!-- Generator: Sketch 53.2 (72643) - https://sketchapp.com -->
    <title>分组 3</title>
    <desc>Created with Sketch.</desc>
    <defs>
        <polygon id="path-1" points="0.508878854 0.191128353 236.341411 0.191128353 236.341411 236.532146 0.508878854 236.532146"></polygon>
    </defs>
    <g id="注册页面" stroke="none" stroke-width="1" fill="none" fill-rule="evenodd">
        <g id="註冊頁面2" transform="translate(0.000000, -55.000000)">
            <g id="分组-3" transform="translate(0.000000, 55.000000)">
                <g id="分组" transform="translate(31.000000, 0.000000)">
                    <path d="M305.775582,85 C303.029361,85 300.517192,83.2238026 299.773424,80.5300993 C298.69678,76.6365806 293.178331,73.2202994 284.237508,70.9046892 C282.885202,70.5568435 281.463547,70.2325236 279.974277,69.9384512 C276.610849,69.271327 274.440224,66.0869428 275.12678,62.8235793 C275.816802,59.5635765 279.09181,57.4479356 282.467374,58.1268227 C284.2011,58.4713076 285.862009,58.8477202 287.444901,59.2577412 C301.255759,62.8319813 309.444146,68.938605 311.786409,77.4112513 C312.675811,80.6258829 310.706298,83.9312568 307.389681,84.7916287 C306.850492,84.9344639 306.30957,85 305.775582,85" id="Fill-1" fill="#2F2725"></path>
                    <path d="M12.7415395,157.21982 C12.5966503,156.684121 12.5233328,156.138086 12.5233328,155.533487 C12.5163502,153.990122 13.0435377,151.935173 14.4854479,149.397922 C16.9712593,144.964193 22.2378975,139.384998 29.8856078,133.605992 C34.7071043,129.9405 40.4537974,126.17338 47,122.385591 L45.3695591,109 C33.1499809,115.686766 21.4052205,123.432874 12.5669741,132.085019 C8.80334404,135.779794 5.7589234,139.493515 3.55939931,143.357095 C1.3720948,147.208618 0.00524769287,151.287511 1.07307588e-05,155.533487 C-0.00173492328,157.173312 0.209489215,158.818305 0.64415707,160.41679 C1.54142324,163.713666 4.97512473,165.670432 8.3145609,164.788509 C11.6557427,163.904864 13.6370601,160.516696 12.7415395,157.21982" id="Fill-3" fill="#2F2725"></path>
                    <g transform="translate(38.000000, 0.000000)">
                        <mask id="mask-2" fill="white">
                            <use xlink:href="#path-1"></use>
                        </mask>
                        <g id="Clip-6"></g>
                        <path d="M118.419385,12.6286236 L118.419385,12.6286236 C109.264612,12.6286236 100.089079,13.8214858 91.1228672,16.2280158 C34.9365679,31.3173755 1.47285985,89.4069888 16.5266847,145.719446 C23.0381299,170.079494 38.0521664,191.337754 58.8009109,205.575813 C84.2619766,223.047429 115.94559,228.47946 145.728013,220.483122 C201.916042,205.393762 235.37802,147.304149 220.324196,90.9899585 C212.342312,61.1389296 191.806349,36.3558311 163.978743,22.9933475 C149.667057,16.1222534 134.080415,12.6286236 118.419385,12.6286236 M118.400356,236.533013 C94.8664292,236.533013 71.6369693,229.457329 51.7877869,215.839975 C28.5981153,199.925322 11.8178234,176.165172 4.54002044,148.939133 C-12.2869796,86.0000496 25.1123124,21.077486 87.9103927,4.21270363 C115.077166,-3.07970664 143.998086,-0.395766767 169.341517,11.7755885 C200.438685,26.7089051 223.393086,54.4082742 232.31086,87.7720047 C249.13613,150.707621 211.738568,215.631918 148.940488,232.4967 C138.870582,235.201446 128.606926,236.533013 118.400356,236.533013" id="Fill-5" fill="#2F2725" mask="url(#mask-2)"></path>
                    </g>
                    <path d="M60.8315335,182.161094 C28.3901105,182.161094 4.45189208,175.608755 0.214149996,159.854856 C-0.676364898,156.555403 1.29177697,153.162813 4.60781881,152.279739 C7.92039562,151.381142 11.328261,153.350811 12.2170434,156.653714 C16.2503482,171.624574 76.6771545,177.888879 165.941744,154.080382 C255.201136,130.268434 304.390822,94.7661075 300.362715,79.7917973 C299.473932,76.490619 301.442074,73.0997536 304.756384,72.214955 C308.070693,71.3232574 311.480291,73.2877517 312.367341,76.5906547 C320.726746,107.643117 244.818148,145.849858 169.1573,166.029474 C131.87695,175.976128 92.3425936,182.161094 60.8315335,182.161094 L293.4375,204" id="Fill-7" fill="#2F2725"></path>
                </g>
                <text id="区块链分布式储存" font-family="PingFangSC-Semibold, PingFang SC" font-size="28" font-weight="500" letter-spacing="1.015" fill="#FFFFFF">
                    <tspan x="70.94" y="274">区块链分布式储存</tspan>
                </text>
                <text id="保護星球居民个人隱私" font-family="PingFangSC-Regular, PingFang SC" font-size="22" font-weight="normal" line-spacing="32" letter-spacing="0.7975" fill="#FFFFFF">
                    <tspan x="72.6999996" y="324">保護星球居民个人隱私</tspan>
                </text>
                <g id="编组-8" transform="translate(118.000000, 36.000000)" stroke="#02F52B" stroke-width="2">
                    <path d="M122.484663,112.361963 L122.484663,135.644172 L122.484663,112.361963 Z" id="路径" stroke-linecap="round" stroke-linejoin="round"></path>
                    <path d="M121,113.147239 L141.245399,101" id="路径" stroke-linecap="round" stroke-linejoin="round"></path>
                    <polygon id="路径" stroke-linecap="round" stroke-linejoin="round" points="102 100.894172 102 124.682515 122.245399 136.576687 142.490798 124.682515 142.490798 100.894172 122.245399 89"></polygon>
                    <path d="M20.097148,112 L20.097148,135.282209 L20.097148,112 Z" id="路径" stroke-linecap="round" stroke-linejoin="round"></path>
                    <polyline id="路径" stroke-linecap="round" stroke-linejoin="round" points="3.90798505e-14 100.214724 20.2452074 112.361963 40.4907975 100.214724"></polyline>
                    <polygon id="路径" stroke-linecap="round" stroke-linejoin="round" points="3.90798505e-14 99.9616564 3.90798505e-14 123.75 20.2452074 135.644172 40.4907975 123.75 40.4907975 99.9616564 20.2452074 88.0674847"></polygon>
                    <path d="M71.8711656,83.006135 L71.8711656,106.288344 L71.8711656,83.006135 Z" id="路径" stroke-linecap="round" stroke-linejoin="round"></path>
                    <polyline id="路径" stroke-linecap="round" stroke-linejoin="round" points="51.6257669 70.8588957 71.871357 83.006135 92.1165644 71.314953"></polyline>
                    <polygon id="路径" stroke-linecap="round" stroke-linejoin="round" points="51.6257669 70.6058282 51.6257669 94.3941718 71.871357 106.288344 92.1165644 94.3941718 92.1165644 70.6058282 71.871357 58.7116564"></polygon>
                    <polygon id="路径" stroke-linecap="round" stroke-linejoin="round" points="52 128.893977 52 152.682515 72.2455901 164.576687 92.4907975 152.682515 92.4907975 128.893977 72.2455901 117"></polygon>
                    <path d="M122.484663,53.6503067 L122.484663,75.9202454 L122.484663,53.6503067 Z" id="路径" stroke-linecap="round" stroke-linejoin="round"></path>
                    <path d="M122.245399,53.1472393 L142.490798,41" id="路径" stroke-linecap="round" stroke-linejoin="round"></path>
                    <polygon id="路径" stroke-linecap="round" stroke-linejoin="round" points="102 40.8942205 102 64.6824667 122.245399 76.5766871 142.490798 64.6824667 142.490798 40.8942205 122.245399 29"></polygon>
                    <polyline id="路径" stroke-linecap="round" stroke-linejoin="round" points="3.90798505e-14 41.5030675 20.2452074 53.6503067 40.4907975 41.5030675"></polyline>
                    <polygon id="路径" stroke-linecap="round" stroke-linejoin="round" points="3.90798505e-14 41.2501947 3.90798505e-14 65.0383436 20.2452074 76.9325153 40.4907975 65.0383436 40.4907975 41.2501947 20.2452074 29.3558282"></polygon>
                    <path d="M71.8628204,24.2822086 L71.8628204,45.5644176 L71.8628204,24.2822086 Z" id="路径" stroke-linecap="round" stroke-linejoin="round"></path>
                    <polyline id="路径" stroke-linecap="round" stroke-linejoin="round" points="51.6257669 12.1472393 71.871357 24.2944785 92.1165644 12.1472393"></polyline>
                    <polygon id="路径" stroke-linecap="round" stroke-linejoin="round" points="51.6257669 11.8942205 51.6257669 35.6824667 71.871357 47.5766871 92.1165644 35.6824667 92.1165644 11.8942205 71.871357 -2.48689958e-14"></polygon>
                    <polyline id="路径" stroke-linecap="round" stroke-linejoin="round" points="122.484663 112.361963 71.3650307 83.006135 20.2453988 112.361963"></polyline>
                    <polygon id="路径" stroke-linecap="round" stroke-linejoin="round" points="71.3650307 24.2944785 122.484663 53.6503067 122.484663 112.361963 71.3650307 141.717791 20.2453988 112.361963 20.2453988 53.6503067"></polygon>
                    <path d="M72.097148,141 L72.097148,165.269939 L72.097148,141 Z" id="路径"></path>
                </g>
                <g id="分组-2" transform="translate(0.000000, 357.000000)">
                    <path d="M0,0.5 L92,0.5" id="直线-4" stroke="#979797"></path>
                    <path d="M188.666667,0.5 L280.666667,0.5" id="直线-4" stroke="#979797"></path>
                    <path d="M94.3333333,0.5 L186.333333,0.5" id="直线-4" stroke="#02F52B"></path>
                    <path d="M283,0.5 L375,0.5" id="直线-4" stroke="#979797"></path>
                </g>
            </g>
        </g>
    </g>
</svg>