<?xml version="1.0" encoding="UTF-8"?>
<svg width="25px" height="25px" viewBox="0 0 25 25" version="1.1" xmlns="http://www.w3.org/2000/svg" xmlns:xlink="http://www.w3.org/1999/xlink">
    <!-- Generator: Sketch 54.1 (76490) - https://sketchapp.com -->
    <title>编组 10</title>
    <desc>Created with Sketch.</desc>
    <g id="星球日誌" stroke="none" stroke-width="1" fill="none" fill-rule="evenodd">
        <g id="日誌复制-4" transform="translate(-70.000000, -601.000000)">
            <g id="编组-10" transform="translate(70.500000, 602.000000)">
                <g id="编组-8">
                    <path d="M12.0001428,-2.66453526e-14 C5.38238735,-2.66453526e-14 0,4.69316957 0,10.4610269 C0,13.8874913 1.92854735,17.0967572 5.16299268,19.0522419 L5.16299268,22.3498479 C5.16299268,22.5847969 5.29164711,22.7990105 5.4971452,22.9074192 C5.59169272,22.9603851 5.69109453,22.9859155 5.79830126,22.9859155 C5.92184759,22.9859155 6.042824,22.9505731 6.14879337,22.8798884 L7.66897792,21.875663 C7.69797672,21.8579125 7.72573816,21.8352082 7.74198256,21.8199662 L9.46131973,20.6744349 C10.3185929,20.8360636 11.1731058,20.9194183 12.0024906,20.9194183 C18.6176444,20.9169414 24,16.2262487 24,10.4610269 C24,4.69316957 18.6176444,-2.66453526e-14 12.0001428,-2.66453526e-14 Z" id="路径" stroke="#9B9B9B"></path>
                    <path d="M8.11267606,11.1560775 C8.11267606,11.9031213 7.50729964,12.5070423 6.76020708,12.5070423 C6.01419892,12.5070423 5.4084507,11.9031213 5.4084507,11.1560775 C5.4084507,10.409282 6.01407499,9.80281692 6.76020708,9.80281692 C7.50729964,9.80269282 8.11267606,10.4091579 8.11267606,11.1560775 L8.11267606,11.1560775 Z" id="路径" fill="#D2D2D2"></path>
                    <path d="M13.5211268,10.814422 C13.5211268,11.560661 12.9158968,12.1690141 12.1676824,12.1690141 C11.4222552,12.1690141 10.8169014,11.560661 10.8169014,10.814422 C10.8169014,10.068307 11.4222552,9.46478873 12.1676824,9.46478873 C12.915773,9.46503667 13.5211268,10.0684309 13.5211268,10.814422 L13.5211268,10.814422 Z" id="路径" fill="#D2D2D2"></path>
                    <path d="M18.9295775,10.814422 C18.9295775,11.560661 18.323614,12.1690141 17.5773408,12.1690141 C16.8311916,12.1690141 16.2253521,11.560661 16.2253521,10.814422 C16.2253521,10.068307 16.8311916,9.46478873 17.5773408,9.46478873 C18.323614,9.46503667 18.9295775,10.0684309 18.9295775,10.814422 L18.9295775,10.814422 Z" id="路径" fill="#D2D2D2"></path>
                </g>
            </g>
        </g>
    </g>
</svg>