<?xml version="1.0" encoding="UTF-8"?>
<svg width="13px" height="13px" viewBox="0 0 13 13" version="1.1" xmlns="http://www.w3.org/2000/svg" xmlns:xlink="http://www.w3.org/1999/xlink">
    <!-- Generator: Sketch 54.1 (76490) - https://sketchapp.com -->
    <title>编组 5</title>
    <desc>Created with Sketch.</desc>
    <g id="我的" stroke="none" stroke-width="1" fill="none" fill-rule="evenodd">
        <g transform="translate(-322.000000, -58.000000)" id="编组-5">
            <g transform="translate(323.000000, 58.000000)">
                <path d="M10.8906,3.09606818 L9.58669091,4.39997727 L7.21369091,2.02697727 L8.5176,0.723068182 C8.57678182,0.663886364 8.65696364,0.629522727 8.74096364,0.629522727 C8.82496364,0.629522727 8.90514545,0.663886364 8.96432727,0.723068182 L10.8906,2.64934091 C11.0146909,2.77343182 11.0146909,2.97388636 10.8906,3.09606818 L10.8906,3.09606818 Z M0.911781818,10.6999773 L1.10078182,8.64770455 L2.96596364,10.5147955 L0.911781818,10.6999773 Z M6.76696364,2.47370455 L9.13996364,4.84670455 L3.66469091,10.3219773 L1.2936,7.94897727 L6.76696364,2.47370455 Z M11.3373273,2.20452273 L9.41105455,0.276340909 C9.04069091,-0.0921136364 8.44123636,-0.0921136364 8.07087273,0.276340909 L0.623509091,7.72561364 C0.619690909,7.72752273 0.619690909,7.73325 0.615872727,7.73706818 C0.591054545,7.76379545 0.571963636,7.79243182 0.556690909,7.82488636 C0.556690909,7.82679545 0.554781818,7.82870455 0.552872727,7.83061364 C0.543327273,7.85925 0.535690909,7.88979545 0.531872727,7.91843182 L0.251236364,11.0207045 C0.241690909,11.1085227 0.272236364,11.1963409 0.331418182,11.26125 C0.3906,11.3280682 0.476509091,11.36625 0.564327273,11.36625 C0.573872727,11.36625 0.583418182,11.36625 0.592963636,11.3643409 L3.69332727,11.0817955 C3.72578182,11.0798864 3.75441818,11.07225 3.78305455,11.0607955 C3.78496364,11.0588864 3.78687273,11.0569773 3.78878182,11.0569773 C3.82123636,11.0436136 3.85178182,11.0226136 3.8766,10.9997045 C3.88041818,10.9958864 3.88614545,10.9939773 3.88996364,10.9901591 L9.81005455,5.07006818 L9.81005455,5.07006818 L9.81005455,5.07006818 L11.3373273,3.54279545 C11.7057818,3.17243182 11.7057818,2.57297727 11.3373273,2.20452273 L11.3373273,2.20452273 Z" id="Fill-3" fill="#0B0B0B"></path>
                <path d="M3.94780909,7.98162273 C4.03180909,7.98162273 4.11199091,7.94916818 4.17117273,7.88998636 L6.9909,5.07025909 C7.07108182,4.99007727 7.10162727,4.87362273 7.07299091,4.76480455 C7.04435455,4.65598636 6.95844545,4.57198636 6.84962727,4.54144091 C6.74080909,4.51280455 6.62435455,4.54335 6.54417273,4.62353182 L3.72444545,7.44325909 C3.63471818,7.53298636 3.60799091,7.66853182 3.65762727,7.78689545 C3.70535455,7.90525909 3.8199,7.98162273 3.94780909,7.98162273" id="Fill-4" fill="#0B0B0B"></path>
                <path d="M-8.08242362e-14,12.6369409 L10.1582727,12.6369409" id="Stroke-5" stroke="#000000" stroke-width="0.329" stroke-linecap="round" stroke-linejoin="round"></path>
            </g>
        </g>
    </g>
</svg>