<?xml version="1.0" encoding="UTF-8"?>
<svg width="166px" height="173px" viewBox="0 0 166 173" version="1.1" xmlns="http://www.w3.org/2000/svg" xmlns:xlink="http://www.w3.org/1999/xlink">
    <!-- Generator: Sketch 53.2 (72643) - https://sketchapp.com -->
    <title>Combined Shape</title>
    <desc>Created with Sketch.</desc>
    <g id="新修改的图标等" stroke="none" stroke-width="1" fill="none" fill-rule="evenodd">
        <path d="M120.007617,25.1089844 L143.476562,48.8523438 L117.495703,76.3183594 L107.541406,86.8113281 C104.223633,90.1794922 95.8683594,98.6353516 93.2144531,101.441016 C90.5601562,104.247461 88.3609375,106.557617 86.61875,108.371484 C84.8775391,110.184766 83.840625,111.221875 83.5087891,111.480078 C82.6792969,112.258008 81.7255859,113.078125 80.6470703,113.941406 C79.5685547,114.805078 78.4488281,115.496094 77.2871094,116.013281 C76.1255859,116.618945 74.4261719,117.352539 72.1861328,118.216992 C69.9458984,119.079883 67.6021484,119.92168 65.1552734,120.742187 C62.7082031,121.5625 60.3861328,122.275 58.1878906,122.879102 C55.9896484,123.483984 54.3509766,123.872656 53.2720703,124.045117 C51.0330078,124.304688 49.5396484,123.958789 48.7929687,123.009961 C48.0460937,122.059375 47.8392578,120.461133 48.1710937,118.216992 C48.3371094,117.006445 48.7304687,115.257812 49.353125,112.970508 C49.9748047,110.681836 50.6388672,108.306836 51.3431641,105.845508 C52.0492187,103.383984 52.7332031,101.117578 53.3974609,99.0458984 C54.0611328,96.971875 54.5996094,95.5476562 55.0146484,94.7699219 C55.5113281,93.5607422 56.0726562,92.4611328 56.6945312,91.4669922 C57.3164062,90.4738281 58.2083984,89.3726563 59.3699219,88.1636719 C59.8667969,87.6455078 61.0283203,86.4150391 62.8535156,84.471875 C64.6789062,82.5292969 72.3283203,74.7646484 75.0650391,71.9146484 L84.1488281,62.4582031 L94.2271484,51.9664063 L120.007617,25.1089844 Z M103.235742,82.1648438 L132.837109,52.4115234 L118.125391,37.8835938 C118.125391,37.8835938 70.2183594,85.8730469 69.0771484,87.0330078 C67.9365234,88.1931641 67.2101562,88.9275391 66.8996094,89.2371094 C66.1736328,89.9587891 65.6158203,90.6166016 65.2271484,91.2091797 C64.8386719,91.8027344 64.4875,92.4595703 64.1771484,93.1808594 C63.9179687,93.6453125 63.58125,94.4960938 63.1662109,95.7337891 C62.7511719,96.9703125 62.3236328,98.3236328 61.8818359,99.7929688 C61.4416016,101.2625 61.0265625,102.680273 60.6380859,104.046484 C60.2488281,105.412695 60.0027344,106.45625 59.8990234,107.179492 C59.6916016,108.519141 59.8210937,109.473242 60.2876953,110.040625 C60.7544922,110.606641 61.6880859,110.813672 63.0876953,110.658398 C63.7619141,110.555859 64.7867187,110.323438 66.1607422,109.962305 C67.5349609,109.601562 68.9869141,109.176367 70.5164062,108.686523 C72.0462891,108.196875 73.5111328,107.694336 74.9115234,107.179492 C76.3121094,106.662891 77.3744141,106.225586 78.1005859,105.863672 C78.8267578,105.554492 79.5267578,105.142383 80.2005859,104.626172 C80.875,104.111133 81.4710937,103.621094 81.9898437,103.157227 C82.1974609,103.002734 82.8451172,102.383984 83.9337891,101.301172 C85.0226562,100.217969 86.3978516,98.8390625 88.0568359,97.1632813 C89.7162109,95.4882813 94.9388672,90.4404297 97.0130859,88.4292969 L103.235742,82.1648438 Z M151.261914,66.9083984 L165.004297,53.4099609 L165.004297,134.804688 L165.004297,136.629883 L164.959375,136.629883 C164.003711,156.625391 147.434375,172.596875 127.212109,172.596875 L126.525977,172.596875 L38.6330078,172.596875 L37.9464844,172.596875 C17.7246094,172.596875 1.15546875,156.625391 0.199609375,136.629883 L0.154492188,136.629883 L0.154492188,134.804688 L0.154492188,38.1115234 L0.154492188,37.7923828 L0.154492188,35.9669922 L0.199609375,35.9669922 C1.15546875,15.9714844 17.7246094,0 37.9464844,0 L107.737305,0 L107.737305,0.008984375 L113.105469,0.008984375 L96.8183594,13.7431641 L92.7121094,13.7431641 L84.6595703,13.7431641 L67.0763672,13.7431641 L37.9464844,13.7431641 C24.6908203,13.7431641 13.8970703,24.5302734 13.8970703,37.7923828 L13.8970703,42.7664063 L13.8970703,42.4126953 L13.8970703,66.9234375 L13.8970703,129.349609 L13.8970703,129.401953 L13.8970703,134.804688 C13.8970703,148.066992 24.6908203,158.854883 37.9464844,158.854883 L67.0763672,158.854883 L67.0787109,158.854883 L98.0802734,158.854883 L98.0824219,158.854883 L127.212109,158.854883 C140.467969,158.854883 151.261914,148.066797 151.261914,134.804688 L151.261914,129.686523 L151.261914,129.831055 L151.261914,105.674609 L151.261914,66.9083984 Z M148.003125,5.42265625 C147.117578,5.25761719 146.244727,5.18125 145.397852,5.19296875 C145.523828,5.19296875 145.650781,5.19296875 145.778125,5.19707031 C146.532422,5.22421875 147.273633,5.29960937 148.003125,5.42265625 Z M162.828125,22.9376953 C162.841016,23.2390625 162.849414,23.5421875 162.849414,23.8488281 C162.849414,25.2474609 162.59082,26.6458984 162.074609,28.0445313 C161.557617,29.4421875 160.731055,30.7880859 159.594531,32.0787109 C158.353906,33.3697266 157.242969,34.4990234 156.2625,35.4667969 C155.279687,36.4351563 154.427539,37.2964844 153.704492,38.0484375 C152.876953,38.909375 152.102148,39.6625 151.379102,40.3078125 L128.030273,16.5740234 C129.270117,15.3910156 130.743359,13.9666016 132.447852,12.2982422 C134.152734,10.6314453 135.573633,9.31269531 136.710742,8.34472656 C138.157812,7.16191406 139.655859,6.32890625 141.20625,5.84394531 C142.624219,5.40117188 144.021484,5.18554688 145.397852,5.19316406 C145.524805,5.19433594 145.651953,5.19316406 145.778125,5.1984375 C146.532422,5.22539063 147.274805,5.30078125 148.003125,5.42382813 C151.148828,6.00878906 154.440234,7.69277344 157.233398,10.3888672 C158.79375,11.8949219 160.041602,13.56875 160.962891,15.2958984 C162.321484,17.8443359 162.963867,20.5101563 162.828125,22.9376953 Z M156.913281,26.2830078 C157.266211,25.3265625 157.443164,24.3697266 157.443359,23.4130859 C157.443359,23.2039063 157.4375,22.9964844 157.428711,22.7904297 C157.52168,21.1296875 157.082227,19.3060547 156.15293,17.5628906 C155.522266,16.3810547 154.66875,15.2359375 153.601562,14.2058594 C151.691016,12.3615234 149.439062,11.2095703 147.287305,10.809375 C146.788867,10.725 146.28125,10.6736328 145.76543,10.6550781 C145.678906,10.6511719 145.591992,10.6519531 145.505078,10.6511719 C144.563867,10.6460938 143.607812,10.7935547 142.637305,11.0964844 C141.576367,11.4283203 140.552148,11.9978516 139.562109,12.8072266 C138.78457,13.4691406 137.8125,14.3712891 136.646484,15.5117188 C135.480078,16.6527344 135.917578,16.2376953 135.069141,17.0470703 L151.187305,33.1267578 C150.621289,33.715625 151.682031,32.6855469 151.187305,33.1267578 C151.682031,32.6123047 152.265234,32.0232422 152.937305,31.3607422 C153.608398,30.6988281 154.367773,29.9259766 155.216406,29.0429688 C155.994336,28.1599609 156.55957,27.2392578 156.913281,26.2830078 Z" id="Combined-Shape" fill="#386B00" fill-rule="nonzero"></path>
    </g>
</svg>