<?xml version="1.0" encoding="utf-8"?>
<svg width="12px" height="14px" viewBox="0 0 12 14" version="1.1" xmlns:xlink="http://www.w3.org/1999/xlink" xmlns="http://www.w3.org/2000/svg">
  <desc>Created with Lunacy</desc>
  <g id="编组-5">
    <path d="M10.6411 3.09607L9.33718 4.39998L6.96418 2.02698L8.26809 0.723068C8.32727 0.663886 8.40745 0.629523 8.49145 0.629523C8.57545 0.629523 8.65563 0.663886 8.71482 0.723068L10.6411 2.64934C10.7652 2.77343 10.7652 2.97389 10.6411 3.09607L10.6411 3.09607ZM0.66227 10.7L0.85127 8.6477L2.71645 10.5148L0.66227 10.7ZM6.51745 2.4737L8.89045 4.8467L3.41518 10.322L1.04409 7.94898L6.51745 2.4737ZM11.0878 2.20452L9.16154 0.276341C8.79118 -0.0921136 8.19172 -0.0921136 7.82136 0.276341L0.373997 7.72561C0.370179 7.72752 0.370179 7.73325 0.366361 7.73707C0.341543 7.7638 0.322452 7.79243 0.307179 7.82489C0.307179 7.8268 0.30527 7.8287 0.303361 7.83061C0.293815 7.85925 0.286179 7.8898 0.282361 7.91843L0.00172438 11.0207C-0.00782107 11.1085 0.0227244 11.1963 0.0819062 11.2612C0.141088 11.3281 0.226997 11.3663 0.314815 11.3663C0.324361 11.3663 0.333906 11.3663 0.343452 11.3643L3.44381 11.0818C3.47627 11.0799 3.50491 11.0723 3.53354 11.0608C3.53545 11.0589 3.53736 11.057 3.53927 11.057C3.57172 11.0436 3.60227 11.0226 3.62709 10.9997C3.63091 10.9959 3.63663 10.994 3.64045 10.9902L9.56054 5.07007L9.56054 5.07007L9.56054 5.07007L11.0878 3.5428C11.4563 3.17243 11.4563 2.57298 11.0878 2.20452L11.0878 2.20452Z" transform="translate(0.249512 7.105427E-15)" id="Fill-3" fill="#FFFFFF" stroke="none" />
    <path d="M0.314859 3.45071C0.398859 3.45071 0.479041 3.41826 0.538223 3.35908L3.35795 0.53935C3.43813 0.459168 3.46868 0.342713 3.44004 0.233895C3.4114 0.125077 3.3255 0.041077 3.21668 0.0105315C3.10786 -0.0181048 2.9914 0.0124406 2.91122 0.0926224L0.0914954 2.91235C0.00176815 3.00208 -0.0249591 3.13762 0.0246772 3.25599C0.0724045 3.37435 0.18695 3.45071 0.314859 3.45071" transform="translate(3.63295 4.53091)" id="Fill-4" fill="#FFFFFF" stroke="none" />
    <path d="M0 0.954545L10.1583 0.954545" transform="translate(-8.082424E-14 11.68239)" id="Stroke-5" fill="none" stroke="#FFFFFF" stroke-width="0.329" stroke-linecap="round" stroke-linejoin="round" />
  </g>
</svg>