<?xml version="1.0" standalone="no"?><!DOCTYPE svg PUBLIC "-//W3C//DTD SVG 1.1//EN" "http://www.w3.org/Graphics/SVG/1.1/DTD/svg11.dtd"><svg t="1563867492023" class="icon" viewBox="0 0 1024 1024" version="1.1" xmlns="http://www.w3.org/2000/svg" p-id="4177" xmlns:xlink="http://www.w3.org/1999/xlink" width="200" height="200"><defs><style type="text/css"></style></defs><path d="M10.750656 1013.12136c-13.822272-13.822272-13.822272-36.347457 0-50.169729l952.200975-952.200975c13.822272-13.822272 36.347457-13.822272 50.169729 0 13.822272 13.822272 13.822272 36.347457 0 50.169729l-952.200975 952.200975c-14.334208 14.334208-36.347457 14.334208-50.169729 0z" fill="#ffffff" p-id="4178"></path><path d="M10.750656 10.750656c13.822272-13.822272 36.347457-13.822272 50.169729 0L1013.633296 963.463567c13.822272 13.822272 13.822272 36.347457 0 50.169729-13.822272 13.822272-36.347457 13.822272-50.169729 0L10.750656 60.920385c-14.334208-14.334208-14.334208-36.347457 0-50.169729z" fill="#ffffff" p-id="4179"></path></svg>