<?xml version="1.0" encoding="UTF-8"?>
<svg width="24px" height="20px" viewBox="0 0 24 20" version="1.1" xmlns="http://www.w3.org/2000/svg" xmlns:xlink="http://www.w3.org/1999/xlink">
    <!-- Generator: Sketch 54.1 (76490) - https://sketchapp.com -->
    <title>编组 15复制</title>
    <desc>Created with Sketch.</desc>
    <g id="IOS版本排版" stroke="none" stroke-width="1" fill="none" fill-rule="evenodd">
        <g id="我的" transform="translate(-210.000000, -495.000000)" fill="#008E07">
            <g id="编组-15复制" transform="translate(210.000000, 495.000000)">
                <path d="M9.92178276,6.82576513 C9.9418921,6.80760258 9.9589077,6.78944003 9.97747018,6.76988037 C10.2559073,7.00878773 10.5544537,7.2546807 10.8638283,7.49079383 C10.8251565,7.51733909 10.7880315,7.54807571 10.7524534,7.57881233 L5.40336731,12.4114473 C5.09863337,12.1320235 4.82483688,11.8819392 4.57424349,11.6500174 L9.92178276,6.82576513 Z M8.64206656,6.15144445 C8.60895188,6.17369955 8.57871674,6.1985729 8.54848159,6.22344625 L3.60143626,10.7189772 C3.40850725,10.5252269 3.22421685,10.3275492 3.05000484,10.1220168 L3.04280599,10.1141621 C1.81180373,8.55499567 0.816923546,6.15144445 3.01401062,3.52926956 L3.02264923,3.51879657 C3.89658885,2.3968775 5.30468266,1.72006052 6.81643982,1.69387805 L6.82219889,1.69387805 C7.61407169,1.67685944 8.40162518,1.81431743 9.13014816,2.09577904 C9.97817194,2.62859241 10.7801231,3.22162547 11.5259233,3.86833261 L11.5388812,3.8788056 C12.5265626,4.65249774 13.4163396,5.52306504 14.1966943,6.47087065 C14.3694665,6.76673262 14.3089963,7.13066902 14.0498379,7.36762042 L14.0268016,7.38987552 L14.0080846,7.41474888 C13.8324328,7.65170028 13.5113644,7.7629758 13.2061334,7.69228311 C11.9837698,7.19219784 10.0573592,5.300514 10.0386422,5.2834954 C9.75500778,4.99286992 9.2755648,4.94050497 8.92138169,5.16043776 C8.56863836,5.37906143 8.44913755,5.80452665 8.64350633,6.15144445 L8.64206656,6.15144445 Z M11.9544561,17.9704463 C11.6184633,17.8771279 11.30767,17.7259783 11.0332758,17.5235694 C10.9814769,17.480196 10.931078,17.434194 10.8792791,17.3868776 L15.7343751,12.8313617 L15.738575,12.8274186 C16.0437685,12.5211765 16.0353686,12.0427553 15.7189754,11.7457136 C15.4039822,11.4486719 14.8929931,11.4394715 14.5668001,11.7259985 L9.68510472,16.3064869 C9.43731004,16.0830485 9.20351505,15.8701247 8.97811988,15.6611441 L13.8458156,11.0951134 C14.0810105,10.8729893 14.152409,10.5391459 14.0236118,10.2473616 C13.8948145,9.95820594 13.593821,9.76894042 13.2578282,9.76894042 L13.2564282,9.76894042 C13.0380329,9.76894042 12.8280374,9.85174408 12.6726407,9.99763625 L7.79234529,14.5741817 C7.51095132,14.3139416 7.18615828,14.0129568 6.86136524,13.7119721 L11.7052614,9.16565657 C11.7948595,9.08285291 11.864858,8.98164843 11.9082571,8.86861486 C12.0958531,8.97901974 12.2932488,9.07890988 12.4948445,9.16302789 L12.5158441,9.17091395 C13.4888232,9.50212861 14.5793998,9.19982952 15.2051864,8.42699531 C15.9485705,7.66993323 16.067568,6.54222618 15.4977802,5.66293011 L15.4823805,5.64190061 C14.897193,4.88615288 14.243407,4.17903587 13.5266224,3.53237867 L15.2345858,2.25877945 C15.6391771,1.99459633 16.1025672,1.81584556 16.5897568,1.74092796 C17.1063457,1.65812429 17.6341344,1.68178248 18.1409235,1.80927384 C18.8969073,2.01431148 19.5982923,2.36655565 20.1960795,2.84629116 L20.2114792,2.85680592 C21.3762542,3.69272863 22.1238382,4.94266966 22.2764349,6.312216 C22.3338337,6.90761378 22.2834348,7.50958328 22.1294381,8.09052327 L22.1266381,8.09052327 L22.0580396,8.33104821 C21.944642,8.73718047 21.7542461,9.11965454 21.4938517,9.4600696 L21.4840519,9.47058436 C20.870865,10.1553575 15.4333815,16.2065968 13.7198183,17.6011156 L13.7128184,17.6090017 C13.2424285,18.0177627 12.5718429,18.1583975 11.9614559,17.9717606 L11.9544561,17.9704463 Z M23.9832868,6.11281713 L23.9562895,5.8129491 L23.9463432,5.8129491 C23.8397752,5.09992955 23.6053257,4.40956669 23.2500991,3.77118096 L23.2486782,3.76851547 C22.7598864,2.90356278 22.0863768,2.1412316 21.2679348,1.53083355 C20.4779108,0.901777051 19.5486381,0.437981156 18.5497409,0.174097285 L18.5468991,0.174097285 C17.7995024,-0.0164855113 17.0151621,-0.0511369287 16.2521354,0.072808526 C15.4834251,0.191422993 14.755921,0.476630814 14.1250386,0.905775291 L14.1179341,0.908440785 L12.1798178,2.35713658 C11.449472,1.73074558 10.6708153,1.1536662 9.84953143,0.633894939 L9.82679693,0.619234724 L9.79979971,0.608572749 C8.82505797,0.1887575 7.76222003,-0.0138200176 6.69085665,0.0141676657 C5.80989472,0.0248296403 4.94314186,0.211414196 4.1445925,0.559261117 L4.14032978,0.560593864 C3.14711625,1.0083968 2.28746791,1.67610296 1.633851,2.50507148 C0.292515419,4.15901029 -0.2275363,5.92223434 0.0907467194,7.74676474 L0.0907467194,7.75209573 C0.326617171,8.96756083 0.860877953,10.1163886 1.65090188,11.1066195 C2.54891468,12.2714402 8.04498039,17.2519151 9.71028261,18.752588 L9.75433071,18.7939032 L9.79411609,18.8258891 C10.2431225,19.168405 10.7560697,19.4256252 11.3088022,19.5868875 C11.6654497,19.689509 12.0348854,19.7428189 12.4085837,19.7454844 L12.4142674,19.7454844 C13.269653,19.7388207 14.0951996,19.4376199 14.7289238,18.8991902 C16.5633139,17.4078465 21.7780401,11.6170615 22.8039345,10.4695665 L22.8280899,10.4455771 C23.2316273,9.93513503 23.5300176,9.3567229 23.7076309,8.74365937 C23.9776031,7.89203414 24.069962,6.99776103 23.9832868,6.11281713 L23.9832868,6.11281713 Z" id="Fill-1"></path>
            </g>
        </g>
    </g>
</svg>