<?xml version="1.0" encoding="UTF-8"?>
<svg width="201px" height="147px" viewBox="0 0 201 147" version="1.1" xmlns="http://www.w3.org/2000/svg" xmlns:xlink="http://www.w3.org/1999/xlink">
    <!-- Generator: Sketch 54.1 (76490) - https://sketchapp.com -->
    <title>xingqiu-2</title>
    <desc>Created with Sketch.</desc>
    <g id="我的" stroke="none" stroke-width="1" fill="none" fill-rule="evenodd">
        <g id="xingqiu-2" fill="#000000" fill-rule="nonzero">
            <path d="M98.824508,146.494993 C58.4297315,146.494993 25.5659953,113.635722 25.5659951,73.2476438 C25.565995,32.8595655 58.4297315,0.000294706724 98.824508,0.000294706724 C118.310861,-0.0550496709 137.005154,7.70803255 150.720141,21.5507249 C152.485391,23.3450146 152.470897,26.2278696 150.687695,28.0043194 C148.904493,29.7807691 146.021604,29.7843259 144.234024,28.0122815 C132.232933,15.9002608 115.875164,9.10798238 98.824508,9.15677153 C63.4801948,9.15677153 34.7224721,37.9077961 34.722472,73.2476438 C34.7224718,108.587491 63.4801948,137.338516 98.824508,137.338516 C134.168821,137.338516 162.926544,108.591957 162.926544,73.2476438 C162.956111,63.2497661 160.62114,53.3865812 156.112214,44.463128 C155.05572,42.2180846 155.979388,39.5400241 158.19525,38.4236216 C160.411112,37.3072192 163.113011,38.1586356 164.288517,40.3437182 C169.442343,50.5444765 172.112337,61.8188906 172.080788,73.2476438 C172.083021,113.635722 139.219285,146.494993 98.824508,146.494993 Z" id="路径"></path>
            <path d="M38.3618422,126.32663 C16.4965953,126.32663 3.42612103,121.218115 0.561512446,111.543642 C-2.48618097,101.223907 6.91366481,89.0532276 27.7563156,76.3422249 C29.9076218,75.1127699 32.6466211,75.817484 33.9374181,77.932554 C35.2282151,80.047624 34.6025387,82.8057516 32.5254535,84.1568235 C13.4466692,95.7916443 8.11711302,104.780666 9.35181946,108.940265 C10.4681907,112.735927 18.7605961,117.167921 38.3774714,117.167921 L38.6677279,117.167921 C57.7733052,117.125498 82.0610775,113.026183 107.061095,105.622409 C163.272619,88.98178 193.724993,65.053479 190.813497,55.2115502 C189.648006,51.2729926 180.98943,46.7740165 160.256184,46.9950579 C157.844822,46.9303084 155.654502,44.9855897 155.623243,42.469289 C155.594718,39.9409791 157.620713,37.8680074 160.149012,37.8385811 C183.070346,37.5773502 196.656584,42.6858649 199.594873,52.6126381 C204.352847,68.6883837 174.987819,95.0615376 109.657774,114.406018 C83.8428062,122.048696 58.6396093,126.284208 38.6855898,126.32663 L38.3618422,126.32663 Z" id="路径"></path>
            <path d="M45.4061446,77.8247658 C44.1904644,77.8271368 43.0237306,77.3460239 42.1630668,76.4874542 C41.302403,75.6288845 40.8184494,74.4633262 40.8178589,73.2476438 C40.811468,66.9928657 41.8180687,60.7783311 43.7985701,54.8453804 C44.6289726,52.4867394 47.1978871,51.2303161 49.5695078,52.0228886 C51.9411285,52.8154611 53.2384779,55.363952 52.4839382,57.7479456 C50.814329,62.7439372 49.9667726,67.9778243 49.9743358,73.245411 C49.9743433,75.7701656 47.9308917,77.8186109 45.4061446,77.8247658 L45.4061446,77.8247658 Z M56.7953639,44.8516252 C55.0431377,44.8511239 53.4449696,43.8503145 52.6794589,42.2741513 C51.9139482,40.6979881 52.1154544,38.8231132 53.1984159,37.4456185 C64.1655421,23.4024066 81.0063346,15.2148229 98.824508,15.2633222 C101.352383,15.2633222 103.40163,17.3125695 103.40163,19.8404442 C103.40163,22.3683189 101.352383,24.4175662 98.824508,24.4175662 C83.8181586,24.3773735 69.6355276,31.274604 60.4012431,43.1033878 C59.5320188,44.2095602 58.2021905,44.8543005 56.7953639,44.8516252 L56.7953639,44.8516252 Z" id="形状"></path>
        </g>
    </g>
</svg>