<?xml version="1.0" encoding="UTF-8"?>
<svg width="15px" height="15px" viewBox="0 0 15 15" version="1.1" xmlns="http://www.w3.org/2000/svg" xmlns:xlink="http://www.w3.org/1999/xlink">
    <!-- Generator: Sketch 53.2 (72643) - https://sketchapp.com -->
    <title>Fill 15</title>
    <desc>Created with Sketch.</desc>
    <g id="我的" stroke="none" stroke-width="1" fill="none" fill-rule="evenodd">
        <g transform="translate(-34.000000, -378.000000)" fill="#EFEFF4" id="Fill-15">
            <path d="M45.1111878,388.901796 C44.8273481,388.901796 44.5953039,389.13384 44.5953039,389.41768 L44.5953039,392.254006 C44.5953039,392.535773 44.8273481,392.76989 45.1111878,392.76989 C45.3950276,392.76989 45.6270718,392.535773 45.6270718,392.254006 L45.6270718,389.41768 C45.6270718,389.13384 45.3950276,388.901796 45.1111878,388.901796 L45.1111878,388.901796 Z M42.7907459,387.354144 C42.5069061,387.354144 42.2748619,387.586188 42.2748619,387.870028 L42.2748619,392.254006 C42.2748619,392.535773 42.5069061,392.76989 42.7907459,392.76989 C43.0745856,392.76989 43.3066298,392.535773 43.3066298,392.254006 L43.3066298,387.870028 C43.3066298,387.586188 43.0745856,387.354144 42.7907459,387.354144 L42.7907459,387.354144 Z M47.1726519,383.48605 C47.1726519,383.76989 46.9406077,384.001934 46.6588398,384.001934 L43.5635359,384.001934 C43.2796961,384.001934 43.0476519,383.76989 43.0476519,383.48605 L43.0476519,380.392818 C43.0476519,380.108978 43.2796961,379.876934 43.5635359,379.876934 L46.6588398,379.876934 C46.9406077,379.876934 47.1726519,380.108978 47.1726519,380.392818 L47.1726519,383.48605 Z M46.6588398,378.845166 L43.5635359,378.845166 C42.7120166,378.845166 42.015884,379.541298 42.015884,380.392818 L42.015884,383.48605 C42.015884,384.337569 42.7120166,385.033702 43.5635359,385.033702 L46.6588398,385.033702 C47.5082873,385.033702 48.2044199,384.337569 48.2044199,383.48605 L48.2044199,380.392818 C48.2044199,379.541298 47.5082873,378.845166 46.6588398,378.845166 L46.6588398,378.845166 Z M47.4316298,386.581354 C47.1477901,386.581354 46.9157459,386.813398 46.9157459,387.097238 L46.9157459,392.254006 C46.9157459,392.535773 47.1477901,392.76989 47.4316298,392.76989 C47.7154696,392.76989 47.9475138,392.535773 47.9475138,392.254006 L47.9475138,387.097238 C47.9475138,386.813398 47.7154696,386.581354 47.4316298,386.581354 L47.4316298,386.581354 Z M39.4385359,383.48605 C39.4385359,383.76989 39.2064917,384.001934 38.9226519,384.001934 L35.8294199,384.001934 C35.5455801,384.001934 35.3135359,383.76989 35.3135359,383.48605 L35.3135359,380.392818 C35.3135359,380.108978 35.5455801,379.876934 35.8294199,379.876934 L38.9226519,379.876934 C39.2064917,379.876934 39.4385359,380.108978 39.4385359,380.392818 L39.4385359,383.48605 Z M38.9226519,378.845166 L35.8294199,378.845166 C34.9779006,378.845166 34.281768,379.541298 34.281768,380.392818 L34.281768,383.48605 C34.281768,384.337569 34.9779006,385.033702 35.8294199,385.033702 L38.9226519,385.033702 C39.7741713,385.033702 40.4703039,384.337569 40.4703039,383.48605 L40.4703039,380.392818 C40.4703039,379.541298 39.7741713,378.845166 38.9226519,378.845166 L38.9226519,378.845166 Z M39.4385359,391.222238 C39.4385359,391.506077 39.2064917,391.738122 38.9226519,391.738122 L35.8294199,391.738122 C35.5455801,391.738122 35.3135359,391.506077 35.3135359,391.222238 L35.3135359,388.126934 C35.3135359,387.845166 35.5455801,387.613122 35.8294199,387.613122 L38.9226519,387.613122 C39.2064917,387.613122 39.4385359,387.845166 39.4385359,388.126934 L39.4385359,391.222238 Z M38.9226519,386.581354 L35.8294199,386.581354 C34.9779006,386.581354 34.281768,387.277486 34.281768,388.126934 L34.281768,391.222238 C34.281768,392.073757 34.9779006,392.76989 35.8294199,392.76989 L38.9226519,392.76989 C39.7741713,392.76989 40.4703039,392.073757 40.4703039,391.222238 L40.4703039,388.126934 C40.4703039,387.277486 39.7741713,386.581354 38.9226519,386.581354 L38.9226519,386.581354 Z"></path>
        </g>
    </g>
</svg>