<?xml version="1.0" encoding="UTF-8"?>
<svg width="684px" height="1090px" viewBox="0 0 684 1090" version="1.1" xmlns="http://www.w3.org/2000/svg" xmlns:xlink="http://www.w3.org/1999/xlink">
    <!-- Generator: Sketch 56.2 (81672) - https://sketch.com -->
    <title>编组 17</title>
    <desc>Created with Sketch.</desc>
    <g id="新修改的图标等" stroke="none" stroke-width="1" fill="none" fill-rule="evenodd">
        <g id="编组-17" transform="translate(-1.000000, 0.000000)">
            <g id="编组-16">
                <path d="M220,334.500432 C220,336.987035 217.9855,339 215.5,339 C213.0145,339 211,336.987035 211,334.500432 C211,332.015557 213.0145,330 215.5,330 C217.9855,330 220,332.015557 220,334.500432 M220,322.500432 C220,324.986558 217.9855,327 215.5,327 C213.0145,327 211,324.986558 211,322.500432 C211,320.016035 213.0145,318 215.5,318 C217.9855,318 220,320.016035 220,322.500432 M220,309.501296 C220,311.986558 217.9855,314 215.5,314 C213.0145,314 211,311.986558 211,309.501296 C211,307.016035 213.0145,305 215.5,305 C217.9855,305 220,307.016035 220,309.501296 M220,296.5 C220,298.986365 217.9855,301 215.5,301 C213.0145,301 211,298.986365 211,296.5 C211,294.013635 213.0145,292 215.5,292 C217.9855,292 220,294.013635 220,296.5 M220,285.499568 C220,287.986558 217.9855,290 215.5,290 C213.0145,290 211,287.986558 211,285.499568 C211,283.016035 213.0145,281 215.5,281 C217.9855,281 220,283.016035 220,285.499568 M232,285.499568 C232,287.986558 229.9855,290 227.5,290 C225.015364,290 223,287.986558 223,285.499568 C223,283.016035 225.015364,281 227.5,281 C229.9855,281 232,283.016035 232,285.499568 M232,296.5 C232,298.986365 229.9855,301 227.5,301 C225.015364,301 223,298.986365 223,296.5 C223,294.013635 225.015364,292 227.5,292 C229.9855,292 232,294.013635 232,296.5 M244,285.499568 C244,287.986558 241.9855,290 239.5,290 C237.015364,290 235,287.986558 235,285.499568 C235,283.016035 237.015364,281 239.5,281 C241.9855,281 244,283.016035 244,285.499568 M220,273.5 C220,275.986365 217.9855,278 215.5,278 C213.0145,278 211,275.986365 211,273.5 C211,271.015364 213.0145,269 215.5,269 C217.9855,269 220,271.015364 220,273.5 M232,273.5 C232,275.986365 229.9855,278 227.5,278 C225.015364,278 223,275.986365 223,273.5 C223,271.015364 225.015364,269 227.5,269 C229.9855,269 232,271.015364 232,273.5 M244,273.5 C244,275.986365 241.9855,278 239.5,278 C237.015364,278 235,275.986365 235,273.5 C235,271.015364 237.015364,269 239.5,269 C241.9855,269 244,271.015364 244,273.5 M258,273.5 C258,275.986365 255.984636,278 253.5,278 C251.015364,278 249,275.986365 249,273.5 C249,271.015364 251.015364,269 253.5,269 C255.984636,269 258,271.015364 258,273.5 M220,261.5 C220,263.987229 217.9855,266 215.5,266 C213.0145,266 211,263.987229 211,261.5 C211,259.015364 213.0145,257 215.5,257 C217.9855,257 220,259.015364 220,261.5 M208,261.5 C208,263.987229 205.9855,266 203.500864,266 C201.015364,266 199,263.987229 199,261.5 C199,259.015364 201.015364,257 203.500864,257 C205.9855,257 208,259.015364 208,261.5 M232,261.5 C232,263.987229 229.9855,266 227.5,266 C225.015364,266 223,263.987229 223,261.5 C223,259.015364 225.015364,257 227.5,257 C229.9855,257 232,259.015364 232,261.5 M244,261.5 C244,263.987229 241.9855,266 239.5,266 C237.015364,266 235,263.987229 235,261.5 C235,259.015364 237.015364,257 239.5,257 C241.9855,257 244,259.015364 244,261.5 M258,261.5 C258,263.987229 255.984636,266 253.5,266 C251.015364,266 249,263.987229 249,261.5 C249,259.015364 251.015364,257 253.5,257 C255.984636,257 258,259.015364 258,261.5 M220,249.500864 C220,251.987229 217.9855,254 215.5,254 C213.0145,254 211,251.987229 211,249.500864 C211,247.016228 213.0145,245 215.5,245 C217.9855,245 220,247.016228 220,249.500864 M208,249.500864 C208,251.987229 205.9855,254 203.500864,254 C201.015364,254 199,251.987229 199,249.500864 C199,247.016228 201.015364,245 203.500864,245 C205.9855,245 208,247.016228 208,249.500864 M197,249.500864 C197,251.987229 194.9855,254 192.5,254 C190.015364,254 188,251.987229 188,249.500864 C188,247.016228 190.015364,245 192.5,245 C194.9855,245 197,247.016228 197,249.500864 M232,249.500864 C232,251.987229 229.9855,254 227.5,254 C225.015364,254 223,251.987229 223,249.500864 C223,247.016228 225.015364,245 227.5,245 C229.9855,245 232,247.016228 232,249.500864 M220,235.501296 C220,237.986171 217.9855,240 215.5,240 C213.0145,240 211,237.986171 211,235.501296 C211,233.014693 213.0145,231 215.5,231 C217.9855,231 220,233.014693 220,235.501296 M208,235.501296 C208,237.986171 205.9855,240 203.500864,240 C201.015364,240 199,237.986171 199,235.501296 C199,233.014693 201.015364,231 203.500864,231 C205.9855,231 208,233.014693 208,235.501296 M197,235.501296 C197,237.986171 194.9855,240 192.5,240 C190.015364,240 188,237.986171 188,235.501296 C188,233.014693 190.015364,231 192.5,231 C194.9855,231 197,233.014693 197,235.501296 M232,235.501296 C232,237.986171 229.9855,240 227.5,240 C225.015364,240 223,237.986171 223,235.501296 C223,233.014693 225.015364,231 227.5,231 C229.9855,231 232,233.014693 232,235.501296 M220,224.499568 C220,226.986558 217.9855,229 215.5,229 C213.0145,229 211,226.986558 211,224.499568 C211,222.01517 213.0145,220 215.5,220 C217.9855,220 220,222.01517 220,224.499568 M208,224.499568 C208,226.986558 205.9855,229 203.500864,229 C201.015364,229 199,226.986558 199,224.499568 C199,222.01517 201.015364,220 203.500864,220 C205.9855,220 208,222.01517 208,224.499568 M197,224.499568 C197,226.986558 194.9855,229 192.5,229 C190.015364,229 188,226.986558 188,224.499568 C188,222.01517 190.015364,220 192.5,220 C194.9855,220 197,222.01517 197,224.499568 M194,212.499136 C194,214.986365 191.98483,217 189.500432,217 C187.016035,217 185,214.986365 185,212.499136 C185,210.013635 187.016035,208 189.500432,208 C191.98483,208 194,210.013635 194,212.499136 M182,212.499136 C182,214.986365 179.986365,217 177.5,217 C175.015364,217 173,214.986365 173,212.499136 C173,210.013635 175.015364,208 177.5,208 C179.986365,208 182,210.013635 182,212.499136 M171,200.499568 C171,202.987035 168.986171,205 166.500432,205 C164.015557,205 162,202.987035 162,200.499568 C162,198.014693 164.015557,196 166.500432,196 C168.986171,196 171,198.014693 171,200.499568 M159,200.499568 C159,202.987035 156.983965,205 154.499568,205 C152.014306,205 150,202.987035 150,200.499568 C150,198.014693 152.014306,196 154.499568,196 C156.983965,196 159,198.014693 159,200.499568 M171,188.499568 C171,190.986558 168.986171,193 166.500432,193 C164.015557,193 162,190.986558 162,188.499568 C162,186.01517 164.015557,184 166.500432,184 C168.986171,184 171,186.01517 171,188.499568 M159,188.499568 C159,190.986558 156.983965,193 154.499568,193 C152.014306,193 150,190.986558 150,188.499568 C150,186.01517 152.014306,184 154.499568,184 C156.983965,184 159,186.01517 159,188.499568 M148,188.499568 C148,190.986558 145.98483,193 143.500432,193 C141.01517,193 139,190.986558 139,188.499568 C139,186.01517 141.01517,184 143.500432,184 C145.98483,184 148,186.01517 148,188.499568 M171,176.500432 C171,178.987035 168.986171,181 166.500432,181 C164.015557,181 162,178.987035 162,176.500432 C162,174.015557 164.015557,172 166.500432,172 C168.986171,172 171,174.015557 171,176.500432 M159,176.500432 C159,178.987035 156.983965,181 154.499568,181 C152.014306,181 150,178.987035 150,176.500432 C150,174.015557 152.014306,172 154.499568,172 C156.983965,172 159,174.015557 159,176.500432 M148,176.500432 C148,178.987035 145.98483,181 143.500432,181 C141.01517,181 139,178.987035 139,176.500432 C139,174.015557 141.01517,172 143.500432,172 C145.98483,172 148,174.015557 148,176.500432 M136,176.500432 C136,178.987035 133.9855,181 131.5,181 C129.015364,181 127,178.987035 127,176.500432 C127,174.015557 129.015364,172 131.5,172 C133.9855,172 136,174.015557 136,176.500432 M207,176.500432 C207,178.987035 204.985694,181 202.499568,181 C200.01517,181 198,178.987035 198,176.500432 C198,174.015557 200.01517,172 202.499568,172 C204.985694,172 207,174.015557 207,176.500432 M196,176.500432 C196,178.987035 193.9855,181 191.5,181 C189.013635,181 187,178.987035 187,176.500432 C187,174.015557 189.013635,172 191.5,172 C193.9855,172 196,174.015557 196,176.500432 M183,176.500432 C183,178.987035 180.984636,181 178.5,181 C176.0145,181 174,178.987035 174,176.500432 C174,174.015557 176.0145,172 178.5,172 C180.984636,172 183,174.015557 183,176.500432 M171,163.5 C171,165.9855 168.986171,168 166.500432,168 C164.015557,168 162,165.9855 162,163.5 C162,161.013635 164.015557,159 166.500432,159 C168.986171,159 171,161.013635 171,163.5 M159,163.5 C159,165.9855 156.983965,168 154.499568,168 C152.014306,168 150,165.9855 150,163.5 C150,161.013635 152.014306,159 154.499568,159 C156.983965,159 159,161.013635 159,163.5 M148,163.5 C148,165.9855 145.98483,168 143.500432,168 C141.01517,168 139,165.9855 139,163.5 C139,161.013635 141.01517,159 143.500432,159 C145.98483,159 148,161.013635 148,163.5 M136,163.5 C136,165.9855 133.9855,168 131.5,168 C129.015364,168 127,165.9855 127,163.5 C127,161.013635 129.015364,159 131.5,159 C133.9855,159 136,161.013635 136,163.5 M207,163.5 C207,165.9855 204.985694,168 202.499568,168 C200.01517,168 198,165.9855 198,163.5 C198,161.013635 200.01517,159 202.499568,159 C204.985694,159 207,161.013635 207,163.5 M196,163.5 C196,165.9855 193.9855,168 191.5,168 C189.013635,168 187,165.9855 187,163.5 C187,161.013635 189.013635,159 191.5,159 C193.9855,159 196,161.013635 196,163.5 M183,163.5 C183,165.9855 180.984636,168 178.5,168 C176.0145,168 174,165.9855 174,163.5 C174,161.013635 176.0145,159 178.5,159 C180.984636,159 183,161.013635 183,163.5 M171,150.5 C171,152.986365 168.986171,155 166.500432,155 C164.015557,155 162,152.986365 162,150.5 C162,148.013635 164.015557,146 166.500432,146 C168.986171,146 171,148.013635 171,150.5 M159,150.5 C159,152.986365 156.983965,155 154.499568,155 C152.014306,155 150,152.986365 150,150.5 C150,148.013635 152.014306,146 154.499568,146 C156.983965,146 159,148.013635 159,150.5 M148,150.5 C148,152.986365 145.98483,155 143.500432,155 C141.01517,155 139,152.986365 139,150.5 C139,148.013635 141.01517,146 143.500432,146 C145.98483,146 148,148.013635 148,150.5 M136,150.5 C136,152.986365 133.9855,155 131.5,155 C129.015364,155 127,152.986365 127,150.5 C127,148.013635 129.015364,146 131.5,146 C133.9855,146 136,148.013635 136,150.5 M207,150.5 C207,152.986365 204.985694,155 202.499568,155 C200.01517,155 198,152.986365 198,150.5 C198,148.013635 200.01517,146 202.499568,146 C204.985694,146 207,148.013635 207,150.5 M220,150.5 C220,152.986365 217.984636,155 215.5,155 C213.015364,155 211,152.986365 211,150.5 C211,148.013635 213.015364,146 215.5,146 C217.984636,146 220,148.013635 220,150.5 M232,150.5 C232,152.986365 229.984636,155 227.5,155 C225.013635,155 223,152.986365 223,150.5 C223,148.013635 225.013635,146 227.5,146 C229.984636,146 232,148.013635 232,150.5 M196,150.5 C196,152.986365 193.9855,155 191.5,155 C189.013635,155 187,152.986365 187,150.5 C187,148.013635 189.013635,146 191.5,146 C193.9855,146 196,148.013635 196,150.5 M183,150.5 C183,152.986365 180.984636,155 178.5,155 C176.0145,155 174,152.986365 174,150.5 C174,148.013635 176.0145,146 178.5,146 C180.984636,146 183,148.013635 183,150.5 M171,139.500432 C171,141.98483 168.986171,144 166.500432,144 C164.015557,144 162,141.98483 162,139.500432 C162,137.013442 164.015557,135 166.500432,135 C168.986171,135 171,137.013442 171,139.500432 M159,139.500432 C159,141.98483 156.983965,144 154.499568,144 C152.014306,144 150,141.98483 150,139.500432 C150,137.013442 152.014306,135 154.499568,135 C156.983965,135 159,137.013442 159,139.500432 M148,139.500432 C148,141.98483 145.98483,144 143.500432,144 C141.01517,144 139,141.98483 139,139.500432 C139,137.013442 141.01517,135 143.500432,135 C145.98483,135 148,137.013442 148,139.500432 M136,139.500432 C136,141.98483 133.9855,144 131.5,144 C129.015364,144 127,141.98483 127,139.500432 C127,137.013442 129.015364,135 131.5,135 C133.9855,135 136,137.013442 136,139.500432 M122,139.500432 C122,141.98483 119.984636,144 117.5,144 C115.015364,144 113,141.98483 113,139.500432 C113,137.013442 115.015364,135 117.5,135 C119.984636,135 122,137.013442 122,139.500432 M207,139.500432 C207,141.98483 204.985694,144 202.499568,144 C200.01517,144 198,141.98483 198,139.500432 C198,137.013442 200.01517,135 202.499568,135 C204.985694,135 207,137.013442 207,139.500432 M220,139.500432 C220,141.98483 217.984636,144 215.5,144 C213.015364,144 211,141.98483 211,139.500432 C211,137.013442 213.015364,135 215.5,135 C217.984636,135 220,137.013442 220,139.500432 M232,139.500432 C232,141.98483 229.984636,144 227.5,144 C225.013635,144 223,141.98483 223,139.500432 C223,137.013442 225.013635,135 227.5,135 C229.984636,135 232,137.013442 232,139.500432 M196,139.500432 C196,141.98483 193.9855,144 191.5,144 C189.013635,144 187,141.98483 187,139.500432 C187,137.013442 189.013635,135 191.5,135 C193.9855,135 196,137.013442 196,139.500432 M183,139.500432 C183,141.98483 180.984636,144 178.5,144 C176.0145,144 174,141.98483 174,139.500432 C174,137.013442 176.0145,135 178.5,135 C180.984636,135 183,137.013442 183,139.500432 M110,113.499568 C110,115.986171 107.984636,118 105.500864,118 C103.0145,118 101,115.986171 101,113.499568 C101,111.013829 103.0145,109 105.500864,109 C107.984636,109 110,111.013829 110,113.499568 M98,113.499568 C98,115.986171 95.9846361,118 93.5,118 C91.0144997,118 89,115.986171 89,113.499568 C89,111.013829 91.0144997,109 93.5,109 C95.9846361,109 98,111.013829 98,113.499568 M87,113.499568 C87,115.986171 84.9846361,118 82.5,118 C80.0144997,118 78,115.986171 78,113.499568 C78,111.013829 80.0144997,109 82.5,109 C84.9846361,109 87,111.013829 87,113.499568 M75,113.499568 C75,115.986171 72.9848296,118 70.4995679,118 C68.0151704,118 66,115.986171 66,113.499568 C66,111.013829 68.0151704,109 70.4995679,109 C72.9848296,109 75,111.013829 75,113.499568 M75,126.499136 C75,128.985023 72.9848296,131 70.4995679,131 C68.0151704,131 66,128.985023 66,126.499136 C66,124.014977 68.0151704,122 70.4995679,122 C72.9848296,122 75,124.014977 75,126.499136 M146,113.499568 C146,115.986171 143.98483,118 141.499568,118 C139.01517,118 137,115.986171 137,113.499568 C137,111.013829 139.01517,109 141.499568,109 C143.98483,109 146,111.013829 146,113.499568 M159,113.499568 C159,115.986171 156.983965,118 154.499568,118 C152.014306,118 150,115.986171 150,113.499568 C150,111.013829 152.014306,109 154.499568,109 C156.983965,109 159,111.013829 159,113.499568 M171,113.499568 C171,115.986171 168.986171,118 166.500432,118 C164.015557,118 162,115.986171 162,113.499568 C162,111.013829 164.015557,109 166.500432,109 C168.986171,109 171,111.013829 171,113.499568 M135,113.499568 C135,115.986171 132.9855,118 130.5,118 C128.015364,118 126,115.986171 126,113.499568 C126,111.013829 128.015364,109 130.5,109 C132.9855,109 135,111.013829 135,113.499568 M122,113.499568 C122,115.986171 119.984636,118 117.5,118 C115.015364,118 113,115.986171 113,113.499568 C113,111.013829 115.015364,109 117.5,109 C119.984636,109 122,111.013829 122,113.499568 M110,102.5 C110,104.986365 107.984636,107 105.500864,107 C103.0145,107 101,104.986365 101,102.5 C101,100.013635 103.0145,98 105.500864,98 C107.984636,98 110,100.013635 110,102.5 M98,102.5 C98,104.986365 95.9846361,107 93.5,107 C91.0144997,107 89,104.986365 89,102.5 C89,100.013635 91.0144997,98 93.5,98 C95.9846361,98 98,100.013635 98,102.5 M87,102.5 C87,104.986365 84.9846361,107 82.5,107 C80.0144997,107 78,104.986365 78,102.5 C78,100.013635 80.0144997,98 82.5,98 C84.9846361,98 87,100.013635 87,102.5 M75,102.5 C75,104.986365 72.9848296,107 70.4995679,107 C68.0151704,107 66,104.986365 66,102.5 C66,100.013635 68.0151704,98 70.4995679,98 C72.9848296,98 75,100.013635 75,102.5 M146,102.5 C146,104.986365 143.98483,107 141.499568,107 C139.01517,107 137,104.986365 137,102.5 C137,100.013635 139.01517,98 141.499568,98 C143.98483,98 146,100.013635 146,102.5 M159,102.5 C159,104.986365 156.983965,107 154.499568,107 C152.014306,107 150,104.986365 150,102.5 C150,100.013635 152.014306,98 154.499568,98 C156.983965,98 159,100.013635 159,102.5 M171,102.5 C171,104.986365 168.986171,107 166.500432,107 C164.015557,107 162,104.986365 162,102.5 C162,100.013635 164.015557,98 166.500432,98 C168.986171,98 171,100.013635 171,102.5 M183,102.5 C183,104.986365 180.984636,107 178.5,107 C176.0145,107 174,104.986365 174,102.5 C174,100.013635 176.0145,98 178.5,98 C180.984636,98 183,100.013635 183,102.5 M135,102.5 C135,104.986365 132.9855,107 130.5,107 C128.015364,107 126,104.986365 126,102.5 C126,100.013635 128.015364,98 130.5,98 C132.9855,98 135,100.013635 135,102.5 M122,102.5 C122,104.986365 119.984636,107 117.5,107 C115.015364,107 113,104.986365 113,102.5 C113,100.013635 115.015364,98 117.5,98 C119.984636,98 122,100.013635 122,102.5 M110,90.4987038 C110,92.9848296 107.984636,95 105.500864,95 C103.0145,95 101,92.9848296 101,90.4987038 C101,88.0143063 103.0145,86 105.500864,86 C107.984636,86 110,88.0143063 110,90.4987038 M98,90.4987038 C98,92.9848296 95.9846361,95 93.5,95 C91.0144997,95 89,92.9848296 89,90.4987038 C89,88.0143063 91.0144997,86 93.5,86 C95.9846361,86 98,88.0143063 98,90.4987038 M87,90.4987038 C87,92.9848296 84.9846361,95 82.5,95 C80.0144997,95 78,92.9848296 78,90.4987038 C78,88.0143063 80.0144997,86 82.5,86 C84.9846361,86 87,88.0143063 87,90.4987038 M75,90.4987038 C75,92.9848296 72.9848296,95 70.4995679,95 C68.0151704,95 66,92.9848296 66,90.4987038 C66,88.0143063 68.0151704,86 70.4995679,86 C72.9848296,86 75,88.0143063 75,90.4987038 M63,90.4987038 C63,92.9848296 60.9846361,95 58.5,95 C56.0144997,95 54,92.9848296 54,90.4987038 C54,88.0143063 56.0144997,86 58.5,86 C60.9846361,86 63,88.0143063 63,90.4987038 M146,90.4987038 C146,92.9848296 143.98483,95 141.499568,95 C139.01517,95 137,92.9848296 137,90.4987038 C137,88.0143063 139.01517,86 141.499568,86 C143.98483,86 146,88.0143063 146,90.4987038 M159,90.4987038 C159,92.9848296 156.983965,95 154.499568,95 C152.014306,95 150,92.9848296 150,90.4987038 C150,88.0143063 152.014306,86 154.499568,86 C156.983965,86 159,88.0143063 159,90.4987038 M171,90.4987038 C171,92.9848296 168.986171,95 166.500432,95 C164.015557,95 162,92.9848296 162,90.4987038 C162,88.0143063 164.015557,86 166.500432,86 C168.986171,86 171,88.0143063 171,90.4987038 M183,90.4987038 C183,92.9848296 180.984636,95 178.5,95 C176.0145,95 174,92.9848296 174,90.4987038 C174,88.0143063 176.0145,86 178.5,86 C180.984636,86 183,88.0143063 183,90.4987038 M135,90.4987038 C135,92.9848296 132.9855,95 130.5,95 C128.015364,95 126,92.9848296 126,90.4987038 C126,88.0143063 128.015364,86 130.5,86 C132.9855,86 135,88.0143063 135,90.4987038 M122,90.4987038 C122,92.9848296 119.984636,95 117.5,95 C115.015364,95 113,92.9848296 113,90.4987038 C113,88.0143063 115.015364,86 117.5,86 C119.984636,86 122,88.0143063 122,90.4987038 M402,90.4987038 C402,92.9848296 399.984636,95 397.5,95 C395.017092,95 393,92.9848296 393,90.4987038 C393,88.0143063 395.017092,86 397.5,86 C399.984636,86 402,88.0143063 402,90.4987038 M391,90.4987038 C391,92.9848296 388.983772,95 386.5,95 C384.016228,95 382,92.9848296 382,90.4987038 C382,88.0143063 384.016228,86 386.5,86 C388.983772,86 391,88.0143063 391,90.4987038 M378,90.4987038 C378,92.9848296 375.983965,95 373.499568,95 C371.01517,95 369,92.9848296 369,90.4987038 C369,88.0143063 371.01517,86 373.499568,86 C375.983965,86 378,88.0143063 378,90.4987038 M366,90.4987038 C366,92.9848296 363.983489,95 361.501296,95 C359.016511,95 357,92.9848296 357,90.4987038 C357,88.0143063 359.016511,86 361.501296,86 C363.983489,86 366,88.0143063 366,90.4987038 M378,78.5 C378,80.9846361 375.983965,83 373.499568,83 C371.01517,83 369,80.9846361 369,78.5 C369,76.0144997 371.01517,74 373.499568,74 C375.983965,74 378,76.0144997 378,78.5 M366,78.5 C366,80.9846361 363.983489,83 361.501296,83 C359.016511,83 357,80.9846361 357,78.5 C357,76.0144997 359.016511,74 361.501296,74 C363.983489,74 366,76.0144997 366,78.5 M354,90.4987038 C354,92.9848296 351.983965,95 349.500432,95 C347.01517,95 345,92.9848296 345,90.4987038 C345,88.0143063 347.01517,86 349.500432,86 C351.983965,86 354,88.0143063 354,90.4987038 M438,90.4987038 C438,92.9848296 435.984636,95 433.5,95 C431.015364,95 429,92.9848296 429,90.4987038 C429,88.0143063 431.015364,86 433.5,86 C435.984636,86 438,88.0143063 438,90.4987038 M451,90.4987038 C451,92.9848296 448.984636,95 446.5,95 C444.015364,95 442,92.9848296 442,90.4987038 C442,88.0143063 444.015364,86 446.5,86 C448.984636,86 451,88.0143063 451,90.4987038 M462,90.4987038 C462,92.9848296 459.983772,95 457.5,95 C455.0145,95 453,92.9848296 453,90.4987038 C453,88.0143063 455.0145,86 457.5,86 C459.983772,86 462,88.0143063 462,90.4987038 M475,90.4987038 C475,92.9848296 472.983772,95 470.5,95 C468.016228,95 466,92.9848296 466,90.4987038 C466,88.0143063 468.016228,86 470.5,86 C472.983772,86 475,88.0143063 475,90.4987038 M426,90.4987038 C426,92.9848296 423.98483,95 421.499568,95 C419.01517,95 417,92.9848296 417,90.4987038 C417,88.0143063 419.01517,86 421.499568,86 C423.98483,86 426,88.0143063 426,90.4987038 M414,90.4987038 C414,92.9848296 411.9855,95 409.5,95 C407.015364,95 405,92.9848296 405,90.4987038 C405,88.0143063 407.015364,86 409.5,86 C411.9855,86 414,88.0143063 414,90.4987038 M536,90.4987038 C536,92.9848296 533.982908,95 531.5,95 C529.015364,95 527,92.9848296 527,90.4987038 C527,88.0143063 529.015364,86 531.5,86 C533.982908,86 536,88.0143063 536,90.4987038 M525,90.4987038 C525,92.9848296 522.983772,95 520.5,95 C518.015364,95 516,92.9848296 516,90.4987038 C516,88.0143063 518.015364,86 520.5,86 C522.983772,86 525,88.0143063 525,90.4987038 M512,90.4987038 C512,92.9848296 509.984443,95 507.499568,95 C505.014693,95 503,92.9848296 503,90.4987038 C503,88.0143063 505.014693,86 507.499568,86 C509.984443,86 512,88.0143063 512,90.4987038 M500,90.4987038 C500,92.9848296 497.98483,95 495.499568,95 C493.016035,95 491,92.9848296 491,90.4987038 C491,88.0143063 493.016035,86 495.499568,86 C497.98483,86 500,88.0143063 500,90.4987038 M488,90.4987038 C488,92.9848296 485.984636,95 483.500864,95 C481.016228,95 479,92.9848296 479,90.4987038 C479,88.0143063 481.016228,86 483.500864,86 C485.984636,86 488,88.0143063 488,90.4987038 M572,90.4987038 C572,92.9848296 569.9855,95 567.5,95 C565.017092,95 563,92.9848296 563,90.4987038 C563,88.0143063 565.017092,86 567.5,86 C569.9855,86 572,88.0143063 572,90.4987038 M585,90.4987038 C585,92.9848296 582.983101,95 580.500432,95 C578.016035,95 576,92.9848296 576,90.4987038 C576,88.0143063 578.016035,86 580.500432,86 C582.983101,86 585,88.0143063 585,90.4987038 M596,90.4987038 C596,92.9848296 593.983772,95 591.5,95 C589.016228,95 587,92.9848296 587,90.4987038 C587,88.0143063 589.016228,86 591.5,86 C593.983772,86 596,88.0143063 596,90.4987038 M609,90.4987038 C609,92.9848296 606.984443,95 604.499568,95 C602.015557,95 600,92.9848296 600,90.4987038 C600,88.0143063 602.015557,86 604.499568,86 C606.984443,86 609,88.0143063 609,90.4987038 M622,90.4987038 C622,92.9848296 619.982908,95 617.499136,95 C615.015364,95 613,92.9848296 613,90.4987038 C613,88.0143063 615.015364,86 617.499136,86 C619.982908,86 622,88.0143063 622,90.4987038 M634,90.4987038 C634,92.9848296 631.98483,95 629.499568,95 C627.016035,95 625,92.9848296 625,90.4987038 C625,88.0143063 627.016035,86 629.499568,86 C631.98483,86 634,88.0143063 634,90.4987038 M560,90.4987038 C560,92.9848296 557.983965,95 555.499568,95 C553.016035,95 551,92.9848296 551,90.4987038 C551,88.0143063 553.016035,86 555.499568,86 C557.983965,86 560,88.0143063 560,90.4987038 M548,90.4987038 C548,92.9848296 545.984443,95 543.499568,95 C541.016422,95 539,92.9848296 539,90.4987038 C539,88.0143063 541.016422,86 543.499568,86 C545.984443,86 548,88.0143063 548,90.4987038 M354,138.500864 C354,140.986842 351.983965,143 349.500432,143 C347.01517,143 345,140.986842 345,138.500864 C345,136.014887 347.01517,134 349.500432,134 C351.983965,134 354,136.014887 354,138.500864 M343,138.500864 C343,140.986842 340.983772,143 338.5,143 C336.015364,143 334,140.986842 334,138.500864 C334,136.014887 336.015364,134 338.5,134 C340.983772,134 343,136.014887 343,138.500864 M331,138.500864 C331,140.986842 328.984636,143 326.5,143 C324.015364,143 322,140.986842 322,138.500864 C322,136.014887 324.015364,134 326.5,134 C328.984636,134 331,136.014887 331,138.500864 M319,138.500864 C319,140.986842 316.983965,143 314.499568,143 C312.01517,143 310,140.986842 310,138.500864 C310,136.014887 312.01517,134 314.499568,134 C316.983965,134 319,136.014887 319,138.500864 M319,126.499136 C319,128.985023 316.983965,131 314.499568,131 C312.01517,131 310,128.985023 310,126.499136 C310,124.014977 312.01517,122 314.499568,122 C316.983965,122 319,124.014977 319,126.499136 M306,138.500864 C306,140.986842 303.983101,143 301.500432,143 C299.01517,143 297,140.986842 297,138.500864 C297,136.014887 299.01517,134 301.500432,134 C303.983101,134 306,136.014887 306,138.500864 M391,138.500864 C391,140.986842 388.983772,143 386.5,143 C384.016228,143 382,140.986842 382,138.500864 C382,136.014887 384.016228,134 386.5,134 C388.983772,134 391,136.014887 391,138.500864 M404,138.500864 C404,140.986842 401.983772,143 399.5,143 C397.0145,143 395,140.986842 395,138.500864 C395,136.014887 397.0145,134 399.5,134 C401.983772,134 404,136.014887 404,138.500864 M415,138.500864 C415,140.986842 412.983965,143 410.500432,143 C408.016035,143 406,140.986842 406,138.500864 C406,136.014887 408.016035,134 410.500432,134 C412.983965,134 415,136.014887 415,138.500864 M427,138.500864 C427,140.986842 424.9855,143 422.5,143 C420.016228,143 418,140.986842 418,138.500864 C418,136.014887 420.016228,134 422.5,134 C424.9855,134 427,136.014887 427,138.500864 M378,138.500864 C378,140.986842 375.983965,143 373.499568,143 C371.01517,143 369,140.986842 369,138.500864 C369,136.014887 371.01517,134 373.499568,134 C375.983965,134 378,136.014887 378,138.500864 M366,138.500864 C366,140.986842 363.983489,143 361.501296,143 C359.016511,143 357,140.986842 357,138.500864 C357,136.014887 359.016511,134 361.501296,134 C363.983489,134 366,136.014887 366,138.500864 M488,138.500864 C488,140.986842 485.984636,143 483.500864,143 C481.016228,143 479,140.986842 479,138.500864 C479,136.014887 481.016228,134 483.500864,134 C485.984636,134 488,136.014887 488,138.500864 M477,138.500864 C477,140.986842 474.9855,143 472.5,143 C470.017092,143 468,140.986842 468,138.500864 C468,136.014887 470.017092,134 472.5,134 C474.9855,134 477,136.014887 477,138.500864 M465,138.500864 C465,140.986842 462.98483,143 460.499568,143 C458.016035,143 456,140.986842 456,138.500864 C456,136.014887 458.016035,134 460.499568,134 C462.98483,134 465,136.014887 465,138.500864 M453,138.500864 C453,140.986842 450.983772,143 448.5,143 C446.016228,143 444,140.986842 444,138.500864 C444,136.014887 446.016228,134 448.5,134 C450.983772,134 453,136.014887 453,138.500864 M440,138.500864 C440,140.986842 437.982908,143 435.500864,143 C433.015364,143 431,140.986842 431,138.500864 C431,136.014887 433.015364,134 435.500864,134 C437.982908,134 440,136.014887 440,138.500864 M525,138.500864 C525,140.986842 522.983772,143 520.5,143 C518.015364,143 516,140.986842 516,138.500864 C516,136.014887 518.015364,134 520.5,134 C522.983772,134 525,136.014887 525,138.500864 M538,138.500864 C538,140.986842 535.984636,143 533.5,143 C531.015364,143 529,140.986842 529,138.500864 C529,136.014887 531.015364,134 533.5,134 C535.984636,134 538,136.014887 538,138.500864 M549,138.500864 C549,140.986842 546.986171,143 544.500432,143 C542.015557,143 540,140.986842 540,138.500864 C540,136.014887 542.015557,134 544.500432,134 C546.986171,134 549,136.014887 549,138.500864 M587,122.500432 C587,124.985694 584.985307,127 582.499568,127 C580.016422,127 578,124.985694 578,122.500432 C578,120.013442 580.016422,118 582.499568,118 C584.985307,118 587,120.013442 587,122.500432 M585,139.500432 C585,141.98483 582.983101,144 580.500432,144 C578.016035,144 576,141.98483 576,139.500432 C576,137.013442 578.016035,135 580.500432,135 C582.983101,135 585,137.013442 585,139.500432 M560,163.5 C560,165.9855 557.983965,168 555.499568,168 C553.016035,168 551,165.9855 551,163.5 C551,161.013635 553.016035,159 555.499568,159 C557.983965,159 560,161.013635 560,163.5 M549,176.500432 C549,178.987035 546.986171,181 544.500432,181 C542.015557,181 540,178.987035 540,176.500432 C540,174.015557 542.015557,172 544.500432,172 C546.986171,172 549,174.015557 549,176.500432 M512,138.500864 C512,140.986842 509.984443,143 507.499568,143 C505.014693,143 503,140.986842 503,138.500864 C503,136.014887 505.014693,134 507.499568,134 C509.984443,134 512,136.014887 512,138.500864 M500,138.500864 C500,140.986842 497.98483,143 495.499568,143 C493.016035,143 491,140.986842 491,138.500864 C491,136.014887 493.016035,134 495.499568,134 C497.98483,134 500,136.014887 500,138.500864 M354,151.499136 C354,153.9855 351.983965,156 349.500432,156 C347.01517,156 345,153.9855 345,151.499136 C345,149.013635 347.01517,147 349.500432,147 C351.983965,147 354,149.013635 354,151.499136 M343,151.499136 C343,153.9855 340.983772,156 338.5,156 C336.015364,156 334,153.9855 334,151.499136 C334,149.013635 336.015364,147 338.5,147 C340.983772,147 343,149.013635 343,151.499136 M331,151.499136 C331,153.9855 328.984636,156 326.5,156 C324.015364,156 322,153.9855 322,151.499136 C322,149.013635 324.015364,147 326.5,147 C328.984636,147 331,149.013635 331,151.499136 M319,151.499136 C319,153.9855 316.983965,156 314.499568,156 C312.01517,156 310,153.9855 310,151.499136 C310,149.013635 312.01517,147 314.499568,147 C316.983965,147 319,149.013635 319,151.499136 M391,151.499136 C391,153.9855 388.983772,156 386.5,156 C384.016228,156 382,153.9855 382,151.499136 C382,149.013635 384.016228,147 386.5,147 C388.983772,147 391,149.013635 391,151.499136 M404,151.499136 C404,153.9855 401.983772,156 399.5,156 C397.0145,156 395,153.9855 395,151.499136 C395,149.013635 397.0145,147 399.5,147 C401.983772,147 404,149.013635 404,151.499136 M415,151.499136 C415,153.9855 412.983965,156 410.500432,156 C408.016035,156 406,153.9855 406,151.499136 C406,149.013635 408.016035,147 410.500432,147 C412.983965,147 415,149.013635 415,151.499136 M427,151.499136 C427,153.9855 424.9855,156 422.5,156 C420.016228,156 418,153.9855 418,151.499136 C418,149.013635 420.016228,147 422.5,147 C424.9855,147 427,149.013635 427,151.499136 M378,151.499136 C378,153.9855 375.983965,156 373.499568,156 C371.01517,156 369,153.9855 369,151.499136 C369,149.013635 371.01517,147 373.499568,147 C375.983965,147 378,149.013635 378,151.499136 M366,151.499136 C366,153.9855 363.983489,156 361.501296,156 C359.016511,156 357,153.9855 357,151.499136 C357,149.013635 359.016511,147 361.501296,147 C363.983489,147 366,149.013635 366,151.499136 M488,151.499136 C488,153.9855 485.984636,156 483.500864,156 C481.016228,156 479,153.9855 479,151.499136 C479,149.013635 481.016228,147 483.500864,147 C485.984636,147 488,149.013635 488,151.499136 M477,151.499136 C477,153.9855 474.9855,156 472.5,156 C470.017092,156 468,153.9855 468,151.499136 C468,149.013635 470.017092,147 472.5,147 C474.9855,147 477,149.013635 477,151.499136 M465,151.499136 C465,153.9855 462.98483,156 460.499568,156 C458.016035,156 456,153.9855 456,151.499136 C456,149.013635 458.016035,147 460.499568,147 C462.98483,147 465,149.013635 465,151.499136 M453,151.499136 C453,153.9855 450.983772,156 448.5,156 C446.016228,156 444,153.9855 444,151.499136 C444,149.013635 446.016228,147 448.5,147 C450.983772,147 453,149.013635 453,151.499136 M440,151.499136 C440,153.9855 437.982908,156 435.500864,156 C433.015364,156 431,153.9855 431,151.499136 C431,149.013635 433.015364,147 435.500864,147 C437.982908,147 440,149.013635 440,151.499136 M525,151.499136 C525,153.9855 522.983772,156 520.5,156 C518.015364,156 516,153.9855 516,151.499136 C516,149.013635 518.015364,147 520.5,147 C522.983772,147 525,149.013635 525,151.499136 M538,151.499136 C538,153.9855 535.984636,156 533.5,156 C531.015364,156 529,153.9855 529,151.499136 C529,149.013635 531.015364,147 533.5,147 C535.984636,147 538,149.013635 538,151.499136 M549,151.499136 C549,153.9855 546.986171,156 544.500432,156 C542.015557,156 540,153.9855 540,151.499136 C540,149.013635 542.015557,147 544.500432,147 C546.986171,147 549,149.013635 549,151.499136 M512,151.499136 C512,153.9855 509.984443,156 507.499568,156 C505.014693,156 503,153.9855 503,151.499136 C503,149.013635 505.014693,147 507.499568,147 C509.984443,147 512,149.013635 512,151.499136 M500,151.499136 C500,153.9855 497.98483,156 495.499568,156 C493.016035,156 491,153.9855 491,151.499136 C491,149.013635 493.016035,147 495.499568,147 C497.98483,147 500,149.013635 500,151.499136 M319,186.5 C319,188.9855 316.983965,191 314.499568,191 C312.01517,191 310,188.9855 310,186.5 C310,184.012771 312.01517,182 314.499568,182 C316.983965,182 319,184.012771 319,186.5 M306,186.5 C306,188.9855 303.983101,191 301.500432,191 C299.01517,191 297,188.9855 297,186.5 C297,184.012771 299.01517,182 301.500432,182 C303.983101,182 306,184.012771 306,186.5 M354,186.5 C354,188.9855 351.983965,191 349.500432,191 C347.01517,191 345,188.9855 345,186.5 C345,184.012771 347.01517,182 349.500432,182 C351.983965,182 354,184.012771 354,186.5 M367,186.5 C367,188.9855 364.984443,191 362.499568,191 C360.014693,191 358,188.9855 358,186.5 C358,184.012771 360.014693,182 362.499568,182 C364.984443,182 367,184.012771 367,186.5 M380,186.5 C380,188.9855 377.985307,191 375.499568,191 C373.016422,191 371,188.9855 371,186.5 C371,184.012771 373.016422,182 375.499568,182 C377.985307,182 380,184.012771 380,186.5 M392,186.5 C392,188.9855 389.983101,191 387.499568,191 C385.01517,191 383,188.9855 383,186.5 C383,184.012771 385.01517,182 387.499568,182 C389.983101,182 392,184.012771 392,186.5 M343,186.5 C343,188.9855 340.983772,191 338.5,191 C336.015364,191 334,188.9855 334,186.5 C334,184.012771 336.015364,182 338.5,182 C340.983772,182 343,184.012771 343,186.5 M331,186.5 C331,188.9855 328.984636,191 326.5,191 C324.015364,191 322,188.9855 322,186.5 C322,184.012771 324.015364,182 326.5,182 C328.984636,182 331,184.012771 331,186.5 M453,186.5 C453,188.9855 450.983772,191 448.5,191 C446.016228,191 444,188.9855 444,186.5 C444,184.012771 446.016228,182 448.5,182 C450.983772,182 453,184.012771 453,186.5 M440,186.5 C440,188.9855 437.982908,191 435.500864,191 C433.015364,191 431,188.9855 431,186.5 C431,184.012771 433.015364,182 435.500864,182 C437.982908,182 440,184.012771 440,186.5 M430,186.5 C430,188.9855 427.982908,191 425.5,191 C423.015364,191 421,188.9855 421,186.5 C421,184.012771 423.015364,182 425.5,182 C427.982908,182 430,184.012771 430,186.5 M417,186.5 C417,188.9855 414.9855,191 412.5,191 C410.016228,191 408,188.9855 408,186.5 C408,184.012771 410.016228,182 412.5,182 C414.9855,182 417,184.012771 417,186.5 M405,186.5 C405,188.9855 402.984636,191 400.5,191 C398.016228,191 396,188.9855 396,186.5 C396,184.012771 398.016228,182 400.5,182 C402.984636,182 405,184.012771 405,186.5 M488,186.5 C488,188.9855 485.984636,191 483.500864,191 C481.016228,191 479,188.9855 479,186.5 C479,184.012771 481.016228,182 483.500864,182 C485.984636,182 488,184.012771 488,186.5 M501,186.5 C501,188.9855 498.983101,191 496.500432,191 C494.016035,191 492,188.9855 492,186.5 C492,184.012771 494.016035,182 496.500432,182 C498.983101,182 501,184.012771 501,186.5 M514,186.5 C514,188.9855 511.983295,191 509.499136,191 C507.016705,191 505,188.9855 505,186.5 C505,184.012771 507.016705,182 509.499136,182 C511.983295,182 514,184.012771 514,186.5 M477,186.5 C477,188.9855 474.9855,191 472.5,191 C470.017092,191 468,188.9855 468,186.5 C468,184.012771 470.017092,182 472.5,182 C474.9855,182 477,184.012771 477,186.5 M465,186.5 C465,188.9855 462.98483,191 460.499568,191 C458.016035,191 456,188.9855 456,186.5 C456,184.012771 458.016035,182 460.499568,182 C462.98483,182 465,184.012771 465,186.5 M319,199.5 C319,201.9855 316.983965,204 314.499568,204 C312.01517,204 310,201.9855 310,199.5 C310,197.013635 312.01517,195 314.499568,195 C316.983965,195 319,197.013635 319,199.5 M306,199.5 C306,201.9855 303.983101,204 301.500432,204 C299.01517,204 297,201.9855 297,199.5 C297,197.013635 299.01517,195 301.500432,195 C303.983101,195 306,197.013635 306,199.5 M354,199.5 C354,201.9855 351.983965,204 349.500432,204 C347.01517,204 345,201.9855 345,199.5 C345,197.013635 347.01517,195 349.500432,195 C351.983965,195 354,197.013635 354,199.5 M367,199.5 C367,201.9855 364.984443,204 362.499568,204 C360.014693,204 358,201.9855 358,199.5 C358,197.013635 360.014693,195 362.499568,195 C364.984443,195 367,197.013635 367,199.5 M380,199.5 C380,201.9855 377.985307,204 375.499568,204 C373.016422,204 371,201.9855 371,199.5 C371,197.013635 373.016422,195 375.499568,195 C377.985307,195 380,197.013635 380,199.5 M392,199.5 C392,201.9855 389.983101,204 387.499568,204 C385.01517,204 383,201.9855 383,199.5 C383,197.013635 385.01517,195 387.499568,195 C389.983101,195 392,197.013635 392,199.5 M343,199.5 C343,201.9855 340.983772,204 338.5,204 C336.015364,204 334,201.9855 334,199.5 C334,197.013635 336.015364,195 338.5,195 C340.983772,195 343,197.013635 343,199.5 M331,199.5 C331,201.9855 328.984636,204 326.5,204 C324.015364,204 322,201.9855 322,199.5 C322,197.013635 324.015364,195 326.5,195 C328.984636,195 331,197.013635 331,199.5 M453,199.5 C453,201.9855 450.983772,204 448.5,204 C446.016228,204 444,201.9855 444,199.5 C444,197.013635 446.016228,195 448.5,195 C450.983772,195 453,197.013635 453,199.5 M417,199.5 C417,201.9855 414.9855,204 412.5,204 C410.016228,204 408,201.9855 408,199.5 C408,197.013635 410.016228,195 412.5,195 C414.9855,195 417,197.013635 417,199.5 M405,199.5 C405,201.9855 402.984636,204 400.5,204 C398.016228,204 396,201.9855 396,199.5 C396,197.013635 398.016228,195 400.5,195 C402.984636,195 405,197.013635 405,199.5 M319,212.5 C319,214.987229 316.983965,217 314.499568,217 C312.01517,217 310,214.987229 310,212.5 C310,210.013635 312.01517,208 314.499568,208 C316.983965,208 319,210.013635 319,212.5 M306,212.5 C306,214.987229 303.983101,217 301.500432,217 C299.01517,217 297,214.987229 297,212.5 C297,210.013635 299.01517,208 301.500432,208 C303.983101,208 306,210.013635 306,212.5 M354,212.5 C354,214.987229 351.983965,217 349.500432,217 C347.01517,217 345,214.987229 345,212.5 C345,210.013635 347.01517,208 349.500432,208 C351.983965,208 354,210.013635 354,212.5 M367,212.5 C367,214.987229 364.984443,217 362.499568,217 C360.014693,217 358,214.987229 358,212.5 C358,210.013635 360.014693,208 362.499568,208 C364.984443,208 367,210.013635 367,212.5 M380,212.5 C380,214.987229 377.985307,217 375.499568,217 C373.016422,217 371,214.987229 371,212.5 C371,210.013635 373.016422,208 375.499568,208 C377.985307,208 380,210.013635 380,212.5 M392,212.5 C392,214.987229 389.983101,217 387.499568,217 C385.01517,217 383,214.987229 383,212.5 C383,210.013635 385.01517,208 387.499568,208 C389.983101,208 392,210.013635 392,212.5 M343,212.5 C343,214.987229 340.983772,217 338.5,217 C336.015364,217 334,214.987229 334,212.5 C334,210.013635 336.015364,208 338.5,208 C340.983772,208 343,210.013635 343,212.5 M331,212.5 C331,214.987229 328.984636,217 326.5,217 C324.015364,217 322,214.987229 322,212.5 C322,210.013635 324.015364,208 326.5,208 C328.984636,208 331,210.013635 331,212.5 M417,212.5 C417,214.987229 414.9855,217 412.5,217 C410.016228,217 408,214.987229 408,212.5 C408,210.013635 410.016228,208 412.5,208 C414.9855,208 417,210.013635 417,212.5 M453,210.5 C453,212.9855 450.983772,215 448.5,215 C446.016228,215 444,212.9855 444,210.5 C444,208.0145 446.016228,206 448.5,206 C450.983772,206 453,208.0145 453,210.5 M453,223.5 C453,225.9855 450.983772,228 448.5,228 C446.016228,228 444,225.9855 444,223.5 C444,221.0145 446.016228,219 448.5,219 C450.983772,219 453,221.0145 453,223.5 M405,212.5 C405,214.987229 402.984636,217 400.5,217 C398.016228,217 396,214.987229 396,212.5 C396,210.013635 398.016228,208 400.5,208 C402.984636,208 405,210.013635 405,212.5 M319,224.499568 C319,226.985307 316.983965,229 314.499568,229 C312.01517,229 310,226.985307 310,224.499568 C310,222.013829 312.01517,220 314.499568,220 C316.983965,220 319,222.013829 319,224.499568 M306,224.499568 C306,226.985307 303.983101,229 301.500432,229 C299.01517,229 297,226.985307 297,224.499568 C297,222.013829 299.01517,220 301.500432,220 C303.983101,220 306,222.013829 306,224.499568 M354,224.499568 C354,226.985307 351.983965,229 349.500432,229 C347.01517,229 345,226.985307 345,224.499568 C345,222.013829 347.01517,220 349.500432,220 C351.983965,220 354,222.013829 354,224.499568 M367,224.499568 C367,226.985307 364.984443,229 362.499568,229 C360.014693,229 358,226.985307 358,224.499568 C358,222.013829 360.014693,220 362.499568,220 C364.984443,220 367,222.013829 367,224.499568 M380,224.499568 C380,226.985307 377.985307,229 375.499568,229 C373.016422,229 371,226.985307 371,224.499568 C371,222.013829 373.016422,220 375.499568,220 C377.985307,220 380,222.013829 380,224.499568 M392,224.499568 C392,226.985307 389.983101,229 387.499568,229 C385.01517,229 383,226.985307 383,224.499568 C383,222.013829 385.01517,220 387.499568,220 C389.983101,220 392,222.013829 392,224.499568 M343,224.499568 C343,226.985307 340.983772,229 338.5,229 C336.015364,229 334,226.985307 334,224.499568 C334,222.013829 336.015364,220 338.5,220 C340.983772,220 343,222.013829 343,224.499568 M331,224.499568 C331,226.985307 328.984636,229 326.5,229 C324.015364,229 322,226.985307 322,224.499568 C322,222.013829 324.015364,220 326.5,220 C328.984636,220 331,222.013829 331,224.499568 M405,224.499568 C405,226.985307 402.984636,229 400.5,229 C398.016228,229 396,226.985307 396,224.499568 C396,222.013829 398.016228,220 400.5,220 C402.984636,220 405,222.013829 405,224.499568 M354,235.499568 C354,237.985694 351.983965,240 349.500432,240 C347.01517,240 345,237.985694 345,235.499568 C345,233.014306 347.01517,231 349.500432,231 C351.983965,231 354,233.014306 354,235.499568 M367,235.499568 C367,237.985694 364.984443,240 362.499568,240 C360.014693,240 358,237.985694 358,235.499568 C358,233.014306 360.014693,231 362.499568,231 C364.984443,231 367,233.014306 367,235.499568 M380,235.499568 C380,237.985694 377.985307,240 375.499568,240 C373.016422,240 371,237.985694 371,235.499568 C371,233.014306 373.016422,231 375.499568,231 C377.985307,231 380,233.014306 380,235.499568 M392,235.499568 C392,237.985694 389.983101,240 387.499568,240 C385.01517,240 383,237.985694 383,235.499568 C383,233.014306 385.01517,231 387.499568,231 C389.983101,231 392,233.014306 392,235.499568 M405,235.499568 C405,237.985694 402.984636,240 400.5,240 C398.016228,240 396,237.985694 396,235.499568 C396,233.014306 398.016228,231 400.5,231 C402.984636,231 405,233.014306 405,235.499568 M354,247.501296 C354,249.987035 351.983965,252 349.500432,252 C347.01517,252 345,249.987035 345,247.501296 C345,245.013829 347.01517,243 349.500432,243 C351.983965,243 354,245.013829 354,247.501296 M367,247.501296 C367,249.987035 364.984443,252 362.499568,252 C360.014693,252 358,249.987035 358,247.501296 C358,245.013829 360.014693,243 362.499568,243 C364.984443,243 367,245.013829 367,247.501296 M380,247.501296 C380,249.987035 377.985307,252 375.499568,252 C373.016422,252 371,249.987035 371,247.501296 C371,245.013829 373.016422,243 375.499568,243 C377.985307,243 380,245.013829 380,247.501296 M354,260.499568 C354,262.986558 351.983965,265 349.500432,265 C347.01517,265 345,262.986558 345,260.499568 C345,258.014306 347.01517,256 349.500432,256 C351.983965,256 354,258.014306 354,260.499568 M367,260.499568 C367,262.986558 364.984443,265 362.499568,265 C360.014693,265 358,262.986558 358,260.499568 C358,258.014306 360.014693,256 362.499568,256 C364.984443,256 367,258.014306 367,260.499568 M380,260.499568 C380,262.986558 377.985307,265 375.499568,265 C373.016422,265 371,262.986558 371,260.499568 C371,258.014306 373.016422,256 375.499568,256 C377.985307,256 380,258.014306 380,260.499568 M354,272.499568 C354,274.983101 351.983965,277 349.500432,277 C347.01517,277 345,274.983101 345,272.499568 C345,270.012578 347.01517,268 349.500432,268 C351.983965,268 354,270.012578 354,272.499568 M367,272.499568 C367,274.983101 364.984443,277 362.499568,277 C360.014693,277 358,274.983101 358,272.499568 C358,270.012578 360.014693,268 362.499568,268 C364.984443,268 367,270.012578 367,272.499568 M354,285.499568 C354,287.986171 351.983965,290 349.500432,290 C347.01517,290 345,287.986171 345,285.499568 C345,283.015557 347.01517,281 349.500432,281 C351.983965,281 354,283.015557 354,285.499568 M367,285.499568 C367,287.986171 364.984443,290 362.499568,290 C360.014693,290 358,287.986171 358,285.499568 C358,283.015557 360.014693,281 362.499568,281 C364.984443,281 367,283.015557 367,285.499568 M380,272.499568 C380,274.983101 377.985307,277 375.499568,277 C373.016422,277 371,274.983101 371,272.499568 C371,270.012578 373.016422,268 375.499568,268 C377.985307,268 380,270.012578 380,272.499568 M404,260.499568 C404,262.986558 401.983772,265 399.5,265 C397.0145,265 395,262.986558 395,260.499568 C395,258.014306 397.0145,256 399.5,256 C401.983772,256 404,258.014306 404,260.499568 M404,272.499568 C404,274.983101 401.983772,277 399.5,277 C397.0145,277 395,274.983101 395,272.499568 C395,270.012578 397.0145,268 399.5,268 C401.983772,268 404,270.012578 404,272.499568 M392,247.501296 C392,249.987035 389.983101,252 387.499568,252 C385.01517,252 383,249.987035 383,247.501296 C383,245.013829 385.01517,243 387.499568,243 C389.983101,243 392,245.013829 392,247.501296 M488,199.5 C488,201.9855 485.984636,204 483.500864,204 C481.016228,204 479,201.9855 479,199.5 C479,197.013635 481.016228,195 483.500864,195 C485.984636,195 488,197.013635 488,199.5 M501,199.5 C501,201.9855 498.983101,204 496.500432,204 C494.016035,204 492,201.9855 492,199.5 C492,197.013635 494.016035,195 496.500432,195 C498.983101,195 501,197.013635 501,199.5 M488,211.500432 C488,213.98483 485.984636,216 483.500864,216 C481.016228,216 479,213.98483 479,211.500432 C479,209.013442 481.016228,207 483.500864,207 C485.984636,207 488,209.013442 488,211.500432 M501,211.500432 C501,213.98483 498.983101,216 496.500432,216 C494.016035,216 492,213.98483 492,211.500432 C492,209.013442 494.016035,207 496.500432,207 C498.983101,207 501,209.013442 501,211.500432 M501,224.499568 C501,226.985307 498.983101,229 496.500432,229 C494.016035,229 492,226.985307 492,224.499568 C492,222.013829 494.016035,220 496.500432,220 C498.983101,220 501,222.013829 501,224.499568 M526,224.499568 C526,226.985307 523.984636,229 521.5,229 C519.017092,229 517,226.985307 517,224.499568 C517,222.013829 519.017092,220 521.5,220 C523.984636,220 526,222.013829 526,224.499568 M514,199.5 C514,201.9855 511.983295,204 509.499136,204 C507.016705,204 505,201.9855 505,199.5 C505,197.013635 507.016705,195 509.499136,195 C511.983295,195 514,197.013635 514,199.5 M477,199.5 C477,201.9855 474.9855,204 472.5,204 C470.017092,204 468,201.9855 468,199.5 C468,197.013635 470.017092,195 472.5,195 C474.9855,195 477,197.013635 477,199.5 M465,199.5 C465,201.9855 462.98483,204 460.499568,204 C458.016035,204 456,201.9855 456,199.5 C456,197.013635 458.016035,195 460.499568,195 C462.98483,195 465,197.013635 465,199.5 M354,163.500432 C354,165.98483 351.983965,168 349.500432,168 C347.01517,168 345,165.98483 345,163.500432 C345,161.014306 347.01517,159 349.500432,159 C351.983965,159 354,161.014306 354,163.500432 M343,163.500432 C343,165.98483 340.983772,168 338.5,168 C336.015364,168 334,165.98483 334,163.500432 C334,161.014306 336.015364,159 338.5,159 C340.983772,159 343,161.014306 343,163.500432 M331,163.500432 C331,165.98483 328.984636,168 326.5,168 C324.015364,168 322,165.98483 322,163.500432 C322,161.014306 324.015364,159 326.5,159 C328.984636,159 331,161.014306 331,163.500432 M319,163.500432 C319,165.98483 316.983965,168 314.499568,168 C312.01517,168 310,165.98483 310,163.500432 C310,161.014306 312.01517,159 314.499568,159 C316.983965,159 319,161.014306 319,163.500432 M331,174.5 C331,176.9855 328.984636,179 326.5,179 C324.015364,179 322,176.9855 322,174.5 C322,172.013635 324.015364,170 326.5,170 C328.984636,170 331,172.013635 331,174.5 M319,174.5 C319,176.9855 316.983965,179 314.499568,179 C312.01517,179 310,176.9855 310,174.5 C310,172.013635 312.01517,170 314.499568,170 C316.983965,170 319,172.013635 319,174.5 M391,163.500432 C391,165.98483 388.983772,168 386.5,168 C384.016228,168 382,165.98483 382,163.500432 C382,161.014306 384.016228,159 386.5,159 C388.983772,159 391,161.014306 391,163.500432 M404,163.500432 C404,165.98483 401.983772,168 399.5,168 C397.0145,168 395,165.98483 395,163.500432 C395,161.014306 397.0145,159 399.5,159 C401.983772,159 404,161.014306 404,163.500432 M415,163.500432 C415,165.98483 412.983965,168 410.500432,168 C408.016035,168 406,165.98483 406,163.500432 C406,161.014306 408.016035,159 410.500432,159 C412.983965,159 415,161.014306 415,163.500432 M427,163.500432 C427,165.98483 424.9855,168 422.5,168 C420.016228,168 418,165.98483 418,163.500432 C418,161.014306 420.016228,159 422.5,159 C424.9855,159 427,161.014306 427,163.500432 M366,163.500432 C366,165.98483 363.983489,168 361.501296,168 C359.016511,168 357,165.98483 357,163.500432 C357,161.014306 359.016511,159 361.501296,159 C363.983489,159 366,161.014306 366,163.500432 M488,163.500432 C488,165.98483 485.984636,168 483.500864,168 C481.016228,168 479,165.98483 479,163.500432 C479,161.014306 481.016228,159 483.500864,159 C485.984636,159 488,161.014306 488,163.500432 M477,163.500432 C477,165.98483 474.9855,168 472.5,168 C470.017092,168 468,165.98483 468,163.500432 C468,161.014306 470.017092,159 472.5,159 C474.9855,159 477,161.014306 477,163.500432 M465,163.500432 C465,165.98483 462.98483,168 460.499568,168 C458.016035,168 456,165.98483 456,163.500432 C456,161.014306 458.016035,159 460.499568,159 C462.98483,159 465,161.014306 465,163.500432 M453,163.500432 C453,165.98483 450.983772,168 448.5,168 C446.016228,168 444,165.98483 444,163.500432 C444,161.014306 446.016228,159 448.5,159 C450.983772,159 453,161.014306 453,163.500432 M440,163.500432 C440,165.98483 437.982908,168 435.500864,168 C433.015364,168 431,165.98483 431,163.500432 C431,161.014306 433.015364,159 435.500864,159 C437.982908,159 440,161.014306 440,163.500432 M525,163.500432 C525,165.98483 522.983772,168 520.5,168 C518.015364,168 516,165.98483 516,163.500432 C516,161.014306 518.015364,159 520.5,159 C522.983772,159 525,161.014306 525,163.500432 M538,163.500432 C538,165.98483 535.984636,168 533.5,168 C531.015364,168 529,165.98483 529,163.500432 C529,161.014306 531.015364,159 533.5,159 C535.984636,159 538,161.014306 538,163.500432 M512,163.500432 C512,165.98483 509.984443,168 507.499568,168 C505.014693,168 503,165.98483 503,163.500432 C503,161.014306 505.014693,159 507.499568,159 C509.984443,159 512,161.014306 512,163.500432 M500,163.500432 C500,165.98483 497.98483,168 495.499568,168 C493.016035,168 491,165.98483 491,163.500432 C491,161.014306 493.016035,159 495.499568,159 C497.98483,159 500,161.014306 500,163.500432 M391,174.5 C391,176.9855 388.983772,179 386.5,179 C384.016228,179 382,176.9855 382,174.5 C382,172.013635 384.016228,170 386.5,170 C388.983772,170 391,172.013635 391,174.5 M404,174.5 C404,176.9855 401.983772,179 399.5,179 C397.0145,179 395,176.9855 395,174.5 C395,172.013635 397.0145,170 399.5,170 C401.983772,170 404,172.013635 404,174.5 M365,174.5 C365,176.9855 362.984636,179 360.5,179 C358.015364,179 356,176.9855 356,174.5 C356,172.013635 358.015364,170 360.5,170 C362.984636,170 365,172.013635 365,174.5 M378,174.5 C378,176.9855 375.983965,179 373.499568,179 C371.01517,179 369,176.9855 369,174.5 C369,172.013635 371.01517,170 373.499568,170 C375.983965,170 378,172.013635 378,174.5 M415,174.5 C415,176.9855 412.983965,179 410.500432,179 C408.016035,179 406,176.9855 406,174.5 C406,172.013635 408.016035,170 410.500432,170 C412.983965,170 415,172.013635 415,174.5 M427,174.5 C427,176.9855 424.9855,179 422.5,179 C420.016228,179 418,176.9855 418,174.5 C418,172.013635 420.016228,170 422.5,170 C424.9855,170 427,172.013635 427,174.5 M488,174.5 C488,176.9855 485.984636,179 483.500864,179 C481.016228,179 479,176.9855 479,174.5 C479,172.013635 481.016228,170 483.500864,170 C485.984636,170 488,172.013635 488,174.5 M477,174.5 C477,176.9855 474.9855,179 472.5,179 C470.017092,179 468,176.9855 468,174.5 C468,172.013635 470.017092,170 472.5,170 C474.9855,170 477,172.013635 477,174.5 M465,174.5 C465,176.9855 462.98483,179 460.499568,179 C458.016035,179 456,176.9855 456,174.5 C456,172.013635 458.016035,170 460.499568,170 C462.98483,170 465,172.013635 465,174.5 M453,174.5 C453,176.9855 450.983772,179 448.5,179 C446.016228,179 444,176.9855 444,174.5 C444,172.013635 446.016228,170 448.5,170 C450.983772,170 453,172.013635 453,174.5 M440,174.5 C440,176.9855 437.982908,179 435.500864,179 C433.015364,179 431,176.9855 431,174.5 C431,172.013635 433.015364,170 435.500864,170 C437.982908,170 440,172.013635 440,174.5 M525,174.5 C525,176.9855 522.983772,179 520.5,179 C518.015364,179 516,176.9855 516,174.5 C516,172.013635 518.015364,170 520.5,170 C522.983772,170 525,172.013635 525,174.5 M512,174.5 C512,176.9855 509.984443,179 507.499568,179 C505.014693,179 503,176.9855 503,174.5 C503,172.013635 505.014693,170 507.499568,170 C509.984443,170 512,172.013635 512,174.5 M500,174.5 C500,176.9855 497.98483,179 495.499568,179 C493.016035,179 491,176.9855 491,174.5 C491,172.013635 493.016035,170 495.499568,170 C497.98483,170 500,172.013635 500,174.5 M526,247.501296 C526,249.987035 523.982908,252 521.5,252 C519.0145,252 517,249.987035 517,247.501296 C517,245.013829 519.0145,243 521.5,243 C523.982908,243 526,245.013829 526,247.501296 M514,247.501296 C514,249.987035 511.985307,252 509.499568,252 C507.014693,252 505,249.987035 505,247.501296 C505,245.013829 507.014693,243 509.499568,243 C511.985307,243 514,245.013829 514,247.501296 M514,235.499568 C514,237.985694 511.985307,240 509.499568,240 C507.014693,240 505,237.985694 505,235.499568 C505,233.014306 507.014693,231 509.499568,231 C511.985307,231 514,233.014306 514,235.499568 M488,235.499568 C488,237.985694 485.983965,240 483.500432,240 C481.01517,240 479,237.985694 479,235.499568 C479,233.014306 481.01517,231 483.500432,231 C485.983965,231 488,233.014306 488,235.499568 M501,247.501296 C501,249.987035 498.984636,252 496.5,252 C494.015364,252 492,249.987035 492,247.501296 C492,245.013829 494.015364,243 496.5,243 C498.984636,243 501,245.013829 501,247.501296 M561,247.501296 C561,249.987035 558.984636,252 556.5,252 C554.016228,252 552,249.987035 552,247.501296 C552,245.013829 554.016228,243 556.5,243 C558.984636,243 561,245.013829 561,247.501296 M549,247.501296 C549,249.987035 546.98483,252 544.500432,252 C542.016899,252 540,249.987035 540,247.501296 C540,245.013829 542.016899,243 544.500432,243 C546.98483,243 549,245.013829 549,247.501296 M538,247.501296 C538,249.987035 535.98483,252 533.499568,252 C531.016899,252 529,249.987035 529,247.501296 C529,245.013829 531.016899,243 533.499568,243 C535.98483,243 538,245.013829 538,247.501296 M526,273.5 C526,275.986751 523.982908,278 521.5,278 C519.0145,278 517,275.986751 517,273.5 C517,271.015841 519.0145,269 521.5,269 C523.982908,269 526,271.015841 526,273.5 M514,273.5 C514,275.986751 511.985307,278 509.499568,278 C507.014693,278 505,275.986751 505,273.5 C505,271.015841 507.014693,269 509.499568,269 C511.985307,269 514,271.015841 514,273.5 M561,273.5 C561,275.986751 558.984636,278 556.5,278 C554.016228,278 552,275.986751 552,273.5 C552,271.015841 554.016228,269 556.5,269 C558.984636,269 561,271.015841 561,273.5 M549,273.5 C549,275.986751 546.98483,278 544.500432,278 C542.016899,278 540,275.986751 540,273.5 C540,271.015841 542.016899,269 544.500432,269 C546.98483,269 549,271.015841 549,273.5 M538,273.5 C538,275.986751 535.98483,278 533.499568,278 C531.016899,278 529,275.986751 529,273.5 C529,271.015841 531.016899,269 533.499568,269 C535.98483,269 538,271.015841 538,273.5 M526,285.499568 C526,287.986171 523.982908,290 521.5,290 C519.0145,290 517,287.986171 517,285.499568 C517,283.015557 519.0145,281 521.5,281 C523.982908,281 526,283.015557 526,285.499568 M514,285.499568 C514,287.986171 511.985307,290 509.499568,290 C507.014693,290 505,287.986171 505,285.499568 C505,283.015557 507.014693,281 509.499568,281 C511.985307,281 514,283.015557 514,285.499568 M561,285.499568 C561,287.986171 558.984636,290 556.5,290 C554.016228,290 552,287.986171 552,285.499568 C552,283.015557 554.016228,281 556.5,281 C558.984636,281 561,283.015557 561,285.499568 M575,285.499568 C575,287.986171 572.983965,290 570.500432,290 C568.016035,290 566,287.986171 566,285.499568 C566,283.015557 568.016035,281 570.500432,281 C572.983965,281 575,283.015557 575,285.499568 M549,285.499568 C549,287.986171 546.98483,290 544.500432,290 C542.016899,290 540,287.986171 540,285.499568 C540,283.015557 542.016899,281 544.500432,281 C546.98483,281 549,283.015557 549,285.499568 M538,285.499568 C538,287.986171 535.98483,290 533.499568,290 C531.016899,290 529,287.986171 529,285.499568 C529,283.015557 531.016899,281 533.499568,281 C535.98483,281 538,283.015557 538,285.499568 M526,297.499568 C526,299.986558 523.982908,302 521.5,302 C519.0145,302 517,299.986558 517,297.499568 C517,295.013442 519.0145,293 521.5,293 C523.982908,293 526,295.013442 526,297.499568 M561,297.499568 C561,299.986558 558.984636,302 556.5,302 C554.016228,302 552,299.986558 552,297.499568 C552,295.013442 554.016228,293 556.5,293 C558.984636,293 561,295.013442 561,297.499568 M561,311.500864 C561,313.986365 558.984636,316 556.5,316 C554.016228,316 552,313.986365 552,311.500864 C552,309.015364 554.016228,307 556.5,307 C558.984636,307 561,309.015364 561,311.500864 M599,322.500864 C599,324.986365 596.98483,327 594.500432,327 C592.01517,327 590,324.986365 590,322.500864 C590,320.016228 592.01517,318 594.500432,318 C596.98483,318 599,320.016228 599,322.500864 M610,311.500864 C610,313.986365 607.983772,316 605.5,316 C603.015364,316 601,313.986365 601,311.500864 C601,309.015364 603.015364,307 605.5,307 C607.983772,307 610,309.015364 610,311.500864 M549,297.499568 C549,299.986558 546.98483,302 544.500432,302 C542.016899,302 540,299.986558 540,297.499568 C540,295.013442 542.016899,293 544.500432,293 C546.98483,293 549,295.013442 549,297.499568 M538,297.499568 C538,299.986558 535.98483,302 533.499568,302 C531.016899,302 529,299.986558 529,297.499568 C529,295.013442 531.016899,293 533.499568,293 C535.98483,293 538,295.013442 538,297.499568 M549,260.499568 C549,262.986558 546.98483,265 544.500432,265 C542.016899,265 540,262.986558 540,260.499568 C540,258.014306 542.016899,256 544.500432,256 C546.98483,256 549,258.014306 549,260.499568 M538,260.499568 C538,262.986558 535.98483,265 533.499568,265 C531.016899,265 529,262.986558 529,260.499568 C529,258.014306 531.016899,256 533.499568,256 C535.98483,256 538,258.014306 538,260.499568 M438,77.5 C438,79.9872287 435.984636,82 433.5,82 C431.015364,82 429,79.9872287 429,77.5 C429,75.0153639 431.015364,73 433.5,73 C435.984636,73 438,75.0153639 438,77.5 M451,77.5 C451,79.9872287 448.984636,82 446.5,82 C444.015364,82 442,79.9872287 442,77.5 C442,75.0153639 444.015364,73 446.5,73 C448.984636,73 451,75.0153639 451,77.5 M462,77.5 C462,79.9872287 459.983772,82 457.5,82 C455.0145,82 453,79.9872287 453,77.5 C453,75.0153639 455.0145,73 457.5,73 C459.983772,73 462,75.0153639 462,77.5 M475,77.5 C475,79.9872287 472.983772,82 470.5,82 C468.016228,82 466,79.9872287 466,77.5 C466,75.0153639 468.016228,73 470.5,73 C472.983772,73 475,75.0153639 475,77.5 M536,77.5 C536,79.9872287 533.982908,82 531.5,82 C529.015364,82 527,79.9872287 527,77.5 C527,75.0153639 529.015364,73 531.5,73 C533.982908,73 536,75.0153639 536,77.5 M525,77.5 C525,79.9872287 522.983772,82 520.5,82 C518.015364,82 516,79.9872287 516,77.5 C516,75.0153639 518.015364,73 520.5,73 C522.983772,73 525,75.0153639 525,77.5 M512,77.5 C512,79.9872287 509.984443,82 507.499568,82 C505.014693,82 503,79.9872287 503,77.5 C503,75.0153639 505.014693,73 507.499568,73 C509.984443,73 512,75.0153639 512,77.5 M500,77.5 C500,79.9872287 497.98483,82 495.499568,82 C493.016035,82 491,79.9872287 491,77.5 C491,75.0153639 493.016035,73 495.499568,73 C497.98483,73 500,75.0153639 500,77.5 M488,77.5 C488,79.9872287 485.984636,82 483.500864,82 C481.016228,82 479,79.9872287 479,77.5 C479,75.0153639 481.016228,73 483.500864,73 C485.984636,73 488,75.0153639 488,77.5 M572,77.5 C572,79.9872287 569.9855,82 567.5,82 C565.017092,82 563,79.9872287 563,77.5 C563,75.0153639 565.017092,73 567.5,73 C569.9855,73 572,75.0153639 572,77.5 M560,77.5 C560,79.9872287 557.983965,82 555.499568,82 C553.016035,82 551,79.9872287 551,77.5 C551,75.0153639 553.016035,73 555.499568,73 C557.983965,73 560,75.0153639 560,77.5 M548,77.5 C548,79.9872287 545.984443,82 543.499568,82 C541.016422,82 539,79.9872287 539,77.5 C539,75.0153639 541.016422,73 543.499568,73 C545.984443,73 548,75.0153639 548,77.5 M451,65.4995679 C451,67.9856937 448.984636,70 446.5,70 C444.015364,70 442,67.9856937 442,65.4995679 C442,63.0143063 444.015364,61 446.5,61 C448.984636,61 451,63.0143063 451,65.4995679 M462,65.4995679 C462,67.9856937 459.983772,70 457.5,70 C455.0145,70 453,67.9856937 453,65.4995679 C453,63.0143063 455.0145,61 457.5,61 C459.983772,61 462,63.0143063 462,65.4995679 M475,65.4995679 C475,67.9856937 472.983772,70 470.5,70 C468.016228,70 466,67.9856937 466,65.4995679 C466,63.0143063 468.016228,61 470.5,61 C472.983772,61 475,63.0143063 475,65.4995679 M536,65.4995679 C536,67.9856937 533.982908,70 531.5,70 C529.015364,70 527,67.9856937 527,65.4995679 C527,63.0143063 529.015364,61 531.5,61 C533.982908,61 536,63.0143063 536,65.4995679 M525,65.4995679 C525,67.9856937 522.983772,70 520.5,70 C518.015364,70 516,67.9856937 516,65.4995679 C516,63.0143063 518.015364,61 520.5,61 C522.983772,61 525,63.0143063 525,65.4995679 M512,65.4995679 C512,67.9856937 509.984443,70 507.499568,70 C505.014693,70 503,67.9856937 503,65.4995679 C503,63.0143063 505.014693,61 507.499568,61 C509.984443,61 512,63.0143063 512,65.4995679 M500,65.4995679 C500,67.9856937 497.98483,70 495.499568,70 C493.016035,70 491,67.9856937 491,65.4995679 C491,63.0143063 493.016035,61 495.499568,61 C497.98483,61 500,63.0143063 500,65.4995679 M488,65.4995679 C488,67.9856937 485.984636,70 483.500864,70 C481.016228,70 479,67.9856937 479,65.4995679 C479,63.0143063 481.016228,61 483.500864,61 C485.984636,61 488,63.0143063 488,65.4995679 M475,52.4995679 C475,54.9856937 472.983772,57 470.5,57 C468.016228,57 466,54.9856937 466,52.4995679 C466,50.0143063 468.016228,48 470.5,48 C472.983772,48 475,50.0143063 475,52.4995679 M500,52.4995679 C500,54.9856937 497.98483,57 495.499568,57 C493.016035,57 491,54.9856937 491,52.4995679 C491,50.0143063 493.016035,48 495.499568,48 C497.98483,48 500,50.0143063 500,52.4995679 M488,52.4995679 C488,54.9856937 485.984636,57 483.500864,57 C481.016228,57 479,54.9856937 479,52.4995679 C479,50.0143063 481.016228,48 483.500864,48 C485.984636,48 488,50.0143063 488,52.4995679 M500,42.5 C500,44.9855003 497.98483,47 495.499568,47 C493.016035,47 491,44.9855003 491,42.5 C491,40.0144997 493.016035,38 495.499568,38 C497.98483,38 500,40.0144997 500,42.5 M488,42.5 C488,44.9855003 485.984636,47 483.500864,47 C481.016228,47 479,44.9855003 479,42.5 C479,40.0144997 481.016228,38 483.500864,38 C485.984636,38 488,40.0144997 488,42.5 M488,29.4991359 C488,31.985023 485.984636,34 483.500864,34 C481.016228,34 479,31.985023 479,29.4991359 C479,27.0141129 481.016228,25 483.500864,25 C485.984636,25 488,27.0141129 488,29.4991359 M548,65.4995679 C548,67.9856937 545.984443,70 543.499568,70 C541.016422,70 539,67.9856937 539,65.4995679 C539,63.0143063 541.016422,61 543.499568,61 C545.984443,61 548,63.0143063 548,65.4995679 M548,52.4995679 C548,54.9856937 545.984443,57 543.499568,57 C541.016422,57 539,54.9856937 539,52.4995679 C539,50.0143063 541.016422,48 543.499568,48 C545.984443,48 548,50.0143063 548,52.4995679 M391,102.5 C391,104.986365 388.983772,107 386.5,107 C384.016228,107 382,104.986365 382,102.5 C382,100.013635 384.016228,98 386.5,98 C388.983772,98 391,100.013635 391,102.5 M378,102.5 C378,104.986365 375.983965,107 373.499568,107 C371.01517,107 369,104.986365 369,102.5 C369,100.013635 371.01517,98 373.499568,98 C375.983965,98 378,100.013635 378,102.5 M366,102.5 C366,104.986365 363.983489,107 361.501296,107 C359.016511,107 357,104.986365 357,102.5 C357,100.013635 359.016511,98 361.501296,98 C363.983489,98 366,100.013635 366,102.5 M354,102.5 C354,104.986365 351.983965,107 349.500432,107 C347.01517,107 345,104.986365 345,102.5 C345,100.013635 347.01517,98 349.500432,98 C351.983965,98 354,100.013635 354,102.5 M343,102.5 C343,104.986365 340.983772,107 338.5,107 C336.015364,107 334,104.986365 334,102.5 C334,100.013635 336.015364,98 338.5,98 C340.983772,98 343,100.013635 343,102.5 M426,102.5 C426,104.986365 423.98483,107 421.499568,107 C419.01517,107 417,104.986365 417,102.5 C417,100.013635 419.01517,98 421.499568,98 C423.98483,98 426,100.013635 426,102.5 M439,102.5 C439,104.986365 436.984636,107 434.499136,107 C432.016228,107 430,104.986365 430,102.5 C430,100.013635 432.016228,98 434.499136,98 C436.984636,98 439,100.013635 439,102.5 M451,102.5 C451,104.986365 448.984636,107 446.5,107 C444.015364,107 442,104.986365 442,102.5 C442,100.013635 444.015364,98 446.5,98 C448.984636,98 451,100.013635 451,102.5 M462,102.5 C462,104.986365 459.983772,107 457.5,107 C455.0145,107 453,104.986365 453,102.5 C453,100.013635 455.0145,98 457.5,98 C459.983772,98 462,100.013635 462,102.5 M414,102.5 C414,104.986365 411.9855,107 409.5,107 C407.015364,107 405,104.986365 405,102.5 C405,100.013635 407.015364,98 409.5,98 C411.9855,98 414,100.013635 414,102.5 M414,65.4995679 C414,67.9856937 411.9855,70 409.5,70 C407.015364,70 405,67.9856937 405,65.4995679 C405,63.0143063 407.015364,61 409.5,61 C411.9855,61 414,63.0143063 414,65.4995679 M427,51.5 C427,53.9863645 424.9855,56 422.5,56 C420.016228,56 418,53.9863645 418,51.5 C418,49.0144997 420.016228,47 422.5,47 C424.9855,47 427,49.0144997 427,51.5 M414,77.5 C414,79.9872287 411.9855,82 409.5,82 C407.015364,82 405,79.9872287 405,77.5 C405,75.0153639 407.015364,73 409.5,73 C411.9855,73 414,75.0153639 414,77.5 M402,102.5 C402,104.986365 399.984636,107 397.5,107 C395.017092,107 393,104.986365 393,102.5 C393,100.013635 395.017092,98 397.5,98 C399.984636,98 402,100.013635 402,102.5 M525,102.5 C525,104.986365 522.983772,107 520.5,107 C518.015364,107 516,104.986365 516,102.5 C516,100.013635 518.015364,98 520.5,98 C522.983772,98 525,100.013635 525,102.5 M512,102.5 C512,104.986365 509.984443,107 507.499568,107 C505.014693,107 503,104.986365 503,102.5 C503,100.013635 505.014693,98 507.499568,98 C509.984443,98 512,100.013635 512,102.5 M500,102.5 C500,104.986365 497.98483,107 495.499568,107 C493.016035,107 491,104.986365 491,102.5 C491,100.013635 493.016035,98 495.499568,98 C497.98483,98 500,100.013635 500,102.5 M488,102.5 C488,104.986365 485.984636,107 483.500864,107 C481.016228,107 479,104.986365 479,102.5 C479,100.013635 481.016228,98 483.500864,98 C485.984636,98 488,100.013635 488,102.5 M477,102.5 C477,104.986365 474.9855,107 472.5,107 C470.017092,107 468,104.986365 468,102.5 C468,100.013635 470.017092,98 472.5,98 C474.9855,98 477,100.013635 477,102.5 M560,102.5 C560,104.986365 557.983965,107 555.499568,107 C553.016035,107 551,104.986365 551,102.5 C551,100.013635 553.016035,98 555.499568,98 C557.983965,98 560,100.013635 560,102.5 M573,102.5 C573,104.986365 570.983772,107 568.5,107 C566.0145,107 564,104.986365 564,102.5 C564,100.013635 566.0145,98 568.5,98 C570.983772,98 573,100.013635 573,102.5 M585,102.5 C585,104.986365 582.983101,107 580.500432,107 C578.016035,107 576,104.986365 576,102.5 C576,100.013635 578.016035,98 580.500432,98 C582.983101,98 585,100.013635 585,102.5 M596,102.5 C596,104.986365 593.983772,107 591.5,107 C589.016228,107 587,104.986365 587,102.5 C587,100.013635 589.016228,98 591.5,98 C593.983772,98 596,100.013635 596,102.5 M610,102.5 C610,104.986365 607.983772,107 605.5,107 C603.015364,107 601,104.986365 601,102.5 C601,100.013635 603.015364,98 605.5,98 C607.983772,98 610,100.013635 610,102.5 M622,102.5 C622,104.986365 619.982908,107 617.499136,107 C615.015364,107 613,104.986365 613,102.5 C613,100.013635 615.015364,98 617.499136,98 C619.982908,98 622,100.013635 622,102.5 M548,102.5 C548,104.986365 545.984443,107 543.499568,107 C541.016422,107 539,104.986365 539,102.5 C539,100.013635 541.016422,98 543.499568,98 C545.984443,98 548,100.013635 548,102.5 M536,102.5 C536,104.986365 533.982908,107 531.5,107 C529.015364,107 527,104.986365 527,102.5 C527,100.013635 529.015364,98 531.5,98 C533.982908,98 536,100.013635 536,102.5 M391,113.499568 C391,115.986171 388.983772,118 386.5,118 C384.016228,118 382,115.986171 382,113.499568 C382,111.013829 384.016228,109 386.5,109 C388.983772,109 391,111.013829 391,113.499568 M378,113.499568 C378,115.986171 375.983965,118 373.499568,118 C371.01517,118 369,115.986171 369,113.499568 C369,111.013829 371.01517,109 373.499568,109 C375.983965,109 378,111.013829 378,113.499568 M354,113.499568 C354,115.986171 351.983965,118 349.500432,118 C347.01517,118 345,115.986171 345,113.499568 C345,111.013829 347.01517,109 349.500432,109 C351.983965,109 354,111.013829 354,113.499568 M343,113.499568 C343,115.986171 340.983772,118 338.5,118 C336.015364,118 334,115.986171 334,113.499568 C334,111.013829 336.015364,109 338.5,109 C340.983772,109 343,111.013829 343,113.499568 M426,113.499568 C426,115.986171 423.98483,118 421.499568,118 C419.01517,118 417,115.986171 417,113.499568 C417,111.013829 419.01517,109 421.499568,109 C423.98483,109 426,111.013829 426,113.499568 M439,113.499568 C439,115.986171 436.984636,118 434.499136,118 C432.016228,118 430,115.986171 430,113.499568 C430,111.013829 432.016228,109 434.499136,109 C436.984636,109 439,111.013829 439,113.499568 M451,113.499568 C451,115.986171 448.984636,118 446.5,118 C444.015364,118 442,115.986171 442,113.499568 C442,111.013829 444.015364,109 446.5,109 C448.984636,109 451,111.013829 451,113.499568 M462,113.499568 C462,115.986171 459.983772,118 457.5,118 C455.0145,118 453,115.986171 453,113.499568 C453,111.013829 455.0145,109 457.5,109 C459.983772,109 462,111.013829 462,113.499568 M414,113.499568 C414,115.986171 411.9855,118 409.5,118 C407.015364,118 405,115.986171 405,113.499568 C405,111.013829 407.015364,109 409.5,109 C411.9855,109 414,111.013829 414,113.499568 M402,113.499568 C402,115.986171 399.984636,118 397.5,118 C395.017092,118 393,115.986171 393,113.499568 C393,111.013829 395.017092,109 397.5,109 C399.984636,109 402,111.013829 402,113.499568 M525,113.499568 C525,115.986171 522.983772,118 520.5,118 C518.015364,118 516,115.986171 516,113.499568 C516,111.013829 518.015364,109 520.5,109 C522.983772,109 525,111.013829 525,113.499568 M512,113.499568 C512,115.986171 509.984443,118 507.499568,118 C505.014693,118 503,115.986171 503,113.499568 C503,111.013829 505.014693,109 507.499568,109 C509.984443,109 512,111.013829 512,113.499568 M500,113.499568 C500,115.986171 497.98483,118 495.499568,118 C493.016035,118 491,115.986171 491,113.499568 C491,111.013829 493.016035,109 495.499568,109 C497.98483,109 500,111.013829 500,113.499568 M488,113.499568 C488,115.986171 485.984636,118 483.500864,118 C481.016228,118 479,115.986171 479,113.499568 C479,111.013829 481.016228,109 483.500864,109 C485.984636,109 488,111.013829 488,113.499568 M477,113.499568 C477,115.986171 474.9855,118 472.5,118 C470.017092,118 468,115.986171 468,113.499568 C468,111.013829 470.017092,109 472.5,109 C474.9855,109 477,111.013829 477,113.499568 M560,113.499568 C560,115.986171 557.983965,118 555.499568,118 C553.016035,118 551,115.986171 551,113.499568 C551,111.013829 553.016035,109 555.499568,109 C557.983965,109 560,111.013829 560,113.499568 M573,113.499568 C573,115.986171 570.983772,118 568.5,118 C566.0145,118 564,115.986171 564,113.499568 C564,111.013829 566.0145,109 568.5,109 C570.983772,109 573,111.013829 573,113.499568 M596,113.499568 C596,115.986171 593.983772,118 591.5,118 C589.016228,118 587,115.986171 587,113.499568 C587,111.013829 589.016228,109 591.5,109 C593.983772,109 596,111.013829 596,113.499568 M610,113.499568 C610,115.986171 607.983772,118 605.5,118 C603.015364,118 601,115.986171 601,113.499568 C601,111.013829 603.015364,109 605.5,109 C607.983772,109 610,111.013829 610,113.499568 M548,113.499568 C548,115.986171 545.984443,118 543.499568,118 C541.016422,118 539,115.986171 539,113.499568 C539,111.013829 541.016422,109 543.499568,109 C545.984443,109 548,111.013829 548,113.499568 M536,113.499568 C536,115.986171 533.982908,118 531.5,118 C529.015364,118 527,115.986171 527,113.499568 C527,111.013829 529.015364,109 531.5,109 C533.982908,109 536,111.013829 536,113.499568 M391,126.499136 C391,128.985023 388.983772,131 386.5,131 C384.016228,131 382,128.985023 382,126.499136 C382,124.014977 384.016228,122 386.5,122 C388.983772,122 391,124.014977 391,126.499136 M378,126.499136 C378,128.985023 375.983965,131 373.499568,131 C371.01517,131 369,128.985023 369,126.499136 C369,124.014977 371.01517,122 373.499568,122 C375.983965,122 378,124.014977 378,126.499136 M365,126.499136 C365,128.985023 362.984636,131 360.5,131 C358.015364,131 356,128.985023 356,126.499136 C356,124.014977 358.015364,122 360.5,122 C362.984636,122 365,124.014977 365,126.499136 M353,126.499136 C353,128.985023 350.983295,131 348.499136,131 C346.015841,131 344,128.985023 344,126.499136 C344,124.014977 346.015841,122 348.499136,122 C350.983295,122 353,124.014977 353,126.499136 M426,126.499136 C426,128.985023 423.98483,131 421.499568,131 C419.01517,131 417,128.985023 417,126.499136 C417,124.014977 419.01517,122 421.499568,122 C423.98483,122 426,124.014977 426,126.499136 M439,126.499136 C439,128.985023 436.984636,131 434.499136,131 C432.016228,131 430,128.985023 430,126.499136 C430,124.014977 432.016228,122 434.499136,122 C436.984636,122 439,124.014977 439,126.499136 M451,126.499136 C451,128.985023 448.984636,131 446.5,131 C444.015364,131 442,128.985023 442,126.499136 C442,124.014977 444.015364,122 446.5,122 C448.984636,122 451,124.014977 451,126.499136 M462,126.499136 C462,128.985023 459.983772,131 457.5,131 C455.0145,131 453,128.985023 453,126.499136 C453,124.014977 455.0145,122 457.5,122 C459.983772,122 462,124.014977 462,126.499136 M414,126.499136 C414,128.985023 411.9855,131 409.5,131 C407.015364,131 405,128.985023 405,126.499136 C405,124.014977 407.015364,122 409.5,122 C411.9855,122 414,124.014977 414,126.499136 M402,126.499136 C402,128.985023 399.984636,131 397.5,131 C395.017092,131 393,128.985023 393,126.499136 C393,124.014977 395.017092,122 397.5,122 C399.984636,122 402,124.014977 402,126.499136 M525,126.499136 C525,128.985023 522.983772,131 520.5,131 C518.015364,131 516,128.985023 516,126.499136 C516,124.014977 518.015364,122 520.5,122 C522.983772,122 525,124.014977 525,126.499136 M512,126.499136 C512,128.985023 509.984443,131 507.499568,131 C505.014693,131 503,128.985023 503,126.499136 C503,124.014977 505.014693,122 507.499568,122 C509.984443,122 512,124.014977 512,126.499136 M500,126.499136 C500,128.985023 497.98483,131 495.499568,131 C493.016035,131 491,128.985023 491,126.499136 C491,124.014977 493.016035,122 495.499568,122 C497.98483,122 500,124.014977 500,126.499136 M488,126.499136 C488,128.985023 485.984636,131 483.500864,131 C481.016228,131 479,128.985023 479,126.499136 C479,124.014977 481.016228,122 483.500864,122 C485.984636,122 488,124.014977 488,126.499136 M477,126.499136 C477,128.985023 474.9855,131 472.5,131 C470.017092,131 468,128.985023 468,126.499136 C468,124.014977 470.017092,122 472.5,122 C474.9855,122 477,124.014977 477,126.499136 M548,126.499136 C548,128.985023 545.984443,131 543.499568,131 C541.016422,131 539,128.985023 539,126.499136 C539,124.014977 541.016422,122 543.499568,122 C545.984443,122 548,124.014977 548,126.499136 M536,126.499136 C536,128.985023 533.982908,131 531.5,131 C529.015364,131 527,128.985023 527,126.499136 C527,124.014977 529.015364,122 531.5,122 C533.982908,122 536,124.014977 536,126.499136 M122,77.5 C122,79.9872287 119.984636,82 117.5,82 C115.015364,82 113,79.9872287 113,77.5 C113,75.0153639 115.015364,73 117.5,73 C119.984636,73 122,75.0153639 122,77.5 M110,77.5 C110,79.9872287 107.984636,82 105.500864,82 C103.0145,82 101,79.9872287 101,77.5 C101,75.0153639 103.0145,73 105.500864,73 C107.984636,73 110,75.0153639 110,77.5 M98,77.5 C98,79.9872287 95.9846361,82 93.5,82 C91.0144997,82 89,79.9872287 89,77.5 C89,75.0153639 91.0144997,73 93.5,73 C95.9846361,73 98,75.0153639 98,77.5 M87,77.5 C87,79.9872287 84.9846361,82 82.5,82 C80.0144997,82 78,79.9872287 78,77.5 C78,75.0153639 80.0144997,73 82.5,73 C84.9846361,73 87,75.0153639 87,77.5 M75,77.5 C75,79.9872287 72.9848296,82 70.4995679,82 C68.0151704,82 66,79.9872287 66,77.5 C66,75.0153639 68.0151704,73 70.4995679,73 C72.9848296,73 75,75.0153639 75,77.5 M158,77.5 C158,79.9872287 155.9855,82 153.5,82 C151.015364,82 149,79.9872287 149,77.5 C149,75.0153639 151.015364,73 153.5,73 C155.9855,73 158,75.0153639 158,77.5 M171,77.5 C171,79.9872287 168.986171,82 166.500432,82 C164.015557,82 162,79.9872287 162,77.5 C162,75.0153639 164.015557,73 166.500432,73 C168.986171,73 171,75.0153639 171,77.5 M183,77.5 C183,79.9872287 180.984636,82 178.5,82 C176.0145,82 174,79.9872287 174,77.5 C174,75.0153639 176.0145,73 178.5,73 C180.984636,73 183,75.0153639 183,77.5 M196,77.5 C196,79.9872287 193.9855,82 191.5,82 C189.013635,82 187,79.9872287 187,77.5 C187,75.0153639 189.013635,73 191.5,73 C193.9855,73 196,75.0153639 196,77.5 M209,77.5 C209,79.9872287 206.984636,82 204.5,82 C202.0145,82 200,79.9872287 200,77.5 C200,75.0153639 202.0145,73 204.5,73 C206.984636,73 209,75.0153639 209,77.5 M146,77.5 C146,79.9872287 143.98483,82 141.499568,82 C139.01517,82 137,79.9872287 137,77.5 C137,75.0153639 139.01517,73 141.499568,73 C143.98483,73 146,75.0153639 146,77.5 M135,77.5 C135,79.9872287 132.9855,82 130.5,82 C128.015364,82 126,79.9872287 126,77.5 C126,75.0153639 128.015364,73 130.5,73 C132.9855,73 135,75.0153639 135,77.5 M158,65.4995679 C158,67.9856937 155.9855,70 153.5,70 C151.015364,70 149,67.9856937 149,65.4995679 C149,63.0143063 151.015364,61 153.5,61 C155.9855,61 158,63.0143063 158,65.4995679 M171,65.4995679 C171,67.9856937 168.986171,70 166.500432,70 C164.015557,70 162,67.9856937 162,65.4995679 C162,63.0143063 164.015557,61 166.500432,61 C168.986171,61 171,63.0143063 171,65.4995679 M183,65.4995679 C183,67.9856937 180.984636,70 178.5,70 C176.0145,70 174,67.9856937 174,65.4995679 C174,63.0143063 176.0145,61 178.5,61 C180.984636,61 183,63.0143063 183,65.4995679 M196,65.4995679 C196,67.9856937 193.9855,70 191.5,70 C189.013635,70 187,67.9856937 187,65.4995679 C187,63.0143063 189.013635,61 191.5,61 C193.9855,61 196,63.0143063 196,65.4995679 M209,65.4995679 C209,67.9856937 206.984636,70 204.5,70 C202.0145,70 200,67.9856937 200,65.4995679 C200,63.0143063 202.0145,61 204.5,61 C206.984636,61 209,63.0143063 209,65.4995679 M146,65.4995679 C146,67.9856937 143.98483,70 141.499568,70 C139.01517,70 137,67.9856937 137,65.4995679 C137,63.0143063 139.01517,61 141.499568,61 C143.98483,61 146,63.0143063 146,65.4995679 M135,65.4995679 C135,67.9856937 132.9855,70 130.5,70 C128.015364,70 126,67.9856937 126,65.4995679 C126,63.0143063 128.015364,61 130.5,61 C132.9855,61 135,63.0143063 135,65.4995679 M158,52.4995679 C158,54.9856937 155.9855,57 153.5,57 C151.015364,57 149,54.9856937 149,52.4995679 C149,50.0143063 151.015364,48 153.5,48 C155.9855,48 158,50.0143063 158,52.4995679 M171,52.4995679 C171,54.9856937 168.986171,57 166.500432,57 C164.015557,57 162,54.9856937 162,52.4995679 C162,50.0143063 164.015557,48 166.500432,48 C168.986171,48 171,50.0143063 171,52.4995679 M183,52.4995679 C183,54.9856937 180.984636,57 178.5,57 C176.0145,57 174,54.9856937 174,52.4995679 C174,50.0143063 176.0145,48 178.5,48 C180.984636,48 183,50.0143063 183,52.4995679 M196,52.4995679 C196,54.9856937 193.9855,57 191.5,57 C189.013635,57 187,54.9856937 187,52.4995679 C187,50.0143063 189.013635,48 191.5,48 C193.9855,48 196,50.0143063 196,52.4995679 M146,52.4995679 C146,54.9856937 143.98483,57 141.499568,57 C139.01517,57 137,54.9856937 137,52.4995679 C137,50.0143063 139.01517,48 141.499568,48 C143.98483,48 146,50.0143063 146,52.4995679 M158,42.5 C158,44.9855003 155.9855,47 153.5,47 C151.015364,47 149,44.9855003 149,42.5 C149,40.0144997 151.015364,38 153.5,38 C155.9855,38 158,40.0144997 158,42.5 M171,42.5 C171,44.9855003 168.986171,47 166.500432,47 C164.015557,47 162,44.9855003 162,42.5 C162,40.0144997 164.015557,38 166.500432,38 C168.986171,38 171,40.0144997 171,42.5 M183,42.5 C183,44.9855003 180.984636,47 178.5,47 C176.0145,47 174,44.9855003 174,42.5 C174,40.0144997 176.0145,38 178.5,38 C180.984636,38 183,40.0144997 183,42.5 M196,42.5 C196,44.9855003 193.9855,47 191.5,47 C189.013635,47 187,44.9855003 187,42.5 C187,40.0144997 189.013635,38 191.5,38 C193.9855,38 196,40.0144997 196,42.5 M146,42.5 C146,44.9855003 143.98483,47 141.499568,47 C139.01517,47 137,44.9855003 137,42.5 C137,40.0144997 139.01517,38 141.499568,38 C143.98483,38 146,40.0144997 146,42.5 M158,29.4991359 C158,31.985023 155.9855,34 153.5,34 C151.015364,34 149,31.985023 149,29.4991359 C149,27.0141129 151.015364,25 153.5,25 C155.9855,25 158,27.0141129 158,29.4991359 M171,29.4991359 C171,31.985023 168.986171,34 166.500432,34 C164.015557,34 162,31.985023 162,29.4991359 C162,27.0141129 164.015557,25 166.500432,25 C168.986171,25 171,27.0141129 171,29.4991359 M183,29.4991359 C183,31.985023 180.984636,34 178.5,34 C176.0145,34 174,31.985023 174,29.4991359 C174,27.0141129 176.0145,25 178.5,25 C180.984636,25 183,27.0141129 183,29.4991359 M196,29.4991359 C196,31.985023 193.9855,34 191.5,34 C189.013635,34 187,31.985023 187,29.4991359 C187,27.0141129 189.013635,25 191.5,25 C193.9855,25 196,27.0141129 196,29.4991359 M146,29.4991359 C146,31.985023 143.98483,34 141.499568,34 C139.01517,34 137,31.985023 137,29.4991359 C137,27.0141129 139.01517,25 141.499568,25 C143.98483,25 146,27.0141129 146,29.4991359 M220,29.4991359 C220,31.985023 217.984636,34 215.5,34 C213.015364,34 211,31.985023 211,29.4991359 C211,27.0141129 213.015364,25 215.5,25 C217.984636,25 220,27.0141129 220,29.4991359 M235,29.4991359 C235,31.985023 232.98483,34 230.499568,34 C228.01517,34 226,31.985023 226,29.4991359 C226,27.0141129 228.01517,25 230.499568,25 C232.98483,25 235,27.0141129 235,29.4991359 M246,29.4991359 C246,31.985023 243.984636,34 241.5,34 C239.015364,34 237,31.985023 237,29.4991359 C237,27.0141129 239.015364,25 241.5,25 C243.984636,25 246,27.0141129 246,29.4991359 M258,29.4991359 C258,31.985023 255.986365,34 253.5,34 C251.015364,34 249,31.985023 249,29.4991359 C249,27.0141129 251.015364,25 253.5,25 C255.986365,25 258,27.0141129 258,29.4991359 M270,29.4991359 C270,31.985023 267.9855,34 265.5,34 C263.015364,34 261,31.985023 261,29.4991359 C261,27.0141129 263.015364,25 265.5,25 C267.9855,25 270,27.0141129 270,29.4991359 M282,29.4991359 C282,31.985023 279.984636,34 277.500864,34 C275.015364,34 273,31.985023 273,29.4991359 C273,27.0141129 275.015364,25 277.500864,25 C279.984636,25 282,27.0141129 282,29.4991359 M293,29.4991359 C293,31.985023 290.985307,34 288.499568,34 C286.014693,34 284,31.985023 284,29.4991359 C284,27.0141129 286.014693,25 288.499568,25 C290.985307,25 293,27.0141129 293,29.4991359 M220,42.5 C220,44.9855003 217.984636,47 215.5,47 C213.015364,47 211,44.9855003 211,42.5 C211,40.0144997 213.015364,38 215.5,38 C217.984636,38 220,40.0144997 220,42.5 M235,42.5 C235,44.9855003 232.98483,47 230.499568,47 C228.01517,47 226,44.9855003 226,42.5 C226,40.0144997 228.01517,38 230.499568,38 C232.98483,38 235,40.0144997 235,42.5 M246,42.5 C246,44.9855003 243.984636,47 241.5,47 C239.015364,47 237,44.9855003 237,42.5 C237,40.0144997 239.015364,38 241.5,38 C243.984636,38 246,40.0144997 246,42.5 M258,42.5 C258,44.9855003 255.986365,47 253.5,47 C251.015364,47 249,44.9855003 249,42.5 C249,40.0144997 251.015364,38 253.5,38 C255.986365,38 258,40.0144997 258,42.5 M270,42.5 C270,44.9855003 267.9855,47 265.5,47 C263.015364,47 261,44.9855003 261,42.5 C261,40.0144997 263.015364,38 265.5,38 C267.9855,38 270,40.0144997 270,42.5 M282,42.5 C282,44.9855003 279.984636,47 277.500864,47 C275.015364,47 273,44.9855003 273,42.5 C273,40.0144997 275.015364,38 277.500864,38 C279.984636,38 282,40.0144997 282,42.5 M293,42.5 C293,44.9855003 290.985307,47 288.499568,47 C286.014693,47 284,44.9855003 284,42.5 C284,40.0144997 286.014693,38 288.499568,38 C290.985307,38 293,40.0144997 293,42.5 M246,51.5 C246,53.9863645 243.984636,56 241.5,56 C239.015364,56 237,53.9863645 237,51.5 C237,49.0144997 239.015364,47 241.5,47 C243.984636,47 246,49.0144997 246,51.5 M258,51.5 C258,53.9863645 255.986365,56 253.5,56 C251.015364,56 249,53.9863645 249,51.5 C249,49.0144997 251.015364,47 253.5,47 C255.986365,47 258,49.0144997 258,51.5 M270,51.5 C270,53.9863645 267.9855,56 265.5,56 C263.015364,56 261,53.9863645 261,51.5 C261,49.0144997 263.015364,47 265.5,47 C267.9855,47 270,49.0144997 270,51.5 M282,51.5 C282,53.9863645 279.984636,56 277.500864,56 C275.015364,56 273,53.9863645 273,51.5 C273,49.0144997 275.015364,47 277.500864,47 C279.984636,47 282,49.0144997 282,51.5 M293,51.5 C293,53.9863645 290.985307,56 288.499568,56 C286.014693,56 284,53.9863645 284,51.5 C284,49.0144997 286.014693,47 288.499568,47 C290.985307,47 293,49.0144997 293,51.5 M246,65.4995679 C246,67.9856937 243.984636,70 241.5,70 C239.015364,70 237,67.9856937 237,65.4995679 C237,63.0143063 239.015364,61 241.5,61 C243.984636,61 246,63.0143063 246,65.4995679 M258,65.4995679 C258,67.9856937 255.986365,70 253.5,70 C251.015364,70 249,67.9856937 249,65.4995679 C249,63.0143063 251.015364,61 253.5,61 C255.986365,61 258,63.0143063 258,65.4995679 M270,65.4995679 C270,67.9856937 267.9855,70 265.5,70 C263.015364,70 261,67.9856937 261,65.4995679 C261,63.0143063 263.015364,61 265.5,61 C267.9855,61 270,63.0143063 270,65.4995679 M282,65.4995679 C282,67.9856937 279.984636,70 277.500864,70 C275.015364,70 273,67.9856937 273,65.4995679 C273,63.0143063 275.015364,61 277.500864,61 C279.984636,61 282,63.0143063 282,65.4995679 M293,65.4995679 C293,67.9856937 290.985307,70 288.499568,70 C286.014693,70 284,67.9856937 284,65.4995679 C284,63.0143063 286.014693,61 288.499568,61 C290.985307,61 293,63.0143063 293,65.4995679 M246,77.5 C246,79.9872287 243.984636,82 241.5,82 C239.015364,82 237,79.9872287 237,77.5 C237,75.0153639 239.015364,73 241.5,73 C243.984636,73 246,75.0153639 246,77.5 M258,77.5 C258,79.9872287 255.986365,82 253.5,82 C251.015364,82 249,79.9872287 249,77.5 C249,75.0153639 251.015364,73 253.5,73 C255.986365,73 258,75.0153639 258,77.5 M270,77.5 C270,79.9872287 267.9855,82 265.5,82 C263.015364,82 261,79.9872287 261,77.5 C261,75.0153639 263.015364,73 265.5,73 C267.9855,73 270,75.0153639 270,77.5 M282,77.5 C282,79.9872287 279.984636,82 277.500864,82 C275.015364,82 273,79.9872287 273,77.5 C273,75.0153639 275.015364,73 277.500864,73 C279.984636,73 282,75.0153639 282,77.5 M293,77.5 C293,79.9872287 290.985307,82 288.499568,82 C286.014693,82 284,79.9872287 284,77.5 C284,75.0153639 286.014693,73 288.499568,73 C290.985307,73 293,75.0153639 293,77.5 M246,89.5 C246,91.9863645 243.984636,94 241.5,94 C239.015364,94 237,91.9863645 237,89.5 C237,87.0136355 239.015364,85 241.5,85 C243.984636,85 246,87.0136355 246,89.5 M258,89.5 C258,91.9863645 255.986365,94 253.5,94 C251.015364,94 249,91.9863645 249,89.5 C249,87.0136355 251.015364,85 253.5,85 C255.986365,85 258,87.0136355 258,89.5 M270,89.5 C270,91.9863645 267.9855,94 265.5,94 C263.015364,94 261,91.9863645 261,89.5 C261,87.0136355 263.015364,85 265.5,85 C267.9855,85 270,87.0136355 270,89.5 M246,100.500864 C246,102.986365 243.984636,105 241.5,105 C239.015364,105 237,102.986365 237,100.500864 C237,98.0144997 239.015364,96 241.5,96 C243.984636,96 246,98.0144997 246,100.500864 M258,100.500864 C258,102.986365 255.986365,105 253.5,105 C251.015364,105 249,102.986365 249,100.500864 C249,98.0144997 251.015364,96 253.5,96 C255.986365,96 258,98.0144997 258,100.500864 M258,113.499568 C258,115.986171 255.986365,118 253.5,118 C251.015364,118 249,115.986171 249,113.499568 C249,111.013829 251.015364,109 253.5,109 C255.986365,109 258,111.013829 258,113.499568 M270,100.500864 C270,102.986365 267.9855,105 265.5,105 C263.015364,105 261,102.986365 261,100.500864 C261,98.0144997 263.015364,96 265.5,96 C267.9855,96 270,98.0144997 270,100.500864 M293,100.500864 C293,102.986365 290.985307,105 288.499568,105 C286.014693,105 284,102.986365 284,100.500864 C284,98.0144997 286.014693,96 288.499568,96 C290.985307,96 293,98.0144997 293,100.500864 M305,100.500864 C305,102.986365 302.986365,105 300.5,105 C298.0145,105 296,102.986365 296,100.500864 C296,98.0144997 298.0145,96 300.5,96 C302.986365,96 305,98.0144997 305,100.500864 M282,89.5 C282,91.9863645 279.984636,94 277.500864,94 C275.015364,94 273,91.9863645 273,89.5 C273,87.0136355 275.015364,85 277.500864,85 C279.984636,85 282,87.0136355 282,89.5 M235,16.5004321 C235,18.9848296 232.98483,21 230.499568,21 C228.01517,21 226,18.9848296 226,16.5004321 C226,14.0151704 228.01517,12 230.499568,12 C232.98483,12 235,14.0151704 235,16.5004321 M246,16.5004321 C246,18.9848296 243.984636,21 241.5,21 C239.015364,21 237,18.9848296 237,16.5004321 C237,14.0151704 239.015364,12 241.5,12 C243.984636,12 246,14.0151704 246,16.5004321 M258,16.5004321 C258,18.9848296 255.986365,21 253.5,21 C251.015364,21 249,18.9848296 249,16.5004321 C249,14.0151704 251.015364,12 253.5,12 C255.986365,12 258,14.0151704 258,16.5004321 M270,16.5004321 C270,18.9848296 267.9855,21 265.5,21 C263.015364,21 261,18.9848296 261,16.5004321 C261,14.0151704 263.015364,12 265.5,12 C267.9855,12 270,14.0151704 270,16.5004321 M282,16.5004321 C282,18.9848296 279.984636,21 277.500864,21 C275.015364,21 273,18.9848296 273,16.5004321 C273,14.0151704 275.015364,12 277.500864,12 C279.984636,12 282,14.0151704 282,16.5004321 M258,4.5 C258,6.98636451 255.986365,9 253.5,9 C251.015364,9 249,6.98636451 249,4.5 C249,2.01449971 251.015364,0 253.5,0 C255.986365,0 258,2.01449971 258,4.5 M270,4.5 C270,6.98636451 267.9855,9 265.5,9 C263.015364,9 261,6.98636451 261,4.5 C261,2.01449971 263.015364,0 265.5,0 C267.9855,0 270,2.01449971 270,4.5 M282,4.5 C282,6.98636451 279.984636,9 277.500864,9 C275.015364,9 273,6.98636451 273,4.5 C273,2.01449971 275.015364,0 277.500864,0 C279.984636,0 282,2.01449971 282,4.5 M293,16.5004321 C293,18.9848296 290.985307,21 288.499568,21 C286.014693,21 284,18.9848296 284,16.5004321 C284,14.0151704 286.014693,12 288.499568,12 C290.985307,12 293,14.0151704 293,16.5004321 M354,29.4991359 C354,31.985023 351.983965,34 349.500432,34 C347.01517,34 345,31.985023 345,29.4991359 C345,27.0141129 347.01517,25 349.500432,25 C351.983965,25 354,27.0141129 354,29.4991359 M354,16.5004321 C354,18.9848296 351.983965,21 349.500432,21 C347.01517,21 345,18.9848296 345,16.5004321 C345,14.0151704 347.01517,12 349.500432,12 C351.983965,12 354,14.0151704 354,16.5004321 M209,29.4991359 C209,31.985023 206.984636,34 204.5,34 C202.0145,34 200,31.985023 200,29.4991359 C200,27.0141129 202.0145,25 204.5,25 C206.984636,25 209,27.0141129 209,29.4991359 M183,16.5004321 C183,18.9848296 180.984636,21 178.5,21 C176.0145,21 174,18.9848296 174,16.5004321 C174,14.0151704 176.0145,12 178.5,12 C180.984636,12 183,14.0151704 183,16.5004321 M196,16.5004321 C196,18.9848296 193.9855,21 191.5,21 C189.013635,21 187,18.9848296 187,16.5004321 C187,14.0151704 189.013635,12 191.5,12 C193.9855,12 196,14.0151704 196,16.5004321 M209,16.5004321 C209,18.9848296 206.984636,21 204.5,21 C202.0145,21 200,18.9848296 200,16.5004321 C200,14.0151704 202.0145,12 204.5,12 C206.984636,12 209,14.0151704 209,16.5004321 M196,4.5 C196,6.98636451 193.9855,9 191.5,9 C189.013635,9 187,6.98636451 187,4.5 C187,2.01449971 189.013635,0 191.5,0 C193.9855,0 196,2.01449971 196,4.5 M209,4.5 C209,6.98636451 206.984636,9 204.5,9 C202.0145,9 200,6.98636451 200,4.5 C200,2.01449971 202.0145,0 204.5,0 C206.984636,0 209,2.01449971 209,4.5 M135,52.4995679 C135,54.9856937 132.9855,57 130.5,57 C128.015364,57 126,54.9856937 126,52.4995679 C126,50.0143063 128.015364,48 130.5,48 C132.9855,48 135,50.0143063 135,52.4995679 M171,127.499568 C171,129.986558 168.986171,132 166.500432,132 C164.015557,132 162,129.986558 162,127.499568 C162,125.01517 164.015557,123 166.500432,123 C168.986171,123 171,125.01517 171,127.499568 M159,127.499568 C159,129.986558 156.983965,132 154.499568,132 C152.014306,132 150,129.986558 150,127.499568 C150,125.01517 152.014306,123 154.499568,123 C156.983965,123 159,125.01517 159,127.499568 M148,127.499568 C148,129.986558 145.98483,132 143.500432,132 C141.01517,132 139,129.986558 139,127.499568 C139,125.01517 141.01517,123 143.500432,123 C145.98483,123 148,125.01517 148,127.499568 M136,127.499568 C136,129.986558 133.9855,132 131.5,132 C129.015364,132 127,129.986558 127,127.499568 C127,125.01517 129.015364,123 131.5,123 C133.9855,123 136,125.01517 136,127.499568 M122,127.499568 C122,129.986558 119.984636,132 117.5,132 C115.015364,132 113,129.986558 113,127.499568 C113,125.01517 115.015364,123 117.5,123 C119.984636,123 122,125.01517 122,127.499568 M207,127.499568 C207,129.986558 204.985694,132 202.499568,132 C200.01517,132 198,129.986558 198,127.499568 C198,125.01517 200.01517,123 202.499568,123 C204.985694,123 207,125.01517 207,127.499568 M207,113.5 C207,115.986365 204.985694,118 202.499568,118 C200.01517,118 198,115.986365 198,113.5 C198,111.0145 200.01517,109 202.499568,109 C204.985694,109 207,111.0145 207,113.5 M207,101.5 C207,103.986365 204.985694,106 202.499568,106 C200.01517,106 198,103.986365 198,101.5 C198,99.0136355 200.01517,97 202.499568,97 C204.985694,97 207,99.0136355 207,101.5 M207,89.5 C207,91.9863645 204.985694,94 202.499568,94 C200.01517,94 198,91.9863645 198,89.5 C198,87.0153639 200.01517,85 202.499568,85 C204.985694,85 207,87.0153639 207,89.5 M220,113.5 C220,115.986365 217.984636,118 215.5,118 C213.015364,118 211,115.986365 211,113.5 C211,111.0145 213.015364,109 215.5,109 C217.984636,109 220,111.0145 220,113.5 M220,101.5 C220,103.986365 217.984636,106 215.5,106 C213.015364,106 211,103.986365 211,101.5 C211,99.0136355 213.015364,97 215.5,97 C217.984636,97 220,99.0136355 220,101.5 M220,89.5 C220,91.9863645 217.984636,94 215.5,94 C213.015364,94 211,91.9863645 211,89.5 C211,87.0153639 213.015364,85 215.5,85 C217.984636,85 220,87.0153639 220,89.5 M220,127.499568 C220,129.986558 217.984636,132 215.5,132 C213.015364,132 211,129.986558 211,127.499568 C211,125.01517 213.015364,123 215.5,123 C217.984636,123 220,125.01517 220,127.499568 M232,127.499568 C232,129.986558 229.984636,132 227.5,132 C225.013635,132 223,129.986558 223,127.499568 C223,125.01517 225.013635,123 227.5,123 C229.984636,123 232,125.01517 232,127.499568 M183,127.499568 C183,129.986558 180.984636,132 178.5,132 C176.0145,132 174,129.986558 174,127.499568 C174,125.01517 176.0145,123 178.5,123 C180.984636,123 183,125.01517 183,127.499568 M196,188.499568 C196,190.986558 193.9855,193 191.5,193 C189.013635,193 187,190.986558 187,188.499568 C187,186.01517 189.013635,184 191.5,184 C193.9855,184 196,186.01517 196,188.499568 M232,224.499568 C232,226.986558 229.9855,229 227.5,229 C225.015364,229 223,226.986558 223,224.499568 C223,222.01517 225.015364,220 227.5,220 C229.9855,220 232,222.01517 232,224.499568 M244,235.501296 C244,237.986171 241.9855,240 239.5,240 C237.015364,240 235,237.986171 235,235.501296 C235,233.014693 237.015364,231 239.5,231 C241.9855,231 244,233.014693 244,235.501296 M244,249.500864 C244,251.987229 241.9855,254 239.5,254 C237.015364,254 235,251.987229 235,249.500864 C235,247.016228 237.015364,245 239.5,245 C241.9855,245 244,247.016228 244,249.500864 M258,249.500864 C258,251.987229 255.984636,254 253.5,254 C251.015364,254 249,251.987229 249,249.500864 C249,247.016228 251.015364,245 253.5,245 C255.984636,245 258,247.016228 258,249.500864 M269,249.500864 C269,251.987229 266.985023,254 264.500864,254 C262.014977,254 260,251.987229 260,249.500864 C260,247.016228 262.014977,245 264.500864,245 C266.985023,245 269,247.016228 269,249.500864 M220,347.500864 C220,349.985113 217.9855,352 215.5,352 C213.0145,352 211,349.985113 211,347.500864 C211,345.013158 213.0145,343 215.5,343 C217.9855,343 220,345.013158 220,347.500864" id="Fill-1" fill="#C6C6C6"></path>
                <text id="潘多拉星球將在全球徵集100个超級節點，" font-family="PingFangSC-Light, PingFang SC" font-size="30" font-weight="300" line-spacing="54" letter-spacing="1.25">
                    <tspan x="0" y="432" fill="#FFFFFF">潘多拉星球將在全球徵集100个超級節點</tspan>
                    <tspan x="551.63" y="432" letter-spacing="1.15" fill="#FFFFFF">，</tspan>
                    <tspan x="582.78" y="432" fill="#FFFFFF">1000个</tspan>
                    <tspan x="0" y="486" fill="#FFFFFF">節點</tspan>
                    <tspan x="0" y="540" fill="#FFFFFF"></tspan>
                    <tspan x="0" y="594" fill="#FFFFFF">我們誠意邀請各個國家的同性戀公益組織、同性戀</tspan>
                    <tspan x="0" y="648" fill="#FFFFFF">酒吧、同性戀名人</tspan>
                    <tspan x="250" y="648" letter-spacing="0.95" fill="#FFFFFF">、</tspan>
                    <tspan x="280.95" y="648" fill="#FFFFFF">明星、企業家、區塊鏈投資機</tspan>
                    <tspan x="0" y="702" fill="#FFFFFF">構、區塊鏈交易所、區塊鏈技術公司等加我們。共</tspan>
                    <tspan x="0" y="756" fill="#FFFFFF">同建造一個完美自由真正屬於我們自己星球</tspan>
                    <tspan x="0" y="810" fill="#FFFFFF"></tspan>
                    <tspan x="0" y="864" fill="#FFFFFF"></tspan>
                    <tspan x="0" y="918" fill="#FFFFFF"></tspan>
                    <tspan x="0" y="972" fill="#FFFFFF">郵箱：</tspan>
                    <tspan x="93.75" y="972" fill="#007AFF">doc@pandla.io</tspan>
                    <tspan x="0" y="1026" fill="#FFFFFF">Facebook: </tspan>
                    <tspan x="164" y="1026" fill="#007AFF">Pandla Planet</tspan>
                    <tspan x="368.41" y="1026" fill="#FFFFFF"></tspan>
                    <tspan x="0" y="1080" fill="#FFFFFF">微信公眾號: </tspan>
                    <tspan x="176.48" y="1080" fill="#007AFF">PANDLA</tspan>
                </text>
            </g>
        </g>
    </g>
</svg>