<?xml version="1.0" encoding="UTF-8"?>
<svg width="25px" height="25px" viewBox="0 0 25 25" version="1.1" xmlns="http://www.w3.org/2000/svg" xmlns:xlink="http://www.w3.org/1999/xlink">
    <!-- Generator: Sketch 54.1 (76490) - https://sketchapp.com -->
    <title>qianbao</title>
    <desc>Created with Sketch.</desc>
    <g id="我的" stroke="none" stroke-width="1" fill="none" fill-rule="evenodd">
        <g transform="translate(-76.000000, -273.000000)" fill="#FFFFFF" fill-rule="nonzero" id="qianbao">
            <g transform="translate(76.000000, 273.000000)">
                <path d="M22.1757679,6.43344709 L2.82423208,6.43344709 C1.27046221,6.43657655 0.0116618768,7.69537688 0.00853242187,9.24914675 L0.00853242187,22.1843003 C0.0116618768,23.7380702 1.27046221,24.9968705 2.82423208,25 L22.1643914,25 C23.7181612,24.9968705 24.9769616,23.7380702 24.980091,22.1843003 L24.980091,9.24914675 C24.9769956,7.6997963 23.7250931,6.44281509 22.1757679,6.43344709 Z M22.1757679,24.2036405 L2.82423208,24.2036405 C1.70963084,24.2020739 0.806458472,23.2989016 0.804891919,22.1843003 L0.804891919,9.24914675 C0.806458472,8.13454551 1.70963084,7.23137315 2.82423208,7.22980659 L22.1643914,7.22980659 C23.2789926,7.23137315 24.182165,8.13454551 24.1837315,9.24914675 L24.1837315,11.9453925 L19.2263936,11.9453925 C17.7489435,11.9469601 16.5516245,13.1442791 16.5500569,14.6217292 L16.5500569,16.8174062 C16.5516245,18.2948563 17.7489435,19.4921753 19.2263936,19.4937429 L24.1837315,19.4937429 L24.1837315,22.1843003 C24.1806391,23.293373 23.2848175,24.1930013 22.1757679,24.2007964 L22.1757679,24.2036405 Z M24.1837315,18.6945393 L19.2263936,18.6945393 C18.1932059,18.6867366 17.3593242,17.8477781 17.3577929,16.814562 L17.3577929,14.616041 C17.3593592,13.5784077 18.2001369,12.73763 19.2377702,12.7360637 L24.1837315,12.7360637 L24.1837315,18.6945393 Z" id="形状"></path>
                <path d="M18.7059158,15.7167236 C18.7058637,16.0276891 18.871732,16.3150554 19.1410273,16.4705532 C19.4103227,16.626051 19.7421233,16.626051 20.0114187,16.4705532 C20.280714,16.3150554 20.4465822,16.0276891 20.4465302,15.7167236 C20.4465822,15.405758 20.280714,15.1183918 20.0114187,14.962894 C19.7421233,14.8073962 19.4103227,14.8073962 19.1410273,14.962894 C18.871732,15.1183918 18.7058637,15.405758 18.7059158,15.7167236 Z" id="路径"></path>
                <path d="M5.03981797,5.36689419 C5.08839032,5.3671704 5.1365977,5.35849307 5.18202502,5.34129692 L16.7007964,0.952787256 C17.8945569,0.490688977 19.2370607,1.08240869 19.7013652,2.27531287 L20.7906712,5.11945393 C20.8776515,5.31134405 21.0990567,5.40226666 21.2957939,5.32688843 C21.4925311,5.2515102 21.5964997,5.0359233 21.532992,4.83503982 L20.4465302,1.99089875 C19.820797,0.390606279 18.0215336,-0.405539215 16.4163823,0.20762229 L4.89761091,4.59613196 C4.71729028,4.66410613 4.61152662,4.85145529 4.6464913,5.04096384 C4.68145597,5.23047239 4.84711276,5.36774397 5.03981797,5.36689419 Z" id="路径"></path>
            </g>
        </g>
    </g>
</svg>